<?xml version="1.0" encoding="utf-8"?>
<!-- Generator: Adobe Illustrator 28.1.0, SVG Export Plug-In . SVG Version: 6.00 Build 0)  -->
<svg version="1.1" id="Layer_1" xmlns="http://www.w3.org/2000/svg" xmlns:xlink="http://www.w3.org/1999/xlink" x="0px" y="0px"
	 viewBox="0 0 504 504" style="enable-background:new 0 0 504 504;" xml:space="preserve">
<style type="text/css">
	.st0{fill:none;}
	
		.st1{clip-path:url(#SVGID_00000091015610979962318690000017824657051137782192_);fill:#C54E00;stroke:#000000;stroke-width:0.17;stroke-miterlimit:10;}
	
		.st2{clip-path:url(#SVGID_00000021803143048216787140000014378520013920861117_);fill:#757176;stroke:#000000;stroke-width:0.17;stroke-miterlimit:10;}
	
		.st3{clip-path:url(#SVGID_00000041273879765231507710000008350442293496341667_);fill:#F7BB00;stroke:#000000;stroke-width:0.17;stroke-miterlimit:10;}
	
		.st4{clip-path:url(#SVGID_00000063593918442720453270000005592506659755396009_);fill:#757176;stroke:#000000;stroke-width:0.17;stroke-miterlimit:10;}
	
		.st5{clip-path:url(#SVGID_00000141445547953203271970000006658661330156458424_);fill:#C54E00;stroke:#000000;stroke-width:0.17;stroke-miterlimit:10;}
	
		.st6{clip-path:url(#SVGID_00000090253116205028883840000007393079619063263618_);fill:#757176;stroke:#000000;stroke-width:0.17;stroke-miterlimit:10;}
	
		.st7{clip-path:url(#SVGID_00000036210444758872887490000010180100671354280111_);fill:#F7BB00;stroke:#000000;stroke-width:0.17;stroke-miterlimit:10;}
	
		.st8{clip-path:url(#SVGID_00000181794957904516710730000009142202296555466381_);fill:#757176;stroke:#000000;stroke-width:0.17;stroke-miterlimit:10;}
	
		.st9{clip-path:url(#SVGID_00000000910279150973387350000002149427843027633588_);fill:#C54E00;stroke:#000000;stroke-width:0.17;stroke-miterlimit:10;}
	
		.st10{clip-path:url(#SVGID_00000033355711277863924590000015219348307085727117_);fill:#757176;stroke:#000000;stroke-width:0.17;stroke-miterlimit:10;}
	
		.st11{clip-path:url(#SVGID_00000029046316791535630720000002156896828243367336_);fill:#F7BB00;stroke:#000000;stroke-width:0.17;stroke-miterlimit:10;}
	
		.st12{clip-path:url(#SVGID_00000053513126813683455080000009035668609934261689_);fill:#757176;stroke:#000000;stroke-width:0.17;stroke-miterlimit:10;}
	
		.st13{clip-path:url(#SVGID_00000080183440988515467000000015816269844425038983_);fill:#FFFFFF;stroke:#FFFFFF;stroke-width:0.17;stroke-miterlimit:10;}
	
		.st14{clip-path:url(#SVGID_00000028327128499316167930000008779549455571198853_);fill:#FFFFFF;stroke:#FFFFFF;stroke-width:0.17;stroke-miterlimit:10;}
	
		.st15{clip-path:url(#SVGID_00000179638118557626943500000009628939108566030002_);fill:#FFFFFF;stroke:#FFFFFF;stroke-width:0.17;stroke-miterlimit:10;}
	
		.st16{clip-path:url(#SVGID_00000134211835104529614040000003059360043009968816_);fill:#FFFFFF;stroke:#FFFFFF;stroke-width:0.17;stroke-miterlimit:10;}
	.st17{clip-path:url(#SVGID_00000121963345027820927830000016562415788539540658_);enable-background:new    ;}
	.st18{font-family:'ArialMT';}
	.st19{font-size:18.49px;}
	.st20{clip-path:url(#SVGID_00000119831402364353433300000002949957198518032269_);enable-background:new    ;}
	.st21{clip-path:url(#SVGID_00000012446148915640158270000016873295211563527867_);enable-background:new    ;}
	.st22{clip-path:url(#SVGID_00000021802880017117405950000002083537227798667403_);enable-background:new    ;}
	.st23{clip-path:url(#SVGID_00000052820577295853662070000004328852785037407645_);enable-background:new    ;}
	.st24{clip-path:url(#SVGID_00000004543946673110056500000012206826982159073958_);enable-background:new    ;}
	.st25{clip-path:url(#SVGID_00000125596921677934874690000001889331080662074291_);enable-background:new    ;}
	.st26{clip-path:url(#SVGID_00000076587625554411561530000015868872552286858388_);enable-background:new    ;}
	.st27{clip-path:url(#SVGID_00000119078345351811631810000012782120776589113022_);enable-background:new    ;}
	.st28{clip-path:url(#SVGID_00000050629685203905541230000001551078331241587613_);enable-background:new    ;}
	.st29{clip-path:url(#SVGID_00000105395212416487403330000004995449234836549820_);enable-background:new    ;}
	.st30{font-size:100px;}
	.st31{enable-background:new    ;}
</style>
<g transform="translate(250, 260)">
</g>
<g>
	<rect y="0" class="st0" width="504" height="504"/>
	<g>
		<defs>
			<rect id="SVGID_1_" y="0" width="504" height="504"/>
		</defs>
		<clipPath id="SVGID_00000165943723018338545000000009075818125332905900_">
			<use xlink:href="#SVGID_1_"  style="overflow:visible;"/>
		</clipPath>
		
			<polygon style="clip-path:url(#SVGID_00000165943723018338545000000009075818125332905900_);fill:#C54E00;stroke:#000000;stroke-width:0.17;stroke-miterlimit:10;" points="
			302.4,252 309.6,252 316.8,252 324,252 331.2,252 338.4,252 345.6,252 352.8,252 352.6,245.1 351.9,238.3 350.7,231.5 
			349.1,224.8 347,218.2 344.5,211.8 341.5,205.6 338.1,199.6 334.4,193.9 330.2,188.4 325.7,183.2 320.8,178.3 315.6,173.8 
			310.1,169.6 304.4,165.9 298.4,162.5 292.2,159.6 285.8,157 279.2,154.9 272.5,153.3 265.7,152.1 258.9,151.4 252,151.2 
			252,158.4 252,165.6 252,172.8 252,180 252,187.2 252,194.4 252,201.6 259.2,202.1 266.2,203.6 272.9,206.1 279.2,209.6 
			285,213.9 290.1,219 294.4,224.8 297.9,231.1 300.4,237.8 301.9,244.8 		"/>
	</g>
	<g>
		<defs>
			<rect id="SVGID_00000057840530630167067350000006301344923088252329_" y="0" width="504" height="504"/>
		</defs>
		<clipPath id="SVGID_00000108273221098120391570000004030431152639851142_">
			<use xlink:href="#SVGID_00000057840530630167067350000006301344923088252329_"  style="overflow:visible;"/>
		</clipPath>
		
			<polygon style="clip-path:url(#SVGID_00000108273221098120391570000004030431152639851142_);fill:#757176;stroke:#000000;stroke-width:0.17;stroke-miterlimit:10;" points="
			252,302.4 252,309.6 252,316.8 252,324 252,331.2 252,338.4 252,345.6 252,352.8 258.9,352.6 265.7,351.9 272.5,350.7 
			279.2,349.1 285.8,347 292.2,344.5 298.4,341.5 304.4,338.1 310.1,334.4 315.6,330.2 320.8,325.7 325.7,320.8 330.2,315.6 
			334.4,310.1 338.1,304.4 341.5,298.4 344.5,292.2 347,285.8 349.1,279.2 350.7,272.5 351.9,265.7 352.6,258.9 352.8,252 
			345.6,252 338.4,252 331.2,252 324,252 316.8,252 309.6,252 302.4,252 301.9,259.2 300.4,266.2 297.9,272.9 294.4,279.2 
			290.1,285 285,290.1 279.2,294.4 272.9,297.9 266.2,300.4 259.2,301.9 		"/>
	</g>
	<g>
		<defs>
			<rect id="SVGID_00000110460311398309506410000011662268597231493541_" y="0" width="504" height="504"/>
		</defs>
		<clipPath id="SVGID_00000182526000783247470740000014693266637390066324_">
			<use xlink:href="#SVGID_00000110460311398309506410000011662268597231493541_"  style="overflow:visible;"/>
		</clipPath>
		
			<polygon style="clip-path:url(#SVGID_00000182526000783247470740000014693266637390066324_);fill:#F7BB00;stroke:#000000;stroke-width:0.17;stroke-miterlimit:10;" points="
			201.6,252 194.4,252 187.2,252 180,252 172.8,252 165.6,252 158.4,252 151.2,252 151.4,258.9 152.1,265.7 153.3,272.5 
			154.9,279.2 157,285.8 159.6,292.2 162.5,298.4 165.9,304.4 169.6,310.1 173.8,315.6 178.3,320.8 183.2,325.7 188.4,330.2 
			193.9,334.4 199.6,338.1 205.6,341.5 211.8,344.5 218.2,347 224.8,349.1 231.5,350.7 238.3,351.9 245.1,352.6 252,352.8 
			252,345.6 252,338.4 252,331.2 252,324 252,316.8 252,309.6 252,302.4 244.8,301.9 237.8,300.4 231.1,297.9 224.8,294.4 
			219,290.1 213.9,285 209.6,279.2 206.1,272.9 203.6,266.2 202.1,259.2 		"/>
	</g>
	<g>
		<defs>
			<rect id="SVGID_00000060026274704942410330000004697619415472833974_" y="0" width="504" height="504"/>
		</defs>
		<clipPath id="SVGID_00000174603386160996165050000005934906765923237023_">
			<use xlink:href="#SVGID_00000060026274704942410330000004697619415472833974_"  style="overflow:visible;"/>
		</clipPath>
		
			<polygon style="clip-path:url(#SVGID_00000174603386160996165050000005934906765923237023_);fill:#757176;stroke:#000000;stroke-width:0.17;stroke-miterlimit:10;" points="
			252,201.6 252,194.4 252,187.2 252,180 252,172.8 252,165.6 252,158.4 252,151.2 245.1,151.4 238.3,152.1 231.5,153.3 
			224.8,154.9 218.2,157 211.8,159.6 205.6,162.5 199.6,165.9 193.9,169.6 188.4,173.8 183.2,178.3 178.3,183.2 173.8,188.4 
			169.6,193.9 165.9,199.6 162.5,205.6 159.6,211.8 157,218.2 154.9,224.8 153.3,231.5 152.1,238.3 151.4,245.1 151.2,252 
			158.4,252 165.6,252 172.8,252 180,252 187.2,252 194.4,252 201.6,252 202.1,244.8 203.6,237.8 206.1,231.1 209.6,224.8 
			213.9,219 219,213.9 224.8,209.6 231.1,206.1 237.8,203.6 244.8,202.1 		"/>
	</g>
	<g>
		<defs>
			<rect id="SVGID_00000043423565568957133590000005390306750436757128_" y="0" width="504" height="504"/>
		</defs>
		<clipPath id="SVGID_00000013179591421323741510000000321468254660405898_">
			<use xlink:href="#SVGID_00000043423565568957133590000005390306750436757128_"  style="overflow:visible;"/>
		</clipPath>
		
			<polygon style="clip-path:url(#SVGID_00000013179591421323741510000000321468254660405898_);fill:#C54E00;stroke:#000000;stroke-width:0.17;stroke-miterlimit:10;" points="
			352.8,252 360,252 367.2,252 374.4,252 381.6,252 388.8,252 396,252 403.2,252 403,245 402.6,238.1 401.8,231.1 400.6,224.2 
			399.2,217.4 397.4,210.6 395.4,203.9 393,197.4 390.3,190.9 387.4,184.6 384.1,178.4 380.5,172.4 376.7,166.6 372.7,160.9 
			368.3,155.4 363.7,150.1 358.9,145.1 353.9,140.3 348.6,135.7 343.1,131.3 337.5,127.3 331.6,123.4 325.6,119.9 319.4,116.7 
			313.1,113.7 306.6,111 300,108.6 293.4,106.6 286.6,104.8 279.8,103.4 272.9,102.2 266,101.4 259,101 252,100.8 252,108 
			252,115.2 252,122.4 252,129.6 252,136.8 252,144 252,151.2 258.9,151.4 265.7,152.1 272.5,153.3 279.2,154.9 285.8,157 
			292.2,159.6 298.4,162.5 304.4,165.9 310.1,169.6 315.6,173.8 320.8,178.3 325.7,183.2 330.2,188.4 334.4,193.9 338.1,199.6 
			341.5,205.6 344.5,211.8 347,218.2 349.1,224.8 350.7,231.5 351.9,238.3 352.6,245.1 		"/>
	</g>
	<g>
		<defs>
			<rect id="SVGID_00000164494978848881269830000014490121145551017112_" y="0" width="504" height="504"/>
		</defs>
		<clipPath id="SVGID_00000101783512334108810830000017970350819237529270_">
			<use xlink:href="#SVGID_00000164494978848881269830000014490121145551017112_"  style="overflow:visible;"/>
		</clipPath>
		
			<polygon style="clip-path:url(#SVGID_00000101783512334108810830000017970350819237529270_);fill:#757176;stroke:#000000;stroke-width:0.17;stroke-miterlimit:10;" points="
			252,352.8 252,360 252,367.2 252,374.4 252,381.6 252,388.8 252,396 252,403.2 259,403 266,402.6 272.9,401.8 279.8,400.6 
			286.6,399.2 293.4,397.4 300,395.4 306.6,393 313.1,390.3 319.4,387.4 325.6,384.1 331.6,380.5 337.5,376.7 343.1,372.7 
			348.6,368.3 353.9,363.7 358.9,358.9 363.7,353.9 368.3,348.6 372.7,343.1 376.7,337.5 380.5,331.6 384.1,325.6 387.4,319.4 
			390.3,313.1 393,306.6 395.4,300 397.4,293.4 399.2,286.6 400.6,279.8 401.8,272.9 402.6,266 403,259 403.2,252 396,252 
			388.8,252 381.6,252 374.4,252 367.2,252 360,252 352.8,252 352.6,258.9 351.9,265.7 350.7,272.5 349.1,279.2 347,285.8 
			344.5,292.2 341.5,298.4 338.1,304.4 334.4,310.1 330.2,315.6 325.7,320.8 320.8,325.7 315.6,330.2 310.1,334.4 304.4,338.1 
			298.4,341.5 292.2,344.5 285.8,347 279.2,349.1 272.5,350.7 265.7,351.9 258.9,352.6 		"/>
	</g>
	<g>
		<defs>
			<rect id="SVGID_00000183947414625731927120000010394667786131415728_" y="0" width="504" height="504"/>
		</defs>
		<clipPath id="SVGID_00000008863291690613193310000005403279714754706869_">
			<use xlink:href="#SVGID_00000183947414625731927120000010394667786131415728_"  style="overflow:visible;"/>
		</clipPath>
		
			<polygon style="clip-path:url(#SVGID_00000008863291690613193310000005403279714754706869_);fill:#F7BB00;stroke:#000000;stroke-width:0.17;stroke-miterlimit:10;" points="
			151.2,252 144,252 136.8,252 129.6,252 122.4,252 115.2,252 108,252 100.8,252 101,259 101.4,266 102.2,272.9 103.4,279.8 
			104.8,286.6 106.6,293.4 108.6,300 111,306.6 113.7,313.1 116.7,319.4 119.9,325.6 123.4,331.6 127.3,337.5 131.3,343.1 
			135.7,348.6 140.3,353.9 145.1,358.9 150.1,363.7 155.4,368.3 160.9,372.7 166.6,376.7 172.4,380.5 178.4,384.1 184.6,387.4 
			190.9,390.3 197.4,393 203.9,395.4 210.6,397.4 217.4,399.2 224.2,400.6 231.1,401.8 238.1,402.6 245,403 252,403.2 252,396 
			252,388.8 252,381.6 252,374.4 252,367.2 252,360 252,352.8 245.1,352.6 238.3,351.9 231.5,350.7 224.8,349.1 218.2,347 
			211.8,344.5 205.6,341.5 199.6,338.1 193.9,334.4 188.4,330.2 183.2,325.7 178.3,320.8 173.8,315.6 169.6,310.1 165.9,304.4 
			162.5,298.4 159.6,292.2 157,285.8 154.9,279.2 153.3,272.5 152.1,265.7 151.4,258.9 		"/>
	</g>
	<g>
		<defs>
			<rect id="SVGID_00000139996344160205983140000001080196646594508167_" y="0" width="504" height="504"/>
		</defs>
		<clipPath id="SVGID_00000147205374443007813770000007959220141761282439_">
			<use xlink:href="#SVGID_00000139996344160205983140000001080196646594508167_"  style="overflow:visible;"/>
		</clipPath>
		
			<polygon style="clip-path:url(#SVGID_00000147205374443007813770000007959220141761282439_);fill:#757176;stroke:#000000;stroke-width:0.17;stroke-miterlimit:10;" points="
			252,151.2 252,144 252,136.8 252,129.6 252,122.4 252,115.2 252,108 252,100.8 245,101 238.1,101.4 231.1,102.2 224.2,103.4 
			217.4,104.8 210.6,106.6 203.9,108.6 197.4,111 190.9,113.7 184.6,116.7 178.4,119.9 172.4,123.4 166.6,127.3 160.9,131.3 
			155.4,135.7 150.1,140.3 145.1,145.1 140.3,150.1 135.7,155.4 131.3,160.9 127.3,166.6 123.4,172.4 119.9,178.4 116.7,184.6 
			113.7,190.9 111,197.4 108.6,203.9 106.6,210.6 104.8,217.4 103.4,224.2 102.2,231.1 101.4,238.1 101,245 100.8,252 108,252 
			115.2,252 122.4,252 129.6,252 136.8,252 144,252 151.2,252 151.4,245.1 152.1,238.3 153.3,231.5 154.9,224.8 157,218.2 
			159.6,211.8 162.5,205.6 165.9,199.6 169.6,193.9 173.8,188.4 178.3,183.2 183.2,178.3 188.4,173.8 193.9,169.6 199.6,165.9 
			205.6,162.5 211.8,159.6 218.2,157 224.8,154.9 231.5,153.3 238.3,152.1 245.1,151.4 		"/>
	</g>
	<g>
		<defs>
			<rect id="SVGID_00000065794610736761050550000005041914400261291660_" y="0" width="504" height="504"/>
		</defs>
		<clipPath id="SVGID_00000093165494688906429180000015836659445154180797_">
			<use xlink:href="#SVGID_00000065794610736761050550000005041914400261291660_"  style="overflow:visible;"/>
		</clipPath>
		
			<polygon style="clip-path:url(#SVGID_00000093165494688906429180000015836659445154180797_);fill:#C54E00;stroke:#000000;stroke-width:0.17;stroke-miterlimit:10;" points="
			403.2,252 410.4,252 417.6,252 424.8,252 432,252 439.2,252 446.4,252 453.6,252 453.5,245.1 453.1,238.2 452.5,231.4 
			451.7,224.6 450.7,217.8 449.4,211 447.9,204.3 446.1,197.6 444.1,191 442,184.5 439.5,178 436.9,171.7 434.1,165.4 431,159.2 
			427.7,153.2 424.2,147.2 420.6,141.4 416.7,135.7 412.6,130.2 408.4,124.8 404,119.5 399.3,114.4 394.5,109.4 389.6,104.7 
			384.5,100.1 379.2,95.6 373.8,91.4 368.3,87.3 362.6,83.4 356.8,79.8 350.8,76.3 344.8,73 338.6,69.9 332.3,67.1 326,64.5 
			319.5,62 313,59.8 306.4,57.9 299.7,56.1 293,54.6 286.2,53.3 279.5,52.3 272.6,51.5 265.8,50.9 258.9,50.5 252,50.4 252,57.6 
			252,64.8 252,72 252,79.2 252,86.4 252,93.6 252,100.8 259,101 266,101.4 272.9,102.2 279.8,103.4 286.6,104.8 293.4,106.6 
			300,108.6 306.6,111 313.1,113.7 319.4,116.7 325.6,119.9 331.6,123.4 337.5,127.3 343.1,131.3 348.6,135.7 353.9,140.3 
			358.9,145.1 363.7,150.1 368.3,155.4 372.7,160.9 376.7,166.6 380.5,172.4 384.1,178.4 387.4,184.6 390.3,190.9 393,197.4 
			395.4,203.9 397.4,210.6 399.2,217.4 400.6,224.2 401.8,231.1 402.6,238.1 403,245 		"/>
	</g>
	<g>
		<defs>
			<rect id="SVGID_00000147218125737637719410000017881907449390811305_" y="0" width="504" height="504"/>
		</defs>
		<clipPath id="SVGID_00000081640700710809859540000018201406257523990460_">
			<use xlink:href="#SVGID_00000147218125737637719410000017881907449390811305_"  style="overflow:visible;"/>
		</clipPath>
		
			<polygon style="clip-path:url(#SVGID_00000081640700710809859540000018201406257523990460_);fill:#757176;stroke:#000000;stroke-width:0.17;stroke-miterlimit:10;" points="
			252,403.2 252,410.4 252,417.6 252,424.8 252,432 252,439.2 252,446.4 252,453.6 258.9,453.5 265.8,453.1 272.6,452.5 
			279.5,451.7 286.2,450.7 293,449.4 299.7,447.9 306.4,446.1 313,444.1 319.5,442 326,439.5 332.3,436.9 338.6,434.1 344.8,431 
			350.8,427.7 356.8,424.2 362.6,420.6 368.3,416.7 373.8,412.6 379.2,408.4 384.5,404 389.6,399.3 394.5,394.5 399.3,389.6 
			404,384.5 408.4,379.2 412.6,373.8 416.7,368.3 420.6,362.6 424.2,356.8 427.7,350.8 431,344.8 434.1,338.6 436.9,332.3 
			439.5,326 442,319.5 444.1,313 446.1,306.4 447.9,299.7 449.4,293 450.7,286.2 451.7,279.5 452.5,272.6 453.1,265.8 453.5,258.9 
			453.6,252 446.4,252 439.2,252 432,252 424.8,252 417.6,252 410.4,252 403.2,252 403,259 402.6,266 401.8,272.9 400.6,279.8 
			399.2,286.6 397.4,293.4 395.4,300 393,306.6 390.3,313.1 387.4,319.4 384.1,325.6 380.5,331.6 376.7,337.5 372.7,343.1 
			368.3,348.6 363.7,353.9 358.9,358.9 353.9,363.7 348.6,368.3 343.1,372.7 337.5,376.7 331.6,380.5 325.6,384.1 319.4,387.4 
			313.1,390.3 306.6,393 300,395.4 293.4,397.4 286.6,399.2 279.8,400.6 272.9,401.8 266,402.6 259,403 		"/>
	</g>
	<g>
		<defs>
			<rect id="SVGID_00000155127750402392036910000006475997790021148576_" y="0" width="504" height="504"/>
		</defs>
		<clipPath id="SVGID_00000037689879598717219430000015511699263051803281_">
			<use xlink:href="#SVGID_00000155127750402392036910000006475997790021148576_"  style="overflow:visible;"/>
		</clipPath>
		
			<polygon style="clip-path:url(#SVGID_00000037689879598717219430000015511699263051803281_);fill:#F7BB00;stroke:#000000;stroke-width:0.17;stroke-miterlimit:10;" points="
			100.8,252 93.6,252 86.4,252 79.2,252 72,252 64.8,252 57.6,252 50.4,252 50.5,258.9 50.9,265.8 51.5,272.6 52.3,279.5 
			53.3,286.2 54.6,293 56.1,299.7 57.9,306.4 59.8,313 62,319.5 64.5,326 67.1,332.3 69.9,338.6 73,344.8 76.3,350.8 79.8,356.8 
			83.4,362.6 87.3,368.3 91.4,373.8 95.6,379.2 100.1,384.5 104.7,389.6 109.4,394.5 114.4,399.3 119.5,404 124.8,408.4 
			130.2,412.6 135.7,416.7 141.4,420.6 147.2,424.2 153.2,427.7 159.2,431 165.4,434.1 171.7,436.9 178,439.5 184.5,442 191,444.1 
			197.6,446.1 204.3,447.9 211,449.4 217.8,450.7 224.6,451.7 231.4,452.5 238.2,453.1 245.1,453.5 252,453.6 252,446.4 252,439.2 
			252,432 252,424.8 252,417.6 252,410.4 252,403.2 245,403 238.1,402.6 231.1,401.8 224.2,400.6 217.4,399.2 210.6,397.4 
			203.9,395.4 197.4,393 190.9,390.3 184.6,387.4 178.4,384.1 172.4,380.5 166.6,376.7 160.9,372.7 155.4,368.3 150.1,363.7 
			145.1,358.9 140.3,353.9 135.7,348.6 131.3,343.1 127.3,337.5 123.4,331.6 119.9,325.6 116.7,319.4 113.7,313.1 111,306.6 
			108.6,300 106.6,293.4 104.8,286.6 103.4,279.8 102.2,272.9 101.4,266 101,259 		"/>
	</g>
	<g>
		<defs>
			<rect id="SVGID_00000062909873778365466770000000919101338264197515_" y="0" width="504" height="504"/>
		</defs>
		<clipPath id="SVGID_00000152985152443828922290000000065550976304748688_">
			<use xlink:href="#SVGID_00000062909873778365466770000000919101338264197515_"  style="overflow:visible;"/>
		</clipPath>
		
			<polygon style="clip-path:url(#SVGID_00000152985152443828922290000000065550976304748688_);fill:#757176;stroke:#000000;stroke-width:0.17;stroke-miterlimit:10;" points="
			252,100.8 252,93.6 252,86.4 252,79.2 252,72 252,64.8 252,57.6 252,50.4 245.1,50.5 238.2,50.9 231.4,51.5 224.6,52.3 
			217.8,53.3 211,54.6 204.3,56.1 197.6,57.9 191,59.8 184.5,62 178,64.5 171.7,67.1 165.4,69.9 159.2,73 153.2,76.3 147.2,79.8 
			141.4,83.4 135.7,87.3 130.2,91.4 124.8,95.6 119.5,100.1 114.4,104.7 109.4,109.4 104.7,114.4 100.1,119.5 95.6,124.8 
			91.4,130.2 87.3,135.7 83.4,141.4 79.8,147.2 76.3,153.2 73,159.2 69.9,165.4 67.1,171.7 64.5,178 62,184.5 59.8,191 57.9,197.6 
			56.1,204.3 54.6,211 53.3,217.8 52.3,224.6 51.5,231.4 50.9,238.2 50.5,245.1 50.4,252 57.6,252 64.8,252 72,252 79.2,252 
			86.4,252 93.6,252 100.8,252 101,245 101.4,238.1 102.2,231.1 103.4,224.2 104.8,217.4 106.6,210.6 108.6,203.9 111,197.4 
			113.7,190.9 116.7,184.6 119.9,178.4 123.4,172.4 127.3,166.6 131.3,160.9 135.7,155.4 140.3,150.1 145.1,145.1 150.1,140.3 
			155.4,135.7 160.9,131.3 166.6,127.3 172.4,123.4 178.4,119.9 184.6,116.7 190.9,113.7 197.4,111 203.9,108.6 210.6,106.6 
			217.4,104.8 224.2,103.4 231.1,102.2 238.1,101.4 245,101 		"/>
	</g>
	<g>
		<defs>
			<rect id="SVGID_00000170252629847983491410000017272772931939835028_" y="0" width="504" height="504"/>
		</defs>
		<clipPath id="SVGID_00000073709183112871914890000005273691071198695871_">
			<use xlink:href="#SVGID_00000170252629847983491410000017272772931939835028_"  style="overflow:visible;"/>
		</clipPath>
		
			<polygon style="clip-path:url(#SVGID_00000073709183112871914890000005273691071198695871_);fill:#FFFFFF;stroke:#FFFFFF;stroke-width:0.17;stroke-miterlimit:10;" points="
			252,252 259.2,252 266.4,252 273.6,252 280.8,252 288,252 295.2,252 302.4,252 301.9,244.8 300.4,237.8 297.9,231.1 294.4,224.8 
			290.1,219 285,213.9 279.2,209.6 272.9,206.1 266.2,203.6 259.2,202.1 252,201.6 252,208.8 252,216 252,223.2 252,230.4 
			252,237.6 252,244.8 		"/>
	</g>
	<g>
		<defs>
			<rect id="SVGID_00000176724050925747462690000015488294543570462616_" y="0" width="504" height="504"/>
		</defs>
		<clipPath id="SVGID_00000012432840067924463030000008027553447320807052_">
			<use xlink:href="#SVGID_00000176724050925747462690000015488294543570462616_"  style="overflow:visible;"/>
		</clipPath>
		
			<polygon style="clip-path:url(#SVGID_00000012432840067924463030000008027553447320807052_);fill:#FFFFFF;stroke:#FFFFFF;stroke-width:0.17;stroke-miterlimit:10;" points="
			252,252 252,259.2 252,266.4 252,273.6 252,280.8 252,288 252,295.2 252,302.4 259.2,301.9 266.2,300.4 272.9,297.9 279.2,294.4 
			285,290.1 290.1,285 294.4,279.2 297.9,272.9 300.4,266.2 301.9,259.2 302.4,252 295.2,252 288,252 280.8,252 273.6,252 
			266.4,252 259.2,252 		"/>
	</g>
	<g>
		<defs>
			<rect id="SVGID_00000179620836415073619470000001748819548735454355_" y="0" width="504" height="504"/>
		</defs>
		<clipPath id="SVGID_00000152227684646519083300000006903522475778916026_">
			<use xlink:href="#SVGID_00000179620836415073619470000001748819548735454355_"  style="overflow:visible;"/>
		</clipPath>
		
			<polygon style="clip-path:url(#SVGID_00000152227684646519083300000006903522475778916026_);fill:#FFFFFF;stroke:#FFFFFF;stroke-width:0.17;stroke-miterlimit:10;" points="
			252,252 244.8,252 237.6,252 230.4,252 223.2,252 216,252 208.8,252 201.6,252 202.1,259.2 203.6,266.2 206.1,272.9 209.6,279.2 
			213.9,285 219,290.1 224.8,294.4 231.1,297.9 237.8,300.4 244.8,301.9 252,302.4 252,295.2 252,288 252,280.8 252,273.6 
			252,266.4 252,259.2 		"/>
	</g>
	<g>
		<defs>
			<rect id="SVGID_00000012441369868766371420000013403346506581048199_" y="0" width="504" height="504"/>
		</defs>
		<clipPath id="SVGID_00000072242896090392943770000004255044787484017322_">
			<use xlink:href="#SVGID_00000012441369868766371420000013403346506581048199_"  style="overflow:visible;"/>
		</clipPath>
		
			<polygon style="clip-path:url(#SVGID_00000072242896090392943770000004255044787484017322_);fill:#FFFFFF;stroke:#FFFFFF;stroke-width:0.17;stroke-miterlimit:10;" points="
			252,252 252,244.8 252,237.6 252,230.4 252,223.2 252,216 252,208.8 252,201.6 244.8,202.1 237.8,203.6 231.1,206.1 224.8,209.6 
			219,213.9 213.9,219 209.6,224.8 206.1,231.1 203.6,237.8 202.1,244.8 201.6,252 208.8,252 216,252 223.2,252 230.4,252 
			237.6,252 244.8,252 		"/>
	</g>
	<g>
		<defs>
			<rect id="SVGID_00000053502806897039931020000006975363506508403134_" y="0" width="504" height="504"/>
		</defs>
		<clipPath id="SVGID_00000096737871486306828540000006302817445742884739_">
			<use xlink:href="#SVGID_00000053502806897039931020000006975363506508403134_"  style="overflow:visible;"/>
		</clipPath>
		<g style="clip-path:url(#SVGID_00000096737871486306828540000006302817445742884739_);enable-background:new    ;">
			<text transform="matrix(1 0 0 1 277.1923 205.17)" class="st18 st19">Poales</text>
		</g>
	</g>
	<g>
		<defs>
			<rect id="SVGID_00000018209503546752733360000016268128101052623002_" y="0" width="504" height="504"/>
		</defs>
		<clipPath id="SVGID_00000111156644176086210690000014097424233113018299_">
			<use xlink:href="#SVGID_00000018209503546752733360000016268128101052623002_"  style="overflow:visible;"/>
		</clipPath>
		<g style="clip-path:url(#SVGID_00000111156644176086210690000014097424233113018299_);enable-background:new    ;">
			<text transform="matrix(1 0 0 1 261.3017 318.581)" class="st18 st19">Polypodiales</text>
		</g>
	</g>
	<g>
		<defs>
			<rect id="SVGID_00000062872368268845877710000014196817424809290129_" y="0" width="504" height="504"/>
		</defs>
		<clipPath id="SVGID_00000021097371922885860150000001965562702180514981_">
			<use xlink:href="#SVGID_00000062872368268845877710000014196817424809290129_"  style="overflow:visible;"/>
		</clipPath>
		<g style="clip-path:url(#SVGID_00000021097371922885860150000001965562702180514981_);enable-background:new    ;">
			<text transform="matrix(1 0 0 1 157.9351 312.08)" class="st18 st19">Solanales</text>
		</g>
	</g>
	<g>
		<defs>
			<rect id="SVGID_00000011027875746575112490000003502658894665433234_" y="0" width="504" height="504"/>
		</defs>
		<clipPath id="SVGID_00000018935871717106436370000001710296723344995491_">
			<use xlink:href="#SVGID_00000011027875746575112490000003502658894665433234_"  style="overflow:visible;"/>
		</clipPath>
		<g style="clip-path:url(#SVGID_00000018935871717106436370000001710296723344995491_);enable-background:new    ;">
			<text transform="matrix(1 0 0 1 128.3587 205.373)" class="st18 st19">Polypodiales</text>
		</g>
	</g>
	<g>
		<defs>
			<rect id="SVGID_00000038407563455949209350000016863797150840943746_" y="0" width="504" height="504"/>
		</defs>
		<clipPath id="SVGID_00000177465774802798463580000017550019502754816698_">
			<use xlink:href="#SVGID_00000038407563455949209350000016863797150840943746_"  style="overflow:visible;"/>
		</clipPath>
		<g style="clip-path:url(#SVGID_00000177465774802798463580000017550019502754816698_);enable-background:new    ;">
			<text transform="matrix(1 0 0 1 304.603 169.53)" class="st18 st19">Poaceae</text>
		</g>
	</g>
	<g>
		<defs>
			<rect id="SVGID_00000168831726262863698380000003916486184542191287_" y="0" width="504" height="504"/>
		</defs>
		<clipPath id="SVGID_00000120527078978930542690000011845368541488461217_">
			<use xlink:href="#SVGID_00000168831726262863698380000003916486184542191287_"  style="overflow:visible;"/>
		</clipPath>
		<g style="clip-path:url(#SVGID_00000120527078978930542690000011845368541488461217_);enable-background:new    ;">
			<text transform="matrix(1 0 0 1 291.7602 347.72)" class="st18 st19">Pteridaceae</text>
		</g>
	</g>
	<g>
		<defs>
			<rect id="SVGID_00000098213011356301986590000002839747064329856697_" y="0" width="504" height="504"/>
		</defs>
		<clipPath id="SVGID_00000087396652723743237230000013332207007248417972_">
			<use xlink:href="#SVGID_00000098213011356301986590000002839747064329856697_"  style="overflow:visible;"/>
		</clipPath>
		<g style="clip-path:url(#SVGID_00000087396652723743237230000013332207007248417972_);enable-background:new    ;">
			<text transform="matrix(1 0 0 1 121.1981 350.2483)" class="st18 st19">Solanaceae</text>
		</g>
	</g>
	<g>
		<defs>
			<rect id="SVGID_00000081606304507368251560000002109391773543048876_" y="0" width="504" height="504"/>
		</defs>
		<clipPath id="SVGID_00000041283273788687301320000012145290120132882874_">
			<use xlink:href="#SVGID_00000081606304507368251560000002109391773543048876_"  style="overflow:visible;"/>
		</clipPath>
		<g style="clip-path:url(#SVGID_00000041283273788687301320000012145290120132882874_);enable-background:new    ;">
			<text transform="matrix(1 0 0 1 93.7135 169.53)" class="st18 st19">Pteridaceae</text>
		</g>
	</g>
	<g>
		<defs>
			<rect id="SVGID_00000071526146433605521100000009319501356982336132_" y="0" width="504" height="504"/>
		</defs>
		<clipPath id="SVGID_00000134209533732276708150000008920110442454025102_">
			<use xlink:href="#SVGID_00000071526146433605521100000009319501356982336132_"  style="overflow:visible;"/>
		</clipPath>
		<g style="clip-path:url(#SVGID_00000134209533732276708150000008920110442454025102_);enable-background:new    ;">
			<rect x="341.6" y="120.7" class="st0" width="52.4" height="21.9"/>
		</g>
	</g>
	<g>
		<defs>
			<rect id="SVGID_00000108294669737816048940000016852087757301985457_" y="0" width="504" height="504"/>
		</defs>
		<clipPath id="SVGID_00000037650272602410441960000005358361920537936793_">
			<use xlink:href="#SVGID_00000108294669737816048940000016852087757301985457_"  style="overflow:visible;"/>
		</clipPath>
		<g style="clip-path:url(#SVGID_00000037650272602410441960000005358361920537936793_);enable-background:new    ;">
			<text transform="matrix(1 0 0 1 103.2894 383.0047)" class="st18 st19">Solanum</text>
		</g>
	</g>
	<g>
		<defs>
			<rect id="SVGID_00000123418007997864968800000015423769066253495714_" y="0" width="504" height="504"/>
		</defs>
		<clipPath id="SVGID_00000029763683379199798660000002690666386955481508_">
			<use xlink:href="#SVGID_00000123418007997864968800000015423769066253495714_"  style="overflow:visible;"/>
		</clipPath>
		<g style="clip-path:url(#SVGID_00000029763683379199798660000002690666386955481508_);enable-background:new    ;">
			<text transform="matrix(1 0 0 1 95.1372 138.4546)" class="st18 st19">Hemionitis</text>
		</g>
	</g>
	<text transform="matrix(1 0 0 1 219.674 285.9705)" class="st18 st30">4</text>
	<g class="st31">
		<text transform="matrix(1 0 0 1 345.8218 135.2615)" class="st18 st19">Avena</text>
	</g>
</g>
</svg>
