<?xml version="1.0" encoding="utf-8"?>
<!-- Generator: Adobe Illustrator 28.1.0, SVG Export Plug-In . SVG Version: 6.00 Build 0)  -->
<svg version="1.1" id="Layer_1" xmlns="http://www.w3.org/2000/svg" xmlns:xlink="http://www.w3.org/1999/xlink" x="0px" y="0px"
	 viewBox="0 0 504 504" style="enable-background:new 0 0 504 504;" xml:space="preserve">
<style type="text/css">
	.st0{fill:none;}
	
		.st1{clip-path:url(#SVGID_00000161620478737574176320000014119877887732078722_);fill:#620057;stroke:#000000;stroke-width:0.17;stroke-miterlimit:10;}
	
		.st2{clip-path:url(#SVGID_00000161620478737574176320000014119877887732078722_);fill:#7A0058;stroke:#000000;stroke-width:0.17;stroke-miterlimit:10;}
	
		.st3{clip-path:url(#SVGID_00000161620478737574176320000014119877887732078722_);fill:#EF002C;stroke:#000000;stroke-width:0.17;stroke-miterlimit:10;}
	
		.st4{clip-path:url(#SVGID_00000161620478737574176320000014119877887732078722_);fill:#C54E00;stroke:#000000;stroke-width:0.17;stroke-miterlimit:10;}
	
		.st5{clip-path:url(#SVGID_00000161620478737574176320000014119877887732078722_);fill:#D46A00;stroke:#000000;stroke-width:0.17;stroke-miterlimit:10;}
	
		.st6{clip-path:url(#SVGID_00000161620478737574176320000014119877887732078722_);fill:#E28500;stroke:#000000;stroke-width:0.17;stroke-miterlimit:10;}
	
		.st7{clip-path:url(#SVGID_00000161620478737574176320000014119877887732078722_);fill:#757182;stroke:#000000;stroke-width:0.17;stroke-miterlimit:10;}
	
		.st8{clip-path:url(#SVGID_00000161620478737574176320000014119877887732078722_);fill:#FFFFFF;stroke:#FFFFFF;stroke-width:0.17;stroke-miterlimit:10;}
	.st9{clip-path:url(#SVGID_00000161620478737574176320000014119877887732078722_);enable-background:new    ;}
	.st10{font-family:'ArialMT';}
	.st11{font-size:18.49px;}
	.st12{letter-spacing:1;}
	.st13{font-family:'Arial-BoldMT';}
	.st14{font-size:100px;}
</style>
<rect y="0" class="st0" width="504" height="504"/>
<g>
	<defs>
		<rect id="SVGID_1_" y="0" width="504" height="504"/>
	</defs>
	<clipPath id="SVGID_00000096040436911864820330000006881182782720788355_">
		<use xlink:href="#SVGID_1_"  style="overflow:visible;"/>
	</clipPath>
	
		<polygon style="clip-path:url(#SVGID_00000096040436911864820330000006881182782720788355_);fill:#620057;stroke:#000000;stroke-width:0.17;stroke-miterlimit:10;" points="
		284.4,213.4 289,207.9 293.6,202.4 298.3,196.8 302.9,191.3 307.5,185.8 312.2,180.3 316.8,174.8 311.2,170.4 305.4,166.5 
		299.3,163 293,159.9 286.5,157.3 279.8,155.1 273,153.4 266,152.2 259,151.4 252,151.2 252,158.4 252,165.6 252,172.8 252,180 
		252,187.2 252,194.4 252,201.6 259,202.1 265.9,203.6 272.5,206 278.7,209.3 	"/>
	
		<polygon style="clip-path:url(#SVGID_00000096040436911864820330000006881182782720788355_);fill:#7A0058;stroke:#000000;stroke-width:0.17;stroke-miterlimit:10;" points="
		301.6,243.2 308.7,242 315.8,240.8 322.9,239.5 330,238.2 337.1,237 344.2,235.8 351.3,234.5 349.8,227.6 347.9,220.9 345.5,214.2 
		342.6,207.8 339.3,201.6 335.6,195.6 331.4,189.9 326.9,184.6 322,179.5 316.8,174.8 312.2,180.3 307.5,185.8 302.9,191.3 
		298.3,196.8 293.6,202.4 289,207.9 284.4,213.4 289.5,218.3 293.8,223.8 297.3,229.9 299.9,236.4 	"/>
	
		<polygon style="clip-path:url(#SVGID_00000096040436911864820330000006881182782720788355_);fill:#7A0058;stroke:#000000;stroke-width:0.17;stroke-miterlimit:10;" points="
		295.6,277.2 301.9,280.8 308.1,284.4 314.4,288 320.6,291.6 326.8,295.2 333.1,298.8 339.3,302.4 342.6,296.2 345.5,289.8 
		347.9,283.1 349.8,276.4 351.3,269.5 352.2,262.5 352.7,255.5 352.7,248.5 352.2,241.5 351.3,234.5 344.2,235.8 337.1,237 
		330,238.2 322.9,239.5 315.8,240.8 308.7,242 301.6,243.2 302.4,250.2 302.1,257.3 300.9,264.2 298.7,270.9 	"/>
	
		<polygon style="clip-path:url(#SVGID_00000096040436911864820330000006881182782720788355_);fill:#EF002C;stroke:#000000;stroke-width:0.17;stroke-miterlimit:10;" points="
		269.2,299.4 271.7,306.1 274.2,312.9 276.6,319.7 279.1,326.4 281.5,333.2 284,340 286.5,346.7 293,344.1 299.3,341 305.4,337.5 
		311.2,333.5 316.8,329.2 322,324.5 326.9,319.5 331.4,314.1 335.6,308.4 339.3,302.4 333.1,298.8 326.8,295.2 320.6,291.6 
		314.4,288 308.1,284.4 301.9,280.8 295.6,277.2 291.7,283 287,288.2 281.6,292.8 275.7,296.5 	"/>
	
		<polygon style="clip-path:url(#SVGID_00000096040436911864820330000006881182782720788355_);fill:#C54E00;stroke:#000000;stroke-width:0.17;stroke-miterlimit:10;" points="
		234.8,299.4 232.3,306.1 229.8,312.9 227.4,319.7 224.9,326.4 222.4,333.2 220,340 217.5,346.7 224.2,348.9 231,350.6 238,351.8 
		245,352.5 252,352.8 259,352.5 266,351.8 273,350.6 279.8,348.9 286.5,346.7 284,340 281.5,333.2 279.1,326.4 276.6,319.7 
		274.2,312.9 271.7,306.1 269.2,299.4 262.5,301.3 255.5,302.3 248.5,302.3 241.5,301.3 	"/>
	
		<polygon style="clip-path:url(#SVGID_00000096040436911864820330000006881182782720788355_);fill:#D46A00;stroke:#000000;stroke-width:0.17;stroke-miterlimit:10;" points="
		208.4,277.2 202.1,280.8 195.9,284.4 189.6,288 183.4,291.6 177.2,295.2 170.9,298.8 164.7,302.4 168.4,308.4 172.6,314.1 
		177.1,319.5 182,324.5 187.2,329.2 192.8,333.5 198.6,337.5 204.7,341 211,344.1 217.5,346.7 220,340 222.4,333.2 224.9,326.4 
		227.4,319.7 229.8,312.9 232.3,306.1 234.8,299.4 228.3,296.5 222.4,292.8 217,288.2 212.3,283 	"/>
	
		<polygon style="clip-path:url(#SVGID_00000096040436911864820330000006881182782720788355_);fill:#E28500;stroke:#000000;stroke-width:0.17;stroke-miterlimit:10;" points="
		202.4,243.2 195.3,242 188.2,240.8 181.1,239.5 174,238.2 166.9,237 159.8,235.8 152.7,234.5 151.8,241.5 151.3,248.5 151.3,255.5 
		151.8,262.5 152.7,269.5 154.2,276.4 156.1,283.1 158.5,289.8 161.4,296.2 164.7,302.4 170.9,298.8 177.2,295.2 183.4,291.6 
		189.6,288 195.9,284.4 202.1,280.8 208.4,277.2 205.3,270.9 203.1,264.2 201.9,257.3 201.6,250.2 	"/>
	
		<polygon style="clip-path:url(#SVGID_00000096040436911864820330000006881182782720788355_);fill:#7A0058;stroke:#000000;stroke-width:0.17;stroke-miterlimit:10;" points="
		219.6,213.4 215,207.9 210.4,202.4 205.7,196.8 201.1,191.3 196.5,185.8 191.8,180.3 187.2,174.8 182,179.5 177.1,184.6 
		172.6,189.9 168.4,195.6 164.7,201.6 161.4,207.8 158.5,214.2 156.1,220.9 154.2,227.6 152.7,234.5 159.8,235.8 166.9,237 
		174,238.2 181.1,239.5 188.2,240.8 195.3,242 202.4,243.2 204.1,236.4 206.7,229.9 210.2,223.8 214.6,218.3 	"/>
	
		<polygon style="clip-path:url(#SVGID_00000096040436911864820330000006881182782720788355_);fill:#757182;stroke:#000000;stroke-width:0.17;stroke-miterlimit:10;" points="
		252,201.6 252,194.4 252,187.2 252,180 252,172.8 252,165.6 252,158.4 252,151.2 245,151.4 238,152.2 231,153.4 224.2,155.1 
		217.5,157.3 211,159.9 204.7,163 198.6,166.5 192.8,170.4 187.2,174.8 191.8,180.3 196.5,185.8 201.1,191.3 205.7,196.8 
		210.4,202.4 215,207.9 219.6,213.4 225.3,209.3 231.5,206 238.1,203.6 245,202.1 	"/>
	
		<polygon style="clip-path:url(#SVGID_00000096040436911864820330000006881182782720788355_);fill:#620057;stroke:#000000;stroke-width:0.17;stroke-miterlimit:10;" points="
		316.8,174.8 321.4,169.3 326,163.8 330.7,158.2 335.3,152.7 339.9,147.2 344.6,141.7 349.2,136.2 343.7,131.8 338,127.6 
		332.1,123.8 326.1,120.2 319.9,116.9 313.5,113.9 307,111.2 300.4,108.8 293.7,106.7 286.9,104.9 280,103.4 273,102.3 266,101.4 
		259,101 252,100.8 252,108 252,115.2 252,122.4 252,129.6 252,136.8 252,144 252,151.2 259,151.4 266,152.2 273,153.4 279.8,155.1 
		286.5,157.3 293,159.9 299.3,163 305.4,166.5 311.2,170.4 	"/>
	
		<polygon style="clip-path:url(#SVGID_00000096040436911864820330000006881182782720788355_);fill:#7A0058;stroke:#000000;stroke-width:0.17;stroke-miterlimit:10;" points="
		351.3,234.5 358.4,233.2 365.5,232 372.5,230.8 379.6,229.5 386.7,228.2 393.8,227 400.9,225.7 399.5,218.9 397.8,212 395.8,205.3 
		393.5,198.6 390.8,192.1 387.9,185.7 384.7,179.5 381.1,173.4 377.4,167.4 373.3,161.7 369,156.2 364.4,150.8 359.5,145.7 
		354.5,140.8 349.2,136.2 344.6,141.7 339.9,147.2 335.3,152.7 330.7,158.2 326,163.8 321.4,169.3 316.8,174.8 322,179.5 
		326.9,184.6 331.4,189.9 335.6,195.6 339.3,201.6 342.6,207.8 345.5,214.2 347.9,220.9 349.8,227.6 	"/>
	
		<polygon style="clip-path:url(#SVGID_00000096040436911864820330000006881182782720788355_);fill:#7A0058;stroke:#000000;stroke-width:0.17;stroke-miterlimit:10;" points="
		339.3,302.4 345.5,306 351.8,309.6 358,313.2 364.2,316.8 370.5,320.4 376.7,324 382.9,327.6 386.3,321.4 389.4,315.1 392.2,308.6 
		394.7,302.1 396.9,295.4 398.7,288.6 400.2,281.7 401.5,274.8 402.4,267.8 402.9,260.8 403.2,253.8 403.1,246.7 402.7,239.7 
		402,232.7 400.9,225.7 393.8,227 386.7,228.2 379.6,229.5 372.5,230.8 365.5,232 358.4,233.2 351.3,234.5 352.2,241.5 352.7,248.5 
		352.7,255.5 352.2,262.5 351.3,269.5 349.8,276.4 347.9,283.1 345.5,289.8 342.6,296.2 	"/>
	
		<polygon style="clip-path:url(#SVGID_00000096040436911864820330000006881182782720788355_);fill:#EF002C;stroke:#000000;stroke-width:0.17;stroke-miterlimit:10;" points="
		286.5,346.7 288.9,353.5 291.4,360.2 293.9,367 296.3,373.8 298.8,380.5 301.2,387.3 303.7,394.1 310.3,391.5 316.7,388.7 
		323,385.5 329.1,382 335.1,378.3 340.9,374.3 346.5,370.1 351.9,365.5 357,360.8 362,355.8 366.7,350.5 371.1,345.1 375.4,339.4 
		379.3,333.6 382.9,327.6 376.7,324 370.5,320.4 364.2,316.8 358,313.2 351.8,309.6 345.5,306 339.3,302.4 335.6,308.4 331.4,314.1 
		326.9,319.5 322,324.5 316.8,329.2 311.2,333.5 305.4,337.5 299.3,341 293,344.1 	"/>
	
		<polygon style="clip-path:url(#SVGID_00000096040436911864820330000006881182782720788355_);fill:#C54E00;stroke:#000000;stroke-width:0.17;stroke-miterlimit:10;" points="
		217.5,346.7 215.1,353.5 212.6,360.2 210.1,367 207.7,373.8 205.2,380.5 202.8,387.3 200.3,394.1 206.9,396.3 213.7,398.3 
		220.6,399.9 227.5,401.2 234.4,402.2 241.4,402.8 248.5,403.2 255.5,403.2 262.5,402.8 269.5,402.2 276.5,401.2 283.4,399.9 
		290.3,398.3 297,396.3 303.7,394.1 301.2,387.3 298.8,380.5 296.3,373.8 293.9,367 291.4,360.2 288.9,353.5 286.5,346.7 
		279.8,348.9 273,350.6 266,351.8 259,352.5 252,352.8 245,352.5 238,351.8 231,350.6 224.2,348.9 	"/>
	
		<polygon style="clip-path:url(#SVGID_00000096040436911864820330000006881182782720788355_);fill:#D46A00;stroke:#000000;stroke-width:0.17;stroke-miterlimit:10;" points="
		164.7,302.4 158.5,306 152.2,309.6 146,313.2 139.8,316.8 133.5,320.4 127.3,324 121.1,327.6 124.7,333.6 128.6,339.4 132.9,345.1 
		137.3,350.5 142,355.8 147,360.8 152.1,365.5 157.5,370.1 163.1,374.3 168.9,378.3 174.9,382 181,385.5 187.3,388.7 193.7,391.5 
		200.3,394.1 202.8,387.3 205.2,380.5 207.7,373.8 210.1,367 212.6,360.2 215.1,353.5 217.5,346.7 211,344.1 204.7,341 198.6,337.5 
		192.8,333.5 187.2,329.2 182,324.5 177.1,319.5 172.6,314.1 168.4,308.4 	"/>
	
		<polygon style="clip-path:url(#SVGID_00000096040436911864820330000006881182782720788355_);fill:#E28500;stroke:#000000;stroke-width:0.17;stroke-miterlimit:10;" points="
		152.7,234.5 145.6,233.2 138.6,232 131.5,230.8 124.4,229.5 117.3,228.2 110.2,227 103.1,225.7 102,232.7 101.3,239.7 100.9,246.7 
		100.8,253.8 101.1,260.8 101.6,267.8 102.5,274.8 103.8,281.7 105.3,288.6 107.2,295.4 109.3,302.1 111.8,308.6 114.6,315.1 
		117.7,321.4 121.1,327.6 127.3,324 133.5,320.4 139.8,316.8 146,313.2 152.2,309.6 158.5,306 164.7,302.4 161.4,296.2 158.5,289.8 
		156.1,283.1 154.2,276.4 152.7,269.5 151.8,262.5 151.3,255.5 151.3,248.5 151.8,241.5 	"/>
	
		<polygon style="clip-path:url(#SVGID_00000096040436911864820330000006881182782720788355_);fill:#7A0058;stroke:#000000;stroke-width:0.17;stroke-miterlimit:10;" points="
		187.2,174.8 182.6,169.3 177.9,163.8 173.3,158.2 168.7,152.7 164.1,147.2 159.4,141.7 154.8,136.2 149.5,140.8 144.5,145.7 
		139.6,150.8 135.1,156.2 130.7,161.7 126.7,167.4 122.8,173.4 119.3,179.5 116.1,185.7 113.2,192.1 110.5,198.6 108.2,205.3 
		106.2,212 104.5,218.9 103.1,225.7 110.2,227 117.3,228.2 124.4,229.5 131.5,230.8 138.6,232 145.6,233.2 152.7,234.5 154.2,227.6 
		156.1,220.9 158.5,214.2 161.4,207.8 164.7,201.6 168.4,195.6 172.6,189.9 177.1,184.6 182,179.5 	"/>
	
		<polygon style="clip-path:url(#SVGID_00000096040436911864820330000006881182782720788355_);fill:#757182;stroke:#000000;stroke-width:0.17;stroke-miterlimit:10;" points="
		252,151.2 252,144 252,136.8 252,129.6 252,122.4 252,115.2 252,108 252,100.8 245,101 237.9,101.4 231,102.3 224,103.4 
		217.1,104.9 210.3,106.7 203.6,108.8 197,111.2 190.5,113.9 184.1,116.9 177.9,120.2 171.9,123.8 166,127.6 160.3,131.8 
		154.8,136.2 159.4,141.7 164.1,147.2 168.7,152.7 173.3,158.2 177.9,163.8 182.6,169.3 187.2,174.8 192.8,170.4 198.6,166.5 
		204.7,163 211,159.9 217.5,157.3 224.2,155.1 231,153.4 238,152.2 245,151.4 	"/>
	
		<polygon style="clip-path:url(#SVGID_00000096040436911864820330000006881182782720788355_);fill:#620057;stroke:#000000;stroke-width:0.17;stroke-miterlimit:10;" points="
		349.2,136.2 353.8,130.7 358.5,125.1 363.1,119.6 367.7,114.1 372.3,108.6 377,103.1 381.6,97.6 376.1,93.1 370.5,88.9 364.7,84.9 
		358.8,81 352.8,77.4 346.6,74 340.4,70.8 334,67.8 327.5,65.1 321,62.6 314.3,60.3 307.6,58.2 300.8,56.4 293.9,54.8 287,53.5 
		280.1,52.4 273.1,51.5 266.1,50.9 259,50.5 252,50.4 252,57.6 252,64.8 252,72 252,79.2 252,86.4 252,93.6 252,100.8 259,101 
		266,101.4 273,102.3 280,103.4 286.9,104.9 293.7,106.7 300.4,108.8 307,111.2 313.5,113.9 319.9,116.9 326.1,120.2 332.1,123.8 
		338,127.6 343.7,131.8 	"/>
	
		<polygon style="clip-path:url(#SVGID_00000096040436911864820330000006881182782720788355_);fill:#7A0058;stroke:#000000;stroke-width:0.17;stroke-miterlimit:10;" points="
		400.9,225.7 408,224.5 415.1,223.2 422.2,222 429.3,220.7 436.4,219.5 443.5,218.2 450.5,217 449.2,210.1 447.6,203.2 445.8,196.4 
		443.7,189.7 441.4,183.1 438.9,176.5 436.2,170 433.2,163.6 430,157.4 426.6,151.2 423,145.2 419.1,139.3 415.1,133.5 410.9,127.9 
		406.4,122.4 401.8,117.1 397,112 392,107 386.9,102.2 381.6,97.6 377,103.1 372.3,108.6 367.7,114.1 363.1,119.6 358.5,125.1 
		353.8,130.7 349.2,136.2 354.5,140.8 359.5,145.7 364.4,150.8 369,156.2 373.3,161.7 377.4,167.4 381.1,173.4 384.7,179.5 
		387.9,185.7 390.8,192.1 393.5,198.6 395.8,205.3 397.8,212 399.5,218.9 	"/>
	
		<polygon style="clip-path:url(#SVGID_00000096040436911864820330000006881182782720788355_);fill:#7A0058;stroke:#000000;stroke-width:0.17;stroke-miterlimit:10;" points="
		382.9,327.6 389.2,331.2 395.4,334.8 401.6,338.4 407.9,342 414.1,345.6 420.4,349.2 426.6,352.8 430,346.6 433.2,340.4 436.2,334 
		438.9,327.5 441.4,321 443.7,314.3 445.8,307.6 447.6,300.8 449.2,293.9 450.5,287 451.6,280.1 452.5,273.1 453.1,266.1 453.5,259 
		453.6,252 453.5,245 453.1,237.9 452.5,230.9 451.6,223.9 450.5,217 443.5,218.2 436.4,219.5 429.3,220.7 422.2,222 415.1,223.2 
		408,224.5 400.9,225.7 402,232.7 402.7,239.7 403.1,246.7 403.2,253.8 402.9,260.8 402.4,267.8 401.5,274.8 400.2,281.7 
		398.7,288.6 396.9,295.4 394.7,302.1 392.2,308.6 389.4,315.1 386.3,321.4 	"/>
	
		<polygon style="clip-path:url(#SVGID_00000096040436911864820330000006881182782720788355_);fill:#EF002C;stroke:#000000;stroke-width:0.17;stroke-miterlimit:10;" points="
		303.7,394.1 306.2,400.9 308.6,407.6 311.1,414.4 313.6,421.1 316,427.9 318.5,434.7 321,441.4 327.5,438.9 334,436.2 340.4,433.2 
		346.6,430 352.8,426.6 358.8,423 364.7,419.1 370.5,415.1 376.1,410.9 381.6,406.4 386.9,401.8 392,397 397,392 401.8,386.9 
		406.4,381.6 410.9,376.1 415.1,370.5 419.1,364.7 423,358.8 426.6,352.8 420.4,349.2 414.1,345.6 407.9,342 401.6,338.4 
		395.4,334.8 389.2,331.2 382.9,327.6 379.3,333.6 375.4,339.4 371.1,345.1 366.7,350.5 362,355.8 357,360.8 351.9,365.5 
		346.5,370.1 340.9,374.3 335.1,378.3 329.1,382 323,385.5 316.7,388.7 310.3,391.5 	"/>
	
		<polygon style="clip-path:url(#SVGID_00000096040436911864820330000006881182782720788355_);fill:#C54E00;stroke:#000000;stroke-width:0.17;stroke-miterlimit:10;" points="
		200.3,394.1 197.8,400.9 195.4,407.6 192.9,414.4 190.4,421.1 188,427.9 185.5,434.7 183.1,441.4 189.7,443.7 196.4,445.8 
		203.2,447.6 210.1,449.2 217,450.5 223.9,451.6 230.9,452.5 237.9,453.1 245,453.5 252,453.6 259,453.5 266.1,453.1 273.1,452.5 
		280.1,451.6 287,450.5 293.9,449.2 300.8,447.6 307.6,445.8 314.3,443.7 321,441.4 318.5,434.7 316,427.9 313.6,421.1 311.1,414.4 
		308.6,407.6 306.2,400.9 303.7,394.1 297,396.3 290.3,398.3 283.4,399.9 276.5,401.2 269.5,402.2 262.5,402.8 255.5,403.2 
		248.5,403.2 241.4,402.8 234.4,402.2 227.5,401.2 220.6,399.9 213.7,398.3 206.9,396.3 	"/>
	
		<polygon style="clip-path:url(#SVGID_00000096040436911864820330000006881182782720788355_);fill:#D46A00;stroke:#000000;stroke-width:0.17;stroke-miterlimit:10;" points="
		121.1,327.6 114.8,331.2 108.6,334.8 102.3,338.4 96.1,342 89.9,345.6 83.6,349.2 77.4,352.8 81,358.8 84.9,364.7 88.9,370.5 
		93.1,376.1 97.6,381.6 102.2,386.9 107,392 112,397 117.1,401.8 122.4,406.4 127.9,410.9 133.5,415.1 139.3,419.1 145.2,423 
		151.2,426.6 157.4,430 163.6,433.2 170,436.2 176.5,438.9 183.1,441.4 185.5,434.7 188,427.9 190.4,421.1 192.9,414.4 195.4,407.6 
		197.8,400.9 200.3,394.1 193.7,391.5 187.3,388.7 181,385.5 174.9,382 168.9,378.3 163.1,374.3 157.5,370.1 152.1,365.5 147,360.8 
		142,355.8 137.3,350.5 132.9,345.1 128.6,339.4 124.7,333.6 	"/>
	
		<polygon style="clip-path:url(#SVGID_00000096040436911864820330000006881182782720788355_);fill:#E28500;stroke:#000000;stroke-width:0.17;stroke-miterlimit:10;" points="
		103.1,225.7 96,224.5 88.9,223.2 81.8,222 74.7,220.7 67.6,219.5 60.5,218.2 53.5,217 52.4,223.9 51.5,230.9 50.9,237.9 50.5,245 
		50.4,252 50.5,259 50.9,266.1 51.5,273.1 52.4,280.1 53.5,287 54.8,293.9 56.4,300.8 58.2,307.6 60.3,314.3 62.6,321 65.1,327.5 
		67.8,334 70.8,340.4 74,346.6 77.4,352.8 83.6,349.2 89.9,345.6 96.1,342 102.3,338.4 108.6,334.8 114.8,331.2 121.1,327.6 
		117.7,321.4 114.6,315.1 111.8,308.6 109.3,302.1 107.2,295.4 105.3,288.6 103.8,281.7 102.5,274.8 101.6,267.8 101.1,260.8 
		100.8,253.8 100.9,246.7 101.3,239.7 102,232.7 	"/>
	
		<polygon style="clip-path:url(#SVGID_00000096040436911864820330000006881182782720788355_);fill:#7A0058;stroke:#000000;stroke-width:0.17;stroke-miterlimit:10;" points="
		154.8,136.2 150.2,130.7 145.6,125.1 140.9,119.6 136.3,114.1 131.7,108.6 127,103.1 122.4,97.6 117.1,102.2 112,107 107,112 
		102.2,117.1 97.6,122.4 93.1,127.9 88.9,133.5 84.9,139.3 81,145.2 77.4,151.2 74,157.4 70.8,163.6 67.8,170 65.1,176.5 
		62.6,183.1 60.3,189.7 58.2,196.4 56.4,203.2 54.8,210.1 53.5,217 60.5,218.2 67.6,219.5 74.7,220.7 81.8,222 88.9,223.2 96,224.5 
		103.1,225.7 104.5,218.9 106.2,212 108.2,205.3 110.5,198.6 113.2,192.1 116.1,185.7 119.3,179.5 122.8,173.4 126.7,167.4 
		130.7,161.7 135.1,156.2 139.6,150.8 144.5,145.7 149.5,140.8 	"/>
	
		<polygon style="clip-path:url(#SVGID_00000096040436911864820330000006881182782720788355_);fill:#757182;stroke:#000000;stroke-width:0.17;stroke-miterlimit:10;" points="
		252,100.8 252,93.6 252,86.4 252,79.2 252,72 252,64.8 252,57.6 252,50.4 245,50.5 237.9,50.9 230.9,51.5 223.9,52.4 217,53.5 
		210.1,54.8 203.2,56.4 196.4,58.2 189.7,60.3 183.1,62.6 176.5,65.1 170,67.8 163.6,70.8 157.4,74 151.2,77.4 145.2,81 139.3,84.9 
		133.5,88.9 127.9,93.1 122.4,97.6 127,103.1 131.7,108.6 136.3,114.1 140.9,119.6 145.6,125.1 150.2,130.7 154.8,136.2 
		160.3,131.8 166,127.6 171.9,123.8 177.9,120.2 184.1,116.9 190.5,113.9 197,111.2 203.6,108.8 210.3,106.7 217.1,104.9 224,103.4 
		231,102.3 237.9,101.4 245,101 	"/>
	
		<polygon style="clip-path:url(#SVGID_00000096040436911864820330000006881182782720788355_);fill:#FFFFFF;stroke:#FFFFFF;stroke-width:0.17;stroke-miterlimit:10;" points="
		252,252 256.6,246.5 261.3,241 265.9,235.4 270.5,229.9 275.1,224.4 279.8,218.9 284.4,213.4 278.7,209.3 272.5,206 265.9,203.6 
		259,202.1 252,201.6 252,208.8 252,216 252,223.2 252,230.4 252,237.6 252,244.8 	"/>
	
		<polygon style="clip-path:url(#SVGID_00000096040436911864820330000006881182782720788355_);fill:#FFFFFF;stroke:#FFFFFF;stroke-width:0.17;stroke-miterlimit:10;" points="
		252,252 259.1,250.8 266.2,249.5 273.3,248.2 280.4,247 287.5,245.8 294.5,244.5 301.6,243.2 299.9,236.4 297.3,229.9 293.8,223.8 
		289.5,218.3 284.4,213.4 279.8,218.9 275.1,224.4 270.5,229.9 265.9,235.4 261.3,241 256.6,246.5 	"/>
	
		<polygon style="clip-path:url(#SVGID_00000096040436911864820330000006881182782720788355_);fill:#FFFFFF;stroke:#FFFFFF;stroke-width:0.17;stroke-miterlimit:10;" points="
		252,252 258.2,255.6 264.5,259.2 270.7,262.8 276.9,266.4 283.2,270 289.4,273.6 295.6,277.2 298.7,270.9 300.9,264.2 302.1,257.3 
		302.4,250.2 301.6,243.2 294.5,244.5 287.5,245.8 280.4,247 273.3,248.2 266.2,249.5 259.1,250.8 	"/>
	
		<polygon style="clip-path:url(#SVGID_00000096040436911864820330000006881182782720788355_);fill:#FFFFFF;stroke:#FFFFFF;stroke-width:0.17;stroke-miterlimit:10;" points="
		252,252 254.5,258.8 256.9,265.5 259.4,272.3 261.9,279.1 264.3,285.8 266.8,292.6 269.2,299.4 275.7,296.5 281.6,292.8 287,288.2 
		291.7,283 295.6,277.2 289.4,273.6 283.2,270 276.9,266.4 270.7,262.8 264.5,259.2 258.2,255.6 	"/>
	
		<polygon style="clip-path:url(#SVGID_00000096040436911864820330000006881182782720788355_);fill:#FFFFFF;stroke:#FFFFFF;stroke-width:0.17;stroke-miterlimit:10;" points="
		252,252 249.5,258.8 247.1,265.5 244.6,272.3 242.1,279.1 239.7,285.8 237.2,292.6 234.8,299.4 241.5,301.3 248.5,302.3 
		255.5,302.3 262.5,301.3 269.2,299.4 266.8,292.6 264.3,285.8 261.9,279.1 259.4,272.3 256.9,265.5 254.5,258.8 	"/>
	
		<polygon style="clip-path:url(#SVGID_00000096040436911864820330000006881182782720788355_);fill:#FFFFFF;stroke:#FFFFFF;stroke-width:0.17;stroke-miterlimit:10;" points="
		252,252 245.8,255.6 239.5,259.2 233.3,262.8 227.1,266.4 220.8,270 214.6,273.6 208.4,277.2 212.3,283 217,288.2 222.4,292.8 
		228.3,296.5 234.8,299.4 237.2,292.6 239.7,285.8 242.1,279.1 244.6,272.3 247.1,265.5 249.5,258.8 	"/>
	
		<polygon style="clip-path:url(#SVGID_00000096040436911864820330000006881182782720788355_);fill:#FFFFFF;stroke:#FFFFFF;stroke-width:0.17;stroke-miterlimit:10;" points="
		252,252 244.9,250.8 237.8,249.5 230.7,248.2 223.6,247 216.6,245.8 209.5,244.5 202.4,243.2 201.6,250.2 201.9,257.3 203.1,264.2 
		205.3,270.9 208.4,277.2 214.6,273.6 220.8,270 227.1,266.4 233.3,262.8 239.5,259.2 245.8,255.6 	"/>
	
		<polygon style="clip-path:url(#SVGID_00000096040436911864820330000006881182782720788355_);fill:#FFFFFF;stroke:#FFFFFF;stroke-width:0.17;stroke-miterlimit:10;" points="
		252,252 247.4,246.5 242.7,241 238.1,235.4 233.5,229.9 228.9,224.4 224.2,218.9 219.6,213.4 214.6,218.3 210.2,223.8 206.7,229.9 
		204.1,236.4 202.4,243.2 209.5,244.5 216.6,245.8 223.6,247 230.7,248.2 237.8,249.5 244.9,250.8 	"/>
	
		<polygon style="clip-path:url(#SVGID_00000096040436911864820330000006881182782720788355_);fill:#FFFFFF;stroke:#FFFFFF;stroke-width:0.17;stroke-miterlimit:10;" points="
		252,252 252,244.8 252,237.6 252,230.4 252,223.2 252,216 252,208.8 252,201.6 245,202.1 238.1,203.6 231.5,206 225.3,209.3 
		219.6,213.4 224.2,218.9 228.9,224.4 233.5,229.9 238.1,235.4 242.7,241 247.4,246.5 	"/>
	<g style="clip-path:url(#SVGID_00000096040436911864820330000006881182782720788355_);enable-background:new    ;">
		<text transform="matrix(1 0 0 1 239.3226 187.59)" class="st10 st11">Asterales</text>
	</g>
	<g style="clip-path:url(#SVGID_00000096040436911864820330000006881182782720788355_);enable-background:new    ;">
		<text transform="matrix(1 0 0 1 293.1806 220.83)" class="st10 st11">Caryophyllales</text>
	</g>
	<g style="clip-path:url(#SVGID_00000096040436911864820330000006881182782720788355_);enable-background:new    ;">
		<text transform="matrix(1 0 0 1 307.4443 262.5491)" class="st10 st11">Caryophyllales</text>
	</g>
	<g style="clip-path:url(#SVGID_00000096040436911864820330000006881182782720788355_);enable-background:new    ;">
		<text transform="matrix(1 0 0 1 262.0481 316.54)" class="st10 st11">Hypnales</text>
	</g>
	<g style="clip-path:url(#SVGID_00000096040436911864820330000006881182782720788355_);enable-background:new    ;">
		<text transform="matrix(1 0 0 1 225.392 338.9746)" class="st10 st11">Poales</text>
	</g>
	<g style="clip-path:url(#SVGID_00000096040436911864820330000006881182782720788355_);enable-background:new    ;">
		<text transform="matrix(1 0 0 1 157.469 317.0493)" class="st10 st11">Pottiales</text>
	</g>
	<g style="clip-path:url(#SVGID_00000096040436911864820330000006881182782720788355_);enable-background:new    ;">
		<text transform="matrix(1 0 0 1 132.0615 265.7442)" class="st10 st11">Rosales</text>
	</g>
	<g style="clip-path:url(#SVGID_00000096040436911864820330000006881182782720788355_);enable-background:new    ;">
		<text transform="matrix(1 0 0 1 93.7497 220.83)" class="st10 st11">Caryophyllales</text>
	</g>
	<g style="clip-path:url(#SVGID_00000096040436911864820330000006881182782720788355_);enable-background:new    ;">
		<text transform="matrix(1 0 0 1 160.8724 170.6517)" class="st10 st11">Ophioglossales</text>
	</g>
	<g style="clip-path:url(#SVGID_00000096040436911864820330000006881182782720788355_);enable-background:new    ;">
		<text transform="matrix(1 0 0 1 257.1212 145.0737)" class="st10 st11">Asteraceae</text>
	</g>
	<g style="clip-path:url(#SVGID_00000096040436911864820330000006881182782720788355_);enable-background:new    ;">
		<text transform="matrix(1 0 0 1 306.3682 202.5128)" class="st10 st11">Caryophyllaceae</text>
	</g>
	<g style="clip-path:url(#SVGID_00000096040436911864820330000006881182782720788355_);enable-background:new    ;">
		<text transform="matrix(1 0 0 1 324.6469 281.2415)" class="st10 st11">Polygonaceae</text>
	</g>
	<g style="clip-path:url(#SVGID_00000096040436911864820330000006881182782720788355_);enable-background:new    ;">
		<text transform="matrix(1 0 0 1 215.503 384.63)" class="st10 st11">Poaceae</text>
	</g>
	<g style="clip-path:url(#SVGID_00000096040436911864820330000006881182782720788355_);enable-background:new    ;">
		<text transform="matrix(1 0 0 1 127.3219 355.15)" class="st10 st11">Pottiaceae</text>
	</g>
	<g style="clip-path:url(#SVGID_00000096040436911864820330000006881182782720788355_);enable-background:new    ;">
		<text transform="matrix(1 0 0 1 86.07 283.979)" class="st10 st11">Rosaceae</text>
	</g>
	<g style="clip-path:url(#SVGID_00000096040436911864820330000006881182782720788355_);enable-background:new    ;">
		<text transform="matrix(1 0 0 1 74.0165 195.63)" class="st10 st11">Caryophyllaceae</text>
	</g>
	<g style="clip-path:url(#SVGID_00000096040436911864820330000006881182782720788355_);enable-background:new    ;">
		<text transform="matrix(1 0 0 1 127.7074 134.1461)" class="st10 st11">Ophioglossaceae</text>
	</g>
	<g style="clip-path:url(#SVGID_00000096040436911864820330000006881182782720788355_);enable-background:new    ;">
		<rect x="279.3" y="77" class="st0" width="67.8" height="21.9"/>
		<text transform="matrix(1 0 0 1 279.25 92.8698)"><tspan x="0" y="0" class="st10 st11 st12">Young</tspan><tspan x="61.7" y="0" class="st10 st11">-</tspan></text>
	</g>
	<g style="clip-path:url(#SVGID_00000096040436911864820330000006881182782720788355_);enable-background:new    ;">
		<text transform="matrix(1 0 0 1 59.6157 301.3493)" class="st10 st11">Rubus</text>
	</g>
	<g style="clip-path:url(#SVGID_00000096040436911864820330000006881182782720788355_);enable-background:new    ;">
		<text transform="matrix(1 0 0 1 74.9409 170.6518)" class="st10 st11">Stellaria</text>
	</g>
	<g style="clip-path:url(#SVGID_00000096040436911864820330000006881182782720788355_);enable-background:new    ;">
		<text transform="matrix(1 0 0 1 145.4315 92.87)" class="st10 st11">Botrychium</text>
	</g>
</g>
<text transform="matrix(1 0 0 1 222.1924 290)" class="st13 st14">9</text>
<g transform="translate(250, 260)">
</g>
</svg>
