<?xml version="1.0" encoding="utf-8"?>
<!-- Generator: Adobe Illustrator 28.1.0, SVG Export Plug-In . SVG Version: 6.00 Build 0)  -->
<svg version="1.1" id="Layer_1" xmlns="http://www.w3.org/2000/svg" xmlns:xlink="http://www.w3.org/1999/xlink" x="0px" y="0px"
	 viewBox="0 0 504 504" style="enable-background:new 0 0 504 504;" xml:space="preserve">
<style type="text/css">
	.st0{fill:none;}
	
		.st1{clip-path:url(#SVGID_00000080181299468651177450000007187063492582284193_);fill:#C54E00;stroke:#000000;stroke-width:0.17;stroke-miterlimit:10;}
	
		.st2{clip-path:url(#SVGID_00000109016828513885148260000003957580538884145793_);fill:#E28500;stroke:#000000;stroke-width:0.17;stroke-miterlimit:10;}
	
		.st3{clip-path:url(#SVGID_00000112628766429853269050000006248623928156973219_);fill:#FFD600;stroke:#000000;stroke-width:0.17;stroke-miterlimit:10;}
	
		.st4{clip-path:url(#SVGID_00000134228932188793794020000009827470745085812137_);fill:#FFD600;stroke:#000000;stroke-width:0.17;stroke-miterlimit:10;}
	
		.st5{clip-path:url(#SVGID_00000083069806564383789090000001534545265200837516_);fill:#7A0058;stroke:#000000;stroke-width:0.17;stroke-miterlimit:10;}
	
		.st6{clip-path:url(#SVGID_00000021815782407760311820000005830091284440766654_);fill:#C54E00;stroke:#000000;stroke-width:0.17;stroke-miterlimit:10;}
	
		.st7{clip-path:url(#SVGID_00000134246898229020675610000008272917408752522423_);fill:#C54E00;stroke:#000000;stroke-width:0.17;stroke-miterlimit:10;}
	
		.st8{clip-path:url(#SVGID_00000111187061888884880760000011673631327783925407_);fill:#C54E00;stroke:#000000;stroke-width:0.17;stroke-miterlimit:10;}
	
		.st9{clip-path:url(#SVGID_00000126303744986834141290000017488127239575227322_);fill:#E28500;stroke:#000000;stroke-width:0.17;stroke-miterlimit:10;}
	
		.st10{clip-path:url(#SVGID_00000003069328909105946250000003531522605584462481_);fill:#FFD600;stroke:#000000;stroke-width:0.17;stroke-miterlimit:10;}
	
		.st11{clip-path:url(#SVGID_00000092426045737484413130000006970534537114804666_);fill:#FFD600;stroke:#000000;stroke-width:0.17;stroke-miterlimit:10;}
	
		.st12{clip-path:url(#SVGID_00000088816562969273287430000009639637263479062439_);fill:#7A0058;stroke:#000000;stroke-width:0.17;stroke-miterlimit:10;}
	
		.st13{clip-path:url(#SVGID_00000008861587834109058990000005745959847085125767_);fill:#C54E00;stroke:#000000;stroke-width:0.17;stroke-miterlimit:10;}
	
		.st14{clip-path:url(#SVGID_00000069366086178367476750000003472029658935972279_);fill:#C54E00;stroke:#000000;stroke-width:0.17;stroke-miterlimit:10;}
	
		.st15{clip-path:url(#SVGID_00000163066701622994255450000010756670253850746765_);fill:#C54E00;stroke:#000000;stroke-width:0.17;stroke-miterlimit:10;}
	
		.st16{clip-path:url(#SVGID_00000163035002691046626560000001420105438712611243_);fill:#E28500;stroke:#000000;stroke-width:0.17;stroke-miterlimit:10;}
	
		.st17{clip-path:url(#SVGID_00000096041916316112060250000014531636867890867112_);fill:#FFD600;stroke:#000000;stroke-width:0.17;stroke-miterlimit:10;}
	
		.st18{clip-path:url(#SVGID_00000097501773366712518330000014534404618251308479_);fill:#FFD600;stroke:#000000;stroke-width:0.17;stroke-miterlimit:10;}
	
		.st19{clip-path:url(#SVGID_00000162317017227820142960000009100514183523596474_);fill:#7A0058;stroke:#000000;stroke-width:0.17;stroke-miterlimit:10;}
	
		.st20{clip-path:url(#SVGID_00000134238026996966718340000007116202108753756311_);fill:#C54E00;stroke:#000000;stroke-width:0.17;stroke-miterlimit:10;}
	
		.st21{clip-path:url(#SVGID_00000169534589390995259540000015443058945823098550_);fill:#C54E00;stroke:#000000;stroke-width:0.17;stroke-miterlimit:10;}
	
		.st22{clip-path:url(#SVGID_00000116211244318040595370000015525701513606583460_);fill:#FFFFFF;stroke:#FFFFFF;stroke-width:0.17;stroke-miterlimit:10;}
	
		.st23{clip-path:url(#SVGID_00000115510359165950536410000002799994359342194843_);fill:#FFFFFF;stroke:#FFFFFF;stroke-width:0.17;stroke-miterlimit:10;}
	
		.st24{clip-path:url(#SVGID_00000106137127296278569710000016044660593505226666_);fill:#FFFFFF;stroke:#FFFFFF;stroke-width:0.17;stroke-miterlimit:10;}
	
		.st25{clip-path:url(#SVGID_00000004537152513315491690000016757991762254037153_);fill:#FFFFFF;stroke:#FFFFFF;stroke-width:0.17;stroke-miterlimit:10;}
	
		.st26{clip-path:url(#SVGID_00000055705718904219519450000008470461661591495093_);fill:#FFFFFF;stroke:#FFFFFF;stroke-width:0.17;stroke-miterlimit:10;}
	
		.st27{clip-path:url(#SVGID_00000098197302342747488930000007146528071169321644_);fill:#FFFFFF;stroke:#FFFFFF;stroke-width:0.17;stroke-miterlimit:10;}
	
		.st28{clip-path:url(#SVGID_00000060024948113480884660000010144679124821628840_);fill:#FFFFFF;stroke:#FFFFFF;stroke-width:0.17;stroke-miterlimit:10;}
	.st29{clip-path:url(#SVGID_00000172405259674502037620000016468551334536115843_);enable-background:new    ;}
	.st30{font-family:'ArialMT';}
	.st31{font-size:18.49px;}
	.st32{clip-path:url(#SVGID_00000163044294173388161620000000118896043655031984_);enable-background:new    ;}
	.st33{clip-path:url(#SVGID_00000147185043747859572530000015050989447166062217_);enable-background:new    ;}
	.st34{letter-spacing:1;}
	.st35{clip-path:url(#SVGID_00000182494401897351892930000016156204416440770239_);enable-background:new    ;}
	.st36{clip-path:url(#SVGID_00000024715581679987533250000013767177833563989938_);enable-background:new    ;}
	.st37{clip-path:url(#SVGID_00000026145839544155789150000014287746650408802436_);enable-background:new    ;}
	.st38{clip-path:url(#SVGID_00000092422796720191444810000000048530892643794108_);enable-background:new    ;}
	.st39{clip-path:url(#SVGID_00000145741826026189549940000017480765280532187059_);enable-background:new    ;}
	.st40{clip-path:url(#SVGID_00000007388664452897005080000017755696575314325380_);enable-background:new    ;}
	.st41{clip-path:url(#SVGID_00000098183745956347419120000000112854323001173923_);enable-background:new    ;}
	.st42{clip-path:url(#SVGID_00000085955642626272445970000004330453194383471269_);enable-background:new    ;}
	.st43{clip-path:url(#SVGID_00000017474421969438296370000007463101725438355647_);enable-background:new    ;}
	.st44{clip-path:url(#SVGID_00000012457171114868618680000017499400566149535124_);enable-background:new    ;}
	.st45{clip-path:url(#SVGID_00000047028150143950208890000001775269175503211677_);enable-background:new    ;}
	.st46{clip-path:url(#SVGID_00000104694756115889036390000013036306568859976124_);enable-background:new    ;}
	.st47{letter-spacing:2;}
	.st48{clip-path:url(#SVGID_00000057854819822791981230000000470583303181773979_);enable-background:new    ;}
	.st49{clip-path:url(#SVGID_00000067937658335093089750000004429325934880196031_);enable-background:new    ;}
	.st50{clip-path:url(#SVGID_00000028303164812997766030000003804495201706188442_);enable-background:new    ;}
	.st51{font-size:100px;}
</style>
<rect y="0" class="st0" width="504" height="504"/>
<g>
	<defs>
		<rect id="SVGID_1_" y="0" width="504" height="504"/>
	</defs>
	<clipPath id="SVGID_00000129928449203256872090000006980098784056875186_">
		<use xlink:href="#SVGID_1_"  style="overflow:visible;"/>
	</clipPath>
	
		<polygon style="clip-path:url(#SVGID_00000129928449203256872090000006980098784056875186_);fill:#C54E00;stroke:#000000;stroke-width:0.17;stroke-miterlimit:10;" points="
		291.4,220.6 297,216.1 302.7,211.6 308.3,207.1 313.9,202.6 319.5,198.1 325.2,193.6 330.8,189.1 326.3,183.9 321.4,178.9 
		316.2,174.3 310.7,170 304.9,166.2 298.8,162.8 292.6,159.7 286.1,157.1 279.5,155 272.7,153.4 265.9,152.2 259,151.4 252,151.2 
		252,158.4 252,165.6 252,172.8 252,180 252,187.2 252,194.4 252,201.6 259.5,202.2 266.9,203.8 273.9,206.6 280.4,210.4 
		286.3,215.1 	"/>
</g>
<g>
	<defs>
		<rect id="SVGID_00000013896839011989058500000013836769055571958420_" y="0" width="504" height="504"/>
	</defs>
	<clipPath id="SVGID_00000173153235452486113180000003786226267056454050_">
		<use xlink:href="#SVGID_00000013896839011989058500000013836769055571958420_"  style="overflow:visible;"/>
	</clipPath>
	
		<polygon style="clip-path:url(#SVGID_00000173153235452486113180000003786226267056454050_);fill:#E28500;stroke:#000000;stroke-width:0.17;stroke-miterlimit:10;" points="
		301.1,263.2 308.2,264.8 315.2,266.4 322.2,268 329.2,269.6 336.2,271.2 343.2,272.8 350.3,274.4 351.6,267.6 352.4,260.7 
		352.8,253.7 352.7,246.8 352.1,239.9 351,233 349.4,226.2 347.4,219.5 345,213 342,206.7 338.7,200.6 335,194.7 330.8,189.1 
		325.2,193.6 319.5,198.1 313.9,202.6 308.3,207.1 302.7,211.6 297,216.1 291.4,220.6 295.6,226.8 298.9,233.6 301.1,240.8 
		302.3,248.2 302.3,255.8 	"/>
</g>
<g>
	<defs>
		<rect id="SVGID_00000150810072750381901000000011944189093818074524_" y="0" width="504" height="504"/>
	</defs>
	<clipPath id="SVGID_00000091696090832372505140000011387385413984856479_">
		<use xlink:href="#SVGID_00000150810072750381901000000011944189093818074524_"  style="overflow:visible;"/>
	</clipPath>
	
		<polygon style="clip-path:url(#SVGID_00000091696090832372505140000011387385413984856479_);fill:#FFD600;stroke:#000000;stroke-width:0.17;stroke-miterlimit:10;" points="
		273.9,297.4 277,303.9 280.1,310.4 283.2,316.9 286.4,323.4 289.5,329.8 292.6,336.3 295.7,342.8 301.9,339.6 307.8,335.9 
		313.5,331.9 318.8,327.5 323.9,322.7 328.6,317.5 332.9,312.1 336.9,306.4 340.4,300.4 343.6,294.2 346.2,287.7 348.5,281.2 
		350.3,274.4 343.2,272.8 336.2,271.2 329.2,269.6 322.2,268 315.2,266.4 308.2,264.8 301.1,263.2 298.9,270.4 295.6,277.2 
		291.4,283.4 286.3,289 280.4,293.6 	"/>
</g>
<g>
	<defs>
		<rect id="SVGID_00000114040091581591466080000000487914260346077875_" y="0" width="504" height="504"/>
	</defs>
	<clipPath id="SVGID_00000017476601756685345150000008371533492371111063_">
		<use xlink:href="#SVGID_00000114040091581591466080000000487914260346077875_"  style="overflow:visible;"/>
	</clipPath>
	
		<polygon style="clip-path:url(#SVGID_00000017476601756685345150000008371533492371111063_);fill:#FFD600;stroke:#000000;stroke-width:0.17;stroke-miterlimit:10;" points="
		230.1,297.4 227,303.9 223.9,310.4 220.8,316.9 217.6,323.4 214.5,329.8 211.4,336.3 208.3,342.8 214.6,345.6 221.2,348 
		227.9,349.9 234.7,351.3 241.6,352.3 248.5,352.7 255.5,352.7 262.4,352.3 269.3,351.3 276.1,349.9 282.8,348 289.4,345.6 
		295.7,342.8 292.6,336.3 289.5,329.8 286.4,323.4 283.2,316.9 280.1,310.4 277,303.9 273.9,297.4 266.9,300.2 259.5,301.8 
		252,302.4 244.5,301.8 237.1,300.2 	"/>
</g>
<g>
	<defs>
		<rect id="SVGID_00000001664994175926658060000008188506997450803842_" y="0" width="504" height="504"/>
	</defs>
	<clipPath id="SVGID_00000147912954000197138030000003981206742380693402_">
		<use xlink:href="#SVGID_00000001664994175926658060000008188506997450803842_"  style="overflow:visible;"/>
	</clipPath>
	
		<polygon style="clip-path:url(#SVGID_00000147912954000197138030000003981206742380693402_);fill:#7A0058;stroke:#000000;stroke-width:0.17;stroke-miterlimit:10;" points="
		202.9,263.2 195.8,264.8 188.8,266.4 181.8,268 174.8,269.6 167.8,271.2 160.8,272.8 153.7,274.4 155.5,281.2 157.8,287.7 
		160.4,294.2 163.6,300.4 167.1,306.4 171.1,312.1 175.4,317.5 180.1,322.7 185.2,327.5 190.5,331.9 196.2,335.9 202.1,339.6 
		208.3,342.8 211.4,336.3 214.5,329.8 217.6,323.4 220.8,316.9 223.9,310.4 227,303.9 230.1,297.4 223.6,293.6 217.7,289 
		212.6,283.4 208.4,277.2 205.1,270.4 	"/>
</g>
<g>
	<defs>
		<rect id="SVGID_00000134940587354288728710000009942955108245050265_" y="0" width="504" height="504"/>
	</defs>
	<clipPath id="SVGID_00000114052089224061367280000018254107343362562454_">
		<use xlink:href="#SVGID_00000134940587354288728710000009942955108245050265_"  style="overflow:visible;"/>
	</clipPath>
	
		<polygon style="clip-path:url(#SVGID_00000114052089224061367280000018254107343362562454_);fill:#C54E00;stroke:#000000;stroke-width:0.17;stroke-miterlimit:10;" points="
		212.6,220.6 207,216.1 201.3,211.6 195.7,207.1 190.1,202.6 184.4,198.1 178.8,193.6 173.2,189.1 169,194.7 165.3,200.6 
		161.9,206.7 159,213 156.6,219.5 154.6,226.2 153,233 151.9,239.9 151.3,246.8 151.2,253.7 151.6,260.7 152.4,267.6 153.7,274.4 
		160.8,272.8 167.8,271.2 174.8,269.6 181.8,268 188.8,266.4 195.8,264.8 202.9,263.2 201.7,255.8 201.7,248.2 202.9,240.8 
		205.1,233.6 208.4,226.8 	"/>
</g>
<g>
	<defs>
		<rect id="SVGID_00000012459303087389744960000010635680412398503580_" y="0" width="504" height="504"/>
	</defs>
	<clipPath id="SVGID_00000041261380002357817050000009509166254026851220_">
		<use xlink:href="#SVGID_00000012459303087389744960000010635680412398503580_"  style="overflow:visible;"/>
	</clipPath>
	
		<polygon style="clip-path:url(#SVGID_00000041261380002357817050000009509166254026851220_);fill:#C54E00;stroke:#000000;stroke-width:0.17;stroke-miterlimit:10;" points="
		252,201.6 252,194.4 252,187.2 252,180 252,172.8 252,165.6 252,158.4 252,151.2 245.1,151.4 238.1,152.2 231.3,153.4 224.5,155 
		217.9,157.1 211.4,159.7 205.2,162.8 199.1,166.2 193.3,170 187.8,174.3 182.6,178.9 177.7,183.9 173.2,189.1 178.8,193.6 
		184.4,198.1 190.1,202.6 195.7,207.1 201.3,211.6 207,216.1 212.6,220.6 217.7,215.1 223.6,210.4 230.1,206.6 237.1,203.8 
		244.5,202.2 	"/>
</g>
<g>
	<defs>
		<rect id="SVGID_00000142157217502837558580000009559236067719656638_" y="0" width="504" height="504"/>
	</defs>
	<clipPath id="SVGID_00000086689122479205141830000004392791770551019150_">
		<use xlink:href="#SVGID_00000142157217502837558580000009559236067719656638_"  style="overflow:visible;"/>
	</clipPath>
	
		<polygon style="clip-path:url(#SVGID_00000086689122479205141830000004392791770551019150_);fill:#C54E00;stroke:#000000;stroke-width:0.17;stroke-miterlimit:10;" points="
		330.8,189.1 336.4,184.7 342.1,180.2 347.7,175.7 353.3,171.2 359,166.7 364.6,162.2 370.2,157.7 365.6,152.2 360.8,147 355.7,142 
		350.4,137.2 344.9,132.7 339.1,128.4 333.2,124.4 327.1,120.8 320.8,117.4 314.4,114.3 307.8,111.5 301.1,109 294.3,106.8 
		287.4,105 280.4,103.5 273.4,102.3 266.3,101.5 259.1,101 252,100.8 252,108 252,115.2 252,122.4 252,129.6 252,136.8 252,144 
		252,151.2 259,151.4 265.9,152.2 272.7,153.4 279.5,155 286.1,157.1 292.6,159.7 298.8,162.8 304.9,166.2 310.7,170 316.2,174.3 
		321.4,178.9 326.3,183.9 	"/>
</g>
<g>
	<defs>
		<rect id="SVGID_00000167363292362944815260000016829524870850661291_" y="0" width="504" height="504"/>
	</defs>
	<clipPath id="SVGID_00000047759158988386257510000015001603353569689493_">
		<use xlink:href="#SVGID_00000167363292362944815260000016829524870850661291_"  style="overflow:visible;"/>
	</clipPath>
	
		<polygon style="clip-path:url(#SVGID_00000047759158988386257510000015001603353569689493_);fill:#E28500;stroke:#000000;stroke-width:0.17;stroke-miterlimit:10;" points="
		350.3,274.4 357.3,276 364.3,277.6 371.3,279.2 378.4,280.8 385.4,282.4 392.4,284 399.4,285.6 400.8,278.6 401.9,271.6 
		402.7,264.5 403.1,257.4 403.2,250.2 402.9,243.1 402.4,236 401.4,228.9 400.2,221.9 398.6,214.9 396.7,208 394.4,201.2 
		391.9,194.6 389,188 385.8,181.6 382.3,175.4 378.6,169.3 374.5,163.4 370.2,157.7 364.6,162.2 359,166.7 353.3,171.2 347.7,175.7 
		342.1,180.2 336.4,184.7 330.8,189.1 335,194.7 338.7,200.6 342,206.7 345,213 347.4,219.5 349.4,226.2 351,233 352.1,239.9 
		352.7,246.8 352.8,253.7 352.4,260.7 351.6,267.6 	"/>
</g>
<g>
	<defs>
		<rect id="SVGID_00000173867616503280629450000005748002609358409916_" y="0" width="504" height="504"/>
	</defs>
	<clipPath id="SVGID_00000054244514893868685780000001146047248012440493_">
		<use xlink:href="#SVGID_00000173867616503280629450000005748002609358409916_"  style="overflow:visible;"/>
	</clipPath>
	
		<polygon style="clip-path:url(#SVGID_00000054244514893868685780000001146047248012440493_);fill:#FFD600;stroke:#000000;stroke-width:0.17;stroke-miterlimit:10;" points="
		295.7,342.8 298.9,349.3 302,355.8 305.1,362.3 308.2,368.8 311.4,375.2 314.5,381.7 317.6,388.2 324,385 330.2,381.4 336.2,377.6 
		342,373.5 347.7,369.1 353.1,364.4 358.3,359.5 363.2,354.4 368,349 372.4,343.5 376.6,337.7 380.5,331.7 384.1,325.5 387.4,319.2 
		390.5,312.7 393.2,306.1 395.6,299.4 397.7,292.6 399.4,285.6 392.4,284 385.4,282.4 378.4,280.8 371.3,279.2 364.3,277.6 
		357.3,276 350.3,274.4 348.5,281.2 346.2,287.7 343.6,294.2 340.4,300.4 336.9,306.4 332.9,312.1 328.6,317.5 323.9,322.7 
		318.8,327.5 313.5,331.9 307.8,335.9 301.9,339.6 	"/>
</g>
<g>
	<defs>
		<rect id="SVGID_00000179636755733647521350000000086750143894368175_" y="0" width="504" height="504"/>
	</defs>
	<clipPath id="SVGID_00000052102385977667008040000013720166258393085344_">
		<use xlink:href="#SVGID_00000179636755733647521350000000086750143894368175_"  style="overflow:visible;"/>
	</clipPath>
	
		<polygon style="clip-path:url(#SVGID_00000052102385977667008040000013720166258393085344_);fill:#FFD600;stroke:#000000;stroke-width:0.17;stroke-miterlimit:10;" points="
		208.3,342.8 205.1,349.3 202,355.8 198.9,362.3 195.8,368.8 192.6,375.2 189.5,381.7 186.4,388.2 192.9,391.2 199.5,393.8 
		206.3,396.1 213.1,398.1 220.1,399.8 227.1,401.1 234.2,402.1 241.3,402.8 248.4,403.2 255.6,403.2 262.7,402.8 269.8,402.1 
		276.9,401.1 283.9,399.8 290.9,398.1 297.7,396.1 304.5,393.8 311.1,391.2 317.6,388.2 314.5,381.7 311.4,375.2 308.2,368.8 
		305.1,362.3 302,355.8 298.9,349.3 295.7,342.8 289.4,345.6 282.8,348 276.1,349.9 269.3,351.3 262.4,352.3 255.5,352.7 
		248.5,352.7 241.6,352.3 234.7,351.3 227.9,349.9 221.2,348 214.6,345.6 	"/>
</g>
<g>
	<defs>
		<rect id="SVGID_00000183958668204043247440000015130892641260503743_" y="0" width="504" height="504"/>
	</defs>
	<clipPath id="SVGID_00000107555367723784110160000002428112338795780763_">
		<use xlink:href="#SVGID_00000183958668204043247440000015130892641260503743_"  style="overflow:visible;"/>
	</clipPath>
	
		<polygon style="clip-path:url(#SVGID_00000107555367723784110160000002428112338795780763_);fill:#7A0058;stroke:#000000;stroke-width:0.17;stroke-miterlimit:10;" points="
		153.7,274.4 146.7,276 139.7,277.6 132.7,279.2 125.7,280.8 118.6,282.4 111.6,284 104.6,285.6 106.3,292.6 108.4,299.4 
		110.8,306.1 113.5,312.7 116.6,319.2 119.9,325.5 123.5,331.7 127.4,337.7 131.6,343.5 136.1,349 140.8,354.4 145.7,359.5 
		150.9,364.4 156.3,369.1 162,373.5 167.8,377.6 173.8,381.4 180,385 186.4,388.2 189.5,381.7 192.6,375.2 195.8,368.8 198.9,362.3 
		202,355.8 205.1,349.3 208.3,342.8 202.1,339.6 196.2,335.9 190.5,331.9 185.2,327.5 180.1,322.7 175.4,317.5 171.1,312.1 
		167.1,306.4 163.6,300.4 160.4,294.2 157.8,287.7 155.5,281.2 	"/>
</g>
<g>
	<defs>
		<rect id="SVGID_00000087372743470036798840000002645550540573400723_" y="0" width="504" height="504"/>
	</defs>
	<clipPath id="SVGID_00000157994015304219220720000005802920634735357102_">
		<use xlink:href="#SVGID_00000087372743470036798840000002645550540573400723_"  style="overflow:visible;"/>
	</clipPath>
	
		<polygon style="clip-path:url(#SVGID_00000157994015304219220720000005802920634735357102_);fill:#C54E00;stroke:#000000;stroke-width:0.17;stroke-miterlimit:10;" points="
		173.2,189.1 167.6,184.7 161.9,180.2 156.3,175.7 150.7,171.2 145.1,166.7 139.4,162.2 133.8,157.7 129.5,163.4 125.4,169.3 
		121.7,175.4 118.2,181.6 115,188 112.1,194.6 109.6,201.2 107.3,208 105.4,214.9 103.8,221.9 102.6,228.9 101.7,236 101.1,243.1 
		100.8,250.2 100.9,257.4 101.3,264.5 102.1,271.6 103.2,278.6 104.6,285.6 111.6,284 118.6,282.4 125.7,280.8 132.7,279.2 
		139.7,277.6 146.7,276 153.7,274.4 152.4,267.6 151.6,260.7 151.2,253.7 151.3,246.8 151.9,239.9 153,233 154.6,226.2 156.6,219.5 
		159,213 161.9,206.7 165.3,200.6 169,194.7 	"/>
</g>
<g>
	<defs>
		<rect id="SVGID_00000110439508417731059630000015981911839993991084_" y="0" width="504" height="504"/>
	</defs>
	<clipPath id="SVGID_00000029760016929350657190000006080517691578176167_">
		<use xlink:href="#SVGID_00000110439508417731059630000015981911839993991084_"  style="overflow:visible;"/>
	</clipPath>
	
		<polygon style="clip-path:url(#SVGID_00000029760016929350657190000006080517691578176167_);fill:#C54E00;stroke:#000000;stroke-width:0.17;stroke-miterlimit:10;" points="
		252,151.2 252,144 252,136.8 252,129.6 252,122.4 252,115.2 252,108 252,100.8 244.9,101 237.7,101.5 230.6,102.3 223.6,103.5 
		216.6,105 209.7,106.8 202.9,109 196.2,111.5 189.6,114.3 183.2,117.4 176.9,120.8 170.8,124.4 164.9,128.4 159.1,132.7 
		153.6,137.2 148.3,142 143.2,147 138.4,152.2 133.8,157.7 139.4,162.2 145.1,166.7 150.7,171.2 156.3,175.7 161.9,180.2 
		167.6,184.7 173.2,189.1 177.7,183.9 182.6,178.9 187.8,174.3 193.3,170 199.1,166.2 205.2,162.8 211.4,159.7 217.9,157.1 
		224.5,155 231.3,153.4 238.1,152.2 245.1,151.4 	"/>
</g>
<g>
	<defs>
		<rect id="SVGID_00000072272403160812697400000009597924399490714043_" y="0" width="504" height="504"/>
	</defs>
	<clipPath id="SVGID_00000029764885853931713680000016975720864417888395_">
		<use xlink:href="#SVGID_00000072272403160812697400000009597924399490714043_"  style="overflow:visible;"/>
	</clipPath>
	
		<polygon style="clip-path:url(#SVGID_00000029764885853931713680000016975720864417888395_);fill:#C54E00;stroke:#000000;stroke-width:0.17;stroke-miterlimit:10;" points="
		370.2,157.7 375.8,153.2 381.5,148.8 387.1,144.3 392.7,139.8 398.4,135.3 404,130.8 409.6,126.3 405.2,120.9 400.6,115.7 
		395.8,110.7 390.8,105.8 385.7,101.1 380.4,96.6 375,92.2 369.4,88.1 363.6,84.1 357.8,80.4 351.8,76.8 345.7,73.5 339.5,70.4 
		333.1,67.4 326.7,64.8 320.2,62.3 313.6,60 307,58 300.2,56.3 293.5,54.7 286.6,53.4 279.8,52.3 272.8,51.5 265.9,50.9 259,50.5 
		252,50.4 252,57.6 252,64.8 252,72 252,79.2 252,86.4 252,93.6 252,100.8 259.1,101 266.3,101.5 273.4,102.3 280.4,103.5 
		287.4,105 294.3,106.8 301.1,109 307.8,111.5 314.4,114.3 320.8,117.4 327.1,120.8 333.2,124.4 339.1,128.4 344.9,132.7 
		350.4,137.2 355.7,142 360.8,147 365.6,152.2 	"/>
</g>
<g>
	<defs>
		<rect id="SVGID_00000110463483937654570700000014503451099281777796_" y="0" width="504" height="504"/>
	</defs>
	<clipPath id="SVGID_00000073687044895008208920000008941559156770505109_">
		<use xlink:href="#SVGID_00000110463483937654570700000014503451099281777796_"  style="overflow:visible;"/>
	</clipPath>
	
		<polygon style="clip-path:url(#SVGID_00000073687044895008208920000008941559156770505109_);fill:#E28500;stroke:#000000;stroke-width:0.17;stroke-miterlimit:10;" points="
		399.4,285.6 406.4,287.2 413.5,288.9 420.5,290.5 427.5,292 434.5,293.7 441.5,295.3 448.5,296.9 450,290 451.2,283.2 452.1,276.3 
		452.9,269.4 453.3,262.4 453.6,255.5 453.6,248.5 453.3,241.6 452.9,234.6 452.1,227.7 451.2,220.8 450,213.9 448.5,207.1 
		446.9,200.4 445,193.7 442.9,187.1 440.5,180.5 437.9,174.1 435.1,167.7 432.1,161.4 428.9,155.2 425.4,149.2 421.8,143.3 
		417.9,137.5 413.9,131.8 409.6,126.3 404,130.8 398.4,135.3 392.7,139.8 387.1,144.3 381.5,148.8 375.8,153.2 370.2,157.7 
		374.5,163.4 378.6,169.3 382.3,175.4 385.8,181.6 389,188 391.9,194.6 394.4,201.2 396.7,208 398.6,214.9 400.2,221.9 401.4,228.9 
		402.4,236 402.9,243.1 403.2,250.2 403.1,257.4 402.7,264.5 401.9,271.6 400.8,278.6 	"/>
</g>
<g>
	<defs>
		<rect id="SVGID_00000058585589874704982840000010955055027162864299_" y="0" width="504" height="504"/>
	</defs>
	<clipPath id="SVGID_00000168118313181540088430000005146145758785759675_">
		<use xlink:href="#SVGID_00000058585589874704982840000010955055027162864299_"  style="overflow:visible;"/>
	</clipPath>
	
		<polygon style="clip-path:url(#SVGID_00000168118313181540088430000005146145758785759675_);fill:#FFD600;stroke:#000000;stroke-width:0.17;stroke-miterlimit:10;" points="
		317.6,388.2 320.7,394.7 323.9,401.2 327,407.7 330.1,414.2 333.2,420.7 336.4,427.1 339.5,433.6 345.7,430.5 351.8,427.2 
		357.8,423.6 363.6,419.9 369.4,415.9 375,411.8 380.4,407.4 385.7,402.9 390.8,398.2 395.8,393.3 400.6,388.3 405.2,383.1 
		409.6,377.7 413.9,372.2 417.9,366.5 421.8,360.7 425.4,354.8 428.9,348.8 432.1,342.6 435.1,336.3 437.9,330 440.5,323.5 
		442.9,316.9 445,310.3 446.9,303.6 448.5,296.9 441.5,295.3 434.5,293.7 427.5,292 420.5,290.5 413.5,288.9 406.4,287.2 
		399.4,285.6 397.7,292.6 395.6,299.4 393.2,306.1 390.5,312.7 387.4,319.2 384.1,325.5 380.5,331.7 376.6,337.7 372.4,343.5 
		368,349 363.2,354.4 358.3,359.5 353.1,364.4 347.7,369.1 342,373.5 336.2,377.6 330.2,381.4 324,385 	"/>
</g>
<g>
	<defs>
		<rect id="SVGID_00000163760909370944181180000008772618453835204264_" y="0" width="504" height="504"/>
	</defs>
	<clipPath id="SVGID_00000010992123629275779700000000064722061256783259_">
		<use xlink:href="#SVGID_00000163760909370944181180000008772618453835204264_"  style="overflow:visible;"/>
	</clipPath>
	
		<polygon style="clip-path:url(#SVGID_00000010992123629275779700000000064722061256783259_);fill:#FFD600;stroke:#000000;stroke-width:0.17;stroke-miterlimit:10;" points="
		186.4,388.2 183.3,394.7 180.1,401.2 177,407.7 173.9,414.2 170.8,420.7 167.6,427.1 164.5,433.6 170.9,436.5 177.3,439.2 
		183.8,441.7 190.4,444 197,446 203.8,447.7 210.5,449.3 217.4,450.6 224.2,451.7 231.2,452.5 238.1,453.1 245,453.5 252,453.6 
		259,453.5 265.9,453.1 272.8,452.5 279.8,451.7 286.6,450.6 293.5,449.3 300.2,447.7 307,446 313.6,444 320.2,441.7 326.7,439.2 
		333.1,436.5 339.5,433.6 336.4,427.1 333.2,420.7 330.1,414.2 327,407.7 323.9,401.2 320.7,394.7 317.6,388.2 311.1,391.2 
		304.5,393.8 297.7,396.1 290.9,398.1 283.9,399.8 276.9,401.1 269.8,402.1 262.7,402.8 255.6,403.2 248.4,403.2 241.3,402.8 
		234.2,402.1 227.1,401.1 220.1,399.8 213.1,398.1 206.3,396.1 199.5,393.8 192.9,391.2 	"/>
</g>
<g>
	<defs>
		<rect id="SVGID_00000014631824189345174930000003065035185169534387_" y="0" width="504" height="504"/>
	</defs>
	<clipPath id="SVGID_00000098214039980719676590000010316070321363954108_">
		<use xlink:href="#SVGID_00000014631824189345174930000003065035185169534387_"  style="overflow:visible;"/>
	</clipPath>
	
		<polygon style="clip-path:url(#SVGID_00000098214039980719676590000010316070321363954108_);fill:#7A0058;stroke:#000000;stroke-width:0.17;stroke-miterlimit:10;" points="
		104.6,285.6 97.6,287.2 90.6,288.9 83.5,290.5 76.5,292 69.5,293.7 62.5,295.3 55.5,296.9 57.1,303.6 59,310.3 61.2,316.9 
		63.5,323.5 66.1,330 68.9,336.3 71.9,342.6 75.1,348.8 78.6,354.8 82.2,360.7 86.1,366.5 90.1,372.2 94.4,377.7 98.8,383.1 
		103.4,388.3 108.2,393.3 113.2,398.2 118.3,402.9 123.6,407.4 129,411.8 134.6,415.9 140.4,419.9 146.2,423.6 152.2,427.2 
		158.3,430.5 164.5,433.6 167.6,427.1 170.8,420.7 173.9,414.2 177,407.7 180.1,401.2 183.3,394.7 186.4,388.2 180,385 173.8,381.4 
		167.8,377.6 162,373.5 156.3,369.1 150.9,364.4 145.7,359.5 140.8,354.4 136.1,349 131.6,343.5 127.4,337.7 123.5,331.7 
		119.9,325.5 116.6,319.2 113.5,312.7 110.8,306.1 108.4,299.4 106.3,292.6 	"/>
</g>
<g>
	<defs>
		<rect id="SVGID_00000066510706782604308350000016936541205675710139_" y="0" width="504" height="504"/>
	</defs>
	<clipPath id="SVGID_00000147934362494807063830000002600898218469428621_">
		<use xlink:href="#SVGID_00000066510706782604308350000016936541205675710139_"  style="overflow:visible;"/>
	</clipPath>
	
		<polygon style="clip-path:url(#SVGID_00000147934362494807063830000002600898218469428621_);fill:#C54E00;stroke:#000000;stroke-width:0.17;stroke-miterlimit:10;" points="
		133.8,157.7 128.2,153.2 122.5,148.8 116.9,144.3 111.3,139.8 105.6,135.3 100,130.8 94.4,126.3 90.1,131.8 86.1,137.5 82.2,143.3 
		78.6,149.2 75.1,155.2 71.9,161.4 68.9,167.7 66.1,174.1 63.5,180.5 61.2,187.1 59,193.7 57.1,200.4 55.5,207.1 54,213.9 
		52.8,220.8 51.9,227.7 51.2,234.6 50.7,241.6 50.4,248.5 50.4,255.5 50.7,262.4 51.2,269.4 51.9,276.3 52.8,283.2 54,290 
		55.5,296.9 62.5,295.3 69.5,293.7 76.5,292 83.5,290.5 90.6,288.9 97.6,287.2 104.6,285.6 103.2,278.6 102.1,271.6 101.3,264.5 
		100.9,257.4 100.8,250.2 101.1,243.1 101.7,236 102.6,228.9 103.8,221.9 105.4,214.9 107.3,208 109.6,201.2 112.1,194.6 115,188 
		118.2,181.6 121.7,175.4 125.4,169.3 129.5,163.4 	"/>
</g>
<g>
	<defs>
		<rect id="SVGID_00000155116831354679045980000004282023662254967222_" y="0" width="504" height="504"/>
	</defs>
	<clipPath id="SVGID_00000063611805606860631680000001161897045498250382_">
		<use xlink:href="#SVGID_00000155116831354679045980000004282023662254967222_"  style="overflow:visible;"/>
	</clipPath>
	
		<polygon style="clip-path:url(#SVGID_00000063611805606860631680000001161897045498250382_);fill:#C54E00;stroke:#000000;stroke-width:0.17;stroke-miterlimit:10;" points="
		252,100.8 252,93.6 252,86.4 252,79.2 252,72 252,64.8 252,57.6 252,50.4 245,50.5 238.1,50.9 231.2,51.5 224.2,52.3 217.4,53.4 
		210.5,54.7 203.8,56.3 197,58 190.4,60 183.8,62.3 177.3,64.8 170.9,67.4 164.5,70.4 158.3,73.5 152.2,76.8 146.2,80.4 140.4,84.1 
		134.6,88.1 129,92.2 123.6,96.6 118.3,101.1 113.2,105.8 108.2,110.7 103.4,115.7 98.8,120.9 94.4,126.3 100,130.8 105.6,135.3 
		111.3,139.8 116.9,144.3 122.5,148.8 128.2,153.2 133.8,157.7 138.4,152.2 143.2,147 148.3,142 153.6,137.2 159.1,132.7 
		164.9,128.4 170.8,124.4 176.9,120.8 183.2,117.4 189.6,114.3 196.2,111.5 202.9,109 209.7,106.8 216.6,105 223.6,103.5 
		230.6,102.3 237.7,101.5 244.9,101 	"/>
</g>
<g>
	<defs>
		<rect id="SVGID_00000176754392216850924130000010751554533700080261_" y="0" width="504" height="504"/>
	</defs>
	<clipPath id="SVGID_00000171682391000277551540000017340696501962731951_">
		<use xlink:href="#SVGID_00000176754392216850924130000010751554533700080261_"  style="overflow:visible;"/>
	</clipPath>
	
		<polygon style="clip-path:url(#SVGID_00000171682391000277551540000017340696501962731951_);fill:#FFFFFF;stroke:#FFFFFF;stroke-width:0.17;stroke-miterlimit:10;" points="
		252,252 257.6,247.5 263.3,243 268.9,238.5 274.5,234 280.1,229.6 285.8,225.1 291.4,220.6 286.3,215.1 280.4,210.4 273.9,206.6 
		266.9,203.8 259.5,202.2 252,201.6 252,208.8 252,216 252,223.2 252,230.4 252,237.6 252,244.8 	"/>
</g>
<g>
	<defs>
		<rect id="SVGID_00000046310763091222191450000015918099777182910907_" y="0" width="504" height="504"/>
	</defs>
	<clipPath id="SVGID_00000050638343885759197250000015347935203971411841_">
		<use xlink:href="#SVGID_00000046310763091222191450000015918099777182910907_"  style="overflow:visible;"/>
	</clipPath>
	
		<polygon style="clip-path:url(#SVGID_00000050638343885759197250000015347935203971411841_);fill:#FFFFFF;stroke:#FFFFFF;stroke-width:0.17;stroke-miterlimit:10;" points="
		252,252 259,253.6 266,255.2 273.1,256.8 280.1,258.4 287.1,260 294.1,261.6 301.1,263.2 302.3,255.8 302.3,248.2 301.1,240.8 
		298.9,233.6 295.6,226.8 291.4,220.6 285.8,225.1 280.1,229.6 274.5,234 268.9,238.5 263.3,243 257.6,247.5 	"/>
</g>
<g>
	<defs>
		<rect id="SVGID_00000056423921527251396020000004936180264781817482_" y="0" width="504" height="504"/>
	</defs>
	<clipPath id="SVGID_00000016043660410915778990000016986735468272038829_">
		<use xlink:href="#SVGID_00000056423921527251396020000004936180264781817482_"  style="overflow:visible;"/>
	</clipPath>
	
		<polygon style="clip-path:url(#SVGID_00000016043660410915778990000016986735468272038829_);fill:#FFFFFF;stroke:#FFFFFF;stroke-width:0.17;stroke-miterlimit:10;" points="
		252,252 255.1,258.5 258.2,265 261.4,271.5 264.5,278 267.6,284.4 270.7,290.9 273.9,297.4 280.4,293.6 286.3,289 291.4,283.4 
		295.6,277.2 298.9,270.4 301.1,263.2 294.1,261.6 287.1,260 280.1,258.4 273.1,256.8 266,255.2 259,253.6 	"/>
</g>
<g>
	<defs>
		<rect id="SVGID_00000173161163685259195260000003626094300267211184_" y="0" width="504" height="504"/>
	</defs>
	<clipPath id="SVGID_00000119085022899576251410000006985079173419947943_">
		<use xlink:href="#SVGID_00000173161163685259195260000003626094300267211184_"  style="overflow:visible;"/>
	</clipPath>
	
		<polygon style="clip-path:url(#SVGID_00000119085022899576251410000006985079173419947943_);fill:#FFFFFF;stroke:#FFFFFF;stroke-width:0.17;stroke-miterlimit:10;" points="
		252,252 248.9,258.5 245.8,265 242.6,271.5 239.5,278 236.4,284.4 233.3,290.9 230.1,297.4 237.1,300.2 244.5,301.8 252,302.4 
		259.5,301.8 266.9,300.2 273.9,297.4 270.7,290.9 267.6,284.4 264.5,278 261.4,271.5 258.2,265 255.1,258.5 	"/>
</g>
<g>
	<defs>
		<rect id="SVGID_00000138572886680390862190000007011270645428953486_" y="0" width="504" height="504"/>
	</defs>
	<clipPath id="SVGID_00000168112215055157194870000011447212634333323401_">
		<use xlink:href="#SVGID_00000138572886680390862190000007011270645428953486_"  style="overflow:visible;"/>
	</clipPath>
	
		<polygon style="clip-path:url(#SVGID_00000168112215055157194870000011447212634333323401_);fill:#FFFFFF;stroke:#FFFFFF;stroke-width:0.17;stroke-miterlimit:10;" points="
		252,252 245,253.6 238,255.2 230.9,256.8 223.9,258.4 216.9,260 209.9,261.6 202.9,263.2 205.1,270.4 208.4,277.2 212.6,283.4 
		217.7,289 223.6,293.6 230.1,297.4 233.3,290.9 236.4,284.4 239.5,278 242.6,271.5 245.8,265 248.9,258.5 	"/>
</g>
<g>
	<defs>
		<rect id="SVGID_00000018229072517331076360000009398892198815049118_" y="0" width="504" height="504"/>
	</defs>
	<clipPath id="SVGID_00000168799569157558379360000012579265874100401074_">
		<use xlink:href="#SVGID_00000018229072517331076360000009398892198815049118_"  style="overflow:visible;"/>
	</clipPath>
	
		<polygon style="clip-path:url(#SVGID_00000168799569157558379360000012579265874100401074_);fill:#FFFFFF;stroke:#FFFFFF;stroke-width:0.17;stroke-miterlimit:10;" points="
		252,252 246.4,247.5 240.7,243 235.1,238.5 229.5,234 223.9,229.6 218.2,225.1 212.6,220.6 208.4,226.8 205.1,233.6 202.9,240.8 
		201.7,248.2 201.7,255.8 202.9,263.2 209.9,261.6 216.9,260 223.9,258.4 230.9,256.8 238,255.2 245,253.6 	"/>
</g>
<g>
	<defs>
		<rect id="SVGID_00000094618103197163897470000006054765245997485995_" y="0" width="504" height="504"/>
	</defs>
	<clipPath id="SVGID_00000129173548833739840170000002040137436013392549_">
		<use xlink:href="#SVGID_00000094618103197163897470000006054765245997485995_"  style="overflow:visible;"/>
	</clipPath>
	
		<polygon style="clip-path:url(#SVGID_00000129173548833739840170000002040137436013392549_);fill:#FFFFFF;stroke:#FFFFFF;stroke-width:0.17;stroke-miterlimit:10;" points="
		252,252 252,244.8 252,237.6 252,230.4 252,223.2 252,216 252,208.8 252,201.6 244.5,202.2 237.1,203.8 230.1,206.6 223.6,210.4 
		217.7,215.1 212.6,220.6 218.2,225.1 223.9,229.6 229.5,234 235.1,238.5 240.7,243 246.4,247.5 	"/>
</g>
<g>
	<defs>
		<rect id="SVGID_00000103951443051905858060000017706192148029182395_" y="0" width="504" height="504"/>
	</defs>
	<clipPath id="SVGID_00000150060110707667161400000017794486442421630873_">
		<use xlink:href="#SVGID_00000103951443051905858060000017706192148029182395_"  style="overflow:visible;"/>
	</clipPath>
	<g style="clip-path:url(#SVGID_00000150060110707667161400000017794486442421630873_);enable-background:new    ;">
		<text transform="matrix(1 0 0 1 256.5323 190.51)" class="st30 st31">Poales</text>
	</g>
</g>
<g>
	<defs>
		<rect id="SVGID_00000020381721063668820070000012699258236141349533_" y="0" width="504" height="504"/>
	</defs>
	<clipPath id="SVGID_00000147206445459060030220000005688706531186416269_">
		<use xlink:href="#SVGID_00000020381721063668820070000012699258236141349533_"  style="overflow:visible;"/>
	</clipPath>
	<g style="clip-path:url(#SVGID_00000147206445459060030220000005688706531186416269_);enable-background:new    ;">
		<text transform="matrix(1 0 0 1 309.7744 244.8432)" class="st30 st31">Rosales</text>
	</g>
</g>
<g>
	<defs>
		<rect id="SVGID_00000142883050975609239100000000135977323514495675_" y="0" width="504" height="504"/>
	</defs>
	<clipPath id="SVGID_00000138573237412681657020000013230386276508693939_">
		<use xlink:href="#SVGID_00000142883050975609239100000000135977323514495675_"  style="overflow:visible;"/>
	</clipPath>
	<g style="clip-path:url(#SVGID_00000138573237412681657020000013230386276508693939_);enable-background:new    ;">
		<rect x="288" y="290" class="st0" width="55.5" height="21.9"/>
		<text transform="matrix(1 0 0 1 286.5845 306.0704)" class="st30 st31 st34">Vitales</text>
		<text transform="matrix(1 0 0 1 335.8845 306.0704)" class="st30 st31">-</text>
	</g>
</g>
<g>
	<defs>
		<rect id="SVGID_00000082340619811858796930000010255471682624899243_" y="0" width="504" height="504"/>
	</defs>
	<clipPath id="SVGID_00000060030220244071118560000008811880784846392194_">
		<use xlink:href="#SVGID_00000082340619811858796930000010255471682624899243_"  style="overflow:visible;"/>
	</clipPath>
	<g style="clip-path:url(#SVGID_00000060030220244071118560000008811880784846392194_);enable-background:new    ;">
		<rect x="224.4" y="318.4" class="st0" width="55.5" height="21.9"/>
		<text transform="matrix(1 0 0 1 224.4185 334.2302)" class="st30 st31 st34">Vitales</text>
		<text transform="matrix(1 0 0 1 273.7185 334.2302)" class="st30 st31">-</text>
	</g>
</g>
<g>
	<defs>
		<rect id="SVGID_00000086669835146522173810000002950037969636635273_" y="0" width="504" height="504"/>
	</defs>
	<clipPath id="SVGID_00000135667019972471062480000012599366025063133629_">
		<use xlink:href="#SVGID_00000086669835146522173810000002950037969636635273_"  style="overflow:visible;"/>
	</clipPath>
	<g style="clip-path:url(#SVGID_00000135667019972471062480000012599366025063133629_);enable-background:new    ;">
		<text transform="matrix(1 0 0 1 100.7011 304.464)" class="st30 st31">Caryophyllales</text>
	</g>
</g>
<g>
	<defs>
		<rect id="SVGID_00000049193691926347596890000003029517747075401874_" y="0" width="504" height="504"/>
	</defs>
	<clipPath id="SVGID_00000128482763679599570940000009477445221624569510_">
		<use xlink:href="#SVGID_00000049193691926347596890000003029517747075401874_"  style="overflow:visible;"/>
	</clipPath>
	<g style="clip-path:url(#SVGID_00000128482763679599570940000009477445221624569510_);enable-background:new    ;">
		<text transform="matrix(1 0 0 1 142.2047 243.6069)" class="st30 st31">Poales</text>
	</g>
</g>
<g>
	<defs>
		<rect id="SVGID_00000150102085767764038820000013890763626970260643_" y="0" width="504" height="504"/>
	</defs>
	<clipPath id="SVGID_00000090272491010246052620000007803165927884932508_">
		<use xlink:href="#SVGID_00000150102085767764038820000013890763626970260643_"  style="overflow:visible;"/>
	</clipPath>
	<g style="clip-path:url(#SVGID_00000090272491010246052620000007803165927884932508_);enable-background:new    ;">
		<text transform="matrix(1 0 0 1 190.9323 190.51)" class="st30 st31">Poales</text>
	</g>
</g>
<g>
	<defs>
		<rect id="SVGID_00000154412345880469187570000004885973614412762553_" y="0" width="504" height="504"/>
	</defs>
	<clipPath id="SVGID_00000013164504552922243150000015093072634329639833_">
		<use xlink:href="#SVGID_00000154412345880469187570000004885973614412762553_"  style="overflow:visible;"/>
	</clipPath>
	<g style="clip-path:url(#SVGID_00000013164504552922243150000015093072634329639833_);enable-background:new    ;">
		<text transform="matrix(1 0 0 1 270.173 145.11)" class="st30 st31">Poaceae</text>
	</g>
</g>
<g>
	<defs>
		<rect id="SVGID_00000180360486541697997650000014297725643759973517_" y="0" width="504" height="504"/>
	</defs>
	<clipPath id="SVGID_00000051342314556832745240000005228451918916626355_">
		<use xlink:href="#SVGID_00000180360486541697997650000014297725643759973517_"  style="overflow:visible;"/>
	</clipPath>
	<g style="clip-path:url(#SVGID_00000051342314556832745240000005228451918916626355_);enable-background:new    ;">
		<text transform="matrix(1 0 0 1 350.023 219.3018)" class="st30 st31">Ulmaceae</text>
	</g>
</g>
<g>
	<defs>
		<rect id="SVGID_00000111879460673866219770000008837199622312816527_" y="0" width="504" height="504"/>
	</defs>
	<clipPath id="SVGID_00000176014191306558727100000004620380770445042328_">
		<use xlink:href="#SVGID_00000111879460673866219770000008837199622312816527_"  style="overflow:visible;"/>
	</clipPath>
	<g style="clip-path:url(#SVGID_00000176014191306558727100000004620380770445042328_);enable-background:new    ;">
		<rect x="314.7" y="321.3" class="st0" width="71.9" height="21.9"/>
		<text transform="matrix(1 0 0 1 314.6992 337.1901)" class="st30 st31 st34">Vitaceae</text>
		<text transform="matrix(1 0 0 1 380.4992 337.1901)" class="st30 st31">-</text>
	</g>
</g>
<g>
	<defs>
		<rect id="SVGID_00000027594804385304398630000007796156791665981097_" y="0" width="504" height="504"/>
	</defs>
	<clipPath id="SVGID_00000172419527430850382980000009053303646239492236_">
		<use xlink:href="#SVGID_00000027594804385304398630000007796156791665981097_"  style="overflow:visible;"/>
	</clipPath>
	<g style="clip-path:url(#SVGID_00000172419527430850382980000009053303646239492236_);enable-background:new    ;">
		<rect x="216.2" y="368.8" class="st0" width="71.9" height="21.9"/>
		<text transform="matrix(1 0 0 1 216.189 384.6301)" class="st30 st31 st34">Vitaceae</text>
		<text transform="matrix(1 0 0 1 281.989 384.6301)" class="st30 st31">-</text>
	</g>
</g>
<g>
	<defs>
		<rect id="SVGID_00000046315869664027027240000006300454421010054302_" y="0" width="504" height="504"/>
	</defs>
	<clipPath id="SVGID_00000141448478406103670160000006630602494425754251_">
		<use xlink:href="#SVGID_00000046315869664027027240000006300454421010054302_"  style="overflow:visible;"/>
	</clipPath>
	<g style="clip-path:url(#SVGID_00000141448478406103670160000006630602494425754251_);enable-background:new    ;">
		<text transform="matrix(1 0 0 1 84.6265 337.19)" class="st30 st31">Caryophyllaceae</text>
	</g>
</g>
<g>
	<defs>
		<rect id="SVGID_00000077307296383032346590000016601010935025269933_" y="0" width="504" height="504"/>
	</defs>
	<clipPath id="SVGID_00000091014267891149181900000004075241619070822553_">
		<use xlink:href="#SVGID_00000077307296383032346590000016601010935025269933_"  style="overflow:visible;"/>
	</clipPath>
	<g style="clip-path:url(#SVGID_00000091014267891149181900000004075241619070822553_);enable-background:new    ;">
		<text transform="matrix(1 0 0 1 90.7469 222.4168)" class="st30 st31">Poaceae</text>
	</g>
</g>
<g>
	<defs>
		<rect id="SVGID_00000157301666675605961890000014005134455937807239_" y="0" width="504" height="504"/>
	</defs>
	<clipPath id="SVGID_00000066491830993299999510000015511745035587739311_">
		<use xlink:href="#SVGID_00000157301666675605961890000014005134455937807239_"  style="overflow:visible;"/>
	</clipPath>
	<g style="clip-path:url(#SVGID_00000066491830993299999510000015511745035587739311_);enable-background:new    ;">
		<text transform="matrix(1 0 0 1 160.833 145.11)" class="st30 st31">Poaceae</text>
	</g>
</g>
<g>
	<defs>
		<rect id="SVGID_00000067923682182221596920000012449475713330902425_" y="0" width="504" height="504"/>
	</defs>
	<clipPath id="SVGID_00000006667758851720406190000009073422793298036888_">
		<use xlink:href="#SVGID_00000067923682182221596920000012449475713330902425_"  style="overflow:visible;"/>
	</clipPath>
	<g style="clip-path:url(#SVGID_00000006667758851720406190000009073422793298036888_);enable-background:new    ;">
		<rect x="234.7" y="419.2" class="st0" width="34.9" height="21.9"/>
		<text transform="matrix(1 0 0 1 234.7017 435.0305)" class="st30 st31 st47">Vit</text>
		<text transform="matrix(1 0 0 1 265.5017 435.0305)" class="st30 st31">is</text>
	</g>
</g>
<g>
	<defs>
		<rect id="SVGID_00000045601403117325506850000012513003724848005030_" y="0" width="504" height="504"/>
	</defs>
	<clipPath id="SVGID_00000026882768153405207260000010692706665488753589_">
		<use xlink:href="#SVGID_00000045601403117325506850000012513003724848005030_"  style="overflow:visible;"/>
	</clipPath>
	<g style="clip-path:url(#SVGID_00000026882768153405207260000010692706665488753589_);enable-background:new    ;">
		<text transform="matrix(1 0 0 1 88.3809 368.61)" class="st30 st31">Silene</text>
	</g>
</g>
<g>
	<defs>
		<rect id="SVGID_00000150073887540911519760000009644328706164885637_" y="0" width="504" height="504"/>
	</defs>
	<clipPath id="SVGID_00000130633549029517916400000005492568789978262933_">
		<use xlink:href="#SVGID_00000150073887540911519760000009644328706164885637_"  style="overflow:visible;"/>
	</clipPath>
	<g style="clip-path:url(#SVGID_00000130633549029517916400000005492568789978262933_);enable-background:new    ;">
		<rect x="67" y="179.6" class="st0" width="101.7" height="21.9"/>
		<text transform="matrix(1 0 0 1 67.0232 195.4414)"><tspan x="0" y="0" class="st30 st31">Tripogonel</tspan><tspan x="95.6" y="0" class="st30 st31">-</tspan></text>
	</g>
</g>
<g>
	<defs>
		<rect id="SVGID_00000016060451524506068540000007978263813080013503_" y="0" width="504" height="504"/>
	</defs>
	<clipPath id="SVGID_00000012454617042031071010000009191427877114280089_">
		<use xlink:href="#SVGID_00000016060451524506068540000007978263813080013503_"  style="overflow:visible;"/>
	</clipPath>
	<g style="clip-path:url(#SVGID_00000012454617042031071010000009191427877114280089_);enable-background:new    ;">
		<text transform="matrix(1 0 0 1 135.8934 99.7)" class="st30 st31">Cenchrus</text>
	</g>
</g>
<text transform="matrix(1 0 0 1 222.1924 290)" class="st30 st51">7</text>
<g transform="translate(250, 260)">
</g>
</svg>
