<?xml version="1.0" encoding="utf-8"?>
<!-- Generator: Adobe Illustrator 28.1.0, SVG Export Plug-In . SVG Version: 6.00 Build 0)  -->
<svg version="1.1" id="Layer_1" xmlns="http://www.w3.org/2000/svg" xmlns:xlink="http://www.w3.org/1999/xlink" x="0px" y="0px"
	 viewBox="0 0 504 504" style="enable-background:new 0 0 504 504;" xml:space="preserve">
<style type="text/css">
	.st0{fill:none;}
	
		.st1{clip-path:url(#SVGID_00000136391075128532748000000014745567702124488083_);fill:#E28500;stroke:#000000;stroke-width:0.17;stroke-miterlimit:10;}
	
		.st2{clip-path:url(#SVGID_00000136391075128532748000000014745567702124488083_);fill:#490054;stroke:#000000;stroke-width:0.17;stroke-miterlimit:10;}
	
		.st3{clip-path:url(#SVGID_00000136391075128532748000000014745567702124488083_);fill:#757183;stroke:#000000;stroke-width:0.17;stroke-miterlimit:10;}
	
		.st4{clip-path:url(#SVGID_00000136391075128532748000000014745567702124488083_);fill:#ED9F00;stroke:#000000;stroke-width:0.17;stroke-miterlimit:10;}
	
		.st5{clip-path:url(#SVGID_00000136391075128532748000000014745567702124488083_);fill:#2E014B;stroke:#000000;stroke-width:0.17;stroke-miterlimit:10;}
	
		.st6{clip-path:url(#SVGID_00000136391075128532748000000014745567702124488083_);fill:#D70041;stroke:#000000;stroke-width:0.17;stroke-miterlimit:10;}
	
		.st7{clip-path:url(#SVGID_00000136391075128532748000000014745567702124488083_);fill:#620057;stroke:#000000;stroke-width:0.17;stroke-miterlimit:10;}
	
		.st8{clip-path:url(#SVGID_00000136391075128532748000000014745567702124488083_);fill:#757175;stroke:#000000;stroke-width:0.17;stroke-miterlimit:10;}
	
		.st9{clip-path:url(#SVGID_00000136391075128532748000000014745567702124488083_);fill:#C54E00;stroke:#000000;stroke-width:0.17;stroke-miterlimit:10;}
	
		.st10{clip-path:url(#SVGID_00000136391075128532748000000014745567702124488083_);fill:#C0004C;stroke:#000000;stroke-width:0.17;stroke-miterlimit:10;}
	
		.st11{clip-path:url(#SVGID_00000136391075128532748000000014745567702124488083_);fill:#FFFFFF;stroke:#FFFFFF;stroke-width:0.17;stroke-miterlimit:10;}
	.st12{clip-path:url(#SVGID_00000136391075128532748000000014745567702124488083_);enable-background:new    ;}
	.st13{font-family:'ArialMT';}
	.st14{font-size:18.49px;}
	.st15{font-family:'Arial-BoldMT';}
	.st16{font-size:100px;}
</style>
<rect y="0" class="st0" width="504" height="504"/>
<g>
	<defs>
		<rect id="SVGID_1_" y="0" width="504" height="504"/>
	</defs>
	<clipPath id="SVGID_00000048467575728136795830000008352530609031945094_">
		<use xlink:href="#SVGID_1_"  style="overflow:visible;"/>
	</clipPath>
	
		<polygon style="clip-path:url(#SVGID_00000048467575728136795830000008352530609031945094_);fill:#E28500;stroke:#000000;stroke-width:0.17;stroke-miterlimit:10;" points="
		272.5,206 275.4,199.4 278.4,192.8 281.3,186.2 284.2,179.6 287.1,173.1 290.1,166.5 293,159.9 286.5,157.3 279.8,155.1 273,153.4 
		266,152.2 259,151.4 252,151.2 252,158.4 252,165.6 252,172.8 252,180 252,187.2 252,194.4 252,201.6 259,202.1 265.9,203.6 	"/>
	
		<polygon style="clip-path:url(#SVGID_00000048467575728136795830000008352530609031945094_);fill:#490054;stroke:#000000;stroke-width:0.17;stroke-miterlimit:10;" points="
		289.5,218.3 294.8,213.5 300.2,208.6 305.5,203.8 310.9,199 316.2,194.2 321.6,189.4 326.9,184.6 322,179.5 316.8,174.8 
		311.2,170.4 305.4,166.5 299.3,163 293,159.9 290.1,166.5 287.1,173.1 284.2,179.6 281.3,186.2 278.4,192.8 275.4,199.4 272.5,206 
		278.7,209.3 284.4,213.4 	"/>
	
		<polygon style="clip-path:url(#SVGID_00000048467575728136795830000008352530609031945094_);fill:#490054;stroke:#000000;stroke-width:0.17;stroke-miterlimit:10;" points="
		299.9,236.4 306.8,234.2 313.6,232 320.5,229.8 327.3,227.5 334.2,225.3 341,223.1 347.9,220.9 345.5,214.2 342.6,207.8 
		339.3,201.6 335.6,195.6 331.4,189.9 326.9,184.6 321.6,189.4 316.2,194.2 310.9,199 305.5,203.8 300.2,208.6 294.8,213.5 
		289.5,218.3 293.8,223.8 297.3,229.9 	"/>
	
		<polygon style="clip-path:url(#SVGID_00000048467575728136795830000008352530609031945094_);fill:#757183;stroke:#000000;stroke-width:0.17;stroke-miterlimit:10;" points="
		302.1,257.3 309.3,258 316.5,258.8 323.6,259.5 330.8,260.3 337.9,261 345.1,261.8 352.2,262.5 352.7,255.5 352.7,248.5 
		352.2,241.5 351.3,234.5 349.8,227.6 347.9,220.9 341,223.1 334.2,225.3 327.3,227.5 320.5,229.8 313.6,232 306.8,234.2 
		299.9,236.4 301.6,243.2 302.4,250.2 	"/>
	
		<polygon style="clip-path:url(#SVGID_00000048467575728136795830000008352530609031945094_);fill:#ED9F00;stroke:#000000;stroke-width:0.17;stroke-miterlimit:10;" points="
		295.6,277.2 301.9,280.8 308.1,284.4 314.4,288 320.6,291.6 326.8,295.2 333.1,298.8 339.3,302.4 342.6,296.2 345.5,289.8 
		347.9,283.1 349.8,276.4 351.3,269.5 352.2,262.5 345.1,261.8 337.9,261 330.8,260.3 323.6,259.5 316.5,258.8 309.3,258 
		302.1,257.3 300.9,264.2 298.7,270.9 	"/>
	
		<polygon style="clip-path:url(#SVGID_00000048467575728136795830000008352530609031945094_);fill:#2E014B;stroke:#000000;stroke-width:0.17;stroke-miterlimit:10;" points="
		281.6,292.8 285.9,298.6 290.1,304.4 294.3,310.2 298.5,316.1 302.8,321.9 307,327.7 311.2,333.5 316.8,329.2 322,324.5 
		326.9,319.5 331.4,314.1 335.6,308.4 339.3,302.4 333.1,298.8 326.8,295.2 320.6,291.6 314.4,288 308.1,284.4 301.9,280.8 
		295.6,277.2 291.7,283 287,288.2 	"/>
	
		<polygon style="clip-path:url(#SVGID_00000048467575728136795830000008352530609031945094_);fill:#D70041;stroke:#000000;stroke-width:0.17;stroke-miterlimit:10;" points="
		262.5,301.3 264,308.3 265.5,315.4 267,322.4 268.5,329.5 270,336.5 271.5,343.5 273,350.6 279.8,348.9 286.5,346.7 293,344.1 
		299.3,341 305.4,337.5 311.2,333.5 307,327.7 302.8,321.9 298.5,316.1 294.3,310.2 290.1,304.4 285.9,298.6 281.6,292.8 
		275.7,296.5 269.2,299.4 	"/>
	
		<polygon style="clip-path:url(#SVGID_00000048467575728136795830000008352530609031945094_);fill:#490054;stroke:#000000;stroke-width:0.17;stroke-miterlimit:10;" points="
		241.5,301.3 240,308.3 238.5,315.4 237,322.4 235.5,329.5 234,336.5 232.5,343.5 231,350.6 238,351.8 245,352.5 252,352.8 
		259,352.5 266,351.8 273,350.6 271.5,343.5 270,336.5 268.5,329.5 267,322.4 265.5,315.4 264,308.3 262.5,301.3 255.5,302.3 
		248.5,302.3 	"/>
	
		<polygon style="clip-path:url(#SVGID_00000048467575728136795830000008352530609031945094_);fill:#620057;stroke:#000000;stroke-width:0.17;stroke-miterlimit:10;" points="
		222.4,292.8 218.1,298.6 213.9,304.4 209.7,310.2 205.4,316.1 201.2,321.9 197,327.7 192.8,333.5 198.6,337.5 204.7,341 211,344.1 
		217.5,346.7 224.2,348.9 231,350.6 232.5,343.5 234,336.5 235.5,329.5 237,322.4 238.5,315.4 240,308.3 241.5,301.3 234.8,299.4 
		228.3,296.5 	"/>
	
		<polygon style="clip-path:url(#SVGID_00000048467575728136795830000008352530609031945094_);fill:#620057;stroke:#000000;stroke-width:0.17;stroke-miterlimit:10;" points="
		208.4,277.2 202.1,280.8 195.9,284.4 189.6,288 183.4,291.6 177.2,295.2 170.9,298.8 164.7,302.4 168.4,308.4 172.6,314.1 
		177.1,319.5 182,324.5 187.2,329.2 192.8,333.5 197,327.7 201.2,321.9 205.4,316.1 209.7,310.2 213.9,304.4 218.1,298.6 
		222.4,292.8 217,288.2 212.3,283 	"/>
	
		<polygon style="clip-path:url(#SVGID_00000048467575728136795830000008352530609031945094_);fill:#757175;stroke:#000000;stroke-width:0.17;stroke-miterlimit:10;" points="
		201.9,257.3 194.7,258 187.6,258.8 180.4,259.5 173.2,260.3 166.1,261 158.9,261.8 151.8,262.5 152.7,269.5 154.2,276.4 
		156.1,283.1 158.5,289.8 161.4,296.2 164.7,302.4 170.9,298.8 177.2,295.2 183.4,291.6 189.6,288 195.9,284.4 202.1,280.8 
		208.4,277.2 205.3,270.9 203.1,264.2 	"/>
	
		<polygon style="clip-path:url(#SVGID_00000048467575728136795830000008352530609031945094_);fill:#C54E00;stroke:#000000;stroke-width:0.17;stroke-miterlimit:10;" points="
		204.1,236.4 197.2,234.2 190.4,232 183.5,229.8 176.7,227.5 169.8,225.3 163,223.1 156.1,220.9 154.2,227.6 152.7,234.5 
		151.8,241.5 151.3,248.5 151.3,255.5 151.8,262.5 158.9,261.8 166.1,261 173.2,260.3 180.4,259.5 187.6,258.8 194.7,258 
		201.9,257.3 201.6,250.2 202.4,243.2 	"/>
	
		<polygon style="clip-path:url(#SVGID_00000048467575728136795830000008352530609031945094_);fill:#C54E00;stroke:#000000;stroke-width:0.17;stroke-miterlimit:10;" points="
		214.6,218.3 209.2,213.5 203.8,208.6 198.5,203.8 193.1,199 187.8,194.2 182.4,189.4 177.1,184.6 172.6,189.9 168.4,195.6 
		164.7,201.6 161.4,207.8 158.5,214.2 156.1,220.9 163,223.1 169.8,225.3 176.7,227.5 183.5,229.8 190.4,232 197.2,234.2 
		204.1,236.4 206.7,229.9 210.2,223.8 	"/>
	
		<polygon style="clip-path:url(#SVGID_00000048467575728136795830000008352530609031945094_);fill:#ED9F00;stroke:#000000;stroke-width:0.17;stroke-miterlimit:10;" points="
		231.5,206 228.6,199.4 225.6,192.8 222.7,186.2 219.8,179.6 216.9,173.1 213.9,166.5 211,159.9 204.7,163 198.6,166.5 192.8,170.4 
		187.2,174.8 182,179.5 177.1,184.6 182.4,189.4 187.8,194.2 193.1,199 198.5,203.8 203.8,208.6 209.2,213.5 214.6,218.3 
		219.6,213.4 225.3,209.3 	"/>
	
		<polygon style="clip-path:url(#SVGID_00000048467575728136795830000008352530609031945094_);fill:#C0004C;stroke:#000000;stroke-width:0.17;stroke-miterlimit:10;" points="
		252,201.6 252,194.4 252,187.2 252,180 252,172.8 252,165.6 252,158.4 252,151.2 245,151.4 238,152.2 231,153.4 224.2,155.1 
		217.5,157.3 211,159.9 213.9,166.5 216.9,173.1 219.8,179.6 222.7,186.2 225.6,192.8 228.6,199.4 231.5,206 238.1,203.6 245,202.1 
			"/>
	
		<polygon style="clip-path:url(#SVGID_00000048467575728136795830000008352530609031945094_);fill:#E28500;stroke:#000000;stroke-width:0.17;stroke-miterlimit:10;" points="
		293,159.9 295.9,153.3 298.9,146.8 301.8,140.2 304.7,133.6 307.6,127 310.6,120.4 313.5,113.9 307,111.2 300.4,108.8 293.7,106.7 
		286.9,104.9 280,103.4 273,102.3 266,101.4 259,101 252,100.8 252,108 252,115.2 252,122.4 252,129.6 252,136.8 252,144 252,151.2 
		259,151.4 266,152.2 273,153.4 279.8,155.1 286.5,157.3 	"/>
	
		<polygon style="clip-path:url(#SVGID_00000048467575728136795830000008352530609031945094_);fill:#490054;stroke:#000000;stroke-width:0.17;stroke-miterlimit:10;" points="
		326.9,184.6 332.3,179.7 337.6,174.9 343,170.1 348.3,165.3 353.7,160.5 359,155.6 364.4,150.8 359.5,145.7 354.5,140.8 
		349.2,136.2 343.7,131.8 338,127.6 332.1,123.8 326.1,120.2 319.9,116.9 313.5,113.9 310.6,120.4 307.6,127 304.7,133.6 
		301.8,140.2 298.9,146.8 295.9,153.3 293,159.9 299.3,163 305.4,166.5 311.2,170.4 316.8,174.8 322,179.5 	"/>
	
		<polygon style="clip-path:url(#SVGID_00000048467575728136795830000008352530609031945094_);fill:#490054;stroke:#000000;stroke-width:0.17;stroke-miterlimit:10;" points="
		347.9,220.9 354.7,218.6 361.6,216.4 368.4,214.2 375.3,211.9 382.1,209.7 389,207.5 395.8,205.3 393.5,198.6 390.8,192.1 
		387.9,185.7 384.7,179.5 381.1,173.4 377.4,167.4 373.3,161.7 369,156.2 364.4,150.8 359,155.6 353.7,160.5 348.3,165.3 343,170.1 
		337.6,174.9 332.3,179.7 326.9,184.6 331.4,189.9 335.6,195.6 339.3,201.6 342.6,207.8 345.5,214.2 	"/>
	
		<polygon style="clip-path:url(#SVGID_00000048467575728136795830000008352530609031945094_);fill:#757183;stroke:#000000;stroke-width:0.17;stroke-miterlimit:10;" points="
		352.2,262.5 359.4,263.3 366.6,264 373.7,264.8 380.9,265.5 388,266.3 395.2,267 402.4,267.8 402.9,260.8 403.2,253.8 403.1,246.7 
		402.7,239.7 402,232.7 400.9,225.7 399.5,218.9 397.8,212 395.8,205.3 389,207.5 382.1,209.7 375.3,211.9 368.4,214.2 361.6,216.4 
		354.7,218.6 347.9,220.9 349.8,227.6 351.3,234.5 352.2,241.5 352.7,248.5 352.7,255.5 	"/>
	
		<polygon style="clip-path:url(#SVGID_00000048467575728136795830000008352530609031945094_);fill:#ED9F00;stroke:#000000;stroke-width:0.17;stroke-miterlimit:10;" points="
		339.3,302.4 345.5,306 351.8,309.6 358,313.2 364.2,316.8 370.5,320.4 376.7,324 382.9,327.6 386.3,321.4 389.4,315.1 392.2,308.6 
		394.7,302.1 396.9,295.4 398.7,288.6 400.2,281.7 401.5,274.8 402.4,267.8 395.2,267 388,266.3 380.9,265.5 373.7,264.8 366.6,264 
		359.4,263.3 352.2,262.5 351.3,269.5 349.8,276.4 347.9,283.1 345.5,289.8 342.6,296.2 	"/>
	
		<polygon style="clip-path:url(#SVGID_00000048467575728136795830000008352530609031945094_);fill:#2E014B;stroke:#000000;stroke-width:0.17;stroke-miterlimit:10;" points="
		311.2,333.5 315.5,339.4 319.7,345.2 323.9,351 328.2,356.9 332.4,362.7 336.6,368.5 340.9,374.3 346.5,370.1 351.9,365.5 
		357,360.8 362,355.8 366.7,350.5 371.1,345.1 375.4,339.4 379.3,333.6 382.9,327.6 376.7,324 370.5,320.4 364.2,316.8 358,313.2 
		351.8,309.6 345.5,306 339.3,302.4 335.6,308.4 331.4,314.1 326.9,319.5 322,324.5 316.8,329.2 	"/>
	
		<polygon style="clip-path:url(#SVGID_00000048467575728136795830000008352530609031945094_);fill:#D70041;stroke:#000000;stroke-width:0.17;stroke-miterlimit:10;" points="
		273,350.6 274.5,357.6 276,364.7 277.5,371.7 279,378.8 280.4,385.8 281.9,392.9 283.4,399.9 290.3,398.3 297,396.3 303.7,394.1 
		310.3,391.5 316.7,388.7 323,385.5 329.1,382 335.1,378.3 340.9,374.3 336.6,368.5 332.4,362.7 328.2,356.9 323.9,351 319.7,345.2 
		315.5,339.4 311.2,333.5 305.4,337.5 299.3,341 293,344.1 286.5,346.7 279.8,348.9 	"/>
	
		<polygon style="clip-path:url(#SVGID_00000048467575728136795830000008352530609031945094_);fill:#490054;stroke:#000000;stroke-width:0.17;stroke-miterlimit:10;" points="
		231,350.6 229.6,357.6 228.1,364.7 226.6,371.7 225.1,378.8 223.6,385.8 222.1,392.9 220.6,399.9 227.5,401.2 234.4,402.2 
		241.4,402.8 248.5,403.2 255.5,403.2 262.5,402.8 269.5,402.2 276.5,401.2 283.4,399.9 281.9,392.9 280.4,385.8 279,378.8 
		277.5,371.7 276,364.7 274.5,357.6 273,350.6 266,351.8 259,352.5 252,352.8 245,352.5 238,351.8 	"/>
	
		<polygon style="clip-path:url(#SVGID_00000048467575728136795830000008352530609031945094_);fill:#620057;stroke:#000000;stroke-width:0.17;stroke-miterlimit:10;" points="
		192.8,333.5 188.5,339.4 184.3,345.2 180.1,351 175.8,356.9 171.6,362.7 167.4,368.5 163.1,374.3 168.9,378.3 174.9,382 181,385.5 
		187.3,388.7 193.7,391.5 200.3,394.1 206.9,396.3 213.7,398.3 220.6,399.9 222.1,392.9 223.6,385.8 225.1,378.8 226.6,371.7 
		228.1,364.7 229.6,357.6 231,350.6 224.2,348.9 217.5,346.7 211,344.1 204.7,341 198.6,337.5 	"/>
	
		<polygon style="clip-path:url(#SVGID_00000048467575728136795830000008352530609031945094_);fill:#620057;stroke:#000000;stroke-width:0.17;stroke-miterlimit:10;" points="
		164.7,302.4 158.5,306 152.2,309.6 146,313.2 139.8,316.8 133.5,320.4 127.3,324 121.1,327.6 124.7,333.6 128.6,339.4 132.9,345.1 
		137.3,350.5 142,355.8 147,360.8 152.1,365.5 157.5,370.1 163.1,374.3 167.4,368.5 171.6,362.7 175.8,356.9 180.1,351 184.3,345.2 
		188.5,339.4 192.8,333.5 187.2,329.2 182,324.5 177.1,319.5 172.6,314.1 168.4,308.4 	"/>
	
		<polygon style="clip-path:url(#SVGID_00000048467575728136795830000008352530609031945094_);fill:#757175;stroke:#000000;stroke-width:0.17;stroke-miterlimit:10;" points="
		151.8,262.5 144.6,263.3 137.4,264 130.3,264.8 123.1,265.5 115.9,266.3 108.8,267 101.6,267.8 102.5,274.8 103.8,281.7 
		105.3,288.6 107.2,295.4 109.3,302.1 111.8,308.6 114.6,315.1 117.7,321.4 121.1,327.6 127.3,324 133.5,320.4 139.8,316.8 
		146,313.2 152.2,309.6 158.5,306 164.7,302.4 161.4,296.2 158.5,289.8 156.1,283.1 154.2,276.4 152.7,269.5 	"/>
	
		<polygon style="clip-path:url(#SVGID_00000048467575728136795830000008352530609031945094_);fill:#C54E00;stroke:#000000;stroke-width:0.17;stroke-miterlimit:10;" points="
		156.1,220.9 149.3,218.6 142.4,216.4 135.6,214.2 128.7,211.9 121.9,209.7 115.1,207.5 108.2,205.3 106.2,212 104.5,218.9 
		103.1,225.7 102,232.7 101.3,239.7 100.9,246.7 100.8,253.8 101.1,260.8 101.6,267.8 108.8,267 115.9,266.3 123.1,265.5 
		130.3,264.8 137.4,264 144.6,263.3 151.8,262.5 151.3,255.5 151.3,248.5 151.8,241.5 152.7,234.5 154.2,227.6 	"/>
	
		<polygon style="clip-path:url(#SVGID_00000048467575728136795830000008352530609031945094_);fill:#C54E00;stroke:#000000;stroke-width:0.17;stroke-miterlimit:10;" points="
		177.1,184.6 171.7,179.7 166.4,174.9 161,170.1 155.7,165.3 150.3,160.5 145,155.6 139.6,150.8 135.1,156.2 130.7,161.7 
		126.7,167.4 122.8,173.4 119.3,179.5 116.1,185.7 113.2,192.1 110.5,198.6 108.2,205.3 115.1,207.5 121.9,209.7 128.7,211.9 
		135.6,214.2 142.4,216.4 149.3,218.6 156.1,220.9 158.5,214.2 161.4,207.8 164.7,201.6 168.4,195.6 172.6,189.9 	"/>
	
		<polygon style="clip-path:url(#SVGID_00000048467575728136795830000008352530609031945094_);fill:#ED9F00;stroke:#000000;stroke-width:0.17;stroke-miterlimit:10;" points="
		211,159.9 208.1,153.3 205.1,146.8 202.2,140.2 199.3,133.6 196.4,127 193.4,120.4 190.5,113.9 184.1,116.9 177.9,120.2 
		171.9,123.8 166,127.6 160.3,131.8 154.8,136.2 149.5,140.8 144.5,145.7 139.6,150.8 145,155.6 150.3,160.5 155.7,165.3 161,170.1 
		166.4,174.9 171.7,179.7 177.1,184.6 182,179.5 187.2,174.8 192.8,170.4 198.6,166.5 204.7,163 	"/>
	
		<polygon style="clip-path:url(#SVGID_00000048467575728136795830000008352530609031945094_);fill:#C0004C;stroke:#000000;stroke-width:0.17;stroke-miterlimit:10;" points="
		252,151.2 252,144 252,136.8 252,129.6 252,122.4 252,115.2 252,108 252,100.8 245,101 237.9,101.4 231,102.3 224,103.4 
		217.1,104.9 210.3,106.7 203.6,108.8 197,111.2 190.5,113.9 193.4,120.4 196.4,127 199.3,133.6 202.2,140.2 205.1,146.8 
		208.1,153.3 211,159.9 217.5,157.3 224.2,155.1 231,153.4 238,152.2 245,151.4 	"/>
	
		<polygon style="clip-path:url(#SVGID_00000048467575728136795830000008352530609031945094_);fill:#E28500;stroke:#000000;stroke-width:0.17;stroke-miterlimit:10;" points="
		313.5,113.9 316.4,107.3 319.4,100.7 322.3,94.1 325.2,87.6 328.1,81 331.1,74.4 334,67.8 327.5,65.1 321,62.6 314.3,60.3 
		307.6,58.2 300.8,56.4 293.9,54.8 287,53.5 280.1,52.4 273.1,51.5 266.1,50.9 259,50.5 252,50.4 252,57.6 252,64.8 252,72 
		252,79.2 252,86.4 252,93.6 252,100.8 259,101 266,101.4 273,102.3 280,103.4 286.9,104.9 293.7,106.7 300.4,108.8 307,111.2 	"/>
	
		<polygon style="clip-path:url(#SVGID_00000048467575728136795830000008352530609031945094_);fill:#490054;stroke:#000000;stroke-width:0.17;stroke-miterlimit:10;" points="
		364.4,150.8 369.7,146 375.1,141.2 380.4,136.4 385.8,131.6 391.1,126.7 396.5,121.9 401.8,117.1 397,112 392,107 386.9,102.2 
		381.6,97.6 376.1,93.1 370.5,88.9 364.7,84.9 358.8,81 352.8,77.4 346.6,74 340.4,70.8 334,67.8 331.1,74.4 328.1,81 325.2,87.6 
		322.3,94.1 319.4,100.7 316.4,107.3 313.5,113.9 319.9,116.9 326.1,120.2 332.1,123.8 338,127.6 343.7,131.8 349.2,136.2 
		354.5,140.8 359.5,145.7 	"/>
	
		<polygon style="clip-path:url(#SVGID_00000048467575728136795830000008352530609031945094_);fill:#490054;stroke:#000000;stroke-width:0.17;stroke-miterlimit:10;" points="
		395.8,205.3 402.6,203.1 409.5,200.8 416.3,198.6 423.2,196.4 430,194.1 436.9,191.9 443.7,189.7 441.4,183.1 438.9,176.5 
		436.2,170 433.2,163.6 430,157.4 426.6,151.2 423,145.2 419.1,139.3 415.1,133.5 410.9,127.9 406.4,122.4 401.8,117.1 396.5,121.9 
		391.1,126.7 385.8,131.6 380.4,136.4 375.1,141.2 369.7,146 364.4,150.8 369,156.2 373.3,161.7 377.4,167.4 381.1,173.4 
		384.7,179.5 387.9,185.7 390.8,192.1 393.5,198.6 	"/>
	
		<polygon style="clip-path:url(#SVGID_00000048467575728136795830000008352530609031945094_);fill:#757183;stroke:#000000;stroke-width:0.17;stroke-miterlimit:10;" points="
		402.4,267.8 409.5,268.6 416.7,269.3 423.9,270.1 431,270.8 438.2,271.6 445.3,272.3 452.5,273.1 453.1,266.1 453.5,259 453.6,252 
		453.5,245 453.1,237.9 452.5,230.9 451.6,223.9 450.5,217 449.2,210.1 447.6,203.2 445.8,196.4 443.7,189.7 436.9,191.9 430,194.1 
		423.2,196.4 416.3,198.6 409.5,200.8 402.6,203.1 395.8,205.3 397.8,212 399.5,218.9 400.9,225.7 402,232.7 402.7,239.7 
		403.1,246.7 403.2,253.8 402.9,260.8 	"/>
	
		<polygon style="clip-path:url(#SVGID_00000048467575728136795830000008352530609031945094_);fill:#ED9F00;stroke:#000000;stroke-width:0.17;stroke-miterlimit:10;" points="
		382.9,327.6 389.2,331.2 395.4,334.8 401.6,338.4 407.9,342 414.1,345.6 420.4,349.2 426.6,352.8 430,346.6 433.2,340.4 436.2,334 
		438.9,327.5 441.4,321 443.7,314.3 445.8,307.6 447.6,300.8 449.2,293.9 450.5,287 451.6,280.1 452.5,273.1 445.3,272.3 
		438.2,271.6 431,270.8 423.9,270.1 416.7,269.3 409.5,268.6 402.4,267.8 401.5,274.8 400.2,281.7 398.7,288.6 396.9,295.4 
		394.7,302.1 392.2,308.6 389.4,315.1 386.3,321.4 	"/>
	
		<polygon style="clip-path:url(#SVGID_00000048467575728136795830000008352530609031945094_);fill:#2E014B;stroke:#000000;stroke-width:0.17;stroke-miterlimit:10;" points="
		340.9,374.3 345.1,380.1 349.3,386 353.6,391.8 357.8,397.6 362,403.5 366.3,409.3 370.5,415.1 376.1,410.9 381.6,406.4 
		386.9,401.8 392,397 397,392 401.8,386.9 406.4,381.6 410.9,376.1 415.1,370.5 419.1,364.7 423,358.8 426.6,352.8 420.4,349.2 
		414.1,345.6 407.9,342 401.6,338.4 395.4,334.8 389.2,331.2 382.9,327.6 379.3,333.6 375.4,339.4 371.1,345.1 366.7,350.5 
		362,355.8 357,360.8 351.9,365.5 346.5,370.1 	"/>
	
		<polygon style="clip-path:url(#SVGID_00000048467575728136795830000008352530609031945094_);fill:#D70041;stroke:#000000;stroke-width:0.17;stroke-miterlimit:10;" points="
		283.4,399.9 284.9,406.9 286.4,414 287.9,421 289.4,428.1 290.9,435.1 292.4,442.1 293.9,449.2 300.8,447.6 307.6,445.8 
		314.3,443.7 321,441.4 327.5,438.9 334,436.2 340.4,433.2 346.6,430 352.8,426.6 358.8,423 364.7,419.1 370.5,415.1 366.3,409.3 
		362,403.5 357.8,397.6 353.6,391.8 349.3,386 345.1,380.1 340.9,374.3 335.1,378.3 329.1,382 323,385.5 316.7,388.7 310.3,391.5 
		303.7,394.1 297,396.3 290.3,398.3 	"/>
	
		<polygon style="clip-path:url(#SVGID_00000048467575728136795830000008352530609031945094_);fill:#490054;stroke:#000000;stroke-width:0.17;stroke-miterlimit:10;" points="
		220.6,399.9 219.1,406.9 217.6,414 216.1,421 214.6,428.1 213.1,435.1 211.6,442.1 210.1,449.2 217,450.5 223.9,451.6 230.9,452.5 
		237.9,453.1 245,453.5 252,453.6 259,453.5 266.1,453.1 273.1,452.5 280.1,451.6 287,450.5 293.9,449.2 292.4,442.1 290.9,435.1 
		289.4,428.1 287.9,421 286.4,414 284.9,406.9 283.4,399.9 276.5,401.2 269.5,402.2 262.5,402.8 255.5,403.2 248.5,403.2 
		241.4,402.8 234.4,402.2 227.5,401.2 	"/>
	
		<polygon style="clip-path:url(#SVGID_00000048467575728136795830000008352530609031945094_);fill:#620057;stroke:#000000;stroke-width:0.17;stroke-miterlimit:10;" points="
		163.1,374.3 158.9,380.1 154.7,386 150.4,391.8 146.2,397.6 142,403.5 137.7,409.3 133.5,415.1 139.3,419.1 145.2,423 151.2,426.6 
		157.4,430 163.6,433.2 170,436.2 176.5,438.9 183.1,441.4 189.7,443.7 196.4,445.8 203.2,447.6 210.1,449.2 211.6,442.1 
		213.1,435.1 214.6,428.1 216.1,421 217.6,414 219.1,406.9 220.6,399.9 213.7,398.3 206.9,396.3 200.3,394.1 193.7,391.5 
		187.3,388.7 181,385.5 174.9,382 168.9,378.3 	"/>
	
		<polygon style="clip-path:url(#SVGID_00000048467575728136795830000008352530609031945094_);fill:#620057;stroke:#000000;stroke-width:0.17;stroke-miterlimit:10;" points="
		121.1,327.6 114.8,331.2 108.6,334.8 102.3,338.4 96.1,342 89.9,345.6 83.6,349.2 77.4,352.8 81,358.8 84.9,364.7 88.9,370.5 
		93.1,376.1 97.6,381.6 102.2,386.9 107,392 112,397 117.1,401.8 122.4,406.4 127.9,410.9 133.5,415.1 137.7,409.3 142,403.5 
		146.2,397.6 150.4,391.8 154.7,386 158.9,380.1 163.1,374.3 157.5,370.1 152.1,365.5 147,360.8 142,355.8 137.3,350.5 132.9,345.1 
		128.6,339.4 124.7,333.6 	"/>
	
		<polygon style="clip-path:url(#SVGID_00000048467575728136795830000008352530609031945094_);fill:#757175;stroke:#000000;stroke-width:0.17;stroke-miterlimit:10;" points="
		101.6,267.8 94.5,268.6 87.3,269.3 80.2,270.1 73,270.8 65.8,271.6 58.7,272.3 51.5,273.1 52.4,280.1 53.5,287 54.8,293.9 
		56.4,300.8 58.2,307.6 60.3,314.3 62.6,321 65.1,327.5 67.8,334 70.8,340.4 74,346.6 77.4,352.8 83.6,349.2 89.9,345.6 96.1,342 
		102.3,338.4 108.6,334.8 114.8,331.2 121.1,327.6 117.7,321.4 114.6,315.1 111.8,308.6 109.3,302.1 107.2,295.4 105.3,288.6 
		103.8,281.7 102.5,274.8 	"/>
	
		<polygon style="clip-path:url(#SVGID_00000048467575728136795830000008352530609031945094_);fill:#C54E00;stroke:#000000;stroke-width:0.17;stroke-miterlimit:10;" points="
		108.2,205.3 101.3,203.1 94.5,200.8 87.7,198.6 80.8,196.4 74,194.1 67.1,191.9 60.3,189.7 58.2,196.4 56.4,203.2 54.8,210.1 
		53.5,217 52.4,223.9 51.5,230.9 50.9,237.9 50.5,245 50.4,252 50.5,259 50.9,266.1 51.5,273.1 58.7,272.3 65.8,271.6 73,270.8 
		80.2,270.1 87.3,269.3 94.5,268.6 101.6,267.8 101.1,260.8 100.8,253.8 100.9,246.7 101.3,239.7 102,232.7 103.1,225.7 
		104.5,218.9 106.2,212 	"/>
	
		<polygon style="clip-path:url(#SVGID_00000048467575728136795830000008352530609031945094_);fill:#C54E00;stroke:#000000;stroke-width:0.17;stroke-miterlimit:10;" points="
		139.6,150.8 134.3,146 128.9,141.2 123.6,136.4 118.2,131.6 112.9,126.7 107.5,121.9 102.2,117.1 97.6,122.4 93.1,127.9 
		88.9,133.5 84.9,139.3 81,145.2 77.4,151.2 74,157.4 70.8,163.6 67.8,170 65.1,176.5 62.6,183.1 60.3,189.7 67.1,191.9 74,194.1 
		80.8,196.4 87.7,198.6 94.5,200.8 101.3,203.1 108.2,205.3 110.5,198.6 113.2,192.1 116.1,185.7 119.3,179.5 122.8,173.4 
		126.7,167.4 130.7,161.7 135.1,156.2 	"/>
	
		<polygon style="clip-path:url(#SVGID_00000048467575728136795830000008352530609031945094_);fill:#ED9F00;stroke:#000000;stroke-width:0.17;stroke-miterlimit:10;" points="
		190.5,113.9 187.6,107.3 184.6,100.7 181.7,94.1 178.8,87.6 175.9,81 172.9,74.4 170,67.8 163.6,70.8 157.4,74 151.2,77.4 
		145.2,81 139.3,84.9 133.5,88.9 127.9,93.1 122.4,97.6 117.1,102.2 112,107 107,112 102.2,117.1 107.5,121.9 112.9,126.7 
		118.2,131.6 123.6,136.4 128.9,141.2 134.3,146 139.6,150.8 144.5,145.7 149.5,140.8 154.8,136.2 160.3,131.8 166,127.6 
		171.9,123.8 177.9,120.2 184.1,116.9 	"/>
	
		<polygon style="clip-path:url(#SVGID_00000048467575728136795830000008352530609031945094_);fill:#C0004C;stroke:#000000;stroke-width:0.17;stroke-miterlimit:10;" points="
		252,100.8 252,93.6 252,86.4 252,79.2 252,72 252,64.8 252,57.6 252,50.4 245,50.5 237.9,50.9 230.9,51.5 223.9,52.4 217,53.5 
		210.1,54.8 203.2,56.4 196.4,58.2 189.7,60.3 183.1,62.6 176.5,65.1 170,67.8 172.9,74.4 175.9,81 178.8,87.6 181.7,94.1 
		184.6,100.7 187.6,107.3 190.5,113.9 197,111.2 203.6,108.8 210.3,106.7 217.1,104.9 224,103.4 231,102.3 237.9,101.4 245,101 	"/>
	
		<polygon style="clip-path:url(#SVGID_00000048467575728136795830000008352530609031945094_);fill:#FFFFFF;stroke:#FFFFFF;stroke-width:0.17;stroke-miterlimit:10;" points="
		252,252 254.9,245.4 257.9,238.8 260.8,232.3 263.7,225.7 266.6,219.1 269.6,212.5 272.5,206 265.9,203.6 259,202.1 252,201.6 
		252,208.8 252,216 252,223.2 252,230.4 252,237.6 252,244.8 	"/>
	
		<polygon style="clip-path:url(#SVGID_00000048467575728136795830000008352530609031945094_);fill:#FFFFFF;stroke:#FFFFFF;stroke-width:0.17;stroke-miterlimit:10;" points="
		252,252 257.4,247.2 262.7,242.4 268,237.6 273.4,232.7 278.8,227.9 284.1,223.1 289.5,218.3 284.4,213.4 278.7,209.3 272.5,206 
		269.6,212.5 266.6,219.1 263.7,225.7 260.8,232.3 257.9,238.8 254.9,245.4 	"/>
	
		<polygon style="clip-path:url(#SVGID_00000048467575728136795830000008352530609031945094_);fill:#FFFFFF;stroke:#FFFFFF;stroke-width:0.17;stroke-miterlimit:10;" points="
		252,252 258.9,249.8 265.7,247.6 272.5,245.3 279.4,243.1 286.2,240.9 293.1,238.6 299.9,236.4 297.3,229.9 293.8,223.8 
		289.5,218.3 284.1,223.1 278.8,227.9 273.4,232.7 268,237.6 262.7,242.4 257.4,247.2 	"/>
	
		<polygon style="clip-path:url(#SVGID_00000048467575728136795830000008352530609031945094_);fill:#FFFFFF;stroke:#FFFFFF;stroke-width:0.17;stroke-miterlimit:10;" points="
		252,252 259.2,252.8 266.3,253.5 273.5,254.3 280.6,255 287.8,255.8 295,256.5 302.1,257.3 302.4,250.2 301.6,243.2 299.9,236.4 
		293.1,238.6 286.2,240.9 279.4,243.1 272.5,245.3 265.7,247.6 258.9,249.8 	"/>
	
		<polygon style="clip-path:url(#SVGID_00000048467575728136795830000008352530609031945094_);fill:#FFFFFF;stroke:#FFFFFF;stroke-width:0.17;stroke-miterlimit:10;" points="
		252,252 258.2,255.6 264.5,259.2 270.7,262.8 276.9,266.4 283.2,270 289.4,273.6 295.6,277.2 298.7,270.9 300.9,264.2 302.1,257.3 
		295,256.5 287.8,255.8 280.6,255 273.5,254.3 266.3,253.5 259.2,252.8 	"/>
	
		<polygon style="clip-path:url(#SVGID_00000048467575728136795830000008352530609031945094_);fill:#FFFFFF;stroke:#FFFFFF;stroke-width:0.17;stroke-miterlimit:10;" points="
		252,252 256.2,257.8 260.5,263.6 264.7,269.5 268.9,275.3 273.2,281.1 277.4,287 281.6,292.8 287,288.2 291.7,283 295.6,277.2 
		289.4,273.6 283.2,270 276.9,266.4 270.7,262.8 264.5,259.2 258.2,255.6 	"/>
	
		<polygon style="clip-path:url(#SVGID_00000048467575728136795830000008352530609031945094_);fill:#FFFFFF;stroke:#FFFFFF;stroke-width:0.17;stroke-miterlimit:10;" points="
		252,252 253.5,259 255,266.1 256.5,273.1 258,280.2 259.5,287.2 261,294.3 262.5,301.3 269.2,299.4 275.7,296.5 281.6,292.8 
		277.4,287 273.2,281.1 268.9,275.3 264.7,269.5 260.5,263.6 256.2,257.8 	"/>
	
		<polygon style="clip-path:url(#SVGID_00000048467575728136795830000008352530609031945094_);fill:#FFFFFF;stroke:#FFFFFF;stroke-width:0.17;stroke-miterlimit:10;" points="
		252,252 250.5,259 249,266.1 247.5,273.1 246,280.2 244.5,287.2 243,294.3 241.5,301.3 248.5,302.3 255.5,302.3 262.5,301.3 
		261,294.3 259.5,287.2 258,280.2 256.5,273.1 255,266.1 253.5,259 	"/>
	
		<polygon style="clip-path:url(#SVGID_00000048467575728136795830000008352530609031945094_);fill:#FFFFFF;stroke:#FFFFFF;stroke-width:0.17;stroke-miterlimit:10;" points="
		252,252 247.8,257.8 243.5,263.6 239.3,269.5 235.1,275.3 230.8,281.1 226.6,287 222.4,292.8 228.3,296.5 234.8,299.4 241.5,301.3 
		243,294.3 244.5,287.2 246,280.2 247.5,273.1 249,266.1 250.5,259 	"/>
	
		<polygon style="clip-path:url(#SVGID_00000048467575728136795830000008352530609031945094_);fill:#FFFFFF;stroke:#FFFFFF;stroke-width:0.17;stroke-miterlimit:10;" points="
		252,252 245.8,255.6 239.5,259.2 233.3,262.8 227.1,266.4 220.8,270 214.6,273.6 208.4,277.2 212.3,283 217,288.2 222.4,292.8 
		226.6,287 230.8,281.1 235.1,275.3 239.3,269.5 243.5,263.6 247.8,257.8 	"/>
	
		<polygon style="clip-path:url(#SVGID_00000048467575728136795830000008352530609031945094_);fill:#FFFFFF;stroke:#FFFFFF;stroke-width:0.17;stroke-miterlimit:10;" points="
		252,252 244.8,252.8 237.7,253.5 230.5,254.3 223.4,255 216.2,255.8 209,256.5 201.9,257.3 203.1,264.2 205.3,270.9 208.4,277.2 
		214.6,273.6 220.8,270 227.1,266.4 233.3,262.8 239.5,259.2 245.8,255.6 	"/>
	
		<polygon style="clip-path:url(#SVGID_00000048467575728136795830000008352530609031945094_);fill:#FFFFFF;stroke:#FFFFFF;stroke-width:0.17;stroke-miterlimit:10;" points="
		252,252 245.1,249.8 238.3,247.6 231.5,245.3 224.6,243.1 217.8,240.9 210.9,238.6 204.1,236.4 202.4,243.2 201.6,250.2 
		201.9,257.3 209,256.5 216.2,255.8 223.4,255 230.5,254.3 237.7,253.5 244.8,252.8 	"/>
	
		<polygon style="clip-path:url(#SVGID_00000048467575728136795830000008352530609031945094_);fill:#FFFFFF;stroke:#FFFFFF;stroke-width:0.17;stroke-miterlimit:10;" points="
		252,252 246.6,247.2 241.3,242.4 235.9,237.6 230.6,232.7 225.2,227.9 219.9,223.1 214.6,218.3 210.2,223.8 206.7,229.9 
		204.1,236.4 210.9,238.6 217.8,240.9 224.6,243.1 231.5,245.3 238.3,247.6 245.1,249.8 	"/>
	
		<polygon style="clip-path:url(#SVGID_00000048467575728136795830000008352530609031945094_);fill:#FFFFFF;stroke:#FFFFFF;stroke-width:0.17;stroke-miterlimit:10;" points="
		252,252 249.1,245.4 246.1,238.8 243.2,232.3 240.3,225.7 237.4,219.1 234.4,212.5 231.5,206 225.3,209.3 219.6,213.4 214.6,218.3 
		219.9,223.1 225.2,227.9 230.6,232.7 235.9,237.6 241.3,242.4 246.6,247.2 	"/>
	
		<polygon style="clip-path:url(#SVGID_00000048467575728136795830000008352530609031945094_);fill:#FFFFFF;stroke:#FFFFFF;stroke-width:0.17;stroke-miterlimit:10;" points="
		252,252 252,244.8 252,237.6 252,230.4 252,223.2 252,216 252,208.8 252,201.6 245,202.1 238.1,203.6 231.5,206 234.4,212.5 
		237.4,219.1 240.3,225.7 243.2,232.3 246.1,238.8 249.1,245.4 	"/>
	<g style="clip-path:url(#SVGID_00000048467575728136795830000008352530609031945094_);enable-background:new    ;">
		<text transform="matrix(1 0 0 1 238.7009 169.1537)" class="st13 st14">Rosales</text>
	</g>
	<g style="clip-path:url(#SVGID_00000048467575728136795830000008352530609031945094_);enable-background:new    ;">
		<text transform="matrix(1 0 0 1 283.1567 194.3536)" class="st13 st14">Asparagales</text>
	</g>
	<g style="clip-path:url(#SVGID_00000048467575728136795830000008352530609031945094_);enable-background:new    ;">
		<text transform="matrix(1 0 0 1 300.4175 221.2086)" class="st13 st14">Asparagales</text>
	</g>
	<g style="clip-path:url(#SVGID_00000048467575728136795830000008352530609031945094_);enable-background:new    ;">
		<text transform="matrix(1 0 0 1 308.9325 251.9998)" class="st13 st14">Pinales</text>
	</g>
	<g style="clip-path:url(#SVGID_00000048467575728136795830000008352530609031945094_);enable-background:new    ;">
		<text transform="matrix(1 0 0 1 302.5988 279.4305)" class="st13 st14">Sapindales</text>
	</g>
	<g style="clip-path:url(#SVGID_00000048467575728136795830000008352530609031945094_);enable-background:new    ;">
		<text transform="matrix(1 0 0 1 294.0652 310.0857)" class="st13 st14">Apiales</text>
	</g>
	<g style="clip-path:url(#SVGID_00000048467575728136795830000008352530609031945094_);enable-background:new    ;">
		<text transform="matrix(1 0 0 1 270.1508 324.5894)" class="st13 st14">Fagales</text>
	</g>
	<g style="clip-path:url(#SVGID_00000048467575728136795830000008352530609031945094_);enable-background:new    ;">
		<text transform="matrix(1 0 0 1 200.075 337.727)" class="st13 st14">Asparagales</text>
	</g>
	<g style="clip-path:url(#SVGID_00000048467575728136795830000008352530609031945094_);enable-background:new    ;">
		<text transform="matrix(1 0 0 1 180.9792 323.5679)" class="st13 st14">Asterales</text>
	</g>
	<g style="clip-path:url(#SVGID_00000048467575728136795830000008352530609031945094_);enable-background:new    ;">
		<text transform="matrix(1 0 0 1 157.2826 309.21)" class="st13 st14">Asterales</text>
	</g>
	<g style="clip-path:url(#SVGID_00000048467575728136795830000008352530609031945094_);enable-background:new    ;">
		<text transform="matrix(1 0 0 1 126.2926 280.8408)" class="st13 st14">Laurales</text>
	</g>
	<g style="clip-path:url(#SVGID_00000048467575728136795830000008352530609031945094_);enable-background:new    ;">
		<text transform="matrix(1 0 0 1 142.9969 250.9329)" class="st13 st14">Poales</text>
	</g>
	<g style="clip-path:url(#SVGID_00000048467575728136795830000008352530609031945094_);enable-background:new    ;">
		<text transform="matrix(1 0 0 1 158.2623 220.83)" class="st13 st14">Poales</text>
	</g>
	<g style="clip-path:url(#SVGID_00000048467575728136795830000008352530609031945094_);enable-background:new    ;">
		<text transform="matrix(1 0 0 1 180.9509 199.6029)" class="st13 st14">Sapindales</text>
	</g>
	<g style="clip-path:url(#SVGID_00000048467575728136795830000008352530609031945094_);enable-background:new    ;">
		<text transform="matrix(1 0 0 1 203.3898 184.68)" class="st13 st14">Fabales</text>
	</g>
	<g style="clip-path:url(#SVGID_00000048467575728136795830000008352530609031945094_);enable-background:new    ;">
		<text transform="matrix(1 0 0 1 221.5507 143.4517)" class="st13 st14">Cannabaceae</text>
	</g>
	<g style="clip-path:url(#SVGID_00000048467575728136795830000008352530609031945094_);enable-background:new    ;">
		<text transform="matrix(1 0 0 1 299.1159 160.5727)" class="st13 st14">Amaryllidaceae</text>
	</g>
	<g style="clip-path:url(#SVGID_00000048467575728136795830000008352530609031945094_);enable-background:new    ;">
		<text transform="matrix(1 0 0 1 317.4421 207.5918)" class="st13 st14">Amaryllidaceae</text>
	</g>
	<g style="clip-path:url(#SVGID_00000048467575728136795830000008352530609031945094_);enable-background:new    ;">
		<text transform="matrix(1 0 0 1 337.5491 241.3428)" class="st13 st14">Pinaceae</text>
	</g>
	<g style="clip-path:url(#SVGID_00000048467575728136795830000008352530609031945094_);enable-background:new    ;">
		<text transform="matrix(1 0 0 1 332.1104 295.263)" class="st13 st14">Rutaceae</text>
	</g>
	<g style="clip-path:url(#SVGID_00000048467575728136795830000008352530609031945094_);enable-background:new    ;">
		<text transform="matrix(1 0 0 1 322.6233 341.4097)" class="st13 st14">Apiaceae</text>
	</g>
	<g style="clip-path:url(#SVGID_00000048467575728136795830000008352530609031945094_);enable-background:new    ;">
		<text transform="matrix(1 0 0 1 280.5622 374.2857)" class="st13 st14">Fagaceae</text>
	</g>
	<g style="clip-path:url(#SVGID_00000048467575728136795830000008352530609031945094_);enable-background:new    ;">
		<text transform="matrix(1 0 0 1 154.3182 366.0203)" class="st13 st14">Asteraceae</text>
	</g>
	<g style="clip-path:url(#SVGID_00000048467575728136795830000008352530609031945094_);enable-background:new    ;">
		<text transform="matrix(1 0 0 1 110.7401 350.1917)" class="st13 st14">Asteraceae</text>
	</g>
	<g style="clip-path:url(#SVGID_00000048467575728136795830000008352530609031945094_);enable-background:new    ;">
		<text transform="matrix(1 0 0 1 88.4774 297.56)" class="st13 st14">Lauraceae</text>
	</g>
	<g style="clip-path:url(#SVGID_00000048467575728136795830000008352530609031945094_);enable-background:new    ;">
		<text transform="matrix(1 0 0 1 76.3997 232.2216)" class="st13 st14">Poaceae</text>
	</g>
	<g style="clip-path:url(#SVGID_00000048467575728136795830000008352530609031945094_);enable-background:new    ;">
		<text transform="matrix(1 0 0 1 104.925 203.8282)" class="st13 st14">Poaceae</text>
	</g>
	<g style="clip-path:url(#SVGID_00000048467575728136795830000008352530609031945094_);enable-background:new    ;">
		<text transform="matrix(1 0 0 1 138.3644 156.69)" class="st13 st14">Rutaceae</text>
	</g>
	<g style="clip-path:url(#SVGID_00000048467575728136795830000008352530609031945094_);enable-background:new    ;">
		<text transform="matrix(1 0 0 1 185.5803 127.1686)" class="st13 st14">Fabaceae</text>
	</g>
	<g style="clip-path:url(#SVGID_00000048467575728136795830000008352530609031945094_);enable-background:new    ;">
		<text transform="matrix(1 0 0 1 265.563 86.08)" class="st13 st14">Celtis</text>
	</g>
	<g style="clip-path:url(#SVGID_00000048467575728136795830000008352530609031945094_);enable-background:new    ;">
		<text transform="matrix(1 0 0 1 330.519 115.92)" class="st13 st14">Allium</text>
	</g>
	<g style="clip-path:url(#SVGID_00000048467575728136795830000008352530609031945094_);enable-background:new    ;">
		<text transform="matrix(1 0 0 1 403.611 230.8055)" class="st13 st14">Pinus</text>
	</g>
	<g style="clip-path:url(#SVGID_00000048467575728136795830000008352530609031945094_);enable-background:new    ;">
		<text transform="matrix(1 0 0 1 395.6283 313.14)" class="st13 st14">Citrus</text>
	</g>
	<g style="clip-path:url(#SVGID_00000048467575728136795830000008352530609031945094_);enable-background:new    ;">
		<text transform="matrix(1 0 0 1 98.5415 375.4317)" class="st13 st14">Bidens</text>
	</g>
	<g style="clip-path:url(#SVGID_00000048467575728136795830000008352530609031945094_);enable-background:new    ;">
		<text transform="matrix(1 0 0 1 68.5573 182.3918)" class="st13 st14">Brachypodium</text>
	</g>
	<g style="clip-path:url(#SVGID_00000048467575728136795830000008352530609031945094_);enable-background:new    ;">
		<text transform="matrix(1 0 0 1 173.5705 88.9764)" class="st13 st14">Phaseolus</text>
	</g>
</g>
<text transform="matrix(1 0 0 1 194.3848 290)" class="st15 st16">15</text>
<g transform="translate(250, 260)">
</g>
</svg>
