<?xml version="1.0" encoding="utf-8"?>
<!-- Generator: Adobe Illustrator 28.1.0, SVG Export Plug-In . SVG Version: 6.00 Build 0)  -->
<svg version="1.1" id="Layer_1" xmlns="http://www.w3.org/2000/svg" xmlns:xlink="http://www.w3.org/1999/xlink" x="0px" y="0px"
	 viewBox="0 0 504 504" style="enable-background:new 0 0 504 504;" xml:space="preserve">
<style type="text/css">
	.st0{fill:none;}
	
		.st1{clip-path:url(#SVGID_00000126291668871064690130000008829281741790036412_);fill:#E28500;stroke:#000000;stroke-width:0.17;stroke-miterlimit:10;}
	
		.st2{clip-path:url(#SVGID_00000126291668871064690130000008829281741790036412_);fill:#FFFFFF;stroke:#FFFFFF;stroke-width:0.17;stroke-miterlimit:10;}
	.st3{clip-path:url(#SVGID_00000126291668871064690130000008829281741790036412_);enable-background:new    ;}
	.st4{font-family:'ArialMT';}
	.st5{font-size:18.49px;}
	.st6{font-family:'Arial-BoldMT';}
	.st7{font-size:100px;}
</style>
<rect y="0" class="st0" width="504" height="504"/>
<g>
	<defs>
		<rect id="SVGID_1_" y="0" width="504" height="504"/>
	</defs>
	<clipPath id="SVGID_00000167380553598928898400000013640607367766899864_">
		<use xlink:href="#SVGID_1_"  style="overflow:visible;"/>
	</clipPath>
	
		<polygon style="clip-path:url(#SVGID_00000167380553598928898400000013640607367766899864_);fill:#E28500;stroke:#000000;stroke-width:0.17;stroke-miterlimit:10;" points="
		252,302.4 252,309.6 252,316.8 252,324 252,331.2 252,338.4 252,345.6 252,352.8 258.9,352.6 265.7,351.9 272.5,350.7 279.2,349.1 
		285.8,347 292.2,344.5 298.4,341.5 304.4,338.1 310.1,334.4 315.6,330.2 320.8,325.7 325.7,320.8 330.2,315.6 334.4,310.1 
		338.1,304.4 341.5,298.4 344.5,292.2 347,285.8 349.1,279.2 350.7,272.5 351.9,265.7 352.6,258.9 352.8,252 352.6,245.1 
		351.9,238.3 350.7,231.5 349.1,224.8 347,218.2 344.5,211.8 341.5,205.6 338.1,199.6 334.4,193.9 330.2,188.4 325.7,183.2 
		320.8,178.3 315.6,173.8 310.1,169.6 304.4,165.9 298.4,162.5 292.2,159.6 285.8,157 279.2,154.9 272.5,153.3 265.7,152.1 
		258.9,151.4 252,151.2 252,158.4 252,165.6 252,172.8 252,180 252,187.2 252,194.4 252,201.6 258.9,202.1 265.6,203.5 272.1,205.8 
		278.2,208.9 283.8,212.9 288.8,217.6 293.2,222.9 296.8,228.8 299.5,235.1 301.4,241.8 302.3,248.6 302.3,255.4 301.4,262.2 
		299.5,268.9 296.8,275.2 293.2,281.1 288.8,286.4 283.8,291.1 278.2,295.1 272.1,298.2 265.6,300.5 258.9,301.9 	"/>
	
		<polygon style="clip-path:url(#SVGID_00000167380553598928898400000013640607367766899864_);fill:#E28500;stroke:#000000;stroke-width:0.17;stroke-miterlimit:10;" points="
		252,201.6 252,194.4 252,187.2 252,180 252,172.8 252,165.6 252,158.4 252,151.2 245.1,151.4 238.3,152.1 231.5,153.3 224.8,154.9 
		218.2,157 211.8,159.6 205.6,162.5 199.6,165.9 193.9,169.6 188.4,173.8 183.2,178.3 178.3,183.2 173.8,188.4 169.6,193.9 
		165.9,199.6 162.5,205.6 159.6,211.8 157,218.2 154.9,224.8 153.3,231.5 152.1,238.3 151.4,245.1 151.2,252 151.4,258.9 
		152.1,265.7 153.3,272.5 154.9,279.2 157,285.8 159.6,292.2 162.5,298.4 165.9,304.4 169.6,310.1 173.8,315.6 178.3,320.8 
		183.2,325.7 188.4,330.2 193.9,334.4 199.6,338.1 205.6,341.5 211.8,344.5 218.2,347 224.8,349.1 231.5,350.7 238.3,351.9 
		245.1,352.6 252,352.8 252,345.6 252,338.4 252,331.2 252,324 252,316.8 252,309.6 252,302.4 245.1,301.9 238.4,300.5 231.9,298.2 
		225.8,295.1 220.2,291.1 215.2,286.4 210.8,281.1 207.2,275.2 204.5,268.9 202.6,262.2 201.7,255.4 201.7,248.6 202.6,241.8 
		204.5,235.1 207.2,228.8 210.8,222.9 215.2,217.6 220.2,212.9 225.8,208.9 231.9,205.8 238.4,203.5 245.1,202.1 	"/>
	
		<polygon style="clip-path:url(#SVGID_00000167380553598928898400000013640607367766899864_);fill:#E28500;stroke:#000000;stroke-width:0.17;stroke-miterlimit:10;" points="
		252,352.8 252,360 252,367.2 252,374.4 252,381.6 252,388.8 252,396 252,403.2 258.9,403 265.8,402.6 272.6,401.8 279.4,400.7 
		286.1,399.3 292.8,397.6 299.4,395.6 305.9,393.3 312.2,390.7 318.5,387.8 324.6,384.6 330.6,381.2 336.4,377.5 342,373.5 
		347.4,369.3 352.7,364.8 357.7,360.1 362.5,355.2 367.1,350.1 371.4,344.7 375.5,339.2 379.4,333.5 382.9,327.6 386.2,321.6 
		389.3,315.4 392,309.1 394.5,302.6 396.6,296.1 398.5,289.5 400,282.8 401.3,276 402.2,269.2 402.9,262.3 403.2,255.4 403.2,248.6 
		402.9,241.7 402.2,234.8 401.3,228 400,221.2 398.5,214.5 396.6,207.9 394.5,201.4 392,194.9 389.3,188.6 386.2,182.4 382.9,176.4 
		379.4,170.5 375.5,164.8 371.4,159.3 367.1,153.9 362.5,148.8 357.7,143.9 352.7,139.2 347.4,134.7 342,130.5 336.4,126.5 
		330.6,122.8 324.6,119.4 318.5,116.2 312.2,113.3 305.9,110.7 299.4,108.4 292.8,106.4 286.1,104.7 279.4,103.3 272.6,102.2 
		265.8,101.4 258.9,101 252,100.8 252,108 252,115.2 252,122.4 252,129.6 252,136.8 252,144 252,151.2 258.9,151.4 265.7,152.1 
		272.5,153.3 279.2,154.9 285.8,157 292.2,159.6 298.4,162.5 304.4,165.9 310.1,169.6 315.6,173.8 320.8,178.3 325.7,183.2 
		330.2,188.4 334.4,193.9 338.1,199.6 341.5,205.6 344.5,211.8 347,218.2 349.1,224.8 350.7,231.5 351.9,238.3 352.6,245.1 
		352.8,252 352.6,258.9 351.9,265.7 350.7,272.5 349.1,279.2 347,285.8 344.5,292.2 341.5,298.4 338.1,304.4 334.4,310.1 
		330.2,315.6 325.7,320.8 320.8,325.7 315.6,330.2 310.1,334.4 304.4,338.1 298.4,341.5 292.2,344.5 285.8,347 279.2,349.1 
		272.5,350.7 265.7,351.9 258.9,352.6 	"/>
	
		<polygon style="clip-path:url(#SVGID_00000167380553598928898400000013640607367766899864_);fill:#E28500;stroke:#000000;stroke-width:0.17;stroke-miterlimit:10;" points="
		252,151.2 252,144 252,136.8 252,129.6 252,122.4 252,115.2 252,108 252,100.8 245.1,101 238.2,101.4 231.4,102.2 224.6,103.3 
		217.9,104.7 211.2,106.4 204.6,108.4 198.1,110.7 191.8,113.3 185.5,116.2 179.4,119.4 173.4,122.8 167.6,126.5 162,130.5 
		156.6,134.7 151.3,139.2 146.3,143.9 141.5,148.8 136.9,153.9 132.6,159.3 128.5,164.8 124.6,170.5 121.1,176.4 117.8,182.4 
		114.7,188.6 112,194.9 109.5,201.4 107.4,207.9 105.5,214.5 104,221.2 102.7,228 101.8,234.8 101.2,241.7 100.8,248.6 100.8,255.4 
		101.2,262.3 101.8,269.2 102.7,276 104,282.8 105.5,289.5 107.4,296.1 109.5,302.6 112,309.1 114.7,315.4 117.8,321.6 121.1,327.6 
		124.6,333.5 128.5,339.2 132.6,344.7 136.9,350.1 141.5,355.2 146.3,360.1 151.3,364.8 156.6,369.3 162,373.5 167.6,377.5 
		173.4,381.2 179.4,384.6 185.5,387.8 191.8,390.7 198.1,393.3 204.6,395.6 211.2,397.6 217.9,399.3 224.6,400.7 231.4,401.8 
		238.2,402.6 245.1,403 252,403.2 252,396 252,388.8 252,381.6 252,374.4 252,367.2 252,360 252,352.8 245.1,352.6 238.3,351.9 
		231.5,350.7 224.8,349.1 218.2,347 211.8,344.5 205.6,341.5 199.6,338.1 193.9,334.4 188.4,330.2 183.2,325.7 178.3,320.8 
		173.8,315.6 169.6,310.1 165.9,304.4 162.5,298.4 159.6,292.2 157,285.8 154.9,279.2 153.3,272.5 152.1,265.7 151.4,258.9 
		151.2,252 151.4,245.1 152.1,238.3 153.3,231.5 154.9,224.8 157,218.2 159.6,211.8 162.5,205.6 165.9,199.6 169.6,193.9 
		173.8,188.4 178.3,183.2 183.2,178.3 188.4,173.8 193.9,169.6 199.6,165.9 205.6,162.5 211.8,159.6 218.2,157 224.8,154.9 
		231.5,153.3 238.3,152.1 245.1,151.4 	"/>
	
		<polygon style="clip-path:url(#SVGID_00000167380553598928898400000013640607367766899864_);fill:#E28500;stroke:#000000;stroke-width:0.17;stroke-miterlimit:10;" points="
		252,403.2 252,410.4 252,417.6 252,424.8 252,432 252,439.2 252,446.4 252,453.6 258.9,453.5 265.8,453.1 272.6,452.5 279.5,451.7 
		286.2,450.7 293,449.4 299.7,447.9 306.4,446.1 313,444.1 319.5,442 326,439.5 332.3,436.9 338.6,434.1 344.8,431 350.8,427.7 
		356.8,424.2 362.6,420.6 368.3,416.7 373.8,412.6 379.2,408.4 384.5,404 389.6,399.3 394.5,394.5 399.3,389.6 404,384.5 
		408.4,379.2 412.6,373.8 416.7,368.3 420.6,362.6 424.2,356.8 427.7,350.8 431,344.8 434.1,338.6 436.9,332.3 439.5,326 442,319.5 
		444.1,313 446.1,306.4 447.9,299.7 449.4,293 450.7,286.2 451.7,279.5 452.5,272.6 453.1,265.8 453.5,258.9 453.6,252 453.5,245.1 
		453.1,238.2 452.5,231.4 451.7,224.6 450.7,217.8 449.4,211 447.9,204.3 446.1,197.6 444.1,191 442,184.5 439.5,178 436.9,171.7 
		434.1,165.4 431,159.2 427.7,153.2 424.2,147.2 420.6,141.4 416.7,135.7 412.6,130.2 408.4,124.8 404,119.5 399.3,114.4 
		394.5,109.4 389.6,104.7 384.5,100.1 379.2,95.6 373.8,91.4 368.3,87.3 362.6,83.4 356.8,79.8 350.8,76.3 344.8,73 338.6,69.9 
		332.3,67.1 326,64.5 319.5,62 313,59.8 306.4,57.9 299.7,56.1 293,54.6 286.2,53.3 279.5,52.3 272.6,51.5 265.8,50.9 258.9,50.5 
		252,50.4 252,57.6 252,64.8 252,72 252,79.2 252,86.4 252,93.6 252,100.8 258.9,101 265.8,101.4 272.6,102.2 279.4,103.3 
		286.1,104.7 292.8,106.4 299.4,108.4 305.9,110.7 312.2,113.3 318.5,116.2 324.6,119.4 330.6,122.8 336.4,126.5 342,130.5 
		347.4,134.7 352.7,139.2 357.7,143.9 362.5,148.8 367.1,153.9 371.4,159.3 375.5,164.8 379.4,170.5 382.9,176.4 386.2,182.4 
		389.3,188.6 392,194.9 394.5,201.4 396.6,207.9 398.5,214.5 400,221.2 401.3,228 402.2,234.8 402.9,241.7 403.2,248.6 403.2,255.4 
		402.9,262.3 402.2,269.2 401.3,276 400,282.8 398.5,289.5 396.6,296.1 394.5,302.6 392,309.1 389.3,315.4 386.2,321.6 382.9,327.6 
		379.4,333.5 375.5,339.2 371.4,344.7 367.1,350.1 362.5,355.2 357.7,360.1 352.7,364.8 347.4,369.3 342,373.5 336.4,377.5 
		330.6,381.2 324.6,384.6 318.5,387.8 312.2,390.7 305.9,393.3 299.4,395.6 292.8,397.6 286.1,399.3 279.4,400.7 272.6,401.8 
		265.8,402.6 258.9,403 	"/>
	
		<polygon style="clip-path:url(#SVGID_00000167380553598928898400000013640607367766899864_);fill:#E28500;stroke:#000000;stroke-width:0.17;stroke-miterlimit:10;" points="
		252,100.8 252,93.6 252,86.4 252,79.2 252,72 252,64.8 252,57.6 252,50.4 245.1,50.5 238.2,50.9 231.4,51.5 224.6,52.3 217.8,53.3 
		211,54.6 204.3,56.1 197.6,57.9 191,59.8 184.5,62 178,64.5 171.7,67.1 165.4,69.9 159.2,73 153.2,76.3 147.2,79.8 141.4,83.4 
		135.7,87.3 130.2,91.4 124.8,95.6 119.5,100.1 114.4,104.7 109.4,109.4 104.7,114.4 100.1,119.5 95.6,124.8 91.4,130.2 87.3,135.7 
		83.4,141.4 79.8,147.2 76.3,153.2 73,159.2 69.9,165.4 67.1,171.7 64.5,178 62,184.5 59.8,191 57.9,197.6 56.1,204.3 54.6,211 
		53.3,217.8 52.3,224.6 51.5,231.4 50.9,238.2 50.5,245.1 50.4,252 50.5,258.9 50.9,265.8 51.5,272.6 52.3,279.5 53.3,286.2 
		54.6,293 56.1,299.7 57.9,306.4 59.8,313 62,319.5 64.5,326 67.1,332.3 69.9,338.6 73,344.8 76.3,350.8 79.8,356.8 83.4,362.6 
		87.3,368.3 91.4,373.8 95.6,379.2 100.1,384.5 104.7,389.6 109.4,394.5 114.4,399.3 119.5,404 124.8,408.4 130.2,412.6 
		135.7,416.7 141.4,420.6 147.2,424.2 153.2,427.7 159.2,431 165.4,434.1 171.7,436.9 178,439.5 184.5,442 191,444.1 197.6,446.1 
		204.3,447.9 211,449.4 217.8,450.7 224.6,451.7 231.4,452.5 238.2,453.1 245.1,453.5 252,453.6 252,446.4 252,439.2 252,432 
		252,424.8 252,417.6 252,410.4 252,403.2 245.1,403 238.2,402.6 231.4,401.8 224.6,400.7 217.9,399.3 211.2,397.6 204.6,395.6 
		198.1,393.3 191.8,390.7 185.5,387.8 179.4,384.6 173.4,381.2 167.6,377.5 162,373.5 156.6,369.3 151.3,364.8 146.3,360.1 
		141.5,355.2 136.9,350.1 132.6,344.7 128.5,339.2 124.6,333.5 121.1,327.6 117.8,321.6 114.7,315.4 112,309.1 109.5,302.6 
		107.4,296.1 105.5,289.5 104,282.8 102.7,276 101.8,269.2 101.2,262.3 100.8,255.4 100.8,248.6 101.2,241.7 101.8,234.8 102.7,228 
		104,221.2 105.5,214.5 107.4,207.9 109.5,201.4 112,194.9 114.7,188.6 117.8,182.4 121.1,176.4 124.6,170.5 128.5,164.8 
		132.6,159.3 136.9,153.9 141.5,148.8 146.3,143.9 151.3,139.2 156.6,134.7 162,130.5 167.6,126.5 173.4,122.8 179.4,119.4 
		185.5,116.2 191.8,113.3 198.1,110.7 204.6,108.4 211.2,106.4 217.9,104.7 224.6,103.3 231.4,102.2 238.2,101.4 245.1,101 	"/>
	
		<polygon style="clip-path:url(#SVGID_00000167380553598928898400000013640607367766899864_);fill:#FFFFFF;stroke:#FFFFFF;stroke-width:0.17;stroke-miterlimit:10;" points="
		252,252 252,259.2 252,266.4 252,273.6 252,280.8 252,288 252,295.2 252,302.4 258.9,301.9 265.6,300.5 272.1,298.2 278.2,295.1 
		283.8,291.1 288.8,286.4 293.2,281.1 296.8,275.2 299.5,268.9 301.4,262.2 302.3,255.4 302.3,248.6 301.4,241.8 299.5,235.1 
		296.8,228.8 293.2,222.9 288.8,217.6 283.8,212.9 278.2,208.9 272.1,205.8 265.6,203.5 258.9,202.1 252,201.6 252,208.8 252,216 
		252,223.2 252,230.4 252,237.6 252,244.8 	"/>
	
		<polygon style="clip-path:url(#SVGID_00000167380553598928898400000013640607367766899864_);fill:#FFFFFF;stroke:#FFFFFF;stroke-width:0.17;stroke-miterlimit:10;" points="
		252,252 252,244.8 252,237.6 252,230.4 252,223.2 252,216 252,208.8 252,201.6 245.1,202.1 238.4,203.5 231.9,205.8 225.8,208.9 
		220.2,212.9 215.2,217.6 210.8,222.9 207.2,228.8 204.5,235.1 202.6,241.8 201.7,248.6 201.7,255.4 202.6,262.2 204.5,268.9 
		207.2,275.2 210.8,281.1 215.2,286.4 220.2,291.1 225.8,295.1 231.9,298.2 238.4,300.5 245.1,301.9 252,302.4 252,295.2 252,288 
		252,280.8 252,273.6 252,266.4 252,259.2 	"/>
	<g style="clip-path:url(#SVGID_00000167380553598928898400000013640607367766899864_);enable-background:new    ;">
		<text transform="matrix(1 0 0 1 305.2769 270.4191)" class="st4 st5">Rosales</text>
	</g>
	<g style="clip-path:url(#SVGID_00000167380553598928898400000013640607367766899864_);enable-background:new    ;">
		<text transform="matrix(1 0 0 1 129.5001 251.9999)" class="st4 st5">Rosales</text>
	</g>
	<g style="clip-path:url(#SVGID_00000167380553598928898400000013640607367766899864_);enable-background:new    ;">
		<text transform="matrix(1 0 0 1 336.8895 247.42)" class="st4 st5">Moraceae</text>
	</g>
	<g style="clip-path:url(#SVGID_00000167380553598928898400000013640607367766899864_);enable-background:new    ;">
		<text transform="matrix(1 0 0 1 84.8895 226.74)" class="st4 st5">Moraceae</text>
	</g>
	<g style="clip-path:url(#SVGID_00000167380553598928898400000013640607367766899864_);enable-background:new    ;">
		<text transform="matrix(1 0 0 1 61.4084 199.8812)" class="st4 st5">Morus</text>
	</g>
</g>
<text transform="matrix(1 0 0 1 222.1924 290)" class="st6 st7">2</text>
<g transform="translate(250, 260)">
</g>
</svg>
