<?xml version="1.0" encoding="utf-8"?>
<!-- Generator: Adobe Illustrator 28.1.0, SVG Export Plug-In . SVG Version: 6.00 Build 0)  -->
<svg version="1.1" id="Layer_1" xmlns="http://www.w3.org/2000/svg" xmlns:xlink="http://www.w3.org/1999/xlink" x="0px" y="0px"
	 viewBox="0 0 504 504" style="enable-background:new 0 0 504 504;" xml:space="preserve">
<style type="text/css">
	.st0{fill:none;}
	
		.st1{clip-path:url(#SVGID_00000148619040970839918210000017865817710925333928_);fill:#757173;stroke:#000000;stroke-width:0.17;stroke-miterlimit:10;}
	
		.st2{clip-path:url(#SVGID_00000137106144706274198800000002944616613331274673_);fill:#E28500;stroke:#000000;stroke-width:0.17;stroke-miterlimit:10;}
	
		.st3{clip-path:url(#SVGID_00000003087966767629436850000011506499934110502798_);fill:#E28500;stroke:#000000;stroke-width:0.17;stroke-miterlimit:10;}
	
		.st4{clip-path:url(#SVGID_00000153680646197869957390000001467986794247205282_);fill:#F7BB00;stroke:#000000;stroke-width:0.17;stroke-miterlimit:10;}
	
		.st5{clip-path:url(#SVGID_00000082333075690423069110000002312543353997464505_);fill:#F7BB00;stroke:#000000;stroke-width:0.17;stroke-miterlimit:10;}
	
		.st6{clip-path:url(#SVGID_00000026868169498453413720000005328056004644759950_);fill:#C0004C;stroke:#000000;stroke-width:0.17;stroke-miterlimit:10;}
	
		.st7{clip-path:url(#SVGID_00000183957987189137196690000016210302366230803074_);fill:#D70041;stroke:#000000;stroke-width:0.17;stroke-miterlimit:10;}
	
		.st8{clip-path:url(#SVGID_00000091714779422172191620000000972760702973188272_);fill:#D70041;stroke:#000000;stroke-width:0.17;stroke-miterlimit:10;}
	
		.st9{clip-path:url(#SVGID_00000143577545989690107020000007725867488715950998_);fill:#757173;stroke:#000000;stroke-width:0.17;stroke-miterlimit:10;}
	
		.st10{clip-path:url(#SVGID_00000183947366071272982460000004178178172438293895_);fill:#E28500;stroke:#000000;stroke-width:0.17;stroke-miterlimit:10;}
	
		.st11{clip-path:url(#SVGID_00000071521941536841498400000002154476585086428841_);fill:#E28500;stroke:#000000;stroke-width:0.17;stroke-miterlimit:10;}
	
		.st12{clip-path:url(#SVGID_00000083074382200911354200000014377539056879642013_);fill:#F7BB00;stroke:#000000;stroke-width:0.17;stroke-miterlimit:10;}
	
		.st13{clip-path:url(#SVGID_00000067232545491645068660000007162549898412444580_);fill:#F7BB00;stroke:#000000;stroke-width:0.17;stroke-miterlimit:10;}
	
		.st14{clip-path:url(#SVGID_00000010991855868916643220000000839718444626066593_);fill:#C0004C;stroke:#000000;stroke-width:0.17;stroke-miterlimit:10;}
	
		.st15{clip-path:url(#SVGID_00000040571571677108549790000005241286772844526518_);fill:#D70041;stroke:#000000;stroke-width:0.17;stroke-miterlimit:10;}
	
		.st16{clip-path:url(#SVGID_00000162332692778659164990000010530279185068107434_);fill:#D70041;stroke:#000000;stroke-width:0.17;stroke-miterlimit:10;}
	
		.st17{clip-path:url(#SVGID_00000055703053563020722060000002749629374788150458_);fill:#757173;stroke:#000000;stroke-width:0.17;stroke-miterlimit:10;}
	
		.st18{clip-path:url(#SVGID_00000074434952293421214720000013888688640608669569_);fill:#E28500;stroke:#000000;stroke-width:0.17;stroke-miterlimit:10;}
	
		.st19{clip-path:url(#SVGID_00000101821819403743711520000015262892970884538270_);fill:#E28500;stroke:#000000;stroke-width:0.17;stroke-miterlimit:10;}
	
		.st20{clip-path:url(#SVGID_00000092448749377071168880000016857649465612828558_);fill:#F7BB00;stroke:#000000;stroke-width:0.17;stroke-miterlimit:10;}
	
		.st21{clip-path:url(#SVGID_00000118397651684344737640000008607850372514602385_);fill:#F7BB00;stroke:#000000;stroke-width:0.17;stroke-miterlimit:10;}
	
		.st22{clip-path:url(#SVGID_00000173859005822589745140000003726612501401226663_);fill:#C0004C;stroke:#000000;stroke-width:0.17;stroke-miterlimit:10;}
	
		.st23{clip-path:url(#SVGID_00000145044021579726552370000013939371408569321638_);fill:#D70041;stroke:#000000;stroke-width:0.17;stroke-miterlimit:10;}
	
		.st24{clip-path:url(#SVGID_00000113343101330486645840000004052585120251561910_);fill:#D70041;stroke:#000000;stroke-width:0.17;stroke-miterlimit:10;}
	
		.st25{clip-path:url(#SVGID_00000013893533767688239100000016707344684487513791_);fill:#FFFFFF;stroke:#FFFFFF;stroke-width:0.17;stroke-miterlimit:10;}
	
		.st26{clip-path:url(#SVGID_00000139978600324175224020000011508551606335416738_);fill:#FFFFFF;stroke:#FFFFFF;stroke-width:0.17;stroke-miterlimit:10;}
	
		.st27{clip-path:url(#SVGID_00000011001112932698062010000002100359899502941629_);fill:#FFFFFF;stroke:#FFFFFF;stroke-width:0.17;stroke-miterlimit:10;}
	
		.st28{clip-path:url(#SVGID_00000144307354219764624380000002625914261731899820_);fill:#FFFFFF;stroke:#FFFFFF;stroke-width:0.17;stroke-miterlimit:10;}
	
		.st29{clip-path:url(#SVGID_00000158732638811268323210000016332412255936669118_);fill:#FFFFFF;stroke:#FFFFFF;stroke-width:0.17;stroke-miterlimit:10;}
	
		.st30{clip-path:url(#SVGID_00000165216820910131224260000004761426121089639330_);fill:#FFFFFF;stroke:#FFFFFF;stroke-width:0.17;stroke-miterlimit:10;}
	
		.st31{clip-path:url(#SVGID_00000017487063639174894790000016899350601900246435_);fill:#FFFFFF;stroke:#FFFFFF;stroke-width:0.17;stroke-miterlimit:10;}
	
		.st32{clip-path:url(#SVGID_00000044865500083871218020000014993207432154373009_);fill:#FFFFFF;stroke:#FFFFFF;stroke-width:0.17;stroke-miterlimit:10;}
	.st33{clip-path:url(#SVGID_00000000907702435594951260000004333132284396571019_);enable-background:new    ;}
	.st34{font-family:'ArialMT';}
	.st35{font-size:18.49px;}
	.st36{clip-path:url(#SVGID_00000047034675318851535170000016690245229610772147_);enable-background:new    ;}
	.st37{clip-path:url(#SVGID_00000101073755166335787220000005430138494009123989_);enable-background:new    ;}
	.st38{clip-path:url(#SVGID_00000062891668567786047620000006337349472292859039_);enable-background:new    ;}
	.st39{clip-path:url(#SVGID_00000168832792915080442990000015485724821538675379_);enable-background:new    ;}
	.st40{clip-path:url(#SVGID_00000152224452976261212930000006347237717441952679_);enable-background:new    ;}
	.st41{clip-path:url(#SVGID_00000128484454963984286110000012897171394145641404_);enable-background:new    ;}
	.st42{clip-path:url(#SVGID_00000111190551156753573650000017060353046765083065_);enable-background:new    ;}
	.st43{clip-path:url(#SVGID_00000116209928519985916350000004845683846629387962_);enable-background:new    ;}
	.st44{letter-spacing:1;}
	.st45{clip-path:url(#SVGID_00000149342054105380533210000002778233376082129303_);enable-background:new    ;}
	.st46{clip-path:url(#SVGID_00000104665926727352749510000012701906429184606359_);enable-background:new    ;}
	.st47{clip-path:url(#SVGID_00000070110179509593689190000011366647032872542118_);enable-background:new    ;}
	.st48{clip-path:url(#SVGID_00000080922082023290522010000000641396872804402349_);enable-background:new    ;}
	.st49{clip-path:url(#SVGID_00000130643603431975093320000000788291850875218855_);enable-background:new    ;}
	.st50{clip-path:url(#SVGID_00000168795820070616391610000002885760511830048439_);enable-background:new    ;}
	.st51{clip-path:url(#SVGID_00000136389220371862501070000013465857876108090271_);enable-background:new    ;}
	.st52{clip-path:url(#SVGID_00000166647575618774261960000002638429894153926056_);enable-background:new    ;}
	.st53{clip-path:url(#SVGID_00000076579208286034181060000003736110456611320721_);enable-background:new    ;}
	.st54{clip-path:url(#SVGID_00000167385298630892332870000012795892813018206910_);enable-background:new    ;}
	.st55{font-size:100px;}
</style>
<g transform="translate(250, 260)">
</g>
<g>
	<rect y="0" class="st0" width="504" height="504"/>
	<g>
		<g>
			<defs>
				<rect id="SVGID_1_" y="0" width="504" height="504"/>
			</defs>
			<clipPath id="SVGID_00000116941636349178956710000005278602942797800094_">
				<use xlink:href="#SVGID_1_"  style="overflow:visible;"/>
			</clipPath>
			
				<polygon style="clip-path:url(#SVGID_00000116941636349178956710000005278602942797800094_);fill:#757173;stroke:#000000;stroke-width:0.17;stroke-miterlimit:10;" points="
				287.6,216.4 292.7,211.3 297.8,206.2 302.9,201.1 308,196 313.1,190.9 318.2,185.8 323.3,180.7 318,175.8 312.4,171.3 
				306.5,167.2 300.3,163.5 293.9,160.3 287.2,157.6 280.4,155.3 273.4,153.5 266.4,152.2 259.2,151.5 252,151.2 252,158.4 
				252,165.6 252,172.8 252,180 252,187.2 252,194.4 252,201.6 259.9,202.2 267.6,204.1 274.9,207.1 281.6,211.2 			"/>
		</g>
		<g>
			<defs>
				<rect id="SVGID_00000090995322484136803160000005365984342992818065_" y="0" width="504" height="504"/>
			</defs>
			<clipPath id="SVGID_00000181771525043666843070000017681261257926964902_">
				<use xlink:href="#SVGID_00000090995322484136803160000005365984342992818065_"  style="overflow:visible;"/>
			</clipPath>
			
				<polygon style="clip-path:url(#SVGID_00000181771525043666843070000017681261257926964902_);fill:#E28500;stroke:#000000;stroke-width:0.17;stroke-miterlimit:10;" points="
				302.4,252 309.6,252 316.8,252 324,252 331.2,252 338.4,252 345.6,252 352.8,252 352.5,244.8 351.8,237.6 350.5,230.6 
				348.7,223.6 346.4,216.8 343.7,210.1 340.5,203.7 336.8,197.5 332.7,191.6 328.2,186 323.3,180.7 318.2,185.8 313.1,190.9 
				308,196 302.9,201.1 297.8,206.2 292.7,211.3 287.6,216.4 292.8,222.4 296.9,229.1 299.9,236.4 301.8,244.1 			"/>
		</g>
		<g>
			<defs>
				<rect id="SVGID_00000013904578711111587250000015732315300422858886_" y="0" width="504" height="504"/>
			</defs>
			<clipPath id="SVGID_00000171716010539242441130000008129904231401019300_">
				<use xlink:href="#SVGID_00000013904578711111587250000015732315300422858886_"  style="overflow:visible;"/>
			</clipPath>
			
				<polygon style="clip-path:url(#SVGID_00000171716010539242441130000008129904231401019300_);fill:#E28500;stroke:#000000;stroke-width:0.17;stroke-miterlimit:10;" points="
				287.6,287.6 292.7,292.7 297.8,297.8 302.9,302.9 308,308 313.1,313.1 318.2,318.2 323.3,323.3 328.2,318 332.7,312.4 
				336.8,306.5 340.5,300.3 343.7,293.9 346.4,287.2 348.7,280.4 350.5,273.4 351.8,266.4 352.5,259.2 352.8,252 345.6,252 
				338.4,252 331.2,252 324,252 316.8,252 309.6,252 302.4,252 301.8,259.9 299.9,267.6 296.9,274.9 292.8,281.6 			"/>
		</g>
		<g>
			<defs>
				<rect id="SVGID_00000127017855655743419960000011672872493089547178_" y="0" width="504" height="504"/>
			</defs>
			<clipPath id="SVGID_00000060032467711096329010000016173716907194356144_">
				<use xlink:href="#SVGID_00000127017855655743419960000011672872493089547178_"  style="overflow:visible;"/>
			</clipPath>
			
				<polygon style="clip-path:url(#SVGID_00000060032467711096329010000016173716907194356144_);fill:#F7BB00;stroke:#000000;stroke-width:0.17;stroke-miterlimit:10;" points="
				252,302.4 252,309.6 252,316.8 252,324 252,331.2 252,338.4 252,345.6 252,352.8 259.2,352.5 266.4,351.8 273.4,350.5 
				280.4,348.7 287.2,346.4 293.9,343.7 300.3,340.5 306.5,336.8 312.4,332.7 318,328.2 323.3,323.3 318.2,318.2 313.1,313.1 
				308,308 302.9,302.9 297.8,297.8 292.7,292.7 287.6,287.6 281.6,292.8 274.9,296.9 267.6,299.9 259.9,301.8 			"/>
		</g>
		<g>
			<defs>
				<rect id="SVGID_00000109720529474260909410000014427996115117399210_" y="0" width="504" height="504"/>
			</defs>
			<clipPath id="SVGID_00000072268671331543299290000008934949468485189005_">
				<use xlink:href="#SVGID_00000109720529474260909410000014427996115117399210_"  style="overflow:visible;"/>
			</clipPath>
			
				<polygon style="clip-path:url(#SVGID_00000072268671331543299290000008934949468485189005_);fill:#F7BB00;stroke:#000000;stroke-width:0.17;stroke-miterlimit:10;" points="
				216.4,287.6 211.3,292.7 206.2,297.8 201.1,302.9 196,308 190.9,313.1 185.8,318.2 180.7,323.3 186,328.2 191.6,332.7 
				197.5,336.8 203.7,340.5 210.1,343.7 216.8,346.4 223.6,348.7 230.6,350.5 237.6,351.8 244.8,352.5 252,352.8 252,345.6 
				252,338.4 252,331.2 252,324 252,316.8 252,309.6 252,302.4 244.1,301.8 236.4,299.9 229.1,296.9 222.4,292.8 			"/>
		</g>
		<g>
			<defs>
				<rect id="SVGID_00000115473854584783715100000016638651255645036734_" y="0" width="504" height="504"/>
			</defs>
			<clipPath id="SVGID_00000097464957524494992580000004746911671148948647_">
				<use xlink:href="#SVGID_00000115473854584783715100000016638651255645036734_"  style="overflow:visible;"/>
			</clipPath>
			
				<polygon style="clip-path:url(#SVGID_00000097464957524494992580000004746911671148948647_);fill:#C0004C;stroke:#000000;stroke-width:0.17;stroke-miterlimit:10;" points="
				201.6,252 194.4,252 187.2,252 180,252 172.8,252 165.6,252 158.4,252 151.2,252 151.5,259.2 152.2,266.4 153.5,273.4 
				155.3,280.4 157.6,287.2 160.3,293.9 163.5,300.3 167.2,306.5 171.3,312.4 175.8,318 180.7,323.3 185.8,318.2 190.9,313.1 
				196,308 201.1,302.9 206.2,297.8 211.3,292.7 216.4,287.6 211.2,281.6 207.1,274.9 204.1,267.6 202.2,259.9 			"/>
		</g>
		<g>
			<defs>
				<rect id="SVGID_00000062876070398286396470000002637871233045981833_" y="0" width="504" height="504"/>
			</defs>
			<clipPath id="SVGID_00000085246881966620746090000001043269655430705282_">
				<use xlink:href="#SVGID_00000062876070398286396470000002637871233045981833_"  style="overflow:visible;"/>
			</clipPath>
			
				<polygon style="clip-path:url(#SVGID_00000085246881966620746090000001043269655430705282_);fill:#D70041;stroke:#000000;stroke-width:0.17;stroke-miterlimit:10;" points="
				216.4,216.4 211.3,211.3 206.2,206.2 201.1,201.1 196,196 190.9,190.9 185.8,185.8 180.7,180.7 175.8,186 171.3,191.6 
				167.2,197.5 163.5,203.7 160.3,210.1 157.6,216.8 155.3,223.6 153.5,230.6 152.2,237.6 151.5,244.8 151.2,252 158.4,252 
				165.6,252 172.8,252 180,252 187.2,252 194.4,252 201.6,252 202.2,244.1 204.1,236.4 207.1,229.1 211.2,222.4 			"/>
		</g>
		<g>
			<defs>
				<rect id="SVGID_00000039843074577501063500000006189523482145845911_" y="0" width="504" height="504"/>
			</defs>
			<clipPath id="SVGID_00000003097500269001089600000007940410076605648039_">
				<use xlink:href="#SVGID_00000039843074577501063500000006189523482145845911_"  style="overflow:visible;"/>
			</clipPath>
			
				<polygon style="clip-path:url(#SVGID_00000003097500269001089600000007940410076605648039_);fill:#D70041;stroke:#000000;stroke-width:0.17;stroke-miterlimit:10;" points="
				252,201.6 252,194.4 252,187.2 252,180 252,172.8 252,165.6 252,158.4 252,151.2 244.8,151.5 237.6,152.2 230.6,153.5 
				223.6,155.3 216.8,157.6 210.1,160.3 203.7,163.5 197.5,167.2 191.6,171.3 186,175.8 180.7,180.7 185.8,185.8 190.9,190.9 
				196,196 201.1,201.1 206.2,206.2 211.3,211.3 216.4,216.4 222.4,211.2 229.1,207.1 236.4,204.1 244.1,202.2 			"/>
		</g>
		<g>
			<defs>
				<rect id="SVGID_00000056388779830437098510000004728668766586450330_" y="0" width="504" height="504"/>
			</defs>
			<clipPath id="SVGID_00000101077556903444717920000002175240098928530346_">
				<use xlink:href="#SVGID_00000056388779830437098510000004728668766586450330_"  style="overflow:visible;"/>
			</clipPath>
			
				<polygon style="clip-path:url(#SVGID_00000101077556903444717920000002175240098928530346_);fill:#757173;stroke:#000000;stroke-width:0.17;stroke-miterlimit:10;" points="
				323.3,180.7 328.4,175.6 333.5,170.5 338.5,165.4 343.6,160.4 348.7,155.3 353.8,150.2 358.9,145.1 353.9,140.3 348.6,135.7 
				343.1,131.3 337.5,127.3 331.6,123.4 325.6,119.9 319.4,116.7 313.1,113.7 306.6,111 300,108.6 293.4,106.6 286.6,104.8 
				279.8,103.4 272.9,102.2 266,101.4 259,101 252,100.8 252,108 252,115.2 252,122.4 252,129.6 252,136.8 252,144 252,151.2 
				259.2,151.5 266.4,152.2 273.4,153.5 280.4,155.3 287.2,157.6 293.9,160.3 300.3,163.5 306.5,167.2 312.4,171.3 318,175.8 			"/>
		</g>
		<g>
			<defs>
				<rect id="SVGID_00000152234925493281625900000014341394290729926564_" y="0" width="504" height="504"/>
			</defs>
			<clipPath id="SVGID_00000171686607678618733590000016767862531800944528_">
				<use xlink:href="#SVGID_00000152234925493281625900000014341394290729926564_"  style="overflow:visible;"/>
			</clipPath>
			
				<polygon style="clip-path:url(#SVGID_00000171686607678618733590000016767862531800944528_);fill:#E28500;stroke:#000000;stroke-width:0.17;stroke-miterlimit:10;" points="
				352.8,252 360,252 367.2,252 374.4,252 381.6,252 388.8,252 396,252 403.2,252 403,245 402.6,238.1 401.8,231.1 400.6,224.2 
				399.2,217.4 397.4,210.6 395.4,203.9 393,197.4 390.3,190.9 387.4,184.6 384.1,178.4 380.5,172.4 376.7,166.6 372.7,160.9 
				368.3,155.4 363.7,150.1 358.9,145.1 353.8,150.2 348.7,155.3 343.6,160.4 338.5,165.4 333.5,170.5 328.4,175.6 323.3,180.7 
				328.2,186 332.7,191.6 336.8,197.5 340.5,203.7 343.7,210.1 346.4,216.8 348.7,223.6 350.5,230.6 351.8,237.6 352.5,244.8 			"/>
		</g>
		<g>
			<defs>
				<rect id="SVGID_00000069398040311270753510000016754703627273621635_" y="0" width="504" height="504"/>
			</defs>
			<clipPath id="SVGID_00000057863742588835578400000015975094837098454440_">
				<use xlink:href="#SVGID_00000069398040311270753510000016754703627273621635_"  style="overflow:visible;"/>
			</clipPath>
			
				<polygon style="clip-path:url(#SVGID_00000057863742588835578400000015975094837098454440_);fill:#E28500;stroke:#000000;stroke-width:0.17;stroke-miterlimit:10;" points="
				323.3,323.3 328.4,328.4 333.5,333.5 338.5,338.5 343.6,343.6 348.7,348.7 353.8,353.8 358.9,358.9 363.7,353.9 368.3,348.6 
				372.7,343.1 376.7,337.5 380.5,331.6 384.1,325.6 387.4,319.4 390.3,313.1 393,306.6 395.4,300 397.4,293.4 399.2,286.6 
				400.6,279.8 401.8,272.9 402.6,266 403,259 403.2,252 396,252 388.8,252 381.6,252 374.4,252 367.2,252 360,252 352.8,252 
				352.5,259.2 351.8,266.4 350.5,273.4 348.7,280.4 346.4,287.2 343.7,293.9 340.5,300.3 336.8,306.5 332.7,312.4 328.2,318 			"/>
		</g>
		<g>
			<defs>
				<rect id="SVGID_00000023960447104869917520000016501981067405010091_" y="0" width="504" height="504"/>
			</defs>
			<clipPath id="SVGID_00000067203078835521523720000003127869210442666930_">
				<use xlink:href="#SVGID_00000023960447104869917520000016501981067405010091_"  style="overflow:visible;"/>
			</clipPath>
			
				<polygon style="clip-path:url(#SVGID_00000067203078835521523720000003127869210442666930_);fill:#F7BB00;stroke:#000000;stroke-width:0.17;stroke-miterlimit:10;" points="
				252,352.8 252,360 252,367.2 252,374.4 252,381.6 252,388.8 252,396 252,403.2 259,403 266,402.6 272.9,401.8 279.8,400.6 
				286.6,399.2 293.4,397.4 300,395.4 306.6,393 313.1,390.3 319.4,387.4 325.6,384.1 331.6,380.5 337.5,376.7 343.1,372.7 
				348.6,368.3 353.9,363.7 358.9,358.9 353.8,353.8 348.7,348.7 343.6,343.6 338.5,338.5 333.5,333.5 328.4,328.4 323.3,323.3 
				318,328.2 312.4,332.7 306.5,336.8 300.3,340.5 293.9,343.7 287.2,346.4 280.4,348.7 273.4,350.5 266.4,351.8 259.2,352.5 			"/>
		</g>
		<g>
			<defs>
				<rect id="SVGID_00000051357928297196704230000011997137106659455909_" y="0" width="504" height="504"/>
			</defs>
			<clipPath id="SVGID_00000044885146601290377910000010879558599814399399_">
				<use xlink:href="#SVGID_00000051357928297196704230000011997137106659455909_"  style="overflow:visible;"/>
			</clipPath>
			
				<polygon style="clip-path:url(#SVGID_00000044885146601290377910000010879558599814399399_);fill:#F7BB00;stroke:#000000;stroke-width:0.17;stroke-miterlimit:10;" points="
				180.7,323.3 175.6,328.4 170.5,333.5 165.4,338.5 160.4,343.6 155.3,348.7 150.2,353.8 145.1,358.9 150.1,363.7 155.4,368.3 
				160.9,372.7 166.6,376.7 172.4,380.5 178.4,384.1 184.6,387.4 190.9,390.3 197.4,393 203.9,395.4 210.6,397.4 217.4,399.2 
				224.2,400.6 231.1,401.8 238.1,402.6 245,403 252,403.2 252,396 252,388.8 252,381.6 252,374.4 252,367.2 252,360 252,352.8 
				244.8,352.5 237.6,351.8 230.6,350.5 223.6,348.7 216.8,346.4 210.1,343.7 203.7,340.5 197.5,336.8 191.6,332.7 186,328.2 			"/>
		</g>
		<g>
			<defs>
				<rect id="SVGID_00000174579154366946126640000010753823454943965067_" y="0" width="504" height="504"/>
			</defs>
			<clipPath id="SVGID_00000055678134042587345960000017371067359436659374_">
				<use xlink:href="#SVGID_00000174579154366946126640000010753823454943965067_"  style="overflow:visible;"/>
			</clipPath>
			
				<polygon style="clip-path:url(#SVGID_00000055678134042587345960000017371067359436659374_);fill:#C0004C;stroke:#000000;stroke-width:0.17;stroke-miterlimit:10;" points="
				151.2,252 144,252 136.8,252 129.6,252 122.4,252 115.2,252 108,252 100.8,252 101,259 101.4,266 102.2,272.9 103.4,279.8 
				104.8,286.6 106.6,293.4 108.6,300 111,306.6 113.7,313.1 116.7,319.4 119.9,325.6 123.4,331.6 127.3,337.5 131.3,343.1 
				135.7,348.6 140.3,353.9 145.1,358.9 150.2,353.8 155.3,348.7 160.4,343.6 165.4,338.5 170.5,333.5 175.6,328.4 180.7,323.3 
				175.8,318 171.3,312.4 167.2,306.5 163.5,300.3 160.3,293.9 157.6,287.2 155.3,280.4 153.5,273.4 152.2,266.4 151.5,259.2 			"/>
		</g>
		<g>
			<defs>
				<rect id="SVGID_00000099634943444418613710000008869395248219406002_" y="0" width="504" height="504"/>
			</defs>
			<clipPath id="SVGID_00000087378248518089050630000000997721170303641493_">
				<use xlink:href="#SVGID_00000099634943444418613710000008869395248219406002_"  style="overflow:visible;"/>
			</clipPath>
			
				<polygon style="clip-path:url(#SVGID_00000087378248518089050630000000997721170303641493_);fill:#D70041;stroke:#000000;stroke-width:0.17;stroke-miterlimit:10;" points="
				180.7,180.7 175.6,175.6 170.5,170.5 165.4,165.4 160.4,160.4 155.3,155.3 150.2,150.2 145.1,145.1 140.3,150.1 135.7,155.4 
				131.3,160.9 127.3,166.6 123.4,172.4 119.9,178.4 116.7,184.6 113.7,190.9 111,197.4 108.6,203.9 106.6,210.6 104.8,217.4 
				103.4,224.2 102.2,231.1 101.4,238.1 101,245 100.8,252 108,252 115.2,252 122.4,252 129.6,252 136.8,252 144,252 151.2,252 
				151.5,244.8 152.2,237.6 153.5,230.6 155.3,223.6 157.6,216.8 160.3,210.1 163.5,203.7 167.2,197.5 171.3,191.6 175.8,186 			"/>
		</g>
		<g>
			<defs>
				<rect id="SVGID_00000047760219948645851080000000153054966037074065_" y="0" width="504" height="504"/>
			</defs>
			<clipPath id="SVGID_00000107582927589262675490000013822626116445900694_">
				<use xlink:href="#SVGID_00000047760219948645851080000000153054966037074065_"  style="overflow:visible;"/>
			</clipPath>
			
				<polygon style="clip-path:url(#SVGID_00000107582927589262675490000013822626116445900694_);fill:#D70041;stroke:#000000;stroke-width:0.17;stroke-miterlimit:10;" points="
				252,151.2 252,144 252,136.8 252,129.6 252,122.4 252,115.2 252,108 252,100.8 245,101 238.1,101.4 231.1,102.2 224.2,103.4 
				217.4,104.8 210.6,106.6 203.9,108.6 197.4,111 190.9,113.7 184.6,116.7 178.4,119.9 172.4,123.4 166.6,127.3 160.9,131.3 
				155.4,135.7 150.1,140.3 145.1,145.1 150.2,150.2 155.3,155.3 160.4,160.4 165.4,165.4 170.5,170.5 175.6,175.6 180.7,180.7 
				186,175.8 191.6,171.3 197.5,167.2 203.7,163.5 210.1,160.3 216.8,157.6 223.6,155.3 230.6,153.5 237.6,152.2 244.8,151.5 			"/>
		</g>
		<g>
			<defs>
				<rect id="SVGID_00000054968213314323969070000015659503972149679275_" y="0" width="504" height="504"/>
			</defs>
			<clipPath id="SVGID_00000098899437357279113840000000390927206923441338_">
				<use xlink:href="#SVGID_00000054968213314323969070000015659503972149679275_"  style="overflow:visible;"/>
			</clipPath>
			
				<polygon style="clip-path:url(#SVGID_00000098899437357279113840000000390927206923441338_);fill:#757173;stroke:#000000;stroke-width:0.17;stroke-miterlimit:10;" points="
				358.9,145.1 364,140 369.1,134.9 374.2,129.8 379.3,124.7 384.4,119.6 389.5,114.5 394.5,109.4 389.6,104.7 384.5,100.1 
				379.2,95.6 373.8,91.4 368.3,87.3 362.6,83.4 356.8,79.8 350.8,76.3 344.8,73 338.6,69.9 332.3,67.1 326,64.5 319.5,62 313,59.8 
				306.4,57.9 299.7,56.1 293,54.6 286.2,53.3 279.5,52.3 272.6,51.5 265.8,50.9 258.9,50.5 252,50.4 252,57.6 252,64.8 252,72 
				252,79.2 252,86.4 252,93.6 252,100.8 259,101 266,101.4 272.9,102.2 279.8,103.4 286.6,104.8 293.4,106.6 300,108.6 306.6,111 
				313.1,113.7 319.4,116.7 325.6,119.9 331.6,123.4 337.5,127.3 343.1,131.3 348.6,135.7 353.9,140.3 			"/>
		</g>
		<g>
			<defs>
				<rect id="SVGID_00000118377602036125363550000001948016303288098478_" y="0" width="504" height="504"/>
			</defs>
			<clipPath id="SVGID_00000065033605094558140020000006508394541096649110_">
				<use xlink:href="#SVGID_00000118377602036125363550000001948016303288098478_"  style="overflow:visible;"/>
			</clipPath>
			
				<polygon style="clip-path:url(#SVGID_00000065033605094558140020000006508394541096649110_);fill:#E28500;stroke:#000000;stroke-width:0.17;stroke-miterlimit:10;" points="
				403.2,252 410.4,252 417.6,252 424.8,252 432,252 439.2,252 446.4,252 453.6,252 453.5,245.1 453.1,238.2 452.5,231.4 
				451.7,224.6 450.7,217.8 449.4,211 447.9,204.3 446.1,197.6 444.1,191 442,184.5 439.5,178 436.9,171.7 434.1,165.4 431,159.2 
				427.7,153.2 424.2,147.2 420.6,141.4 416.7,135.7 412.6,130.2 408.4,124.8 404,119.5 399.3,114.4 394.5,109.4 389.5,114.5 
				384.4,119.6 379.3,124.7 374.2,129.8 369.1,134.9 364,140 358.9,145.1 363.7,150.1 368.3,155.4 372.7,160.9 376.7,166.6 
				380.5,172.4 384.1,178.4 387.4,184.6 390.3,190.9 393,197.4 395.4,203.9 397.4,210.6 399.2,217.4 400.6,224.2 401.8,231.1 
				402.6,238.1 403,245 			"/>
		</g>
		<g>
			<defs>
				<rect id="SVGID_00000125595909486717087050000014206163125845088910_" y="0" width="504" height="504"/>
			</defs>
			<clipPath id="SVGID_00000121266382330594773980000014812160672861661078_">
				<use xlink:href="#SVGID_00000125595909486717087050000014206163125845088910_"  style="overflow:visible;"/>
			</clipPath>
			
				<polygon style="clip-path:url(#SVGID_00000121266382330594773980000014812160672861661078_);fill:#E28500;stroke:#000000;stroke-width:0.17;stroke-miterlimit:10;" points="
				358.9,358.9 364,364 369.1,369.1 374.2,374.2 379.3,379.3 384.4,384.4 389.5,389.5 394.5,394.5 399.3,389.6 404,384.5 
				408.4,379.2 412.6,373.8 416.7,368.3 420.6,362.6 424.2,356.8 427.7,350.8 431,344.8 434.1,338.6 436.9,332.3 439.5,326 
				442,319.5 444.1,313 446.1,306.4 447.9,299.7 449.4,293 450.7,286.2 451.7,279.5 452.5,272.6 453.1,265.8 453.5,258.9 453.6,252 
				446.4,252 439.2,252 432,252 424.8,252 417.6,252 410.4,252 403.2,252 403,259 402.6,266 401.8,272.9 400.6,279.8 399.2,286.6 
				397.4,293.4 395.4,300 393,306.6 390.3,313.1 387.4,319.4 384.1,325.6 380.5,331.6 376.7,337.5 372.7,343.1 368.3,348.6 
				363.7,353.9 			"/>
		</g>
		<g>
			<defs>
				<rect id="SVGID_00000049212353792392920370000001432507000830641853_" y="0" width="504" height="504"/>
			</defs>
			<clipPath id="SVGID_00000057124595618244927760000014041795927964781748_">
				<use xlink:href="#SVGID_00000049212353792392920370000001432507000830641853_"  style="overflow:visible;"/>
			</clipPath>
			
				<polygon style="clip-path:url(#SVGID_00000057124595618244927760000014041795927964781748_);fill:#F7BB00;stroke:#000000;stroke-width:0.17;stroke-miterlimit:10;" points="
				252,403.2 252,410.4 252,417.6 252,424.8 252,432 252,439.2 252,446.4 252,453.6 258.9,453.5 265.8,453.1 272.6,452.5 
				279.5,451.7 286.2,450.7 293,449.4 299.7,447.9 306.4,446.1 313,444.1 319.5,442 326,439.5 332.3,436.9 338.6,434.1 344.8,431 
				350.8,427.7 356.8,424.2 362.6,420.6 368.3,416.7 373.8,412.6 379.2,408.4 384.5,404 389.6,399.3 394.5,394.5 389.5,389.5 
				384.4,384.4 379.3,379.3 374.2,374.2 369.1,369.1 364,364 358.9,358.9 353.9,363.7 348.6,368.3 343.1,372.7 337.5,376.7 
				331.6,380.5 325.6,384.1 319.4,387.4 313.1,390.3 306.6,393 300,395.4 293.4,397.4 286.6,399.2 279.8,400.6 272.9,401.8 
				266,402.6 259,403 			"/>
		</g>
		<g>
			<defs>
				<rect id="SVGID_00000000190548612257938760000002308003980965144450_" y="0" width="504" height="504"/>
			</defs>
			<clipPath id="SVGID_00000139990264941221416840000007324739071294036394_">
				<use xlink:href="#SVGID_00000000190548612257938760000002308003980965144450_"  style="overflow:visible;"/>
			</clipPath>
			
				<polygon style="clip-path:url(#SVGID_00000139990264941221416840000007324739071294036394_);fill:#F7BB00;stroke:#000000;stroke-width:0.17;stroke-miterlimit:10;" points="
				145.1,358.9 140,364 134.9,369.1 129.8,374.2 124.7,379.3 119.6,384.4 114.5,389.5 109.4,394.5 114.4,399.3 119.5,404 
				124.8,408.4 130.2,412.6 135.7,416.7 141.4,420.6 147.2,424.2 153.2,427.7 159.2,431 165.4,434.1 171.7,436.9 178,439.5 
				184.5,442 191,444.1 197.6,446.1 204.3,447.9 211,449.4 217.8,450.7 224.6,451.7 231.4,452.5 238.2,453.1 245.1,453.5 252,453.6 
				252,446.4 252,439.2 252,432 252,424.8 252,417.6 252,410.4 252,403.2 245,403 238.1,402.6 231.1,401.8 224.2,400.6 217.4,399.2 
				210.6,397.4 203.9,395.4 197.4,393 190.9,390.3 184.6,387.4 178.4,384.1 172.4,380.5 166.6,376.7 160.9,372.7 155.4,368.3 
				150.1,363.7 			"/>
		</g>
		<g>
			<defs>
				<rect id="SVGID_00000113323746312353360160000018335034888317146290_" y="0" width="504" height="504"/>
			</defs>
			<clipPath id="SVGID_00000101787657447480516520000005386535836454652585_">
				<use xlink:href="#SVGID_00000113323746312353360160000018335034888317146290_"  style="overflow:visible;"/>
			</clipPath>
			
				<polygon style="clip-path:url(#SVGID_00000101787657447480516520000005386535836454652585_);fill:#C0004C;stroke:#000000;stroke-width:0.17;stroke-miterlimit:10;" points="
				100.8,252 93.6,252 86.4,252 79.2,252 72,252 64.8,252 57.6,252 50.4,252 50.5,258.9 50.9,265.8 51.5,272.6 52.3,279.5 
				53.3,286.2 54.6,293 56.1,299.7 57.9,306.4 59.8,313 62,319.5 64.5,326 67.1,332.3 69.9,338.6 73,344.8 76.3,350.8 79.8,356.8 
				83.4,362.6 87.3,368.3 91.4,373.8 95.6,379.2 100.1,384.5 104.7,389.6 109.4,394.5 114.5,389.5 119.6,384.4 124.7,379.3 
				129.8,374.2 134.9,369.1 140,364 145.1,358.9 140.3,353.9 135.7,348.6 131.3,343.1 127.3,337.5 123.4,331.6 119.9,325.6 
				116.7,319.4 113.7,313.1 111,306.6 108.6,300 106.6,293.4 104.8,286.6 103.4,279.8 102.2,272.9 101.4,266 101,259 			"/>
		</g>
		<g>
			<defs>
				<rect id="SVGID_00000150067807230878407180000012378746378751451304_" y="0" width="504" height="504"/>
			</defs>
			<clipPath id="SVGID_00000115477038339884371360000010589227695581735583_">
				<use xlink:href="#SVGID_00000150067807230878407180000012378746378751451304_"  style="overflow:visible;"/>
			</clipPath>
			
				<polygon style="clip-path:url(#SVGID_00000115477038339884371360000010589227695581735583_);fill:#D70041;stroke:#000000;stroke-width:0.17;stroke-miterlimit:10;" points="
				145.1,145.1 140,140 134.9,134.9 129.8,129.8 124.7,124.7 119.6,119.6 114.5,114.5 109.4,109.4 104.7,114.4 100.1,119.5 
				95.6,124.8 91.4,130.2 87.3,135.7 83.4,141.4 79.8,147.2 76.3,153.2 73,159.2 69.9,165.4 67.1,171.7 64.5,178 62,184.5 59.8,191 
				57.9,197.6 56.1,204.3 54.6,211 53.3,217.8 52.3,224.6 51.5,231.4 50.9,238.2 50.5,245.1 50.4,252 57.6,252 64.8,252 72,252 
				79.2,252 86.4,252 93.6,252 100.8,252 101,245 101.4,238.1 102.2,231.1 103.4,224.2 104.8,217.4 106.6,210.6 108.6,203.9 
				111,197.4 113.7,190.9 116.7,184.6 119.9,178.4 123.4,172.4 127.3,166.6 131.3,160.9 135.7,155.4 140.3,150.1 			"/>
		</g>
		<g>
			<defs>
				<rect id="SVGID_00000140721530028966872440000000401640535642635423_" y="0" width="504" height="504"/>
			</defs>
			<clipPath id="SVGID_00000150821096000945820840000018039617242961196214_">
				<use xlink:href="#SVGID_00000140721530028966872440000000401640535642635423_"  style="overflow:visible;"/>
			</clipPath>
			
				<polygon style="clip-path:url(#SVGID_00000150821096000945820840000018039617242961196214_);fill:#D70041;stroke:#000000;stroke-width:0.17;stroke-miterlimit:10;" points="
				252,100.8 252,93.6 252,86.4 252,79.2 252,72 252,64.8 252,57.6 252,50.4 245.1,50.5 238.2,50.9 231.4,51.5 224.6,52.3 
				217.8,53.3 211,54.6 204.3,56.1 197.6,57.9 191,59.8 184.5,62 178,64.5 171.7,67.1 165.4,69.9 159.2,73 153.2,76.3 147.2,79.8 
				141.4,83.4 135.7,87.3 130.2,91.4 124.8,95.6 119.5,100.1 114.4,104.7 109.4,109.4 114.5,114.5 119.6,119.6 124.7,124.7 
				129.8,129.8 134.9,134.9 140,140 145.1,145.1 150.1,140.3 155.4,135.7 160.9,131.3 166.6,127.3 172.4,123.4 178.4,119.9 
				184.6,116.7 190.9,113.7 197.4,111 203.9,108.6 210.6,106.6 217.4,104.8 224.2,103.4 231.1,102.2 238.1,101.4 245,101 			"/>
		</g>
		<g>
			<defs>
				<rect id="SVGID_00000013172016157472816590000009359830346696509361_" y="0" width="504" height="504"/>
			</defs>
			<clipPath id="SVGID_00000004508574262650481700000002423498159029481146_">
				<use xlink:href="#SVGID_00000013172016157472816590000009359830346696509361_"  style="overflow:visible;"/>
			</clipPath>
			
				<polygon style="clip-path:url(#SVGID_00000004508574262650481700000002423498159029481146_);fill:#FFFFFF;stroke:#FFFFFF;stroke-width:0.17;stroke-miterlimit:10;" points="
				252,252 257.1,246.9 262.2,241.8 267.3,236.7 272.4,231.6 277.5,226.5 282.5,221.4 287.6,216.4 281.6,211.2 274.9,207.1 
				267.6,204.1 259.9,202.2 252,201.6 252,208.8 252,216 252,223.2 252,230.4 252,237.6 252,244.8 			"/>
		</g>
		<g>
			<defs>
				<rect id="SVGID_00000143591344348093631620000015596653101731431320_" y="0" width="504" height="504"/>
			</defs>
			<clipPath id="SVGID_00000075859149035900973980000000226884012533987721_">
				<use xlink:href="#SVGID_00000143591344348093631620000015596653101731431320_"  style="overflow:visible;"/>
			</clipPath>
			
				<polygon style="clip-path:url(#SVGID_00000075859149035900973980000000226884012533987721_);fill:#FFFFFF;stroke:#FFFFFF;stroke-width:0.17;stroke-miterlimit:10;" points="
				252,252 259.2,252 266.4,252 273.6,252 280.8,252 288,252 295.2,252 302.4,252 301.8,244.1 299.9,236.4 296.9,229.1 292.8,222.4 
				287.6,216.4 282.5,221.4 277.5,226.5 272.4,231.6 267.3,236.7 262.2,241.8 257.1,246.9 			"/>
		</g>
		<g>
			<defs>
				<rect id="SVGID_00000082341440414581173510000015686799163866218396_" y="0" width="504" height="504"/>
			</defs>
			<clipPath id="SVGID_00000005224679989602408650000017093821419486513031_">
				<use xlink:href="#SVGID_00000082341440414581173510000015686799163866218396_"  style="overflow:visible;"/>
			</clipPath>
			
				<polygon style="clip-path:url(#SVGID_00000005224679989602408650000017093821419486513031_);fill:#FFFFFF;stroke:#FFFFFF;stroke-width:0.17;stroke-miterlimit:10;" points="
				252,252 257.1,257.1 262.2,262.2 267.3,267.3 272.4,272.4 277.5,277.5 282.5,282.5 287.6,287.6 292.8,281.6 296.9,274.9 
				299.9,267.6 301.8,259.9 302.4,252 295.2,252 288,252 280.8,252 273.6,252 266.4,252 259.2,252 			"/>
		</g>
		<g>
			<defs>
				<rect id="SVGID_00000167356886571125366390000013892793224317115568_" y="0" width="504" height="504"/>
			</defs>
			<clipPath id="SVGID_00000026845282784005097150000007350530409546391175_">
				<use xlink:href="#SVGID_00000167356886571125366390000013892793224317115568_"  style="overflow:visible;"/>
			</clipPath>
			
				<polygon style="clip-path:url(#SVGID_00000026845282784005097150000007350530409546391175_);fill:#FFFFFF;stroke:#FFFFFF;stroke-width:0.17;stroke-miterlimit:10;" points="
				252,252 252,259.2 252,266.4 252,273.6 252,280.8 252,288 252,295.2 252,302.4 259.9,301.8 267.6,299.9 274.9,296.9 281.6,292.8 
				287.6,287.6 282.5,282.5 277.5,277.5 272.4,272.4 267.3,267.3 262.2,262.2 257.1,257.1 			"/>
		</g>
		<g>
			<defs>
				<rect id="SVGID_00000109717864244171424440000006235104794578784401_" y="0" width="504" height="504"/>
			</defs>
			<clipPath id="SVGID_00000021837564259775690430000001513292538140106919_">
				<use xlink:href="#SVGID_00000109717864244171424440000006235104794578784401_"  style="overflow:visible;"/>
			</clipPath>
			
				<polygon style="clip-path:url(#SVGID_00000021837564259775690430000001513292538140106919_);fill:#FFFFFF;stroke:#FFFFFF;stroke-width:0.17;stroke-miterlimit:10;" points="
				252,252 246.9,257.1 241.8,262.2 236.7,267.3 231.6,272.4 226.5,277.5 221.4,282.5 216.4,287.6 222.4,292.8 229.1,296.9 
				236.4,299.9 244.1,301.8 252,302.4 252,295.2 252,288 252,280.8 252,273.6 252,266.4 252,259.2 			"/>
		</g>
		<g>
			<defs>
				<rect id="SVGID_00000112611301971762269460000007223540625875412380_" y="0" width="504" height="504"/>
			</defs>
			<clipPath id="SVGID_00000123431407835652319930000001783704154221642631_">
				<use xlink:href="#SVGID_00000112611301971762269460000007223540625875412380_"  style="overflow:visible;"/>
			</clipPath>
			
				<polygon style="clip-path:url(#SVGID_00000123431407835652319930000001783704154221642631_);fill:#FFFFFF;stroke:#FFFFFF;stroke-width:0.17;stroke-miterlimit:10;" points="
				252,252 244.8,252 237.6,252 230.4,252 223.2,252 216,252 208.8,252 201.6,252 202.2,259.9 204.1,267.6 207.1,274.9 211.2,281.6 
				216.4,287.6 221.4,282.5 226.5,277.5 231.6,272.4 236.7,267.3 241.8,262.2 246.9,257.1 			"/>
		</g>
		<g>
			<defs>
				<rect id="SVGID_00000150090884012775979510000006400316034570656142_" y="0" width="504" height="504"/>
			</defs>
			<clipPath id="SVGID_00000016778459957287057020000008276203085246365612_">
				<use xlink:href="#SVGID_00000150090884012775979510000006400316034570656142_"  style="overflow:visible;"/>
			</clipPath>
			
				<polygon style="clip-path:url(#SVGID_00000016778459957287057020000008276203085246365612_);fill:#FFFFFF;stroke:#FFFFFF;stroke-width:0.17;stroke-miterlimit:10;" points="
				252,252 246.9,246.9 241.8,241.8 236.7,236.7 231.6,231.6 226.5,226.5 221.4,221.4 216.4,216.4 211.2,222.4 207.1,229.1 
				204.1,236.4 202.2,244.1 201.6,252 208.8,252 216,252 223.2,252 230.4,252 237.6,252 244.8,252 			"/>
		</g>
		<g>
			<defs>
				<rect id="SVGID_00000003083659740885935140000007051596089995749292_" y="0" width="504" height="504"/>
			</defs>
			<clipPath id="SVGID_00000151506132225443661680000008726981652416902016_">
				<use xlink:href="#SVGID_00000003083659740885935140000007051596089995749292_"  style="overflow:visible;"/>
			</clipPath>
			
				<polygon style="clip-path:url(#SVGID_00000151506132225443661680000008726981652416902016_);fill:#FFFFFF;stroke:#FFFFFF;stroke-width:0.17;stroke-miterlimit:10;" points="
				252,252 252,244.8 252,237.6 252,230.4 252,223.2 252,216 252,208.8 252,201.6 244.1,202.2 236.4,204.1 229.1,207.1 222.4,211.2 
				216.4,216.4 221.4,221.4 226.5,226.5 231.6,231.6 236.7,236.7 241.8,241.8 246.9,246.9 			"/>
		</g>
		<g>
			<defs>
				<rect id="SVGID_00000099632094629586386520000009622983843664725947_" y="0" width="504" height="504"/>
			</defs>
			<clipPath id="SVGID_00000095299813840859241420000007736915266721879478_">
				<use xlink:href="#SVGID_00000099632094629586386520000009622983843664725947_"  style="overflow:visible;"/>
			</clipPath>
			<g style="clip-path:url(#SVGID_00000095299813840859241420000007736915266721879478_);enable-background:new    ;">
				<text transform="matrix(1 0 0 1 237.3148 175.319)" class="st34 st35">Cupressales</text>
			</g>
		</g>
		<g>
			<defs>
				<rect id="SVGID_00000162325345489685641840000010153704506984306590_" y="0" width="504" height="504"/>
			</defs>
			<clipPath id="SVGID_00000049905958273746710780000014857586120822023855_">
				<use xlink:href="#SVGID_00000162325345489685641840000010153704506984306590_"  style="overflow:visible;"/>
			</clipPath>
			<g style="clip-path:url(#SVGID_00000049905958273746710780000014857586120822023855_);enable-background:new    ;">
				<text transform="matrix(1 0 0 1 302.0606 229.9033)" class="st34 st35">Rosales</text>
			</g>
		</g>
		<g>
			<defs>
				<rect id="SVGID_00000002355203838778739270000007747717703834402230_" y="0" width="504" height="504"/>
			</defs>
			<clipPath id="SVGID_00000129184536673418639380000015945954863025353089_">
				<use xlink:href="#SVGID_00000002355203838778739270000007747717703834402230_"  style="overflow:visible;"/>
			</clipPath>
			<g style="clip-path:url(#SVGID_00000129184536673418639380000015945954863025353089_);enable-background:new    ;">
				<text transform="matrix(1 0 0 1 303.5206 287.7634)" class="st34 st35">Rosales</text>
			</g>
		</g>
		<g>
			<defs>
				<rect id="SVGID_00000004506181059776207540000007328895189542083745_" y="0" width="504" height="504"/>
			</defs>
			<clipPath id="SVGID_00000073689389369061727380000015055342289125344436_">
				<use xlink:href="#SVGID_00000004506181059776207540000007328895189542083745_"  style="overflow:visible;"/>
			</clipPath>
			<g style="clip-path:url(#SVGID_00000073689389369061727380000015055342289125344436_);enable-background:new    ;">
				<text transform="matrix(1 0 0 1 241.1757 322.2519)" class="st34 st35">Solanales</text>
			</g>
		</g>
		<g>
			<defs>
				<rect id="SVGID_00000096767939495245973450000002433514346550433198_" y="0" width="504" height="504"/>
			</defs>
			<clipPath id="SVGID_00000023987610533219766390000013317612596831419779_">
				<use xlink:href="#SVGID_00000096767939495245973450000002433514346550433198_"  style="overflow:visible;"/>
			</clipPath>
			<g style="clip-path:url(#SVGID_00000023987610533219766390000013317612596831419779_);enable-background:new    ;">
				<text transform="matrix(1 0 0 1 181.9912 340.7637)" class="st34 st35">Solanales</text>
			</g>
		</g>
		<g>
			<defs>
				<rect id="SVGID_00000101076642569464649770000006776751966820513703_" y="0" width="504" height="504"/>
			</defs>
			<clipPath id="SVGID_00000008138747541357060390000006501955454864304771_">
				<use xlink:href="#SVGID_00000101076642569464649770000006776751966820513703_"  style="overflow:visible;"/>
			</clipPath>
			<g style="clip-path:url(#SVGID_00000008138747541357060390000006501955454864304771_);enable-background:new    ;">
				<text transform="matrix(1 0 0 1 144.313 287.7631)" class="st34 st35">Fabales</text>
			</g>
		</g>
		<g>
			<defs>
				<rect id="SVGID_00000162343647905082128000000015646393485920611255_" y="0" width="504" height="504"/>
			</defs>
			<clipPath id="SVGID_00000004519539068101621390000016782444020579549338_">
				<use xlink:href="#SVGID_00000162343647905082128000000015646393485920611255_"  style="overflow:visible;"/>
			</clipPath>
			<g style="clip-path:url(#SVGID_00000004519539068101621390000016782444020579549338_);enable-background:new    ;">
				<text transform="matrix(1 0 0 1 138.0357 229.7)" class="st34 st35">Fagales</text>
			</g>
		</g>
		<g>
			<defs>
				<rect id="SVGID_00000079472381990634859370000011354277795467965105_" y="0" width="504" height="504"/>
			</defs>
			<clipPath id="SVGID_00000063594568401894588240000005205491370590865282_">
				<use xlink:href="#SVGID_00000079472381990634859370000011354277795467965105_"  style="overflow:visible;"/>
			</clipPath>
			<g style="clip-path:url(#SVGID_00000063594568401894588240000005205491370590865282_);enable-background:new    ;">
				<text transform="matrix(1 0 0 1 184.8099 192.6628)" class="st34 st35">Fagales</text>
			</g>
		</g>
		<g>
			<defs>
				<rect id="SVGID_00000151527150181652080070000017320269068806526592_" y="0" width="504" height="504"/>
			</defs>
			<clipPath id="SVGID_00000030463291473800524940000003043887176756035257_">
				<use xlink:href="#SVGID_00000151527150181652080070000017320269068806526592_"  style="overflow:visible;"/>
			</clipPath>
			<g style="clip-path:url(#SVGID_00000030463291473800524940000003043887176756035257_);enable-background:new    ;">
				<rect x="260.6" y="126.4" class="st0" width="81.2" height="21.9"/>
				<text transform="matrix(1 0 0 1 253.8564 142.2199)" class="st34 st35 st44">Taxaceae</text>
			</g>
		</g>
		<g>
			<defs>
				<rect id="SVGID_00000153688528249094552230000002964920535714254471_" y="0" width="504" height="504"/>
			</defs>
			<clipPath id="SVGID_00000067233096944730017190000000153943648651677607_">
				<use xlink:href="#SVGID_00000153688528249094552230000002964920535714254471_"  style="overflow:visible;"/>
			</clipPath>
			<g style="clip-path:url(#SVGID_00000067233096944730017190000000153943648651677607_);enable-background:new    ;">
				<text transform="matrix(1 0 0 1 326.7894 210.41)" class="st34 st35">Ulmaceae</text>
			</g>
		</g>
		<g>
			<defs>
				<rect id="SVGID_00000042701361036534217860000005076421821999605417_" y="0" width="504" height="504"/>
			</defs>
			<clipPath id="SVGID_00000034775911677986060480000009044286339159089811_">
				<use xlink:href="#SVGID_00000042701361036534217860000005076421821999605417_"  style="overflow:visible;"/>
			</clipPath>
			<g style="clip-path:url(#SVGID_00000034775911677986060480000009044286339159089811_);enable-background:new    ;">
				<text transform="matrix(1 0 0 1 326.7894 306.85)" class="st34 st35">Ulmaceae</text>
			</g>
		</g>
		<g>
			<defs>
				<rect id="SVGID_00000003078213763642894680000001619294191308704433_" y="0" width="504" height="504"/>
			</defs>
			<clipPath id="SVGID_00000155863899308686795290000004787850267219570074_">
				<use xlink:href="#SVGID_00000003078213763642894680000001619294191308704433_"  style="overflow:visible;"/>
			</clipPath>
			<g style="clip-path:url(#SVGID_00000155863899308686795290000004787850267219570074_);enable-background:new    ;">
				<text transform="matrix(1 0 0 1 266.8755 375.04)" class="st34 st35">Solanaceae</text>
			</g>
		</g>
		<g>
			<defs>
				<rect id="SVGID_00000095335913110662902290000011904565382742301098_" y="0" width="504" height="504"/>
			</defs>
			<clipPath id="SVGID_00000057869747686445496570000001031483360237014964_">
				<use xlink:href="#SVGID_00000095335913110662902290000011904565382742301098_"  style="overflow:visible;"/>
			</clipPath>
			<g style="clip-path:url(#SVGID_00000057869747686445496570000001031483360237014964_);enable-background:new    ;">
				<text transform="matrix(1 0 0 1 154.9458 375.04)" class="st34 st35">Solanaceae</text>
			</g>
		</g>
		<g>
			<defs>
				<rect id="SVGID_00000019658537870599300950000002982369253165044110_" y="0" width="504" height="504"/>
			</defs>
			<clipPath id="SVGID_00000076591926139129152500000013613547661104529062_">
				<use xlink:href="#SVGID_00000019658537870599300950000002982369253165044110_"  style="overflow:visible;"/>
			</clipPath>
			<g style="clip-path:url(#SVGID_00000076591926139129152500000013613547661104529062_);enable-background:new    ;">
				<text transform="matrix(1 0 0 1 94.4705 306.85)" class="st34 st35">Fabaceae</text>
			</g>
		</g>
		<g>
			<defs>
				<rect id="SVGID_00000115512124202106532620000001293639545997352620_" y="0" width="504" height="504"/>
			</defs>
			<clipPath id="SVGID_00000155146808255714672100000013508848312118685327_">
				<use xlink:href="#SVGID_00000115512124202106532620000001293639545997352620_"  style="overflow:visible;"/>
			</clipPath>
			<g style="clip-path:url(#SVGID_00000155146808255714672100000013508848312118685327_);enable-background:new    ;">
				<text transform="matrix(1 0 0 1 162.6605 142.22)" class="st34 st35">Fagaceae</text>
			</g>
		</g>
		<g>
			<defs>
				<rect id="SVGID_00000000219920717702476940000016182349272002082200_" y="0" width="504" height="504"/>
			</defs>
			<clipPath id="SVGID_00000014600170101845279600000000303945424544073887_">
				<use xlink:href="#SVGID_00000000219920717702476940000016182349272002082200_"  style="overflow:visible;"/>
			</clipPath>
			<g style="clip-path:url(#SVGID_00000014600170101845279600000000303945424544073887_);enable-background:new    ;">
				<rect x="295.4" y="79.8" class="st0" width="50.3" height="21.9"/>
			</g>
		</g>
		<g>
			<defs>
				<rect id="SVGID_00000114763573813936171420000014903354514704471692_" y="0" width="504" height="504"/>
			</defs>
			<clipPath id="SVGID_00000069398072726139224080000008068292422431023274_">
				<use xlink:href="#SVGID_00000114763573813936171420000014903354514704471692_"  style="overflow:visible;"/>
			</clipPath>
			<g style="clip-path:url(#SVGID_00000069398072726139224080000008068292422431023274_);enable-background:new    ;">
				<text transform="matrix(1 0 0 1 388.7743 326.13)" class="st34 st35">Ulmus</text>
			</g>
		</g>
		<g>
			<defs>
				<rect id="SVGID_00000109022017849782476850000010023329573083688357_" y="0" width="504" height="504"/>
			</defs>
			<clipPath id="SVGID_00000157305907035798801550000004263348423029386421_">
				<use xlink:href="#SVGID_00000109022017849782476850000010023329573083688357_"  style="overflow:visible;"/>
			</clipPath>
			<g style="clip-path:url(#SVGID_00000157305907035798801550000004263348423029386421_);enable-background:new    ;">
				<text transform="matrix(1 0 0 1 143.3886 421.6)" class="st34 st35">Capsicum</text>
			</g>
		</g>
		<g>
			<defs>
				<rect id="SVGID_00000160892550023447903340000012133439841391846839_" y="0" width="504" height="504"/>
			</defs>
			<clipPath id="SVGID_00000148636974112259721740000012141475956598114993_">
				<use xlink:href="#SVGID_00000160892550023447903340000012133439841391846839_"  style="overflow:visible;"/>
			</clipPath>
			<g style="clip-path:url(#SVGID_00000148636974112259721740000012141475956598114993_);enable-background:new    ;">
				<text transform="matrix(1 0 0 1 66.1059 327.3027)" class="st34 st35">Glycine</text>
			</g>
		</g>
	</g>
	<text transform="matrix(1 0 0 1 222.1924 290)" class="st34 st55">8</text>
	<text transform="matrix(1 0 0 1 269.9659 97.2529)" class="st34 st35 st44">Taxanus</text>
</g>
</svg>
