<?xml version="1.0" encoding="utf-8"?>
<!-- Generator: Adobe Illustrator 28.1.0, SVG Export Plug-In . SVG Version: 6.00 Build 0)  -->
<svg version="1.1" id="Layer_1" xmlns="http://www.w3.org/2000/svg" xmlns:xlink="http://www.w3.org/1999/xlink" x="0px" y="0px"
	 viewBox="0 0 504 504" style="enable-background:new 0 0 504 504;" xml:space="preserve">
<style type="text/css">
	.st0{fill:none;}
	.st1{clip-path:url(#SVGID_00000154424100252667521580000002178378985862837638_);}
	.st2{fill:#F7BB00;stroke:#000000;stroke-width:0.17;stroke-miterlimit:10;}
	.st3{fill:#757173;stroke:#000000;stroke-width:0.17;stroke-miterlimit:10;}
	.st4{fill:#E28500;stroke:#000000;stroke-width:0.17;stroke-miterlimit:10;}
	.st5{fill:#C0004C;stroke:#000000;stroke-width:0.17;stroke-miterlimit:10;}
	.st6{fill:#FFFFFF;stroke:#FFFFFF;stroke-width:0.17;stroke-miterlimit:10;}
	.st7{font-family:'ArialMT';}
	.st8{font-size:18.49px;}
	.st9{font-size:100px;}
</style>
<rect y="0" class="st0" width="504" height="504"/>
<g>
	<defs>
		<rect id="SVGID_1_" y="0" width="504" height="504"/>
	</defs>
	<clipPath id="SVGID_00000060730773762201303620000003940322876009550504_">
		<use xlink:href="#SVGID_1_"  style="overflow:visible;"/>
	</clipPath>
	<g style="clip-path:url(#SVGID_00000060730773762201303620000003940322876009550504_);">
		<polygon class="st2" points="295.6,226.8 301.9,223.2 308.1,219.6 314.4,216 320.6,212.4 326.8,208.8 333.1,205.2 339.3,201.6 
			335.6,195.6 331.4,189.9 326.9,184.6 322,179.5 316.8,174.8 311.2,170.4 305.4,166.5 299.3,163 293,159.9 286.5,157.3 
			279.8,155.1 273,153.4 266,152.2 259,151.4 252,151.2 252,158.4 252,165.6 252,172.8 252,180 252,187.2 252,194.4 252,201.6 
			259.5,202.2 266.9,203.8 273.9,206.6 280.4,210.4 286.3,215.1 291.4,220.6 		"/>
		<polygon class="st3" points="295.6,277.2 301.9,280.8 308.1,284.4 314.4,288 320.6,291.6 326.8,295.2 333.1,298.8 339.3,302.4 
			342.6,296.2 345.5,289.8 347.9,283.1 349.8,276.4 351.3,269.5 352.2,262.5 352.7,255.5 352.7,248.5 352.2,241.5 351.3,234.5 
			349.8,227.6 347.9,220.9 345.5,214.2 342.6,207.8 339.3,201.6 333.1,205.2 326.8,208.8 320.6,212.4 314.4,216 308.1,219.6 
			301.9,223.2 295.6,226.8 298.9,233.6 301.1,240.8 302.3,248.2 302.3,255.8 301.1,263.2 298.9,270.4 		"/>
		<polygon class="st4" points="252,302.4 252,309.6 252,316.8 252,324 252,331.2 252,338.4 252,345.6 252,352.8 259,352.5 
			266,351.8 273,350.6 279.8,348.9 286.5,346.7 293,344.1 299.3,341 305.4,337.5 311.2,333.5 316.8,329.2 322,324.5 326.9,319.5 
			331.4,314.1 335.6,308.4 339.3,302.4 333.1,298.8 326.8,295.2 320.6,291.6 314.4,288 308.1,284.4 301.9,280.8 295.6,277.2 
			291.4,283.4 286.3,289 280.4,293.6 273.9,297.4 266.9,300.2 259.5,301.8 		"/>
		<polygon class="st4" points="208.4,277.2 202.1,280.8 195.9,284.4 189.6,288 183.4,291.6 177.2,295.2 170.9,298.8 164.7,302.4 
			168.4,308.4 172.6,314.1 177.1,319.5 182,324.5 187.2,329.2 192.8,333.5 198.6,337.5 204.7,341 211,344.1 217.5,346.7 
			224.2,348.9 231,350.6 238,351.8 245,352.5 252,352.8 252,345.6 252,338.4 252,331.2 252,324 252,316.8 252,309.6 252,302.4 
			244.5,301.8 237.1,300.2 230.1,297.4 223.6,293.6 217.7,289 212.6,283.4 		"/>
		<polygon class="st5" points="208.4,226.8 202.1,223.2 195.9,219.6 189.6,216 183.4,212.4 177.2,208.8 170.9,205.2 164.7,201.6 
			161.4,207.8 158.5,214.2 156.1,220.9 154.2,227.6 152.7,234.5 151.8,241.5 151.3,248.5 151.3,255.5 151.8,262.5 152.7,269.5 
			154.2,276.4 156.1,283.1 158.5,289.8 161.4,296.2 164.7,302.4 170.9,298.8 177.2,295.2 183.4,291.6 189.6,288 195.9,284.4 
			202.1,280.8 208.4,277.2 205.1,270.4 202.9,263.2 201.7,255.8 201.7,248.2 202.9,240.8 205.1,233.6 		"/>
		<polygon class="st2" points="252,201.6 252,194.4 252,187.2 252,180 252,172.8 252,165.6 252,158.4 252,151.2 245,151.4 
			238,152.2 231,153.4 224.2,155.1 217.5,157.3 211,159.9 204.7,163 198.6,166.5 192.8,170.4 187.2,174.8 182,179.5 177.1,184.6 
			172.6,189.9 168.4,195.6 164.7,201.6 170.9,205.2 177.2,208.8 183.4,212.4 189.6,216 195.9,219.6 202.1,223.2 208.4,226.8 
			212.6,220.6 217.7,215.1 223.6,210.4 230.1,206.6 237.1,203.8 244.5,202.2 		"/>
		<polygon class="st2" points="339.3,201.6 345.5,198 351.8,194.4 358,190.8 364.2,187.2 370.5,183.6 376.7,180 382.9,176.4 
			379.4,170.5 375.5,164.8 371.4,159.3 367.1,153.9 362.5,148.8 357.7,143.9 352.7,139.2 347.4,134.7 342,130.5 336.4,126.5 
			330.6,122.8 324.6,119.4 318.5,116.2 312.2,113.3 305.9,110.7 299.4,108.4 292.8,106.4 286.1,104.7 279.4,103.3 272.6,102.2 
			265.8,101.4 258.9,101 252,100.8 252,108 252,115.2 252,122.4 252,129.6 252,136.8 252,144 252,151.2 259,151.4 266,152.2 
			273,153.4 279.8,155.1 286.5,157.3 293,159.9 299.3,163 305.4,166.5 311.2,170.4 316.8,174.8 322,179.5 326.9,184.6 331.4,189.9 
			335.6,195.6 		"/>
		<polygon class="st3" points="339.3,302.4 345.5,306 351.8,309.6 358,313.2 364.2,316.8 370.5,320.4 376.7,324 382.9,327.6 
			386.2,321.6 389.3,315.4 392,309.1 394.5,302.6 396.6,296.1 398.5,289.5 400,282.8 401.3,276 402.2,269.2 402.9,262.3 
			403.2,255.4 403.2,248.6 402.9,241.7 402.2,234.8 401.3,228 400,221.2 398.5,214.5 396.6,207.9 394.5,201.4 392,194.9 
			389.3,188.6 386.2,182.4 382.9,176.4 376.7,180 370.5,183.6 364.2,187.2 358,190.8 351.8,194.4 345.5,198 339.3,201.6 
			342.6,207.8 345.5,214.2 347.9,220.9 349.8,227.6 351.3,234.5 352.2,241.5 352.7,248.5 352.7,255.5 352.2,262.5 351.3,269.5 
			349.8,276.4 347.9,283.1 345.5,289.8 342.6,296.2 		"/>
		<polygon class="st4" points="252,352.8 252,360 252,367.2 252,374.4 252,381.6 252,388.8 252,396 252,403.2 258.9,403 
			265.8,402.6 272.6,401.8 279.4,400.7 286.1,399.3 292.8,397.6 299.4,395.6 305.9,393.3 312.2,390.7 318.5,387.8 324.6,384.6 
			330.6,381.2 336.4,377.5 342,373.5 347.4,369.3 352.7,364.8 357.7,360.1 362.5,355.2 367.1,350.1 371.4,344.7 375.5,339.2 
			379.4,333.5 382.9,327.6 376.7,324 370.5,320.4 364.2,316.8 358,313.2 351.8,309.6 345.5,306 339.3,302.4 335.6,308.4 
			331.4,314.1 326.9,319.5 322,324.5 316.8,329.2 311.2,333.5 305.4,337.5 299.3,341 293,344.1 286.5,346.7 279.8,348.9 273,350.6 
			266,351.8 259,352.5 		"/>
		<polygon class="st4" points="164.7,302.4 158.5,306 152.2,309.6 146,313.2 139.8,316.8 133.5,320.4 127.3,324 121.1,327.6 
			124.6,333.5 128.5,339.2 132.6,344.7 136.9,350.1 141.5,355.2 146.3,360.1 151.3,364.8 156.6,369.3 162,373.5 167.6,377.5 
			173.4,381.2 179.4,384.6 185.5,387.8 191.8,390.7 198.1,393.3 204.6,395.6 211.2,397.6 217.9,399.3 224.6,400.7 231.4,401.8 
			238.2,402.6 245.1,403 252,403.2 252,396 252,388.8 252,381.6 252,374.4 252,367.2 252,360 252,352.8 245,352.5 238,351.8 
			231,350.6 224.2,348.9 217.5,346.7 211,344.1 204.7,341 198.6,337.5 192.8,333.5 187.2,329.2 182,324.5 177.1,319.5 172.6,314.1 
			168.4,308.4 		"/>
		<polygon class="st5" points="164.7,201.6 158.5,198 152.2,194.4 146,190.8 139.8,187.2 133.5,183.6 127.3,180 121.1,176.4 
			117.8,182.4 114.7,188.6 112,194.9 109.5,201.4 107.4,207.9 105.5,214.5 104,221.2 102.7,228 101.8,234.8 101.2,241.7 
			100.8,248.6 100.8,255.4 101.2,262.3 101.8,269.2 102.7,276 104,282.8 105.5,289.5 107.4,296.1 109.5,302.6 112,309.1 
			114.7,315.4 117.8,321.6 121.1,327.6 127.3,324 133.5,320.4 139.8,316.8 146,313.2 152.2,309.6 158.5,306 164.7,302.4 
			161.4,296.2 158.5,289.8 156.1,283.1 154.2,276.4 152.7,269.5 151.8,262.5 151.3,255.5 151.3,248.5 151.8,241.5 152.7,234.5 
			154.2,227.6 156.1,220.9 158.5,214.2 161.4,207.8 		"/>
		<polygon class="st2" points="252,151.2 252,144 252,136.8 252,129.6 252,122.4 252,115.2 252,108 252,100.8 245.1,101 
			238.2,101.4 231.4,102.2 224.6,103.3 217.9,104.7 211.2,106.4 204.6,108.4 198.1,110.7 191.8,113.3 185.5,116.2 179.4,119.4 
			173.4,122.8 167.6,126.5 162,130.5 156.6,134.7 151.3,139.2 146.3,143.9 141.5,148.8 136.9,153.9 132.6,159.3 128.5,164.8 
			124.6,170.5 121.1,176.4 127.3,180 133.5,183.6 139.8,187.2 146,190.8 152.2,194.4 158.5,198 164.7,201.6 168.4,195.6 
			172.6,189.9 177.1,184.6 182,179.5 187.2,174.8 192.8,170.4 198.6,166.5 204.7,163 211,159.9 217.5,157.3 224.2,155.1 231,153.4 
			238,152.2 245,151.4 		"/>
		<polygon class="st2" points="382.9,176.4 389.2,172.8 395.4,169.2 401.6,165.6 407.9,162 414.1,158.4 420.4,154.8 426.6,151.2 
			423,145.2 419.1,139.3 415.1,133.5 410.9,127.9 406.4,122.4 401.8,117.1 397,112 392,107 386.9,102.2 381.6,97.6 376.1,93.1 
			370.5,88.9 364.7,84.9 358.8,81 352.8,77.4 346.6,74 340.4,70.8 334,67.8 327.5,65.1 321,62.6 314.3,60.3 307.6,58.2 300.8,56.4 
			293.9,54.8 287,53.5 280.1,52.4 273.1,51.5 266.1,50.9 259,50.5 252,50.4 252,57.6 252,64.8 252,72 252,79.2 252,86.4 252,93.6 
			252,100.8 258.9,101 265.8,101.4 272.6,102.2 279.4,103.3 286.1,104.7 292.8,106.4 299.4,108.4 305.9,110.7 312.2,113.3 
			318.5,116.2 324.6,119.4 330.6,122.8 336.4,126.5 342,130.5 347.4,134.7 352.7,139.2 357.7,143.9 362.5,148.8 367.1,153.9 
			371.4,159.3 375.5,164.8 379.4,170.5 		"/>
		<polygon class="st3" points="382.9,327.6 389.2,331.2 395.4,334.8 401.6,338.4 407.9,342 414.1,345.6 420.4,349.2 426.6,352.8 
			430,346.6 433.2,340.4 436.2,334 438.9,327.5 441.4,321 443.7,314.3 445.8,307.6 447.6,300.8 449.2,293.9 450.5,287 451.6,280.1 
			452.5,273.1 453.1,266.1 453.5,259 453.6,252 453.5,245 453.1,237.9 452.5,230.9 451.6,223.9 450.5,217 449.2,210.1 447.6,203.2 
			445.8,196.4 443.7,189.7 441.4,183.1 438.9,176.5 436.2,170 433.2,163.6 430,157.4 426.6,151.2 420.4,154.8 414.1,158.4 
			407.9,162 401.6,165.6 395.4,169.2 389.2,172.8 382.9,176.4 386.2,182.4 389.3,188.6 392,194.9 394.5,201.4 396.6,207.9 
			398.5,214.5 400,221.2 401.3,228 402.2,234.8 402.9,241.7 403.2,248.6 403.2,255.4 402.9,262.3 402.2,269.2 401.3,276 400,282.8 
			398.5,289.5 396.6,296.1 394.5,302.6 392,309.1 389.3,315.4 386.2,321.6 		"/>
		<polygon class="st4" points="252,403.2 252,410.4 252,417.6 252,424.8 252,432 252,439.2 252,446.4 252,453.6 259,453.5 
			266.1,453.1 273.1,452.5 280.1,451.6 287,450.5 293.9,449.2 300.8,447.6 307.6,445.8 314.3,443.7 321,441.4 327.5,438.9 
			334,436.2 340.4,433.2 346.6,430 352.8,426.6 358.8,423 364.7,419.1 370.5,415.1 376.1,410.9 381.6,406.4 386.9,401.8 392,397 
			397,392 401.8,386.9 406.4,381.6 410.9,376.1 415.1,370.5 419.1,364.7 423,358.8 426.6,352.8 420.4,349.2 414.1,345.6 407.9,342 
			401.6,338.4 395.4,334.8 389.2,331.2 382.9,327.6 379.4,333.5 375.5,339.2 371.4,344.7 367.1,350.1 362.5,355.2 357.7,360.1 
			352.7,364.8 347.4,369.3 342,373.5 336.4,377.5 330.6,381.2 324.6,384.6 318.5,387.8 312.2,390.7 305.9,393.3 299.4,395.6 
			292.8,397.6 286.1,399.3 279.4,400.7 272.6,401.8 265.8,402.6 258.9,403 		"/>
		<polygon class="st4" points="121.1,327.6 114.8,331.2 108.6,334.8 102.3,338.4 96.1,342 89.9,345.6 83.6,349.2 77.4,352.8 
			81,358.8 84.9,364.7 88.9,370.5 93.1,376.1 97.6,381.6 102.2,386.9 107,392 112,397 117.1,401.8 122.4,406.4 127.9,410.9 
			133.5,415.1 139.3,419.1 145.2,423 151.2,426.6 157.4,430 163.6,433.2 170,436.2 176.5,438.9 183.1,441.4 189.7,443.7 
			196.4,445.8 203.2,447.6 210.1,449.2 217,450.5 223.9,451.6 230.9,452.5 237.9,453.1 245,453.5 252,453.6 252,446.4 252,439.2 
			252,432 252,424.8 252,417.6 252,410.4 252,403.2 245.1,403 238.2,402.6 231.4,401.8 224.6,400.7 217.9,399.3 211.2,397.6 
			204.6,395.6 198.1,393.3 191.8,390.7 185.5,387.8 179.4,384.6 173.4,381.2 167.6,377.5 162,373.5 156.6,369.3 151.3,364.8 
			146.3,360.1 141.5,355.2 136.9,350.1 132.6,344.7 128.5,339.2 124.6,333.5 		"/>
		<polygon class="st5" points="121.1,176.4 114.8,172.8 108.6,169.2 102.3,165.6 96.1,162 89.9,158.4 83.6,154.8 77.4,151.2 
			74,157.4 70.8,163.6 67.8,170 65.1,176.5 62.6,183.1 60.3,189.7 58.2,196.4 56.4,203.2 54.8,210.1 53.5,217 52.4,223.9 
			51.5,230.9 50.9,237.9 50.5,245 50.4,252 50.5,259 50.9,266.1 51.5,273.1 52.4,280.1 53.5,287 54.8,293.9 56.4,300.8 58.2,307.6 
			60.3,314.3 62.6,321 65.1,327.5 67.8,334 70.8,340.4 74,346.6 77.4,352.8 83.6,349.2 89.9,345.6 96.1,342 102.3,338.4 
			108.6,334.8 114.8,331.2 121.1,327.6 117.8,321.6 114.7,315.4 112,309.1 109.5,302.6 107.4,296.1 105.5,289.5 104,282.8 
			102.7,276 101.8,269.2 101.2,262.3 100.8,255.4 100.8,248.6 101.2,241.7 101.8,234.8 102.7,228 104,221.2 105.5,214.5 
			107.4,207.9 109.5,201.4 112,194.9 114.7,188.6 117.8,182.4 		"/>
		<polygon class="st2" points="252,100.8 252,93.6 252,86.4 252,79.2 252,72 252,64.8 252,57.6 252,50.4 245,50.5 237.9,50.9 
			230.9,51.5 223.9,52.4 217,53.5 210.1,54.8 203.2,56.4 196.4,58.2 189.7,60.3 183.1,62.6 176.5,65.1 170,67.8 163.6,70.8 
			157.4,74 151.2,77.4 145.2,81 139.3,84.9 133.5,88.9 127.9,93.1 122.4,97.6 117.1,102.2 112,107 107,112 102.2,117.1 97.6,122.4 
			93.1,127.9 88.9,133.5 84.9,139.3 81,145.2 77.4,151.2 83.6,154.8 89.9,158.4 96.1,162 102.3,165.6 108.6,169.2 114.8,172.8 
			121.1,176.4 124.6,170.5 128.5,164.8 132.6,159.3 136.9,153.9 141.5,148.8 146.3,143.9 151.3,139.2 156.6,134.7 162,130.5 
			167.6,126.5 173.4,122.8 179.4,119.4 185.5,116.2 191.8,113.3 198.1,110.7 204.6,108.4 211.2,106.4 217.9,104.7 224.6,103.3 
			231.4,102.2 238.2,101.4 245.1,101 		"/>
		<polygon class="st6" points="252,252 258.2,248.4 264.5,244.8 270.7,241.2 276.9,237.6 283.2,234 289.4,230.4 295.6,226.8 
			291.4,220.6 286.3,215.1 280.4,210.4 273.9,206.6 266.9,203.8 259.5,202.2 252,201.6 252,208.8 252,216 252,223.2 252,230.4 
			252,237.6 252,244.8 		"/>
		<polygon class="st6" points="252,252 258.2,255.6 264.5,259.2 270.7,262.8 276.9,266.4 283.2,270 289.4,273.6 295.6,277.2 
			298.9,270.4 301.1,263.2 302.3,255.8 302.3,248.2 301.1,240.8 298.9,233.6 295.6,226.8 289.4,230.4 283.2,234 276.9,237.6 
			270.7,241.2 264.5,244.8 258.2,248.4 		"/>
		<polygon class="st6" points="252,252 252,259.2 252,266.4 252,273.6 252,280.8 252,288 252,295.2 252,302.4 259.5,301.8 
			266.9,300.2 273.9,297.4 280.4,293.6 286.3,289 291.4,283.4 295.6,277.2 289.4,273.6 283.2,270 276.9,266.4 270.7,262.8 
			264.5,259.2 258.2,255.6 		"/>
		<polygon class="st6" points="252,252 245.8,255.6 239.5,259.2 233.3,262.8 227.1,266.4 220.8,270 214.6,273.6 208.4,277.2 
			212.6,283.4 217.7,289 223.6,293.6 230.1,297.4 237.1,300.2 244.5,301.8 252,302.4 252,295.2 252,288 252,280.8 252,273.6 
			252,266.4 252,259.2 		"/>
		<polygon class="st6" points="252,252 245.8,248.4 239.5,244.8 233.3,241.2 227.1,237.6 220.8,234 214.6,230.4 208.4,226.8 
			205.1,233.6 202.9,240.8 201.7,248.2 201.7,255.8 202.9,263.2 205.1,270.4 208.4,277.2 214.6,273.6 220.8,270 227.1,266.4 
			233.3,262.8 239.5,259.2 245.8,255.6 		"/>
		<polygon class="st6" points="252,252 252,244.8 252,237.6 252,230.4 252,223.2 252,216 252,208.8 252,201.6 244.5,202.2 
			237.1,203.8 230.1,206.6 223.6,210.4 217.7,215.1 212.6,220.6 208.4,226.8 214.6,230.4 220.8,234 227.1,237.6 233.3,241.2 
			239.5,244.8 245.8,248.4 		"/>
		<text transform="matrix(1 0 0 1 269.7665 191.3917)" class="st7 st8">Sonales</text>
		<text transform="matrix(1 0 0 1 312.6897 274.233)" class="st7 st8">Cupressales</text>
		<text transform="matrix(1 0 0 1 135.1096 274.2328)" class="st7 st8">Fabales</text>
		<text transform="matrix(1 0 0 1 169.304 191.6135)" class="st7 st8">Sonales</text>
		<text transform="matrix(1 0 0 1 344.212 250.265)" class="st7 st8">Taxaceae</text>
		<text transform="matrix(1 0 0 1 95.2056 250.2648)" class="st7 st8">Fabaceae</text>
		<text transform="matrix(1 0 0 1 135.1096 152.8832)" class="st7 st8">Solanaceae</text>
		<text transform="matrix(1 0 0 1 59.7744 228.9754)" class="st7 st8">Glycine</text>
	</g>
</g>
<text transform="matrix(1 0 0 1 222.1924 290)" class="st7 st9">6</text>
<g transform="translate(250, 260)">
</g>
<text transform="matrix(1 0 0 1 398.7869 228.9754)" class="st7 st8">Taxus</text>
<text transform="matrix(1 0 0 1 259.2434 323.814)" class="st7 st8">Rosales</text>
<text transform="matrix(1 0 0 1 280.329 364.4325)" class="st7 st8">Ulmaceae</text>
<text transform="matrix(1 0 0 1 303.5636 415.5375)" class="st7 st8">Ulmus</text>
<text transform="matrix(1 0 0 1 180.0506 323.814)" class="st7 st8">Rosales</text>
<text transform="matrix(1 0 0 1 158.3773 364.6539)" class="st7 st8">Ulmaceae</text>
<text transform="matrix(1 0 0 1 270.6172 152.6614)" class="st7 st8">Sonalanceae</text>
<text transform="matrix(1 0 0 1 292.0643 118.2023)" class="st7 st8">Capsicum</text>
</svg>
