<?xml version="1.0" encoding="utf-8"?>
<!-- Generator: Adobe Illustrator 28.1.0, SVG Export Plug-In . SVG Version: 6.00 Build 0)  -->
<svg version="1.1" id="Layer_1" xmlns="http://www.w3.org/2000/svg" xmlns:xlink="http://www.w3.org/1999/xlink" x="0px" y="0px"
	 viewBox="0 0 504 504" style="enable-background:new 0 0 504 504;" xml:space="preserve">
<style type="text/css">
	.st0{fill:none;}
	
		.st1{clip-path:url(#SVGID_00000064317325102991652290000017914530855929385621_);fill:#757171;stroke:#000000;stroke-width:0.17;stroke-miterlimit:10;}
	
		.st2{clip-path:url(#SVGID_00000064317325102991652290000017914530855929385621_);fill:#C54E00;stroke:#000000;stroke-width:0.17;stroke-miterlimit:10;}
	
		.st3{clip-path:url(#SVGID_00000064317325102991652290000017914530855929385621_);fill:#ED9F00;stroke:#000000;stroke-width:0.17;stroke-miterlimit:10;}
	
		.st4{clip-path:url(#SVGID_00000064317325102991652290000017914530855929385621_);fill:#FFFFFF;stroke:#FFFFFF;stroke-width:0.17;stroke-miterlimit:10;}
	.st5{clip-path:url(#SVGID_00000064317325102991652290000017914530855929385621_);enable-background:new    ;}
	.st6{font-family:'ArialMT';}
	.st7{font-size:18.49px;}
	.st8{font-family:'Arial-BoldMT';}
	.st9{font-size:100px;}
</style>
<rect y="0" class="st0" width="504" height="504"/>
<g>
	<defs>
		<rect id="SVGID_1_" y="0" width="504" height="504"/>
	</defs>
	<clipPath id="SVGID_00000051358314877752322480000011033685686069297825_">
		<use xlink:href="#SVGID_1_"  style="overflow:visible;"/>
	</clipPath>
	
		<polygon style="clip-path:url(#SVGID_00000051358314877752322480000011033685686069297825_);fill:#757171;stroke:#000000;stroke-width:0.17;stroke-miterlimit:10;" points="
		299.9,236.4 306.8,234.2 313.6,232 320.5,229.8 327.3,227.5 334.2,225.3 341,223.1 347.9,220.9 345.5,214.2 342.6,207.8 
		339.3,201.6 335.6,195.6 331.4,189.9 326.9,184.6 322,179.5 316.8,174.8 311.2,170.4 305.4,166.5 299.3,163 293,159.9 286.5,157.3 
		279.8,155.1 273,153.4 266,152.2 259,151.4 252,151.2 252,158.4 252,165.6 252,172.8 252,180 252,187.2 252,194.4 252,201.6 
		259,202.1 265.9,203.6 272.5,206 278.7,209.3 284.4,213.4 289.5,218.3 293.8,223.8 297.3,229.9 	"/>
	
		<polygon style="clip-path:url(#SVGID_00000051358314877752322480000011033685686069297825_);fill:#C54E00;stroke:#000000;stroke-width:0.17;stroke-miterlimit:10;" points="
		281.6,292.8 285.9,298.6 290.1,304.4 294.3,310.2 298.5,316.1 302.8,321.9 307,327.7 311.2,333.5 316.8,329.2 322,324.5 
		326.9,319.5 331.4,314.1 335.6,308.4 339.3,302.4 342.6,296.2 345.5,289.8 347.9,283.1 349.8,276.4 351.3,269.5 352.2,262.5 
		352.7,255.5 352.7,248.5 352.2,241.5 351.3,234.5 349.8,227.6 347.9,220.9 341,223.1 334.2,225.3 327.3,227.5 320.5,229.8 
		313.6,232 306.8,234.2 299.9,236.4 301.6,243.2 302.4,250.2 302.1,257.3 300.9,264.2 298.7,270.9 295.6,277.2 291.7,283 287,288.2 
			"/>
	
		<polygon style="clip-path:url(#SVGID_00000051358314877752322480000011033685686069297825_);fill:#C54E00;stroke:#000000;stroke-width:0.17;stroke-miterlimit:10;" points="
		222.4,292.8 218.1,298.6 213.9,304.4 209.7,310.2 205.4,316.1 201.2,321.9 197,327.7 192.8,333.5 198.6,337.5 204.7,341 211,344.1 
		217.5,346.7 224.2,348.9 231,350.6 238,351.8 245,352.5 252,352.8 259,352.5 266,351.8 273,350.6 279.8,348.9 286.5,346.7 
		293,344.1 299.3,341 305.4,337.5 311.2,333.5 307,327.7 302.8,321.9 298.5,316.1 294.3,310.2 290.1,304.4 285.9,298.6 281.6,292.8 
		275.7,296.5 269.2,299.4 262.5,301.3 255.5,302.3 248.5,302.3 241.5,301.3 234.8,299.4 228.3,296.5 	"/>
	
		<polygon style="clip-path:url(#SVGID_00000051358314877752322480000011033685686069297825_);fill:#ED9F00;stroke:#000000;stroke-width:0.17;stroke-miterlimit:10;" points="
		204.1,236.4 197.2,234.2 190.4,232 183.5,229.8 176.7,227.5 169.8,225.3 163,223.1 156.1,220.9 154.2,227.6 152.7,234.5 
		151.8,241.5 151.3,248.5 151.3,255.5 151.8,262.5 152.7,269.5 154.2,276.4 156.1,283.1 158.5,289.8 161.4,296.2 164.7,302.4 
		168.4,308.4 172.6,314.1 177.1,319.5 182,324.5 187.2,329.2 192.8,333.5 197,327.7 201.2,321.9 205.4,316.1 209.7,310.2 
		213.9,304.4 218.1,298.6 222.4,292.8 217,288.2 212.3,283 208.4,277.2 205.3,270.9 203.1,264.2 201.9,257.3 201.6,250.2 
		202.4,243.2 	"/>
	
		<polygon style="clip-path:url(#SVGID_00000051358314877752322480000011033685686069297825_);fill:#ED9F00;stroke:#000000;stroke-width:0.17;stroke-miterlimit:10;" points="
		252,201.6 252,194.4 252,187.2 252,180 252,172.8 252,165.6 252,158.4 252,151.2 245,151.4 238,152.2 231,153.4 224.2,155.1 
		217.5,157.3 211,159.9 204.7,163 198.6,166.5 192.8,170.4 187.2,174.8 182,179.5 177.1,184.6 172.6,189.9 168.4,195.6 164.7,201.6 
		161.4,207.8 158.5,214.2 156.1,220.9 163,223.1 169.8,225.3 176.7,227.5 183.5,229.8 190.4,232 197.2,234.2 204.1,236.4 
		206.7,229.9 210.2,223.8 214.6,218.3 219.6,213.4 225.3,209.3 231.5,206 238.1,203.6 245,202.1 	"/>
	
		<polygon style="clip-path:url(#SVGID_00000051358314877752322480000011033685686069297825_);fill:#757171;stroke:#000000;stroke-width:0.17;stroke-miterlimit:10;" points="
		347.9,220.9 354.7,218.6 361.6,216.4 368.4,214.2 375.3,211.9 382.1,209.7 389,207.5 395.8,205.3 393.5,198.6 390.8,192.1 
		387.9,185.7 384.7,179.5 381.1,173.4 377.4,167.4 373.3,161.7 369,156.2 364.4,150.8 359.5,145.7 354.5,140.8 349.2,136.2 
		343.7,131.8 338,127.6 332.1,123.8 326.1,120.2 319.9,116.9 313.5,113.9 307,111.2 300.4,108.8 293.7,106.7 286.9,104.9 280,103.4 
		273,102.3 266,101.4 259,101 252,100.8 252,108 252,115.2 252,122.4 252,129.6 252,136.8 252,144 252,151.2 259,151.4 266,152.2 
		273,153.4 279.8,155.1 286.5,157.3 293,159.9 299.3,163 305.4,166.5 311.2,170.4 316.8,174.8 322,179.5 326.9,184.6 331.4,189.9 
		335.6,195.6 339.3,201.6 342.6,207.8 345.5,214.2 	"/>
	
		<polygon style="clip-path:url(#SVGID_00000051358314877752322480000011033685686069297825_);fill:#C54E00;stroke:#000000;stroke-width:0.17;stroke-miterlimit:10;" points="
		311.2,333.5 315.5,339.4 319.7,345.2 323.9,351 328.2,356.9 332.4,362.7 336.6,368.5 340.9,374.3 346.5,370.1 351.9,365.5 
		357,360.8 362,355.8 366.7,350.5 371.1,345.1 375.4,339.4 379.3,333.6 382.9,327.6 386.3,321.4 389.4,315.1 392.2,308.6 
		394.7,302.1 396.9,295.4 398.7,288.6 400.2,281.7 401.5,274.8 402.4,267.8 402.9,260.8 403.2,253.8 403.1,246.7 402.7,239.7 
		402,232.7 400.9,225.7 399.5,218.9 397.8,212 395.8,205.3 389,207.5 382.1,209.7 375.3,211.9 368.4,214.2 361.6,216.4 354.7,218.6 
		347.9,220.9 349.8,227.6 351.3,234.5 352.2,241.5 352.7,248.5 352.7,255.5 352.2,262.5 351.3,269.5 349.8,276.4 347.9,283.1 
		345.5,289.8 342.6,296.2 339.3,302.4 335.6,308.4 331.4,314.1 326.9,319.5 322,324.5 316.8,329.2 	"/>
	
		<polygon style="clip-path:url(#SVGID_00000051358314877752322480000011033685686069297825_);fill:#C54E00;stroke:#000000;stroke-width:0.17;stroke-miterlimit:10;" points="
		192.8,333.5 188.5,339.4 184.3,345.2 180.1,351 175.8,356.9 171.6,362.7 167.4,368.5 163.1,374.3 168.9,378.3 174.9,382 181,385.5 
		187.3,388.7 193.7,391.5 200.3,394.1 206.9,396.3 213.7,398.3 220.6,399.9 227.5,401.2 234.4,402.2 241.4,402.8 248.5,403.2 
		255.5,403.2 262.5,402.8 269.5,402.2 276.5,401.2 283.4,399.9 290.3,398.3 297,396.3 303.7,394.1 310.3,391.5 316.7,388.7 
		323,385.5 329.1,382 335.1,378.3 340.9,374.3 336.6,368.5 332.4,362.7 328.2,356.9 323.9,351 319.7,345.2 315.5,339.4 311.2,333.5 
		305.4,337.5 299.3,341 293,344.1 286.5,346.7 279.8,348.9 273,350.6 266,351.8 259,352.5 252,352.8 245,352.5 238,351.8 231,350.6 
		224.2,348.9 217.5,346.7 211,344.1 204.7,341 198.6,337.5 	"/>
	
		<polygon style="clip-path:url(#SVGID_00000051358314877752322480000011033685686069297825_);fill:#ED9F00;stroke:#000000;stroke-width:0.17;stroke-miterlimit:10;" points="
		156.1,220.9 149.3,218.6 142.4,216.4 135.6,214.2 128.7,211.9 121.9,209.7 115.1,207.5 108.2,205.3 106.2,212 104.5,218.9 
		103.1,225.7 102,232.7 101.3,239.7 100.9,246.7 100.8,253.8 101.1,260.8 101.6,267.8 102.5,274.8 103.8,281.7 105.3,288.6 
		107.2,295.4 109.3,302.1 111.8,308.6 114.6,315.1 117.7,321.4 121.1,327.6 124.7,333.6 128.6,339.4 132.9,345.1 137.3,350.5 
		142,355.8 147,360.8 152.1,365.5 157.5,370.1 163.1,374.3 167.4,368.5 171.6,362.7 175.8,356.9 180.1,351 184.3,345.2 188.5,339.4 
		192.8,333.5 187.2,329.2 182,324.5 177.1,319.5 172.6,314.1 168.4,308.4 164.7,302.4 161.4,296.2 158.5,289.8 156.1,283.1 
		154.2,276.4 152.7,269.5 151.8,262.5 151.3,255.5 151.3,248.5 151.8,241.5 152.7,234.5 154.2,227.6 	"/>
	
		<polygon style="clip-path:url(#SVGID_00000051358314877752322480000011033685686069297825_);fill:#ED9F00;stroke:#000000;stroke-width:0.17;stroke-miterlimit:10;" points="
		252,151.2 252,144 252,136.8 252,129.6 252,122.4 252,115.2 252,108 252,100.8 245,101 237.9,101.4 231,102.3 224,103.4 
		217.1,104.9 210.3,106.7 203.6,108.8 197,111.2 190.5,113.9 184.1,116.9 177.9,120.2 171.9,123.8 166,127.6 160.3,131.8 
		154.8,136.2 149.5,140.8 144.5,145.7 139.6,150.8 135.1,156.2 130.7,161.7 126.7,167.4 122.8,173.4 119.3,179.5 116.1,185.7 
		113.2,192.1 110.5,198.6 108.2,205.3 115.1,207.5 121.9,209.7 128.7,211.9 135.6,214.2 142.4,216.4 149.3,218.6 156.1,220.9 
		158.5,214.2 161.4,207.8 164.7,201.6 168.4,195.6 172.6,189.9 177.1,184.6 182,179.5 187.2,174.8 192.8,170.4 198.6,166.5 
		204.7,163 211,159.9 217.5,157.3 224.2,155.1 231,153.4 238,152.2 245,151.4 	"/>
	
		<polygon style="clip-path:url(#SVGID_00000051358314877752322480000011033685686069297825_);fill:#757171;stroke:#000000;stroke-width:0.17;stroke-miterlimit:10;" points="
		395.8,205.3 402.6,203.1 409.5,200.8 416.3,198.6 423.2,196.4 430,194.1 436.9,191.9 443.7,189.7 441.5,183.2 439.1,176.8 
		436.4,170.5 433.5,164.3 430.5,158.2 427.2,152.2 423.7,146.3 420,140.5 416.1,134.9 412,129.4 407.8,124 403.3,118.8 398.7,113.8 
		394,108.8 389,104.1 383.9,99.5 378.6,95.2 373.2,90.9 367.7,86.9 362,83.1 356.2,79.4 350.3,76 344.3,72.8 338.1,69.7 331.9,66.9 
		325.6,64.3 319.2,61.9 312.7,59.7 306.1,57.8 299.5,56.1 292.8,54.6 286.1,53.3 279.3,52.3 272.5,51.5 265.7,50.9 258.9,50.5 
		252,50.4 252,57.6 252,64.8 252,72 252,79.2 252,86.4 252,93.6 252,100.8 259,101 266,101.4 273,102.3 280,103.4 286.9,104.9 
		293.7,106.7 300.4,108.8 307,111.2 313.5,113.9 319.9,116.9 326.1,120.2 332.1,123.8 338,127.6 343.7,131.8 349.2,136.2 
		354.5,140.8 359.5,145.7 364.4,150.8 369,156.2 373.3,161.7 377.4,167.4 381.1,173.4 384.7,179.5 387.9,185.7 390.8,192.1 
		393.5,198.6 	"/>
	
		<polygon style="clip-path:url(#SVGID_00000051358314877752322480000011033685686069297825_);fill:#C54E00;stroke:#000000;stroke-width:0.17;stroke-miterlimit:10;" points="
		340.9,374.3 345.1,380.1 349.3,386 353.6,391.8 357.8,397.6 362,403.5 366.3,409.3 370.5,415.1 376,411 381.3,406.7 386.5,402.2 
		391.5,397.5 396.4,392.7 401,387.7 405.6,382.6 409.9,377.3 414.1,371.9 418.1,366.3 421.9,360.6 425.4,354.8 428.8,348.8 
		432,342.8 435,336.6 437.8,330.3 440.3,324 442.6,317.5 444.8,311 446.7,304.5 448.3,297.8 449.8,291.1 451,284.4 452,277.6 
		452.7,270.8 453.2,264 453.5,257.1 453.6,250.3 453.4,243.4 453,236.6 452.4,229.8 451.5,223 450.4,216.2 449.1,209.5 447.5,202.9 
		445.7,196.2 443.7,189.7 436.9,191.9 430,194.1 423.2,196.4 416.3,198.6 409.5,200.8 402.6,203.1 395.8,205.3 397.8,212 
		399.5,218.9 400.9,225.7 402,232.7 402.7,239.7 403.1,246.7 403.2,253.8 402.9,260.8 402.4,267.8 401.5,274.8 400.2,281.7 
		398.7,288.6 396.9,295.4 394.7,302.1 392.2,308.6 389.4,315.1 386.3,321.4 382.9,327.6 379.3,333.6 375.4,339.4 371.1,345.1 
		366.7,350.5 362,355.8 357,360.8 351.9,365.5 346.5,370.1 	"/>
	
		<polygon style="clip-path:url(#SVGID_00000051358314877752322480000011033685686069297825_);fill:#C54E00;stroke:#000000;stroke-width:0.17;stroke-miterlimit:10;" points="
		163.1,374.3 158.9,380.1 154.7,386 150.4,391.8 146.2,397.6 142,403.5 137.7,409.3 133.5,415.1 139.1,419 144.9,422.8 150.7,426.3 
		156.7,429.6 162.8,432.8 169,435.7 175.2,438.4 181.6,440.9 188.1,443.2 194.6,445.3 201.2,447.1 207.9,448.7 214.6,450.1 
		221.3,451.2 228.1,452.2 234.9,452.9 241.7,453.3 248.6,453.6 255.4,453.6 262.3,453.3 269.1,452.9 275.9,452.2 282.7,451.2 
		289.4,450.1 296.1,448.7 302.8,447.1 309.4,445.3 315.9,443.2 322.4,440.9 328.8,438.4 335,435.7 341.2,432.8 347.3,429.6 
		353.3,426.3 359.1,422.8 364.9,419 370.5,415.1 366.3,409.3 362,403.5 357.8,397.6 353.6,391.8 349.3,386 345.1,380.1 340.9,374.3 
		335.1,378.3 329.1,382 323,385.5 316.7,388.7 310.3,391.5 303.7,394.1 297,396.3 290.3,398.3 283.4,399.9 276.5,401.2 269.5,402.2 
		262.5,402.8 255.5,403.2 248.5,403.2 241.4,402.8 234.4,402.2 227.5,401.2 220.6,399.9 213.7,398.3 206.9,396.3 200.3,394.1 
		193.7,391.5 187.3,388.7 181,385.5 174.9,382 168.9,378.3 	"/>
	
		<polygon style="clip-path:url(#SVGID_00000051358314877752322480000011033685686069297825_);fill:#ED9F00;stroke:#000000;stroke-width:0.17;stroke-miterlimit:10;" points="
		108.2,205.3 101.3,203.1 94.5,200.8 87.7,198.6 80.8,196.4 74,194.1 67.1,191.9 60.3,189.7 58.3,196.2 56.5,202.9 54.9,209.5 
		53.6,216.2 52.5,223 51.6,229.8 51,236.6 50.6,243.4 50.4,250.3 50.5,257.1 50.8,264 51.3,270.8 52,277.6 53,284.4 54.2,291.1 
		55.7,297.8 57.3,304.5 59.2,311 61.3,317.5 63.7,324 66.2,330.3 69,336.6 72,342.8 75.2,348.8 78.6,354.8 82.2,360.6 85.9,366.3 
		89.9,371.9 94.1,377.3 98.4,382.6 102.9,387.7 107.6,392.7 112.5,397.5 117.5,402.2 122.7,406.7 128,411 133.5,415.1 137.7,409.3 
		142,403.5 146.2,397.6 150.4,391.8 154.7,386 158.9,380.1 163.1,374.3 157.5,370.1 152.1,365.5 147,360.8 142,355.8 137.3,350.5 
		132.9,345.1 128.6,339.4 124.7,333.6 121.1,327.6 117.7,321.4 114.6,315.1 111.8,308.6 109.3,302.1 107.2,295.4 105.3,288.6 
		103.8,281.7 102.5,274.8 101.6,267.8 101.1,260.8 100.8,253.8 100.9,246.7 101.3,239.7 102,232.7 103.1,225.7 104.5,218.9 
		106.2,212 	"/>
	
		<polygon style="clip-path:url(#SVGID_00000051358314877752322480000011033685686069297825_);fill:#ED9F00;stroke:#000000;stroke-width:0.17;stroke-miterlimit:10;" points="
		252,100.8 252,93.6 252,86.4 252,79.2 252,72 252,64.8 252,57.6 252,50.4 245.1,50.5 238.3,50.9 231.5,51.5 224.7,52.3 217.9,53.3 
		211.2,54.6 204.5,56.1 197.9,57.8 191.3,59.7 184.8,61.9 178.4,64.3 172.1,66.9 165.9,69.7 159.7,72.8 153.7,76 147.8,79.4 
		142,83.1 136.3,86.9 130.8,90.9 125.3,95.2 120.1,99.5 115,104.1 110.1,108.8 105.3,113.8 100.7,118.8 96.2,124 92,129.4 
		87.9,134.9 84,140.5 80.3,146.3 76.8,152.2 73.6,158.2 70.5,164.3 67.6,170.5 64.9,176.8 62.5,183.2 60.3,189.7 67.1,191.9 
		74,194.1 80.8,196.4 87.7,198.6 94.5,200.8 101.3,203.1 108.2,205.3 110.5,198.6 113.2,192.1 116.1,185.7 119.3,179.5 122.8,173.4 
		126.7,167.4 130.7,161.7 135.1,156.2 139.6,150.8 144.5,145.7 149.5,140.8 154.8,136.2 160.3,131.8 166,127.6 171.9,123.8 
		177.9,120.2 184.1,116.9 190.5,113.9 197,111.2 203.6,108.8 210.3,106.7 217.1,104.9 224,103.4 231,102.3 237.9,101.4 245,101 	"/>
	
		<polygon style="clip-path:url(#SVGID_00000051358314877752322480000011033685686069297825_);fill:#FFFFFF;stroke:#FFFFFF;stroke-width:0.17;stroke-miterlimit:10;" points="
		252,252 258.9,249.8 265.7,247.6 272.5,245.3 279.4,243.1 286.2,240.9 293.1,238.6 299.9,236.4 297.3,229.9 293.8,223.8 
		289.5,218.3 284.4,213.4 278.7,209.3 272.5,206 265.9,203.6 259,202.1 252,201.6 252,208.8 252,216 252,223.2 252,230.4 252,237.6 
		252,244.8 	"/>
	
		<polygon style="clip-path:url(#SVGID_00000051358314877752322480000011033685686069297825_);fill:#FFFFFF;stroke:#FFFFFF;stroke-width:0.17;stroke-miterlimit:10;" points="
		252,252 256.2,257.8 260.5,263.6 264.7,269.5 268.9,275.3 273.2,281.1 277.4,287 281.6,292.8 287,288.2 291.7,283 295.6,277.2 
		298.7,270.9 300.9,264.2 302.1,257.3 302.4,250.2 301.6,243.2 299.9,236.4 293.1,238.6 286.2,240.9 279.4,243.1 272.5,245.3 
		265.7,247.6 258.9,249.8 	"/>
	
		<polygon style="clip-path:url(#SVGID_00000051358314877752322480000011033685686069297825_);fill:#FFFFFF;stroke:#FFFFFF;stroke-width:0.17;stroke-miterlimit:10;" points="
		252,252 247.8,257.8 243.5,263.6 239.3,269.5 235.1,275.3 230.8,281.1 226.6,287 222.4,292.8 228.3,296.5 234.8,299.4 241.5,301.3 
		248.5,302.3 255.5,302.3 262.5,301.3 269.2,299.4 275.7,296.5 281.6,292.8 277.4,287 273.2,281.1 268.9,275.3 264.7,269.5 
		260.5,263.6 256.2,257.8 	"/>
	
		<polygon style="clip-path:url(#SVGID_00000051358314877752322480000011033685686069297825_);fill:#FFFFFF;stroke:#FFFFFF;stroke-width:0.17;stroke-miterlimit:10;" points="
		252,252 245.1,249.8 238.3,247.6 231.5,245.3 224.6,243.1 217.8,240.9 210.9,238.6 204.1,236.4 202.4,243.2 201.6,250.2 
		201.9,257.3 203.1,264.2 205.3,270.9 208.4,277.2 212.3,283 217,288.2 222.4,292.8 226.6,287 230.8,281.1 235.1,275.3 239.3,269.5 
		243.5,263.6 247.8,257.8 	"/>
	
		<polygon style="clip-path:url(#SVGID_00000051358314877752322480000011033685686069297825_);fill:#FFFFFF;stroke:#FFFFFF;stroke-width:0.17;stroke-miterlimit:10;" points="
		252,252 252,244.8 252,237.6 252,230.4 252,223.2 252,216 252,208.8 252,201.6 245,202.1 238.1,203.6 231.5,206 225.3,209.3 
		219.6,213.4 214.6,218.3 210.2,223.8 206.7,229.9 204.1,236.4 210.9,238.6 217.8,240.9 224.6,243.1 231.5,245.3 238.3,247.6 
		245.1,249.8 	"/>
	<g style="clip-path:url(#SVGID_00000051358314877752322480000011033685686069297825_);enable-background:new    ;">
		<text transform="matrix(1 0 0 1 264.2845 197.47)" class="st6 st7">Malvales</text>
	</g>
	<g style="clip-path:url(#SVGID_00000051358314877752322480000011033685686069297825_);enable-background:new    ;">
		<text transform="matrix(1 0 0 1 306.1616 274.6736)" class="st6 st7">Poales</text>
	</g>
	<g style="clip-path:url(#SVGID_00000051358314877752322480000011033685686069297825_);enable-background:new    ;">
		<text transform="matrix(1 0 0 1 223.7323 334.23)" class="st6 st7">Poales</text>
	</g>
	<g style="clip-path:url(#SVGID_00000051358314877752322480000011033685686069297825_);enable-background:new    ;">
		<text transform="matrix(1 0 0 1 111.1117 281.99)" class="st6 st7">Sapindales</text>
	</g>
	<g style="clip-path:url(#SVGID_00000051358314877752322480000011033685686069297825_);enable-background:new    ;">
		<text transform="matrix(1 0 0 1 154.7712 197.47)" class="st6 st7">Sapindales</text>
	</g>
	<g style="clip-path:url(#SVGID_00000051358314877752322480000011033685686069297825_);enable-background:new    ;">
		<text transform="matrix(1 0 0 1 274.7907 156.69)" class="st6 st7">Dipterocarpaceae</text>
	</g>
	<g style="clip-path:url(#SVGID_00000051358314877752322480000011033685686069297825_);enable-background:new    ;">
		<text transform="matrix(1 0 0 1 335.333 297.56)" class="st6 st7">Poaceae</text>
	</g>
	<g style="clip-path:url(#SVGID_00000051358314877752322480000011033685686069297825_);enable-background:new    ;">
		<text transform="matrix(1 0 0 1 215.503 384.63)" class="st6 st7">Poaceae</text>
	</g>
	<g style="clip-path:url(#SVGID_00000051358314877752322480000011033685686069297825_);enable-background:new    ;">
		<text transform="matrix(1 0 0 1 93.755 306.8629)" class="st6 st7">Rutaceae</text>
	</g>
	<g style="clip-path:url(#SVGID_00000051358314877752322480000011033685686069297825_);enable-background:new    ;">
		<text transform="matrix(1 0 0 1 138.3644 156.69)" class="st6 st7">Rutaceae</text>
	</g>
	<g style="clip-path:url(#SVGID_00000051358314877752322480000011033685686069297825_);enable-background:new    ;">
		<text transform="matrix(1 0 0 1 205.2423 435.03)" class="st6 st7">Saccharum</text>
	</g>
	<g style="clip-path:url(#SVGID_00000051358314877752322480000011033685686069297825_);enable-background:new    ;">
		<text transform="matrix(1 0 0 1 124.1683 115.92)" class="st6 st7">Citrus</text>
	</g>
</g>
<text transform="matrix(1 0 0 1 222.1924 290)" class="st8 st9">5</text>
<g transform="translate(250, 260)">
</g>
</svg>
