<?xml version="1.0" encoding="utf-8"?>
<!-- Generator: Adobe Illustrator 28.1.0, SVG Export Plug-In . SVG Version: 6.00 Build 0)  -->
<svg version="1.1" id="Layer_1" xmlns="http://www.w3.org/2000/svg" xmlns:xlink="http://www.w3.org/1999/xlink" x="0px" y="0px"
	 viewBox="0 0 504 504" style="enable-background:new 0 0 504 504;" xml:space="preserve">
<style type="text/css">
	.st0{fill:none;}
	
		.st1{clip-path:url(#SVGID_00000065066912434891470270000009835000283067383684_);fill:#FFD600;stroke:#000000;stroke-width:0.17;stroke-miterlimit:10;}
	
		.st2{clip-path:url(#SVGID_00000103256932187685949830000006052593048141212598_);fill:#FFD600;stroke:#000000;stroke-width:0.17;stroke-miterlimit:10;}
	
		.st3{clip-path:url(#SVGID_00000096757549406875266750000011760009055134667160_);fill:#FFD600;stroke:#000000;stroke-width:0.17;stroke-miterlimit:10;}
	
		.st4{clip-path:url(#SVGID_00000069363907990137945610000002306657420589425591_);fill:#FFD600;stroke:#000000;stroke-width:0.17;stroke-miterlimit:10;}
	
		.st5{clip-path:url(#SVGID_00000031885870680204543480000007207275003815291550_);fill:#FFD600;stroke:#000000;stroke-width:0.17;stroke-miterlimit:10;}
	
		.st6{clip-path:url(#SVGID_00000119103184147165176890000018111380514181617318_);fill:#FFD600;stroke:#000000;stroke-width:0.17;stroke-miterlimit:10;}
	
		.st7{clip-path:url(#SVGID_00000152236382553167321550000013539190584581844114_);fill:#FFD600;stroke:#000000;stroke-width:0.17;stroke-miterlimit:10;}
	
		.st8{clip-path:url(#SVGID_00000152964836264860673010000013360668607252057789_);fill:#FFD600;stroke:#000000;stroke-width:0.17;stroke-miterlimit:10;}
	
		.st9{clip-path:url(#SVGID_00000027587230974893163880000012363776535241204127_);fill:#FFD600;stroke:#000000;stroke-width:0.17;stroke-miterlimit:10;}
	
		.st10{clip-path:url(#SVGID_00000008863040091887411550000012471765234035748251_);fill:#FFFFFF;stroke:#FFFFFF;stroke-width:0.17;stroke-miterlimit:10;}
	
		.st11{clip-path:url(#SVGID_00000134934859134304542070000003937837708756695701_);fill:#FFFFFF;stroke:#FFFFFF;stroke-width:0.17;stroke-miterlimit:10;}
	
		.st12{clip-path:url(#SVGID_00000003096198854318852280000000953176528189420962_);fill:#FFFFFF;stroke:#FFFFFF;stroke-width:0.17;stroke-miterlimit:10;}
	.st13{clip-path:url(#SVGID_00000103945629414930961410000000920885216273148095_);enable-background:new    ;}
	.st14{font-family:'ArialMT';}
	.st15{font-size:18.49px;}
	.st16{letter-spacing:1;}
	.st17{clip-path:url(#SVGID_00000070078845519358139030000012897934815290419639_);enable-background:new    ;}
	.st18{clip-path:url(#SVGID_00000116955191810850695400000006198755772480560012_);enable-background:new    ;}
	.st19{clip-path:url(#SVGID_00000026878969470354926390000010398063105444371379_);enable-background:new    ;}
	.st20{clip-path:url(#SVGID_00000180344096066542005490000004203180800744027009_);enable-background:new    ;}
	.st21{letter-spacing:2;}
	.st22{font-size:100px;}
</style>
<rect y="0" class="st0" width="504" height="504"/>
<g>
	<defs>
		<rect id="SVGID_1_" y="0" width="504" height="504"/>
	</defs>
	<clipPath id="SVGID_00000014605885321339688660000003693865282168587665_">
		<use xlink:href="#SVGID_1_"  style="overflow:visible;"/>
	</clipPath>
	
		<polygon style="clip-path:url(#SVGID_00000014605885321339688660000003693865282168587665_);fill:#FFD600;stroke:#000000;stroke-width:0.17;stroke-miterlimit:10;" points="
		295.6,277.2 301.9,280.8 308.1,284.4 314.4,288 320.6,291.6 326.8,295.2 333.1,298.8 339.3,302.4 342.6,296.2 345.5,289.8 
		347.9,283.1 349.8,276.4 351.3,269.5 352.2,262.5 352.7,255.5 352.7,248.5 352.2,241.5 351.3,234.5 349.8,227.6 347.9,220.9 
		345.5,214.2 342.6,207.8 339.3,201.6 335.6,195.6 331.4,189.9 326.9,184.6 322,179.5 316.8,174.8 311.2,170.4 305.4,166.5 
		299.3,163 293,159.9 286.5,157.3 279.8,155.1 273,153.4 266,152.2 259,151.4 252,151.2 252,158.4 252,165.6 252,172.8 252,180 
		252,187.2 252,194.4 252,201.6 259,202.1 265.9,203.6 272.5,206 278.7,209.3 284.4,213.4 289.5,218.3 293.8,223.8 297.3,229.9 
		299.9,236.4 301.6,243.2 302.4,250.2 302.1,257.3 300.9,264.2 298.7,270.9 	"/>
</g>
<g>
	<defs>
		<rect id="SVGID_00000106113642350355009540000017911187542161981875_" y="0" width="504" height="504"/>
	</defs>
	<clipPath id="SVGID_00000088838052766994035280000014066331009311640198_">
		<use xlink:href="#SVGID_00000106113642350355009540000017911187542161981875_"  style="overflow:visible;"/>
	</clipPath>
	
		<polygon style="clip-path:url(#SVGID_00000088838052766994035280000014066331009311640198_);fill:#FFD600;stroke:#000000;stroke-width:0.17;stroke-miterlimit:10;" points="
		208.4,277.2 202.1,280.8 195.9,284.4 189.6,288 183.4,291.6 177.2,295.2 170.9,298.8 164.7,302.4 168.4,308.4 172.6,314.1 
		177.1,319.5 182,324.5 187.2,329.2 192.8,333.5 198.6,337.5 204.7,341 211,344.1 217.5,346.7 224.2,348.9 231,350.6 238,351.8 
		245,352.5 252,352.8 259,352.5 266,351.8 273,350.6 279.8,348.9 286.5,346.7 293,344.1 299.3,341 305.4,337.5 311.2,333.5 
		316.8,329.2 322,324.5 326.9,319.5 331.4,314.1 335.6,308.4 339.3,302.4 333.1,298.8 326.8,295.2 320.6,291.6 314.4,288 
		308.1,284.4 301.9,280.8 295.6,277.2 291.7,283 287,288.2 281.6,292.8 275.7,296.5 269.2,299.4 262.5,301.3 255.5,302.3 
		248.5,302.3 241.5,301.3 234.8,299.4 228.3,296.5 222.4,292.8 217,288.2 212.3,283 	"/>
</g>
<g>
	<defs>
		<rect id="SVGID_00000107577817141937590010000005327422225219329176_" y="0" width="504" height="504"/>
	</defs>
	<clipPath id="SVGID_00000047053598853597784330000015705720414151345059_">
		<use xlink:href="#SVGID_00000107577817141937590010000005327422225219329176_"  style="overflow:visible;"/>
	</clipPath>
	
		<polygon style="clip-path:url(#SVGID_00000047053598853597784330000015705720414151345059_);fill:#FFD600;stroke:#000000;stroke-width:0.17;stroke-miterlimit:10;" points="
		252,201.6 252,194.4 252,187.2 252,180 252,172.8 252,165.6 252,158.4 252,151.2 245,151.4 238,152.2 231,153.4 224.2,155.1 
		217.5,157.3 211,159.9 204.7,163 198.6,166.5 192.8,170.4 187.2,174.8 182,179.5 177.1,184.6 172.6,189.9 168.4,195.6 164.7,201.6 
		161.4,207.8 158.5,214.2 156.1,220.9 154.2,227.6 152.7,234.5 151.8,241.5 151.3,248.5 151.3,255.5 151.8,262.5 152.7,269.5 
		154.2,276.4 156.1,283.1 158.5,289.8 161.4,296.2 164.7,302.4 170.9,298.8 177.2,295.2 183.4,291.6 189.6,288 195.9,284.4 
		202.1,280.8 208.4,277.2 205.3,270.9 203.1,264.2 201.9,257.3 201.6,250.2 202.4,243.2 204.1,236.4 206.7,229.9 210.2,223.8 
		214.6,218.3 219.6,213.4 225.3,209.3 231.5,206 238.1,203.6 245,202.1 	"/>
</g>
<g>
	<defs>
		<rect id="SVGID_00000165930941949091629730000017496474123144067508_" y="0" width="504" height="504"/>
	</defs>
	<clipPath id="SVGID_00000032638952910514000860000006055863953932736160_">
		<use xlink:href="#SVGID_00000165930941949091629730000017496474123144067508_"  style="overflow:visible;"/>
	</clipPath>
	
		<polygon style="clip-path:url(#SVGID_00000032638952910514000860000006055863953932736160_);fill:#FFD600;stroke:#000000;stroke-width:0.17;stroke-miterlimit:10;" points="
		339.3,302.4 345.5,306 351.8,309.6 358,313.2 364.2,316.8 370.5,320.4 376.7,324 382.9,327.6 386.2,321.6 389.3,315.4 392,309.1 
		394.5,302.6 396.6,296.1 398.5,289.5 400,282.8 401.3,276 402.2,269.2 402.9,262.3 403.2,255.4 403.2,248.6 402.9,241.7 
		402.2,234.8 401.3,228 400,221.2 398.5,214.5 396.6,207.9 394.5,201.4 392,194.9 389.3,188.6 386.2,182.4 382.9,176.4 379.4,170.5 
		375.5,164.8 371.4,159.3 367.1,153.9 362.5,148.8 357.7,143.9 352.7,139.2 347.4,134.7 342,130.5 336.4,126.5 330.6,122.8 
		324.6,119.4 318.5,116.2 312.2,113.3 305.9,110.7 299.4,108.4 292.8,106.4 286.1,104.7 279.4,103.3 272.6,102.2 265.8,101.4 
		258.9,101 252,100.8 252,108 252,115.2 252,122.4 252,129.6 252,136.8 252,144 252,151.2 259,151.4 266,152.2 273,153.4 
		279.8,155.1 286.5,157.3 293,159.9 299.3,163 305.4,166.5 311.2,170.4 316.8,174.8 322,179.5 326.9,184.6 331.4,189.9 335.6,195.6 
		339.3,201.6 342.6,207.8 345.5,214.2 347.9,220.9 349.8,227.6 351.3,234.5 352.2,241.5 352.7,248.5 352.7,255.5 352.2,262.5 
		351.3,269.5 349.8,276.4 347.9,283.1 345.5,289.8 342.6,296.2 	"/>
</g>
<g>
	<defs>
		<rect id="SVGID_00000003097414963885421150000014132077534045612703_" y="0" width="504" height="504"/>
	</defs>
	<clipPath id="SVGID_00000165918641519867982120000005367493647662524845_">
		<use xlink:href="#SVGID_00000003097414963885421150000014132077534045612703_"  style="overflow:visible;"/>
	</clipPath>
	
		<polygon style="clip-path:url(#SVGID_00000165918641519867982120000005367493647662524845_);fill:#FFD600;stroke:#000000;stroke-width:0.17;stroke-miterlimit:10;" points="
		164.7,302.4 158.5,306 152.2,309.6 146,313.2 139.8,316.8 133.5,320.4 127.3,324 121.1,327.6 124.6,333.5 128.5,339.2 132.6,344.7 
		136.9,350.1 141.5,355.2 146.3,360.1 151.3,364.8 156.6,369.3 162,373.5 167.6,377.5 173.4,381.2 179.4,384.6 185.5,387.8 
		191.8,390.7 198.1,393.3 204.6,395.6 211.2,397.6 217.9,399.3 224.6,400.7 231.4,401.8 238.2,402.6 245.1,403 252,403.2 258.9,403 
		265.8,402.6 272.6,401.8 279.4,400.7 286.1,399.3 292.8,397.6 299.4,395.6 305.9,393.3 312.2,390.7 318.5,387.8 324.6,384.6 
		330.6,381.2 336.4,377.5 342,373.5 347.4,369.3 352.7,364.8 357.7,360.1 362.5,355.2 367.1,350.1 371.4,344.7 375.5,339.2 
		379.4,333.5 382.9,327.6 376.7,324 370.5,320.4 364.2,316.8 358,313.2 351.8,309.6 345.5,306 339.3,302.4 335.6,308.4 331.4,314.1 
		326.9,319.5 322,324.5 316.8,329.2 311.2,333.5 305.4,337.5 299.3,341 293,344.1 286.5,346.7 279.8,348.9 273,350.6 266,351.8 
		259,352.5 252,352.8 245,352.5 238,351.8 231,350.6 224.2,348.9 217.5,346.7 211,344.1 204.7,341 198.6,337.5 192.8,333.5 
		187.2,329.2 182,324.5 177.1,319.5 172.6,314.1 168.4,308.4 	"/>
</g>
<g>
	<defs>
		<rect id="SVGID_00000183241362018969260130000012957705318875388300_" y="0" width="504" height="504"/>
	</defs>
	<clipPath id="SVGID_00000170248312313218007230000012222177844448915134_">
		<use xlink:href="#SVGID_00000183241362018969260130000012957705318875388300_"  style="overflow:visible;"/>
	</clipPath>
	
		<polygon style="clip-path:url(#SVGID_00000170248312313218007230000012222177844448915134_);fill:#FFD600;stroke:#000000;stroke-width:0.17;stroke-miterlimit:10;" points="
		252,151.2 252,144 252,136.8 252,129.6 252,122.4 252,115.2 252,108 252,100.8 245.1,101 238.2,101.4 231.4,102.2 224.6,103.3 
		217.9,104.7 211.2,106.4 204.6,108.4 198.1,110.7 191.8,113.3 185.5,116.2 179.4,119.4 173.4,122.8 167.6,126.5 162,130.5 
		156.6,134.7 151.3,139.2 146.3,143.9 141.5,148.8 136.9,153.9 132.6,159.3 128.5,164.8 124.6,170.5 121.1,176.4 117.8,182.4 
		114.7,188.6 112,194.9 109.5,201.4 107.4,207.9 105.5,214.5 104,221.2 102.7,228 101.8,234.8 101.2,241.7 100.8,248.6 100.8,255.4 
		101.2,262.3 101.8,269.2 102.7,276 104,282.8 105.5,289.5 107.4,296.1 109.5,302.6 112,309.1 114.7,315.4 117.8,321.6 121.1,327.6 
		127.3,324 133.5,320.4 139.8,316.8 146,313.2 152.2,309.6 158.5,306 164.7,302.4 161.4,296.2 158.5,289.8 156.1,283.1 154.2,276.4 
		152.7,269.5 151.8,262.5 151.3,255.5 151.3,248.5 151.8,241.5 152.7,234.5 154.2,227.6 156.1,220.9 158.5,214.2 161.4,207.8 
		164.7,201.6 168.4,195.6 172.6,189.9 177.1,184.6 182,179.5 187.2,174.8 192.8,170.4 198.6,166.5 204.7,163 211,159.9 217.5,157.3 
		224.2,155.1 231,153.4 238,152.2 245,151.4 	"/>
</g>
<g>
	<defs>
		<rect id="SVGID_00000158030910641443156110000002986144889432792455_" y="0" width="504" height="504"/>
	</defs>
	<clipPath id="SVGID_00000121255114444689325530000007155205515060573850_">
		<use xlink:href="#SVGID_00000158030910641443156110000002986144889432792455_"  style="overflow:visible;"/>
	</clipPath>
	
		<polygon style="clip-path:url(#SVGID_00000121255114444689325530000007155205515060573850_);fill:#FFD600;stroke:#000000;stroke-width:0.17;stroke-miterlimit:10;" points="
		382.9,327.6 389.2,331.2 395.4,334.8 401.6,338.4 407.9,342 414.1,345.6 420.4,349.2 426.6,352.8 430,346.8 433.1,340.6 436,334.3 
		438.8,328 441.2,321.5 443.5,315 445.6,308.3 447.4,301.7 449,294.9 450.3,288.1 451.5,281.3 452.4,274.5 453,267.6 453.4,260.6 
		453.6,253.7 453.5,246.8 453.2,239.9 452.7,233 451.9,226.1 450.9,219.3 449.7,212.5 448.2,205.7 446.5,199 444.6,192.3 
		442.4,185.8 440,179.3 437.4,172.9 434.6,166.5 431.5,160.3 428.3,154.2 424.8,148.2 421.2,142.4 417.3,136.6 413.2,131 409,125.5 
		404.6,120.2 400,115.1 395.2,110.1 390.2,105.2 385.1,100.6 379.8,96.1 374.4,91.8 368.8,87.7 363.1,83.8 357.3,80.1 351.3,76.6 
		345.2,73.2 339,70.2 332.7,67.3 326.3,64.6 319.9,62.2 313.3,60 306.7,58 300,56.2 293.2,54.7 286.4,53.4 279.6,52.3 272.7,51.5 
		265.8,50.9 258.9,50.5 252,50.4 252,57.6 252,64.8 252,72 252,79.2 252,86.4 252,93.6 252,100.8 258.9,101 265.8,101.4 
		272.6,102.2 279.4,103.3 286.1,104.7 292.8,106.4 299.4,108.4 305.9,110.7 312.2,113.3 318.5,116.2 324.6,119.4 330.6,122.8 
		336.4,126.5 342,130.5 347.4,134.7 352.7,139.2 357.7,143.9 362.5,148.8 367.1,153.9 371.4,159.3 375.5,164.8 379.4,170.5 
		382.9,176.4 386.2,182.4 389.3,188.6 392,194.9 394.5,201.4 396.6,207.9 398.5,214.5 400,221.2 401.3,228 402.2,234.8 402.9,241.7 
		403.2,248.6 403.2,255.4 402.9,262.3 402.2,269.2 401.3,276 400,282.8 398.5,289.5 396.6,296.1 394.5,302.6 392,309.1 389.3,315.4 
		386.2,321.6 	"/>
</g>
<g>
	<defs>
		<rect id="SVGID_00000056398584227181813850000012502881532214560910_" y="0" width="504" height="504"/>
	</defs>
	<clipPath id="SVGID_00000145032178994047221750000013098864614713487513_">
		<use xlink:href="#SVGID_00000056398584227181813850000012502881532214560910_"  style="overflow:visible;"/>
	</clipPath>
	
		<polygon style="clip-path:url(#SVGID_00000145032178994047221750000013098864614713487513_);fill:#FFD600;stroke:#000000;stroke-width:0.17;stroke-miterlimit:10;" points="
		121.1,327.6 114.8,331.2 108.6,334.8 102.3,338.4 96.1,342 89.9,345.6 83.6,349.2 77.4,352.8 81,358.7 84.7,364.5 88.7,370.2 
		92.8,375.8 97.2,381.1 101.7,386.4 106.4,391.5 111.3,396.4 116.3,401.1 121.5,405.7 126.9,410.1 132.4,414.3 138,418.3 
		143.8,422.1 149.7,425.7 155.7,429.1 161.9,432.3 168.1,435.3 174.4,438.1 180.9,440.6 187.4,443 194,445.1 200.7,447 207.4,448.6 
		214.2,450 221,451.2 227.8,452.1 234.7,452.9 241.6,453.3 248.5,453.6 255.5,453.6 262.4,453.3 269.3,452.9 276.2,452.1 283,451.2 
		289.8,450 296.6,448.6 303.3,447 310,445.1 316.6,443 323.1,440.6 329.5,438.1 335.9,435.3 342.1,432.3 348.3,429.1 354.3,425.7 
		360.2,422.1 366,418.3 371.6,414.3 377.1,410.1 382.5,405.7 387.7,401.1 392.7,396.4 397.6,391.5 402.3,386.4 406.8,381.1 
		411.1,375.8 415.3,370.2 419.3,364.5 423,358.7 426.6,352.8 420.4,349.2 414.1,345.6 407.9,342 401.6,338.4 395.4,334.8 
		389.2,331.2 382.9,327.6 379.4,333.5 375.5,339.2 371.4,344.7 367.1,350.1 362.5,355.2 357.7,360.1 352.7,364.8 347.4,369.3 
		342,373.5 336.4,377.5 330.6,381.2 324.6,384.6 318.5,387.8 312.2,390.7 305.9,393.3 299.4,395.6 292.8,397.6 286.1,399.3 
		279.4,400.7 272.6,401.8 265.8,402.6 258.9,403 252,403.2 245.1,403 238.2,402.6 231.4,401.8 224.6,400.7 217.9,399.3 211.2,397.6 
		204.6,395.6 198.1,393.3 191.8,390.7 185.5,387.8 179.4,384.6 173.4,381.2 167.6,377.5 162,373.5 156.6,369.3 151.3,364.8 
		146.3,360.1 141.5,355.2 136.9,350.1 132.6,344.7 128.5,339.2 124.6,333.5 	"/>
</g>
<g>
	<defs>
		<rect id="SVGID_00000150097099746283051940000001452029893273998771_" y="0" width="504" height="504"/>
	</defs>
	<clipPath id="SVGID_00000121243113458133421220000010504740238484275364_">
		<use xlink:href="#SVGID_00000150097099746283051940000001452029893273998771_"  style="overflow:visible;"/>
	</clipPath>
	
		<polygon style="clip-path:url(#SVGID_00000121243113458133421220000010504740238484275364_);fill:#FFD600;stroke:#000000;stroke-width:0.17;stroke-miterlimit:10;" points="
		252,100.8 252,93.6 252,86.4 252,79.2 252,72 252,64.8 252,57.6 252,50.4 245.1,50.5 238.2,50.9 231.3,51.5 224.4,52.3 217.6,53.4 
		210.8,54.7 204,56.2 197.3,58 190.7,60 184.1,62.2 177.7,64.6 171.3,67.3 165,70.2 158.8,73.2 152.7,76.6 146.7,80.1 140.9,83.8 
		135.2,87.7 129.6,91.8 124.2,96.1 118.9,100.6 113.8,105.2 108.8,110.1 104.1,115.1 99.4,120.2 95,125.5 90.8,131 86.7,136.6 
		82.8,142.4 79.2,148.2 75.7,154.2 72.4,160.3 69.4,166.5 66.6,172.9 64,179.3 61.6,185.8 59.4,192.3 57.5,199 55.8,205.7 
		54.3,212.5 53.1,219.3 52.1,226.1 51.3,233 50.8,239.9 50.5,246.8 50.4,253.7 50.6,260.6 51,267.6 51.7,274.5 52.5,281.3 
		53.7,288.1 55,294.9 56.6,301.7 58.4,308.3 60.5,315 62.8,321.5 65.2,328 68,334.3 70.9,340.6 74.1,346.8 77.4,352.8 83.6,349.2 
		89.9,345.6 96.1,342 102.3,338.4 108.6,334.8 114.8,331.2 121.1,327.6 117.8,321.6 114.7,315.4 112,309.1 109.5,302.6 107.4,296.1 
		105.5,289.5 104,282.8 102.7,276 101.8,269.2 101.2,262.3 100.8,255.4 100.8,248.6 101.2,241.7 101.8,234.8 102.7,228 104,221.2 
		105.5,214.5 107.4,207.9 109.5,201.4 112,194.9 114.7,188.6 117.8,182.4 121.1,176.4 124.6,170.5 128.5,164.8 132.6,159.3 
		136.9,153.9 141.5,148.8 146.3,143.9 151.3,139.2 156.6,134.7 162,130.5 167.6,126.5 173.4,122.8 179.4,119.4 185.5,116.2 
		191.8,113.3 198.1,110.7 204.6,108.4 211.2,106.4 217.9,104.7 224.6,103.3 231.4,102.2 238.2,101.4 245.1,101 	"/>
</g>
<g>
	<defs>
		<rect id="SVGID_00000067238341301254795720000006000699201041661873_" y="0" width="504" height="504"/>
	</defs>
	<clipPath id="SVGID_00000114779297595335178360000003688768183039167104_">
		<use xlink:href="#SVGID_00000067238341301254795720000006000699201041661873_"  style="overflow:visible;"/>
	</clipPath>
	
		<polygon style="clip-path:url(#SVGID_00000114779297595335178360000003688768183039167104_);fill:#FFFFFF;stroke:#FFFFFF;stroke-width:0.17;stroke-miterlimit:10;" points="
		252,252 258.2,255.6 264.5,259.2 270.7,262.8 276.9,266.4 283.2,270 289.4,273.6 295.6,277.2 298.7,270.9 300.9,264.2 302.1,257.3 
		302.4,250.2 301.6,243.2 299.9,236.4 297.3,229.9 293.8,223.8 289.5,218.3 284.4,213.4 278.7,209.3 272.5,206 265.9,203.6 
		259,202.1 252,201.6 252,208.8 252,216 252,223.2 252,230.4 252,237.6 252,244.8 	"/>
</g>
<g>
	<defs>
		<rect id="SVGID_00000024680286330378853480000002947500595277123998_" y="0" width="504" height="504"/>
	</defs>
	<clipPath id="SVGID_00000100379851538662837610000003682036039929567140_">
		<use xlink:href="#SVGID_00000024680286330378853480000002947500595277123998_"  style="overflow:visible;"/>
	</clipPath>
	
		<polygon style="clip-path:url(#SVGID_00000100379851538662837610000003682036039929567140_);fill:#FFFFFF;stroke:#FFFFFF;stroke-width:0.17;stroke-miterlimit:10;" points="
		252,252 245.8,255.6 239.5,259.2 233.3,262.8 227.1,266.4 220.8,270 214.6,273.6 208.4,277.2 212.3,283 217,288.2 222.4,292.8 
		228.3,296.5 234.8,299.4 241.5,301.3 248.5,302.3 255.5,302.3 262.5,301.3 269.2,299.4 275.7,296.5 281.6,292.8 287,288.2 
		291.7,283 295.6,277.2 289.4,273.6 283.2,270 276.9,266.4 270.7,262.8 264.5,259.2 258.2,255.6 	"/>
</g>
<g>
	<defs>
		<rect id="SVGID_00000160177296441296313950000009128773335582370751_" y="0" width="504" height="504"/>
	</defs>
	<clipPath id="SVGID_00000127044247904936554970000007801790882399770263_">
		<use xlink:href="#SVGID_00000160177296441296313950000009128773335582370751_"  style="overflow:visible;"/>
	</clipPath>
	
		<polygon style="clip-path:url(#SVGID_00000127044247904936554970000007801790882399770263_);fill:#FFFFFF;stroke:#FFFFFF;stroke-width:0.17;stroke-miterlimit:10;" points="
		252,252 252,244.8 252,237.6 252,230.4 252,223.2 252,216 252,208.8 252,201.6 245,202.1 238.1,203.6 231.5,206 225.3,209.3 
		219.6,213.4 214.6,218.3 210.2,223.8 206.7,229.9 204.1,236.4 202.4,243.2 201.6,250.2 201.9,257.3 203.1,264.2 205.3,270.9 
		208.4,277.2 214.6,273.6 220.8,270 227.1,266.4 233.3,262.8 239.5,259.2 245.8,255.6 	"/>
</g>
<g>
	<defs>
		<rect id="SVGID_00000151501926234390650740000006902131282009456038_" y="0" width="504" height="504"/>
	</defs>
	<clipPath id="SVGID_00000024711739430999398880000002131657385240055710_">
		<use xlink:href="#SVGID_00000151501926234390650740000006902131282009456038_"  style="overflow:visible;"/>
	</clipPath>
	<g style="clip-path:url(#SVGID_00000024711739430999398880000002131657385240055710_);enable-background:new    ;">
		<rect x="289.9" y="205" class="st0" width="55.5" height="21.9"/>
		<text transform="matrix(1 0 0 1 289.8887 220.8298)" class="st14 st15 st16">Vitales</text>
	</g>
	<g style="clip-path:url(#SVGID_00000024711739430999398880000002131657385240055710_);enable-background:new    ;">
		<rect x="218" y="314.8" class="st0" width="55.5" height="21.9"/>
		<text transform="matrix(1 0 0 1 217.9794 330.6132)" class="st14 st15 st16">Vitales</text>
	</g>
</g>
<g>
	<defs>
		<rect id="SVGID_00000150084215575082054370000001972385847416767876_" y="0" width="504" height="504"/>
	</defs>
	<clipPath id="SVGID_00000132806466583574076190000009696138608868918954_">
		<use xlink:href="#SVGID_00000150084215575082054370000001972385847416767876_"  style="overflow:visible;"/>
	</clipPath>
</g>
<g>
	<defs>
		<rect id="SVGID_00000078734115998221488460000013782574213111814800_" y="0" width="504" height="504"/>
	</defs>
	<clipPath id="SVGID_00000152963310641411504370000004136731959931802787_">
		<use xlink:href="#SVGID_00000078734115998221488460000013782574213111814800_"  style="overflow:visible;"/>
	</clipPath>
	<g style="clip-path:url(#SVGID_00000152963310641411504370000004136731959931802787_);enable-background:new    ;">
		<rect x="139.6" y="210.1" class="st0" width="55.5" height="21.9"/>
		<text transform="matrix(1 0 0 1 139.5738 225.9127)" class="st14 st15 st16">Vitales</text>
	</g>
</g>
<g>
	<defs>
		<rect id="SVGID_00000041265897489999131840000007601275804386213796_" y="0" width="504" height="504"/>
	</defs>
	<clipPath id="SVGID_00000080170650848768177760000002392519518200092605_">
		<use xlink:href="#SVGID_00000041265897489999131840000007601275804386213796_"  style="overflow:visible;"/>
	</clipPath>
	<g style="clip-path:url(#SVGID_00000080170650848768177760000002392519518200092605_);enable-background:new    ;">
		<rect x="216.2" y="368.8" class="st0" width="71.9" height="21.9"/>
		<text transform="matrix(1 0 0 1 216.189 384.6301)" class="st14 st15 st16">Vitaceae</text>
		<text transform="matrix(1 0 0 1 281.989 384.6301)" class="st14 st15">-</text>
	</g>
</g>
<g>
	<defs>
		<rect id="SVGID_00000134963360827717405900000000972424039638064280_" y="0" width="504" height="504"/>
	</defs>
	<clipPath id="SVGID_00000023246102102112326520000016123101322199347109_">
		<use xlink:href="#SVGID_00000134963360827717405900000000972424039638064280_"  style="overflow:visible;"/>
	</clipPath>
	<g style="clip-path:url(#SVGID_00000023246102102112326520000016123101322199347109_);enable-background:new    ;">
		<rect x="107.1" y="179.8" class="st0" width="71.9" height="21.9"/>
		<text transform="matrix(1 0 0 1 107.0693 195.6301)" class="st14 st15 st16">Vitaceae</text>
		<text transform="matrix(1 0 0 1 172.8693 195.6301)" class="st14 st15">-</text>
	</g>
</g>
<g>
	<defs>
		<rect id="SVGID_00000093856361351927904630000016289719947730041245_" y="0" width="504" height="504"/>
	</defs>
	<clipPath id="SVGID_00000148651305378552466060000005496600677456868282_">
		<use xlink:href="#SVGID_00000093856361351927904630000016289719947730041245_"  style="overflow:visible;"/>
	</clipPath>
	<g style="clip-path:url(#SVGID_00000148651305378552466060000005496600677456868282_);enable-background:new    ;">
		<rect x="81.9" y="154.6" class="st0" width="34.9" height="21.9"/>
		<text transform="matrix(1 0 0 1 81.9316 170.4299)" class="st14 st15 st21">Vitis</text>
	</g>
</g>
<text transform="matrix(1 0 0 1 222.1924 290)" class="st14 st22">3</text>
<g transform="translate(250, 260)">
</g>
</svg>
