<?xml version="1.0" encoding="utf-8"?>
<!-- Generator: Adobe Illustrator 28.1.0, SVG Export Plug-In . SVG Version: 6.00 Build 0)  -->
<svg version="1.1" id="Layer_1" xmlns="http://www.w3.org/2000/svg" xmlns:xlink="http://www.w3.org/1999/xlink" x="0px" y="0px"
	 viewBox="0 0 504 504" style="enable-background:new 0 0 504 504;" xml:space="preserve">
<style type="text/css">
	.st0{fill:none;}
	
		.st1{clip-path:url(#SVGID_00000175280817399918286220000008424774302892971142_);fill:#620057;stroke:#000000;stroke-width:0.17;stroke-miterlimit:10;}
	
		.st2{clip-path:url(#SVGID_00000175280817399918286220000008424774302892971142_);fill:#FFFFFF;stroke:#FFFFFF;stroke-width:0.17;stroke-miterlimit:10;}
	.st3{clip-path:url(#SVGID_00000175280817399918286220000008424774302892971142_);enable-background:new    ;}
	.st4{font-family:'ArialMT';}
	.st5{font-size:18.49px;}
	.st6{font-family:'Arial-BoldMT';}
	.st7{font-size:100px;}
</style>
<rect y="0" class="st0" width="504" height="504"/>
<g>
	<defs>
		<rect id="SVGID_1_" y="0" width="504" height="504"/>
	</defs>
	<clipPath id="SVGID_00000051385723951839150090000017157202240197357503_">
		<use xlink:href="#SVGID_1_"  style="overflow:visible;"/>
	</clipPath>
	
		<polygon style="clip-path:url(#SVGID_00000051385723951839150090000017157202240197357503_);fill:#620057;stroke:#000000;stroke-width:0.17;stroke-miterlimit:10;" points="
		252,201.6 252,194.4 252,187.2 252,180 252,172.8 252,165.6 252,158.4 252,151.2 245.1,151.4 238.3,152.1 231.5,153.3 224.8,154.9 
		218.2,157 211.8,159.6 205.6,162.5 199.6,165.9 193.9,169.6 188.4,173.8 183.2,178.3 178.3,183.2 173.8,188.4 169.6,193.9 
		165.9,199.6 162.5,205.6 159.6,211.8 157,218.2 154.9,224.8 153.3,231.5 152.1,238.3 151.4,245.1 151.2,252 151.4,258.9 
		152.1,265.7 153.3,272.5 154.9,279.2 157,285.8 159.6,292.2 162.5,298.4 165.9,304.4 169.6,310.1 173.8,315.6 178.3,320.8 
		183.2,325.7 188.4,330.2 193.9,334.4 199.6,338.1 205.6,341.5 211.8,344.5 218.2,347 224.8,349.1 231.5,350.7 238.3,351.9 
		245.1,352.6 252,352.8 258.9,352.6 265.7,351.9 272.5,350.7 279.2,349.1 285.8,347 292.2,344.5 298.4,341.5 304.4,338.1 
		310.1,334.4 315.6,330.2 320.8,325.7 325.7,320.8 330.2,315.6 334.4,310.1 338.1,304.4 341.5,298.4 344.5,292.2 347,285.8 
		349.1,279.2 350.7,272.5 351.9,265.7 352.6,258.9 352.8,252 352.6,245.1 351.9,238.3 350.7,231.5 349.1,224.8 347,218.2 
		344.5,211.8 341.5,205.6 338.1,199.6 334.4,193.9 330.2,188.4 325.7,183.2 320.8,178.3 315.6,173.8 310.1,169.6 304.4,165.9 
		298.4,162.5 292.2,159.6 285.8,157 279.2,154.9 272.5,153.3 265.7,152.1 258.9,151.4 252,151.2 252,158.4 252,165.6 252,172.8 
		252,180 252,187.2 252,194.4 252,201.6 258.9,202.1 265.6,203.5 272.1,205.8 278.2,208.9 283.8,212.9 288.8,217.6 293.2,222.9 
		296.8,228.8 299.5,235.1 301.4,241.8 302.3,248.6 302.3,255.4 301.4,262.2 299.5,268.9 296.8,275.2 293.2,281.1 288.8,286.4 
		283.8,291.1 278.2,295.1 272.1,298.2 265.6,300.5 258.9,301.9 252,302.4 245.1,301.9 238.4,300.5 231.9,298.2 225.8,295.1 
		220.2,291.1 215.2,286.4 210.8,281.1 207.2,275.2 204.5,268.9 202.6,262.2 201.7,255.4 201.7,248.6 202.6,241.8 204.5,235.1 
		207.2,228.8 210.8,222.9 215.2,217.6 220.2,212.9 225.8,208.9 231.9,205.8 238.4,203.5 245.1,202.1 	"/>
	
		<polygon style="clip-path:url(#SVGID_00000051385723951839150090000017157202240197357503_);fill:#620057;stroke:#000000;stroke-width:0.17;stroke-miterlimit:10;" points="
		252,151.2 252,144 252,136.8 252,129.6 252,122.4 252,115.2 252,108 252,100.8 245.2,100.9 238.4,101.4 231.6,102.2 224.8,103.3 
		218.1,104.7 211.5,106.3 204.9,108.3 198.5,110.6 192.2,113.1 186,116 179.9,119.1 173.9,122.5 168.2,126.2 162.6,130.1 
		157.2,134.2 151.9,138.6 146.9,143.3 142.1,148.1 137.5,153.2 133.2,158.5 129.1,164 125.2,169.6 121.6,175.4 118.3,181.4 
		115.2,187.5 112.5,193.7 110,200.1 107.8,206.6 105.9,213.1 104.3,219.8 103,226.5 102,233.2 101.3,240.1 100.9,246.9 100.8,253.7 
		101,260.5 101.6,267.4 102.4,274.1 103.6,280.9 105,287.5 106.8,294.1 108.8,300.7 111.2,307.1 113.8,313.4 116.7,319.6 
		119.9,325.6 123.4,331.5 127.1,337.2 131.1,342.8 135.3,348.2 139.8,353.3 144.5,358.3 149.4,363.1 154.5,367.6 159.8,371.9 
		165.4,375.9 171,379.7 176.9,383.2 182.9,386.5 189.1,389.5 195.3,392.2 201.7,394.6 208.2,396.7 214.8,398.5 221.5,400.1 
		228.2,401.3 234.9,402.2 241.8,402.9 248.6,403.2 255.4,403.2 262.2,402.9 269,402.2 275.8,401.3 282.5,400.1 289.2,398.5 
		295.8,396.7 302.3,394.6 308.7,392.2 315,389.5 321.1,386.5 327.1,383.2 333,379.7 338.6,375.9 344.2,371.9 349.5,367.6 
		354.6,363.1 359.5,358.3 364.2,353.3 368.7,348.2 372.9,342.8 376.9,337.2 380.6,331.5 384.1,325.6 387.3,319.6 390.2,313.4 
		392.8,307.1 395.1,300.7 397.2,294.1 399,287.5 400.4,280.9 401.6,274.1 402.4,267.4 403,260.5 403.2,253.7 403.1,246.9 
		402.7,240.1 402,233.2 401,226.5 399.7,219.8 398.1,213.1 396.2,206.6 394,200.1 391.5,193.7 388.8,187.5 385.7,181.4 382.4,175.4 
		378.8,169.6 374.9,164 370.8,158.5 366.5,153.2 361.9,148.1 357.1,143.3 352.1,138.6 346.8,134.2 341.4,130.1 335.8,126.2 
		330,122.5 324.1,119.1 318,116 311.8,113.1 305.5,110.6 299,108.3 292.5,106.3 285.9,104.7 279.2,103.3 272.4,102.2 265.6,101.4 
		258.8,100.9 252,100.8 252,108 252,115.2 252,122.4 252,129.6 252,136.8 252,144 252,151.2 258.9,151.4 265.7,152.1 272.5,153.3 
		279.2,154.9 285.8,157 292.2,159.6 298.4,162.5 304.4,165.9 310.1,169.6 315.6,173.8 320.8,178.3 325.7,183.2 330.2,188.4 
		334.4,193.9 338.1,199.6 341.5,205.6 344.5,211.8 347,218.2 349.1,224.8 350.7,231.5 351.9,238.3 352.6,245.1 352.8,252 
		352.6,258.9 351.9,265.7 350.7,272.5 349.1,279.2 347,285.8 344.5,292.2 341.5,298.4 338.1,304.4 334.4,310.1 330.2,315.6 
		325.7,320.8 320.8,325.7 315.6,330.2 310.1,334.4 304.4,338.1 298.4,341.5 292.2,344.5 285.8,347 279.2,349.1 272.5,350.7 
		265.7,351.9 258.9,352.6 252,352.8 245.1,352.6 238.3,351.9 231.5,350.7 224.8,349.1 218.2,347 211.8,344.5 205.6,341.5 
		199.6,338.1 193.9,334.4 188.4,330.2 183.2,325.7 178.3,320.8 173.8,315.6 169.6,310.1 165.9,304.4 162.5,298.4 159.6,292.2 
		157,285.8 154.9,279.2 153.3,272.5 152.1,265.7 151.4,258.9 151.2,252 151.4,245.1 152.1,238.3 153.3,231.5 154.9,224.8 157,218.2 
		159.6,211.8 162.5,205.6 165.9,199.6 169.6,193.9 173.8,188.4 178.3,183.2 183.2,178.3 188.4,173.8 193.9,169.6 199.6,165.9 
		205.6,162.5 211.8,159.6 218.2,157 224.8,154.9 231.5,153.3 238.3,152.1 245.1,151.4 	"/>
	
		<polygon style="clip-path:url(#SVGID_00000051385723951839150090000017157202240197357503_);fill:#620057;stroke:#000000;stroke-width:0.17;stroke-miterlimit:10;" points="
		252,100.8 252,93.6 252,86.4 252,79.2 252,72 252,64.8 252,57.6 252,50.4 245.1,50.5 238.3,50.9 231.5,51.5 224.7,52.3 217.9,53.3 
		211.2,54.6 204.5,56.1 197.9,57.8 191.3,59.7 184.8,61.9 178.4,64.3 172.1,66.9 165.9,69.7 159.7,72.8 153.7,76 147.8,79.4 
		142,83.1 136.3,86.9 130.8,90.9 125.3,95.2 120.1,99.5 115,104.1 110.1,108.8 105.3,113.8 100.7,118.8 96.2,124 92,129.4 
		87.9,134.9 84,140.5 80.3,146.3 76.8,152.2 73.6,158.2 70.5,164.3 67.6,170.5 64.9,176.8 62.5,183.2 60.3,189.7 58.3,196.2 
		56.5,202.9 54.9,209.5 53.6,216.2 52.5,223 51.6,229.8 51,236.6 50.6,243.4 50.4,250.3 50.5,257.1 50.8,264 51.3,270.8 52,277.6 
		53,284.4 54.2,291.1 55.7,297.8 57.3,304.5 59.2,311 61.3,317.5 63.7,324 66.2,330.3 69,336.6 72,342.8 75.2,348.8 78.6,354.8 
		82.2,360.6 85.9,366.3 89.9,371.9 94.1,377.3 98.4,382.6 102.9,387.7 107.6,392.7 112.5,397.5 117.5,402.2 122.7,406.7 128,411 
		133.5,415.1 139.1,419 144.9,422.8 150.7,426.3 156.7,429.6 162.8,432.8 169,435.7 175.2,438.4 181.6,440.9 188.1,443.2 
		194.6,445.3 201.2,447.1 207.9,448.7 214.6,450.1 221.3,451.2 228.1,452.2 234.9,452.9 241.7,453.3 248.6,453.6 255.4,453.6 
		262.3,453.3 269.1,452.9 275.9,452.2 282.7,451.2 289.4,450.1 296.1,448.7 302.8,447.1 309.4,445.3 315.9,443.2 322.4,440.9 
		328.8,438.4 335,435.7 341.2,432.8 347.3,429.6 353.3,426.3 359.1,422.8 364.9,419 370.5,415.1 376,411 381.3,406.7 386.5,402.2 
		391.5,397.5 396.4,392.7 401,387.7 405.6,382.6 409.9,377.3 414.1,371.9 418.1,366.3 421.9,360.6 425.4,354.8 428.8,348.8 
		432,342.8 435,336.6 437.8,330.3 440.3,324 442.6,317.5 444.8,311 446.7,304.5 448.3,297.8 449.8,291.1 451,284.4 452,277.6 
		452.7,270.8 453.2,264 453.5,257.1 453.6,250.3 453.4,243.4 453,236.6 452.4,229.8 451.5,223 450.4,216.2 449.1,209.5 447.5,202.9 
		445.7,196.2 443.7,189.7 441.5,183.2 439.1,176.8 436.4,170.5 433.5,164.3 430.5,158.2 427.2,152.2 423.7,146.3 420,140.5 
		416.1,134.9 412,129.4 407.8,124 403.3,118.8 398.7,113.8 394,108.8 389,104.1 383.9,99.5 378.6,95.2 373.2,90.9 367.7,86.9 
		362,83.1 356.2,79.4 350.3,76 344.3,72.8 338.1,69.7 331.9,66.9 325.6,64.3 319.2,61.9 312.7,59.7 306.1,57.8 299.5,56.1 
		292.8,54.6 286.1,53.3 279.3,52.3 272.5,51.5 265.7,50.9 258.9,50.5 252,50.4 252,57.6 252,64.8 252,72 252,79.2 252,86.4 
		252,93.6 252,100.8 258.8,100.9 265.6,101.4 272.4,102.2 279.2,103.3 285.9,104.7 292.5,106.3 299,108.3 305.5,110.6 311.8,113.1 
		318,116 324.1,119.1 330,122.5 335.8,126.2 341.4,130.1 346.8,134.2 352.1,138.6 357.1,143.3 361.9,148.1 366.5,153.2 370.8,158.5 
		374.9,164 378.8,169.6 382.4,175.4 385.7,181.4 388.8,187.5 391.5,193.7 394,200.1 396.2,206.6 398.1,213.1 399.7,219.8 401,226.5 
		402,233.2 402.7,240.1 403.1,246.9 403.2,253.7 403,260.5 402.4,267.4 401.6,274.1 400.4,280.9 399,287.5 397.2,294.1 395.1,300.7 
		392.8,307.1 390.2,313.4 387.3,319.6 384.1,325.6 380.6,331.5 376.9,337.2 372.9,342.8 368.7,348.2 364.2,353.3 359.5,358.3 
		354.6,363.1 349.5,367.6 344.2,371.9 338.6,375.9 333,379.7 327.1,383.2 321.1,386.5 315,389.5 308.7,392.2 302.3,394.6 
		295.8,396.7 289.2,398.5 282.5,400.1 275.8,401.3 269,402.2 262.2,402.9 255.4,403.2 248.6,403.2 241.8,402.9 234.9,402.2 
		228.2,401.3 221.5,400.1 214.8,398.5 208.2,396.7 201.7,394.6 195.3,392.2 189.1,389.5 182.9,386.5 176.9,383.2 171,379.7 
		165.4,375.9 159.8,371.9 154.5,367.6 149.4,363.1 144.5,358.3 139.8,353.3 135.3,348.2 131.1,342.8 127.1,337.2 123.4,331.5 
		119.9,325.6 116.7,319.6 113.8,313.4 111.2,307.1 108.8,300.7 106.8,294.1 105,287.5 103.6,280.9 102.4,274.1 101.6,267.4 
		101,260.5 100.8,253.7 100.9,246.9 101.3,240.1 102,233.2 103,226.5 104.3,219.8 105.9,213.1 107.8,206.6 110,200.1 112.5,193.7 
		115.2,187.5 118.3,181.4 121.6,175.4 125.2,169.6 129.1,164 133.2,158.5 137.5,153.2 142.1,148.1 146.9,143.3 151.9,138.6 
		157.2,134.2 162.6,130.1 168.2,126.2 173.9,122.5 179.9,119.1 186,116 192.2,113.1 198.5,110.6 204.9,108.3 211.5,106.3 
		218.1,104.7 224.8,103.3 231.6,102.2 238.4,101.4 245.2,100.9 	"/>
	
		<polygon style="clip-path:url(#SVGID_00000051385723951839150090000017157202240197357503_);fill:#FFFFFF;stroke:#FFFFFF;stroke-width:0.17;stroke-miterlimit:10;" points="
		252,252 252,244.8 252,237.6 252,230.4 252,223.2 252,216 252,208.8 252,201.6 245.1,202.1 238.4,203.5 231.9,205.8 225.8,208.9 
		220.2,212.9 215.2,217.6 210.8,222.9 207.2,228.8 204.5,235.1 202.6,241.8 201.7,248.6 201.7,255.4 202.6,262.2 204.5,268.9 
		207.2,275.2 210.8,281.1 215.2,286.4 220.2,291.1 225.8,295.1 231.9,298.2 238.4,300.5 245.1,301.9 252,302.4 258.9,301.9 
		265.6,300.5 272.1,298.2 278.2,295.1 283.8,291.1 288.8,286.4 293.2,281.1 296.8,275.2 299.5,268.9 301.4,262.2 302.3,255.4 
		302.3,248.6 301.4,241.8 299.5,235.1 296.8,228.8 293.2,222.9 288.8,217.6 283.8,212.9 278.2,208.9 272.1,205.8 265.6,203.5 
		258.9,202.1 252,201.6 252,208.8 252,216 252,223.2 252,230.4 252,237.6 252,244.8 	"/>
	<g style="clip-path:url(#SVGID_00000051385723951839150090000017157202240197357503_);enable-background:new    ;">
		<text transform="matrix(1 0 0 1 213.4626 333.23)" class="st4 st5">Asterales</text>
	</g>
	<g style="clip-path:url(#SVGID_00000051385723951839150090000017157202240197357503_);enable-background:new    ;">
		<text transform="matrix(1 0 0 1 205.2333 384.63)" class="st4 st5">Asteraceae</text>
	</g>
</g>
<text transform="matrix(1 0 0 1 222.1924 290)" class="st6 st7">1</text>
<g transform="translate(250, 260)">
</g>
</svg>
