<?xml version="1.0" encoding="utf-8"?>
<!-- Generator: Adobe Illustrator 28.1.0, SVG Export Plug-In . SVG Version: 6.00 Build 0)  -->
<svg version="1.1" id="Layer_1" xmlns="http://www.w3.org/2000/svg" xmlns:xlink="http://www.w3.org/1999/xlink" x="0px" y="0px"
	 viewBox="0 0 504 504" style="enable-background:new 0 0 504 504;" xml:space="preserve">
<style type="text/css">
	.st0{fill:none;}
	
		.st1{clip-path:url(#SVGID_00000111186407110883414010000015004749121157597325_);fill:#910056;stroke:#000000;stroke-width:0.17;stroke-miterlimit:10;}
	
		.st2{clip-path:url(#SVGID_00000085212851893192901560000008097019201035727250_);fill:#910056;stroke:#000000;stroke-width:0.17;stroke-miterlimit:10;}
	
		.st3{clip-path:url(#SVGID_00000043450217449374442100000015620532744513181067_);fill:#C0004C;stroke:#000000;stroke-width:0.17;stroke-miterlimit:10;}
	
		.st4{clip-path:url(#SVGID_00000076588065795053416550000017211146205061261190_);fill:#C54E00;stroke:#000000;stroke-width:0.17;stroke-miterlimit:10;}
	
		.st5{clip-path:url(#SVGID_00000079449442583391771860000011231763399449411254_);fill:#C54E00;stroke:#000000;stroke-width:0.17;stroke-miterlimit:10;}
	
		.st6{clip-path:url(#SVGID_00000025430172884403666350000001740224558272198814_);fill:#C0004C;stroke:#000000;stroke-width:0.17;stroke-miterlimit:10;}
	
		.st7{clip-path:url(#SVGID_00000106842770531880212280000000431425855744158367_);fill:#FF0000;stroke:#000000;stroke-width:0.17;stroke-miterlimit:10;}
	
		.st8{clip-path:url(#SVGID_00000160907282001251503370000007796818835844959911_);fill:#910056;stroke:#000000;stroke-width:0.17;stroke-miterlimit:10;}
	
		.st9{clip-path:url(#SVGID_00000158026925314759381770000007076541201902440603_);fill:#910056;stroke:#000000;stroke-width:0.17;stroke-miterlimit:10;}
	
		.st10{clip-path:url(#SVGID_00000008119921094353183800000017510533104618015639_);fill:#C0004C;stroke:#000000;stroke-width:0.17;stroke-miterlimit:10;}
	
		.st11{clip-path:url(#SVGID_00000000914699332465124220000017347428021189831309_);fill:#C54E00;stroke:#000000;stroke-width:0.17;stroke-miterlimit:10;}
	
		.st12{clip-path:url(#SVGID_00000181059714705043944550000003913309591705696662_);fill:#C54E00;stroke:#000000;stroke-width:0.17;stroke-miterlimit:10;}
	
		.st13{clip-path:url(#SVGID_00000060029494829144562890000013937425700585697705_);fill:#C0004C;stroke:#000000;stroke-width:0.17;stroke-miterlimit:10;}
	
		.st14{clip-path:url(#SVGID_00000149367163593939365090000016092382798561735596_);fill:#FF0000;stroke:#000000;stroke-width:0.17;stroke-miterlimit:10;}
	
		.st15{clip-path:url(#SVGID_00000011743250341712565370000005312359206594266267_);fill:#910056;stroke:#000000;stroke-width:0.17;stroke-miterlimit:10;}
	
		.st16{clip-path:url(#SVGID_00000144322512540298404420000015471948220532052109_);fill:#910056;stroke:#000000;stroke-width:0.17;stroke-miterlimit:10;}
	
		.st17{clip-path:url(#SVGID_00000129189016541700576570000000012882610569478804_);fill:#C0004C;stroke:#000000;stroke-width:0.17;stroke-miterlimit:10;}
	
		.st18{clip-path:url(#SVGID_00000170247641837064481740000002070052902938023305_);fill:#C54E00;stroke:#000000;stroke-width:0.17;stroke-miterlimit:10;}
	
		.st19{clip-path:url(#SVGID_00000088829311770613863440000016790978269255351431_);fill:#C54E00;stroke:#000000;stroke-width:0.17;stroke-miterlimit:10;}
	
		.st20{clip-path:url(#SVGID_00000170268118759493356680000010385701432314102934_);fill:#C0004C;stroke:#000000;stroke-width:0.17;stroke-miterlimit:10;}
	
		.st21{clip-path:url(#SVGID_00000171679376851503750380000008666135439832521133_);fill:#FF0000;stroke:#000000;stroke-width:0.17;stroke-miterlimit:10;}
	
		.st22{clip-path:url(#SVGID_00000147185761650135088970000008953563468564453048_);fill:#FFFFFF;stroke:#FFFFFF;stroke-width:0.17;stroke-miterlimit:10;}
	
		.st23{clip-path:url(#SVGID_00000108995711263089138130000016565004138741387683_);fill:#FFFFFF;stroke:#FFFFFF;stroke-width:0.17;stroke-miterlimit:10;}
	
		.st24{clip-path:url(#SVGID_00000003799191515416150840000003352178630163270798_);fill:#FFFFFF;stroke:#FFFFFF;stroke-width:0.17;stroke-miterlimit:10;}
	
		.st25{clip-path:url(#SVGID_00000050649317265012436890000010339397157582695595_);fill:#FFFFFF;stroke:#FFFFFF;stroke-width:0.17;stroke-miterlimit:10;}
	
		.st26{clip-path:url(#SVGID_00000147916876098823156680000012351299678811919492_);fill:#FFFFFF;stroke:#FFFFFF;stroke-width:0.17;stroke-miterlimit:10;}
	
		.st27{clip-path:url(#SVGID_00000093134556337106085200000015628229333693783218_);fill:#FFFFFF;stroke:#FFFFFF;stroke-width:0.17;stroke-miterlimit:10;}
	
		.st28{clip-path:url(#SVGID_00000096020240397443519430000010003711096827165631_);fill:#FFFFFF;stroke:#FFFFFF;stroke-width:0.17;stroke-miterlimit:10;}
	.st29{clip-path:url(#SVGID_00000001651406232300519490000012391665725904606650_);enable-background:new    ;}
	.st30{font-family:'ArialMT';}
	.st31{font-size:18.49px;}
	.st32{clip-path:url(#SVGID_00000150063244974704829790000007348861661088818352_);enable-background:new    ;}
	.st33{clip-path:url(#SVGID_00000074402357418151946550000016829831901065140878_);enable-background:new    ;}
	.st34{clip-path:url(#SVGID_00000085234402588814752550000002614834747468622722_);enable-background:new    ;}
	.st35{clip-path:url(#SVGID_00000092435044952548699750000015695135608713247674_);enable-background:new    ;}
	.st36{clip-path:url(#SVGID_00000016043475184618733450000011500833428276440492_);enable-background:new    ;}
	.st37{clip-path:url(#SVGID_00000108301823398866533170000014897742150796159662_);enable-background:new    ;}
	.st38{clip-path:url(#SVGID_00000160163487928409344750000006366926014451568034_);enable-background:new    ;}
	.st39{clip-path:url(#SVGID_00000108273977311728173950000004233278877916079748_);enable-background:new    ;}
	.st40{clip-path:url(#SVGID_00000167382948200637878270000015876673566037587614_);enable-background:new    ;}
	.st41{clip-path:url(#SVGID_00000036971061332907832790000014752953227052125353_);enable-background:new    ;}
	.st42{clip-path:url(#SVGID_00000000198863519519641760000003880703944113812646_);enable-background:new    ;}
	.st43{clip-path:url(#SVGID_00000024717635689765123230000000969846923461441670_);enable-background:new    ;}
	.st44{clip-path:url(#SVGID_00000005262885972063741520000016352767254064719494_);enable-background:new    ;}
	.st45{clip-path:url(#SVGID_00000180331953125930999080000003640616262294501800_);enable-background:new    ;}
	.st46{clip-path:url(#SVGID_00000078031723023466796740000002640540628003287693_);enable-background:new    ;}
	.st47{clip-path:url(#SVGID_00000075868962338423551750000014035476431247745950_);enable-background:new    ;}
	.st48{clip-path:url(#SVGID_00000151541526217410576900000010867652423817435311_);enable-background:new    ;}
	.st49{font-size:100px;}
</style>
<rect y="0" class="st0" width="504" height="504"/>
<g>
	<g>
		<g>
			<defs>
				<rect id="SVGID_1_" y="0" width="504" height="504"/>
			</defs>
			<clipPath id="SVGID_00000005252716378094487330000000437347925870787740_">
				<use xlink:href="#SVGID_1_"  style="overflow:visible;"/>
			</clipPath>
			
				<polygon style="clip-path:url(#SVGID_00000005252716378094487330000000437347925870787740_);fill:#910056;stroke:#000000;stroke-width:0.17;stroke-miterlimit:10;" points="
				291.4,220.6 297,216.1 302.7,211.6 308.3,207.1 313.9,202.6 319.5,198.1 325.2,193.6 330.8,189.1 326.3,183.9 321.4,178.9 
				316.2,174.3 310.7,170 304.9,166.2 298.8,162.8 292.6,159.7 286.1,157.1 279.5,155 272.7,153.4 265.9,152.2 259,151.4 252,151.2 
				252,158.4 252,165.6 252,172.8 252,180 252,187.2 252,194.4 252,201.6 259.5,202.2 266.9,203.8 273.9,206.6 280.4,210.4 
				286.3,215.1 			"/>
		</g>
	</g>
	<g>
		<g>
			<defs>
				<rect id="SVGID_00000080175250997995674500000015365425125532317375_" y="0" width="504" height="504"/>
			</defs>
			<clipPath id="SVGID_00000167390531533028504340000004790118958150704316_">
				<use xlink:href="#SVGID_00000080175250997995674500000015365425125532317375_"  style="overflow:visible;"/>
			</clipPath>
			
				<polygon style="clip-path:url(#SVGID_00000167390531533028504340000004790118958150704316_);fill:#910056;stroke:#000000;stroke-width:0.17;stroke-miterlimit:10;" points="
				301.1,263.2 308.2,264.8 315.2,266.4 322.2,268 329.2,269.6 336.2,271.2 343.2,272.8 350.3,274.4 351.6,267.6 352.4,260.7 
				352.8,253.7 352.7,246.8 352.1,239.9 351,233 349.4,226.2 347.4,219.5 345,213 342,206.7 338.7,200.6 335,194.7 330.8,189.1 
				325.2,193.6 319.5,198.1 313.9,202.6 308.3,207.1 302.7,211.6 297,216.1 291.4,220.6 295.6,226.8 298.9,233.6 301.1,240.8 
				302.3,248.2 302.3,255.8 			"/>
		</g>
	</g>
	<g>
		<g>
			<defs>
				<rect id="SVGID_00000129918705190483174140000004015660532447000213_" y="0" width="504" height="504"/>
			</defs>
			<clipPath id="SVGID_00000119096195010499409710000012901360969731329168_">
				<use xlink:href="#SVGID_00000129918705190483174140000004015660532447000213_"  style="overflow:visible;"/>
			</clipPath>
			
				<polygon style="clip-path:url(#SVGID_00000119096195010499409710000012901360969731329168_);fill:#C0004C;stroke:#000000;stroke-width:0.17;stroke-miterlimit:10;" points="
				273.9,297.4 277,303.9 280.1,310.4 283.2,316.9 286.4,323.4 289.5,329.8 292.6,336.3 295.7,342.8 301.9,339.6 307.8,335.9 
				313.5,331.9 318.8,327.5 323.9,322.7 328.6,317.5 332.9,312.1 336.9,306.4 340.4,300.4 343.6,294.2 346.2,287.7 348.5,281.2 
				350.3,274.4 343.2,272.8 336.2,271.2 329.2,269.6 322.2,268 315.2,266.4 308.2,264.8 301.1,263.2 298.9,270.4 295.6,277.2 
				291.4,283.4 286.3,289 280.4,293.6 			"/>
		</g>
	</g>
	<g>
		<g>
			<defs>
				<rect id="SVGID_00000038371620463199384920000003848461839492913024_" y="0" width="504" height="504"/>
			</defs>
			<clipPath id="SVGID_00000093168018368363232490000011126568082806229677_">
				<use xlink:href="#SVGID_00000038371620463199384920000003848461839492913024_"  style="overflow:visible;"/>
			</clipPath>
			
				<polygon style="clip-path:url(#SVGID_00000093168018368363232490000011126568082806229677_);fill:#C54E00;stroke:#000000;stroke-width:0.17;stroke-miterlimit:10;" points="
				230.1,297.4 227,303.9 223.9,310.4 220.8,316.9 217.6,323.4 214.5,329.8 211.4,336.3 208.3,342.8 214.6,345.6 221.2,348 
				227.9,349.9 234.7,351.3 241.6,352.3 248.5,352.7 255.5,352.7 262.4,352.3 269.3,351.3 276.1,349.9 282.8,348 289.4,345.6 
				295.7,342.8 292.6,336.3 289.5,329.8 286.4,323.4 283.2,316.9 280.1,310.4 277,303.9 273.9,297.4 266.9,300.2 259.5,301.8 
				252,302.4 244.5,301.8 237.1,300.2 			"/>
		</g>
	</g>
	<g>
		<g>
			<defs>
				<rect id="SVGID_00000103951613438003939610000004129187112763914638_" y="0" width="504" height="504"/>
			</defs>
			<clipPath id="SVGID_00000021089942003595586540000010517297015239304593_">
				<use xlink:href="#SVGID_00000103951613438003939610000004129187112763914638_"  style="overflow:visible;"/>
			</clipPath>
			
				<polygon style="clip-path:url(#SVGID_00000021089942003595586540000010517297015239304593_);fill:#C54E00;stroke:#000000;stroke-width:0.17;stroke-miterlimit:10;" points="
				202.9,263.2 195.8,264.8 188.8,266.4 181.8,268 174.8,269.6 167.8,271.2 160.8,272.8 153.7,274.4 155.5,281.2 157.8,287.7 
				160.4,294.2 163.6,300.4 167.1,306.4 171.1,312.1 175.4,317.5 180.1,322.7 185.2,327.5 190.5,331.9 196.2,335.9 202.1,339.6 
				208.3,342.8 211.4,336.3 214.5,329.8 217.6,323.4 220.8,316.9 223.9,310.4 227,303.9 230.1,297.4 223.6,293.6 217.7,289 
				212.6,283.4 208.4,277.2 205.1,270.4 			"/>
		</g>
	</g>
	<g>
		<g>
			<defs>
				<rect id="SVGID_00000166649890165908327870000015092796363110753962_" y="0" width="504" height="504"/>
			</defs>
			<clipPath id="SVGID_00000008837622816333280950000007110778906840947347_">
				<use xlink:href="#SVGID_00000166649890165908327870000015092796363110753962_"  style="overflow:visible;"/>
			</clipPath>
			
				<polygon style="clip-path:url(#SVGID_00000008837622816333280950000007110778906840947347_);fill:#C0004C;stroke:#000000;stroke-width:0.17;stroke-miterlimit:10;" points="
				212.6,220.6 207,216.1 201.3,211.6 195.7,207.1 190.1,202.6 184.4,198.1 178.8,193.6 173.2,189.1 169,194.7 165.3,200.6 
				161.9,206.7 159,213 156.6,219.5 154.6,226.2 153,233 151.9,239.9 151.3,246.8 151.2,253.7 151.6,260.7 152.4,267.6 153.7,274.4 
				160.8,272.8 167.8,271.2 174.8,269.6 181.8,268 188.8,266.4 195.8,264.8 202.9,263.2 201.7,255.8 201.7,248.2 202.9,240.8 
				205.1,233.6 208.4,226.8 			"/>
		</g>
	</g>
	<g>
		<g>
			<defs>
				<rect id="SVGID_00000107577549015462482280000008800520128789631663_" y="0" width="504" height="504"/>
			</defs>
			<clipPath id="SVGID_00000127754647159170588970000009420377098235744939_">
				<use xlink:href="#SVGID_00000107577549015462482280000008800520128789631663_"  style="overflow:visible;"/>
			</clipPath>
			
				<polygon style="clip-path:url(#SVGID_00000127754647159170588970000009420377098235744939_);fill:#FF0000;stroke:#000000;stroke-width:0.17;stroke-miterlimit:10;" points="
				252,201.6 252,194.4 252,187.2 252,180 252,172.8 252,165.6 252,158.4 252,151.2 245.1,151.4 238.1,152.2 231.3,153.4 224.5,155 
				217.9,157.1 211.4,159.7 205.2,162.8 199.1,166.2 193.3,170 187.8,174.3 182.6,178.9 177.7,183.9 173.2,189.1 178.8,193.6 
				184.4,198.1 190.1,202.6 195.7,207.1 201.3,211.6 207,216.1 212.6,220.6 217.7,215.1 223.6,210.4 230.1,206.6 237.1,203.8 
				244.5,202.2 			"/>
		</g>
	</g>
	<g>
		<g>
			<defs>
				<rect id="SVGID_00000150822115199040921460000012900610026703305407_" y="0" width="504" height="504"/>
			</defs>
			<clipPath id="SVGID_00000023986210736818910010000017245323520103138699_">
				<use xlink:href="#SVGID_00000150822115199040921460000012900610026703305407_"  style="overflow:visible;"/>
			</clipPath>
			
				<polygon style="clip-path:url(#SVGID_00000023986210736818910010000017245323520103138699_);fill:#910056;stroke:#000000;stroke-width:0.17;stroke-miterlimit:10;" points="
				330.8,189.1 336.4,184.7 342.1,180.2 347.7,175.7 353.3,171.2 359,166.7 364.6,162.2 370.2,157.7 365.6,152.2 360.8,147 
				355.7,142 350.4,137.2 344.9,132.7 339.1,128.4 333.2,124.4 327.1,120.8 320.8,117.4 314.4,114.3 307.8,111.5 301.1,109 
				294.3,106.8 287.4,105 280.4,103.5 273.4,102.3 266.3,101.5 259.1,101 252,100.8 252,108 252,115.2 252,122.4 252,129.6 
				252,136.8 252,144 252,151.2 259,151.4 265.9,152.2 272.7,153.4 279.5,155 286.1,157.1 292.6,159.7 298.8,162.8 304.9,166.2 
				310.7,170 316.2,174.3 321.4,178.9 326.3,183.9 			"/>
		</g>
	</g>
	<g>
		<g>
			<defs>
				<rect id="SVGID_00000101095032377952596950000011596088766790955143_" y="0" width="504" height="504"/>
			</defs>
			<clipPath id="SVGID_00000180328039026914893750000012140027981741497745_">
				<use xlink:href="#SVGID_00000101095032377952596950000011596088766790955143_"  style="overflow:visible;"/>
			</clipPath>
			
				<polygon style="clip-path:url(#SVGID_00000180328039026914893750000012140027981741497745_);fill:#910056;stroke:#000000;stroke-width:0.17;stroke-miterlimit:10;" points="
				350.3,274.4 357.3,276 364.3,277.6 371.3,279.2 378.4,280.8 385.4,282.4 392.4,284 399.4,285.6 400.8,278.6 401.9,271.6 
				402.7,264.5 403.1,257.4 403.2,250.2 402.9,243.1 402.4,236 401.4,228.9 400.2,221.9 398.6,214.9 396.7,208 394.4,201.2 
				391.9,194.6 389,188 385.8,181.6 382.3,175.4 378.6,169.3 374.5,163.4 370.2,157.7 364.6,162.2 359,166.7 353.3,171.2 
				347.7,175.7 342.1,180.2 336.4,184.7 330.8,189.1 335,194.7 338.7,200.6 342,206.7 345,213 347.4,219.5 349.4,226.2 351,233 
				352.1,239.9 352.7,246.8 352.8,253.7 352.4,260.7 351.6,267.6 			"/>
		</g>
	</g>
	<g>
		<g>
			<defs>
				<rect id="SVGID_00000125592917382079906240000012894810956673548209_" y="0" width="504" height="504"/>
			</defs>
			<clipPath id="SVGID_00000138575223862094452590000003670310589987214977_">
				<use xlink:href="#SVGID_00000125592917382079906240000012894810956673548209_"  style="overflow:visible;"/>
			</clipPath>
			
				<polygon style="clip-path:url(#SVGID_00000138575223862094452590000003670310589987214977_);fill:#C0004C;stroke:#000000;stroke-width:0.17;stroke-miterlimit:10;" points="
				295.7,342.8 298.9,349.3 302,355.8 305.1,362.3 308.2,368.8 311.4,375.2 314.5,381.7 317.6,388.2 324,385 330.2,381.4 
				336.2,377.6 342,373.5 347.7,369.1 353.1,364.4 358.3,359.5 363.2,354.4 368,349 372.4,343.5 376.6,337.7 380.5,331.7 
				384.1,325.5 387.4,319.2 390.5,312.7 393.2,306.1 395.6,299.4 397.7,292.6 399.4,285.6 392.4,284 385.4,282.4 378.4,280.8 
				371.3,279.2 364.3,277.6 357.3,276 350.3,274.4 348.5,281.2 346.2,287.7 343.6,294.2 340.4,300.4 336.9,306.4 332.9,312.1 
				328.6,317.5 323.9,322.7 318.8,327.5 313.5,331.9 307.8,335.9 301.9,339.6 			"/>
		</g>
	</g>
	<g>
		<g>
			<defs>
				<rect id="SVGID_00000075144812150347112490000004551618566006569899_" y="0" width="504" height="504"/>
			</defs>
			<clipPath id="SVGID_00000051358928621146214100000005937653781665530555_">
				<use xlink:href="#SVGID_00000075144812150347112490000004551618566006569899_"  style="overflow:visible;"/>
			</clipPath>
			
				<polygon style="clip-path:url(#SVGID_00000051358928621146214100000005937653781665530555_);fill:#C54E00;stroke:#000000;stroke-width:0.17;stroke-miterlimit:10;" points="
				208.3,342.8 205.1,349.3 202,355.8 198.9,362.3 195.8,368.8 192.6,375.2 189.5,381.7 186.4,388.2 192.9,391.2 199.5,393.8 
				206.3,396.1 213.1,398.1 220.1,399.8 227.1,401.1 234.2,402.1 241.3,402.8 248.4,403.2 255.6,403.2 262.7,402.8 269.8,402.1 
				276.9,401.1 283.9,399.8 290.9,398.1 297.7,396.1 304.5,393.8 311.1,391.2 317.6,388.2 314.5,381.7 311.4,375.2 308.2,368.8 
				305.1,362.3 302,355.8 298.9,349.3 295.7,342.8 289.4,345.6 282.8,348 276.1,349.9 269.3,351.3 262.4,352.3 255.5,352.7 
				248.5,352.7 241.6,352.3 234.7,351.3 227.9,349.9 221.2,348 214.6,345.6 			"/>
		</g>
	</g>
	<g>
		<g>
			<defs>
				<rect id="SVGID_00000054965063797214726160000008497391560933081740_" y="0" width="504" height="504"/>
			</defs>
			<clipPath id="SVGID_00000143580383296725570660000013441788997010442634_">
				<use xlink:href="#SVGID_00000054965063797214726160000008497391560933081740_"  style="overflow:visible;"/>
			</clipPath>
			
				<polygon style="clip-path:url(#SVGID_00000143580383296725570660000013441788997010442634_);fill:#C54E00;stroke:#000000;stroke-width:0.17;stroke-miterlimit:10;" points="
				153.7,274.4 146.7,276 139.7,277.6 132.7,279.2 125.7,280.8 118.6,282.4 111.6,284 104.6,285.6 106.3,292.6 108.4,299.4 
				110.8,306.1 113.5,312.7 116.6,319.2 119.9,325.5 123.5,331.7 127.4,337.7 131.6,343.5 136.1,349 140.8,354.4 145.7,359.5 
				150.9,364.4 156.3,369.1 162,373.5 167.8,377.6 173.8,381.4 180,385 186.4,388.2 189.5,381.7 192.6,375.2 195.8,368.8 
				198.9,362.3 202,355.8 205.1,349.3 208.3,342.8 202.1,339.6 196.2,335.9 190.5,331.9 185.2,327.5 180.1,322.7 175.4,317.5 
				171.1,312.1 167.1,306.4 163.6,300.4 160.4,294.2 157.8,287.7 155.5,281.2 			"/>
		</g>
	</g>
	<g>
		<g>
			<defs>
				<rect id="SVGID_00000110472355935283515830000014436180639174482325_" y="0" width="504" height="504"/>
			</defs>
			<clipPath id="SVGID_00000146479147095856322510000009725377169423996039_">
				<use xlink:href="#SVGID_00000110472355935283515830000014436180639174482325_"  style="overflow:visible;"/>
			</clipPath>
			
				<polygon style="clip-path:url(#SVGID_00000146479147095856322510000009725377169423996039_);fill:#C0004C;stroke:#000000;stroke-width:0.17;stroke-miterlimit:10;" points="
				173.2,189.1 167.6,184.7 161.9,180.2 156.3,175.7 150.7,171.2 145.1,166.7 139.4,162.2 133.8,157.7 129.5,163.4 125.4,169.3 
				121.7,175.4 118.2,181.6 115,188 112.1,194.6 109.6,201.2 107.3,208 105.4,214.9 103.8,221.9 102.6,228.9 101.7,236 101.1,243.1 
				100.8,250.2 100.9,257.4 101.3,264.5 102.1,271.6 103.2,278.6 104.6,285.6 111.6,284 118.6,282.4 125.7,280.8 132.7,279.2 
				139.7,277.6 146.7,276 153.7,274.4 152.4,267.6 151.6,260.7 151.2,253.7 151.3,246.8 151.9,239.9 153,233 154.6,226.2 
				156.6,219.5 159,213 161.9,206.7 165.3,200.6 169,194.7 			"/>
		</g>
	</g>
	<g>
		<g>
			<defs>
				<rect id="SVGID_00000167372881960609981540000002276742976921583547_" y="0" width="504" height="504"/>
			</defs>
			<clipPath id="SVGID_00000034085312482233199520000003072680936225825955_">
				<use xlink:href="#SVGID_00000167372881960609981540000002276742976921583547_"  style="overflow:visible;"/>
			</clipPath>
			
				<polygon style="clip-path:url(#SVGID_00000034085312482233199520000003072680936225825955_);fill:#FF0000;stroke:#000000;stroke-width:0.17;stroke-miterlimit:10;" points="
				252,151.2 252,144 252,136.8 252,129.6 252,122.4 252,115.2 252,108 252,100.8 244.9,101 237.7,101.5 230.6,102.3 223.6,103.5 
				216.6,105 209.7,106.8 202.9,109 196.2,111.5 189.6,114.3 183.2,117.4 176.9,120.8 170.8,124.4 164.9,128.4 159.1,132.7 
				153.6,137.2 148.3,142 143.2,147 138.4,152.2 133.8,157.7 139.4,162.2 145.1,166.7 150.7,171.2 156.3,175.7 161.9,180.2 
				167.6,184.7 173.2,189.1 177.7,183.9 182.6,178.9 187.8,174.3 193.3,170 199.1,166.2 205.2,162.8 211.4,159.7 217.9,157.1 
				224.5,155 231.3,153.4 238.1,152.2 245.1,151.4 			"/>
		</g>
	</g>
	<g>
		<g>
			<defs>
				<rect id="SVGID_00000143600504629140521260000015585857885747317408_" y="0" width="504" height="504"/>
			</defs>
			<clipPath id="SVGID_00000111870186104401935090000004743065539444817545_">
				<use xlink:href="#SVGID_00000143600504629140521260000015585857885747317408_"  style="overflow:visible;"/>
			</clipPath>
			
				<polygon style="clip-path:url(#SVGID_00000111870186104401935090000004743065539444817545_);fill:#910056;stroke:#000000;stroke-width:0.17;stroke-miterlimit:10;" points="
				370.2,157.7 375.8,153.2 381.5,148.8 387.1,144.3 392.7,139.8 398.4,135.3 404,130.8 409.6,126.3 405.2,120.9 400.6,115.7 
				395.8,110.7 390.8,105.8 385.7,101.1 380.4,96.6 375,92.2 369.4,88.1 363.6,84.1 357.8,80.4 351.8,76.8 345.7,73.5 339.5,70.4 
				333.1,67.4 326.7,64.8 320.2,62.3 313.6,60 307,58 300.2,56.3 293.5,54.7 286.6,53.4 279.8,52.3 272.8,51.5 265.9,50.9 259,50.5 
				252,50.4 252,57.6 252,64.8 252,72 252,79.2 252,86.4 252,93.6 252,100.8 259.1,101 266.3,101.5 273.4,102.3 280.4,103.5 
				287.4,105 294.3,106.8 301.1,109 307.8,111.5 314.4,114.3 320.8,117.4 327.1,120.8 333.2,124.4 339.1,128.4 344.9,132.7 
				350.4,137.2 355.7,142 360.8,147 365.6,152.2 			"/>
		</g>
	</g>
	<g>
		<g>
			<defs>
				<rect id="SVGID_00000141452984592685130840000003031204990597871521_" y="0" width="504" height="504"/>
			</defs>
			<clipPath id="SVGID_00000050657858521982359050000007225015497283126717_">
				<use xlink:href="#SVGID_00000141452984592685130840000003031204990597871521_"  style="overflow:visible;"/>
			</clipPath>
			
				<polygon style="clip-path:url(#SVGID_00000050657858521982359050000007225015497283126717_);fill:#910056;stroke:#000000;stroke-width:0.17;stroke-miterlimit:10;" points="
				399.4,285.6 406.4,287.2 413.5,288.9 420.5,290.5 427.5,292 434.5,293.7 441.5,295.3 448.5,296.9 450,290 451.2,283.2 
				452.1,276.3 452.9,269.4 453.3,262.4 453.6,255.5 453.6,248.5 453.3,241.6 452.9,234.6 452.1,227.7 451.2,220.8 450,213.9 
				448.5,207.1 446.9,200.4 445,193.7 442.9,187.1 440.5,180.5 437.9,174.1 435.1,167.7 432.1,161.4 428.9,155.2 425.4,149.2 
				421.8,143.3 417.9,137.5 413.9,131.8 409.6,126.3 404,130.8 398.4,135.3 392.7,139.8 387.1,144.3 381.5,148.8 375.8,153.2 
				370.2,157.7 374.5,163.4 378.6,169.3 382.3,175.4 385.8,181.6 389,188 391.9,194.6 394.4,201.2 396.7,208 398.6,214.9 
				400.2,221.9 401.4,228.9 402.4,236 402.9,243.1 403.2,250.2 403.1,257.4 402.7,264.5 401.9,271.6 400.8,278.6 			"/>
		</g>
	</g>
	<g>
		<g>
			<defs>
				<rect id="SVGID_00000182529347756124969370000014659499138781921951_" y="0" width="504" height="504"/>
			</defs>
			<clipPath id="SVGID_00000101821180787656643760000009555435242546834092_">
				<use xlink:href="#SVGID_00000182529347756124969370000014659499138781921951_"  style="overflow:visible;"/>
			</clipPath>
			
				<polygon style="clip-path:url(#SVGID_00000101821180787656643760000009555435242546834092_);fill:#C0004C;stroke:#000000;stroke-width:0.17;stroke-miterlimit:10;" points="
				317.6,388.2 320.7,394.7 323.9,401.2 327,407.7 330.1,414.2 333.2,420.7 336.4,427.1 339.5,433.6 345.7,430.5 351.8,427.2 
				357.8,423.6 363.6,419.9 369.4,415.9 375,411.8 380.4,407.4 385.7,402.9 390.8,398.2 395.8,393.3 400.6,388.3 405.2,383.1 
				409.6,377.7 413.9,372.2 417.9,366.5 421.8,360.7 425.4,354.8 428.9,348.8 432.1,342.6 435.1,336.3 437.9,330 440.5,323.5 
				442.9,316.9 445,310.3 446.9,303.6 448.5,296.9 441.5,295.3 434.5,293.7 427.5,292 420.5,290.5 413.5,288.9 406.4,287.2 
				399.4,285.6 397.7,292.6 395.6,299.4 393.2,306.1 390.5,312.7 387.4,319.2 384.1,325.5 380.5,331.7 376.6,337.7 372.4,343.5 
				368,349 363.2,354.4 358.3,359.5 353.1,364.4 347.7,369.1 342,373.5 336.2,377.6 330.2,381.4 324,385 			"/>
		</g>
	</g>
	<g>
		<g>
			<defs>
				<rect id="SVGID_00000050641437634010560190000000633413192723802010_" y="0" width="504" height="504"/>
			</defs>
			<clipPath id="SVGID_00000097495742222592533970000009621454461183612607_">
				<use xlink:href="#SVGID_00000050641437634010560190000000633413192723802010_"  style="overflow:visible;"/>
			</clipPath>
			
				<polygon style="clip-path:url(#SVGID_00000097495742222592533970000009621454461183612607_);fill:#C54E00;stroke:#000000;stroke-width:0.17;stroke-miterlimit:10;" points="
				186.4,388.2 183.3,394.7 180.1,401.2 177,407.7 173.9,414.2 170.8,420.7 167.6,427.1 164.5,433.6 170.9,436.5 177.3,439.2 
				183.8,441.7 190.4,444 197,446 203.8,447.7 210.5,449.3 217.4,450.6 224.2,451.7 231.2,452.5 238.1,453.1 245,453.5 252,453.6 
				259,453.5 265.9,453.1 272.8,452.5 279.8,451.7 286.6,450.6 293.5,449.3 300.2,447.7 307,446 313.6,444 320.2,441.7 326.7,439.2 
				333.1,436.5 339.5,433.6 336.4,427.1 333.2,420.7 330.1,414.2 327,407.7 323.9,401.2 320.7,394.7 317.6,388.2 311.1,391.2 
				304.5,393.8 297.7,396.1 290.9,398.1 283.9,399.8 276.9,401.1 269.8,402.1 262.7,402.8 255.6,403.2 248.4,403.2 241.3,402.8 
				234.2,402.1 227.1,401.1 220.1,399.8 213.1,398.1 206.3,396.1 199.5,393.8 192.9,391.2 			"/>
		</g>
	</g>
	<g>
		<g>
			<defs>
				<rect id="SVGID_00000117647755477060493240000004708083948223567038_" y="0" width="504" height="504"/>
			</defs>
			<clipPath id="SVGID_00000166637066311838902550000002563977381321473468_">
				<use xlink:href="#SVGID_00000117647755477060493240000004708083948223567038_"  style="overflow:visible;"/>
			</clipPath>
			
				<polygon style="clip-path:url(#SVGID_00000166637066311838902550000002563977381321473468_);fill:#C54E00;stroke:#000000;stroke-width:0.17;stroke-miterlimit:10;" points="
				104.6,285.6 97.6,287.2 90.6,288.9 83.5,290.5 76.5,292 69.5,293.7 62.5,295.3 55.5,296.9 57.1,303.6 59,310.3 61.2,316.9 
				63.5,323.5 66.1,330 68.9,336.3 71.9,342.6 75.1,348.8 78.6,354.8 82.2,360.7 86.1,366.5 90.1,372.2 94.4,377.7 98.8,383.1 
				103.4,388.3 108.2,393.3 113.2,398.2 118.3,402.9 123.6,407.4 129,411.8 134.6,415.9 140.4,419.9 146.2,423.6 152.2,427.2 
				158.3,430.5 164.5,433.6 167.6,427.1 170.8,420.7 173.9,414.2 177,407.7 180.1,401.2 183.3,394.7 186.4,388.2 180,385 
				173.8,381.4 167.8,377.6 162,373.5 156.3,369.1 150.9,364.4 145.7,359.5 140.8,354.4 136.1,349 131.6,343.5 127.4,337.7 
				123.5,331.7 119.9,325.5 116.6,319.2 113.5,312.7 110.8,306.1 108.4,299.4 106.3,292.6 			"/>
		</g>
	</g>
	<g>
		<g>
			<defs>
				<rect id="SVGID_00000080200125374518424070000003840175202658797722_" y="0" width="504" height="504"/>
			</defs>
			<clipPath id="SVGID_00000037675461408896154210000003918519401133339069_">
				<use xlink:href="#SVGID_00000080200125374518424070000003840175202658797722_"  style="overflow:visible;"/>
			</clipPath>
			
				<polygon style="clip-path:url(#SVGID_00000037675461408896154210000003918519401133339069_);fill:#C0004C;stroke:#000000;stroke-width:0.17;stroke-miterlimit:10;" points="
				133.8,157.7 128.2,153.2 122.5,148.8 116.9,144.3 111.3,139.8 105.6,135.3 100,130.8 94.4,126.3 90.1,131.8 86.1,137.5 
				82.2,143.3 78.6,149.2 75.1,155.2 71.9,161.4 68.9,167.7 66.1,174.1 63.5,180.5 61.2,187.1 59,193.7 57.1,200.4 55.5,207.1 
				54,213.9 52.8,220.8 51.9,227.7 51.2,234.6 50.7,241.6 50.4,248.5 50.4,255.5 50.7,262.4 51.2,269.4 51.9,276.3 52.8,283.2 
				54,290 55.5,296.9 62.5,295.3 69.5,293.7 76.5,292 83.5,290.5 90.6,288.9 97.6,287.2 104.6,285.6 103.2,278.6 102.1,271.6 
				101.3,264.5 100.9,257.4 100.8,250.2 101.1,243.1 101.7,236 102.6,228.9 103.8,221.9 105.4,214.9 107.3,208 109.6,201.2 
				112.1,194.6 115,188 118.2,181.6 121.7,175.4 125.4,169.3 129.5,163.4 			"/>
		</g>
	</g>
	<g>
		<g>
			<defs>
				<rect id="SVGID_00000072992119528464333700000009046859741997864881_" y="0" width="504" height="504"/>
			</defs>
			<clipPath id="SVGID_00000081613924568718636380000008828114472914254766_">
				<use xlink:href="#SVGID_00000072992119528464333700000009046859741997864881_"  style="overflow:visible;"/>
			</clipPath>
			
				<polygon style="clip-path:url(#SVGID_00000081613924568718636380000008828114472914254766_);fill:#FF0000;stroke:#000000;stroke-width:0.17;stroke-miterlimit:10;" points="
				252,100.8 252,93.6 252,86.4 252,79.2 252,72 252,64.8 252,57.6 252,50.4 245,50.5 238.1,50.9 231.2,51.5 224.2,52.3 217.4,53.4 
				210.5,54.7 203.8,56.3 197,58 190.4,60 183.8,62.3 177.3,64.8 170.9,67.4 164.5,70.4 158.3,73.5 152.2,76.8 146.2,80.4 
				140.4,84.1 134.6,88.1 129,92.2 123.6,96.6 118.3,101.1 113.2,105.8 108.2,110.7 103.4,115.7 98.8,120.9 94.4,126.3 100,130.8 
				105.6,135.3 111.3,139.8 116.9,144.3 122.5,148.8 128.2,153.2 133.8,157.7 138.4,152.2 143.2,147 148.3,142 153.6,137.2 
				159.1,132.7 164.9,128.4 170.8,124.4 176.9,120.8 183.2,117.4 189.6,114.3 196.2,111.5 202.9,109 209.7,106.8 216.6,105 
				223.6,103.5 230.6,102.3 237.7,101.5 244.9,101 			"/>
		</g>
	</g>
	<g>
		<g>
			<defs>
				<rect id="SVGID_00000033351718887747930640000001828828406632850323_" y="0" width="504" height="504"/>
			</defs>
			<clipPath id="SVGID_00000121966439765853893370000006645228864190663298_">
				<use xlink:href="#SVGID_00000033351718887747930640000001828828406632850323_"  style="overflow:visible;"/>
			</clipPath>
			
				<polygon style="clip-path:url(#SVGID_00000121966439765853893370000006645228864190663298_);fill:#FFFFFF;stroke:#FFFFFF;stroke-width:0.17;stroke-miterlimit:10;" points="
				252,252 257.6,247.5 263.3,243 268.9,238.5 274.5,234 280.1,229.6 285.8,225.1 291.4,220.6 286.3,215.1 280.4,210.4 273.9,206.6 
				266.9,203.8 259.5,202.2 252,201.6 252,208.8 252,216 252,223.2 252,230.4 252,237.6 252,244.8 			"/>
		</g>
	</g>
	<g>
		<g>
			<defs>
				<rect id="SVGID_00000036209337463803611110000003413561397968066970_" y="0" width="504" height="504"/>
			</defs>
			<clipPath id="SVGID_00000079482214747263693600000017685668776399932295_">
				<use xlink:href="#SVGID_00000036209337463803611110000003413561397968066970_"  style="overflow:visible;"/>
			</clipPath>
			
				<polygon style="clip-path:url(#SVGID_00000079482214747263693600000017685668776399932295_);fill:#FFFFFF;stroke:#FFFFFF;stroke-width:0.17;stroke-miterlimit:10;" points="
				252,252 259,253.6 266,255.2 273.1,256.8 280.1,258.4 287.1,260 294.1,261.6 301.1,263.2 302.3,255.8 302.3,248.2 301.1,240.8 
				298.9,233.6 295.6,226.8 291.4,220.6 285.8,225.1 280.1,229.6 274.5,234 268.9,238.5 263.3,243 257.6,247.5 			"/>
		</g>
	</g>
	<g>
		<g>
			<defs>
				<rect id="SVGID_00000142868324036331208960000004604104827331416715_" y="0" width="504" height="504"/>
			</defs>
			<clipPath id="SVGID_00000010278072495871654240000016024781524363376552_">
				<use xlink:href="#SVGID_00000142868324036331208960000004604104827331416715_"  style="overflow:visible;"/>
			</clipPath>
			
				<polygon style="clip-path:url(#SVGID_00000010278072495871654240000016024781524363376552_);fill:#FFFFFF;stroke:#FFFFFF;stroke-width:0.17;stroke-miterlimit:10;" points="
				252,252 255.1,258.5 258.2,265 261.4,271.5 264.5,278 267.6,284.4 270.7,290.9 273.9,297.4 280.4,293.6 286.3,289 291.4,283.4 
				295.6,277.2 298.9,270.4 301.1,263.2 294.1,261.6 287.1,260 280.1,258.4 273.1,256.8 266,255.2 259,253.6 			"/>
		</g>
	</g>
	<g>
		<g>
			<defs>
				<rect id="SVGID_00000061473677486067448740000012409691968552274844_" y="0" width="504" height="504"/>
			</defs>
			<clipPath id="SVGID_00000071538613362764395360000009733838091699612572_">
				<use xlink:href="#SVGID_00000061473677486067448740000012409691968552274844_"  style="overflow:visible;"/>
			</clipPath>
			
				<polygon style="clip-path:url(#SVGID_00000071538613362764395360000009733838091699612572_);fill:#FFFFFF;stroke:#FFFFFF;stroke-width:0.17;stroke-miterlimit:10;" points="
				252,252 248.9,258.5 245.8,265 242.6,271.5 239.5,278 236.4,284.4 233.3,290.9 230.1,297.4 237.1,300.2 244.5,301.8 252,302.4 
				259.5,301.8 266.9,300.2 273.9,297.4 270.7,290.9 267.6,284.4 264.5,278 261.4,271.5 258.2,265 255.1,258.5 			"/>
		</g>
	</g>
	<g>
		<g>
			<defs>
				<rect id="SVGID_00000181065399233536411940000012817746748582704520_" y="0" width="504" height="504"/>
			</defs>
			<clipPath id="SVGID_00000079471293591212765610000009937346979037771415_">
				<use xlink:href="#SVGID_00000181065399233536411940000012817746748582704520_"  style="overflow:visible;"/>
			</clipPath>
			
				<polygon style="clip-path:url(#SVGID_00000079471293591212765610000009937346979037771415_);fill:#FFFFFF;stroke:#FFFFFF;stroke-width:0.17;stroke-miterlimit:10;" points="
				252,252 245,253.6 238,255.2 230.9,256.8 223.9,258.4 216.9,260 209.9,261.6 202.9,263.2 205.1,270.4 208.4,277.2 212.6,283.4 
				217.7,289 223.6,293.6 230.1,297.4 233.3,290.9 236.4,284.4 239.5,278 242.6,271.5 245.8,265 248.9,258.5 			"/>
		</g>
	</g>
	<g>
		<g>
			<defs>
				<rect id="SVGID_00000128478458768594583080000008861545066047077016_" y="0" width="504" height="504"/>
			</defs>
			<clipPath id="SVGID_00000082359119187000247620000004688662963362390463_">
				<use xlink:href="#SVGID_00000128478458768594583080000008861545066047077016_"  style="overflow:visible;"/>
			</clipPath>
			
				<polygon style="clip-path:url(#SVGID_00000082359119187000247620000004688662963362390463_);fill:#FFFFFF;stroke:#FFFFFF;stroke-width:0.17;stroke-miterlimit:10;" points="
				252,252 246.4,247.5 240.7,243 235.1,238.5 229.5,234 223.9,229.6 218.2,225.1 212.6,220.6 208.4,226.8 205.1,233.6 202.9,240.8 
				201.7,248.2 201.7,255.8 202.9,263.2 209.9,261.6 216.9,260 223.9,258.4 230.9,256.8 238,255.2 245,253.6 			"/>
		</g>
	</g>
	<g>
		<g>
			<defs>
				<rect id="SVGID_00000111901026033319541130000017732878633608676270_" y="0" width="504" height="504"/>
			</defs>
			<clipPath id="SVGID_00000004517959033839498870000017247097268304793259_">
				<use xlink:href="#SVGID_00000111901026033319541130000017732878633608676270_"  style="overflow:visible;"/>
			</clipPath>
			
				<polygon style="clip-path:url(#SVGID_00000004517959033839498870000017247097268304793259_);fill:#FFFFFF;stroke:#FFFFFF;stroke-width:0.17;stroke-miterlimit:10;" points="
				252,252 252,244.8 252,237.6 252,230.4 252,223.2 252,216 252,208.8 252,201.6 244.5,202.2 237.1,203.8 230.1,206.6 223.6,210.4 
				217.7,215.1 212.6,220.6 218.2,225.1 223.9,229.6 229.5,234 235.1,238.5 240.7,243 246.4,247.5 			"/>
		</g>
	</g>
	<g>
		<g>
			<defs>
				<rect id="SVGID_00000174562293828950342620000000924104236894060468_" y="0" width="504" height="504"/>
			</defs>
			<clipPath id="SVGID_00000062893324109559104290000002155249721059795355_">
				<use xlink:href="#SVGID_00000174562293828950342620000000924104236894060468_"  style="overflow:visible;"/>
			</clipPath>
			<g style="clip-path:url(#SVGID_00000062893324109559104290000002155249721059795355_);enable-background:new    ;">
				<text transform="matrix(1 0 0 1 259.4839 190.7318)" class="st30 st31">Commelinales</text>
			</g>
		</g>
	</g>
	<g>
		<g>
			<defs>
				<rect id="SVGID_00000016780302499370450340000018365654734929035433_" y="0" width="504" height="504"/>
			</defs>
			<clipPath id="SVGID_00000104670894728228074790000006562602011854162079_">
				<use xlink:href="#SVGID_00000016780302499370450340000018365654734929035433_"  style="overflow:visible;"/>
			</clipPath>
			<g style="clip-path:url(#SVGID_00000104670894728228074790000006562602011854162079_);enable-background:new    ;">
				<text transform="matrix(1 0 0 1 303.0526 246.1889)" class="st30 st31">Commelinales</text>
			</g>
		</g>
	</g>
	<g>
		<g>
			<defs>
				<rect id="SVGID_00000108294175151503587880000013974892342657366404_" y="0" width="504" height="504"/>
			</defs>
			<clipPath id="SVGID_00000102539810198708061340000008526860631702589056_">
				<use xlink:href="#SVGID_00000108294175151503587880000013974892342657366404_"  style="overflow:visible;"/>
			</clipPath>
			<g style="clip-path:url(#SVGID_00000102539810198708061340000008526860631702589056_);enable-background:new    ;">
				<text transform="matrix(1 0 0 1 284.0033 305.9632)" class="st30 st31">Fabales</text>
			</g>
		</g>
	</g>
	<g>
		<g>
			<defs>
				<rect id="SVGID_00000124124610138542222640000015181160338702333335_" y="0" width="504" height="504"/>
			</defs>
			<clipPath id="SVGID_00000111908309316313125920000017662319790832944016_">
				<use xlink:href="#SVGID_00000124124610138542222640000015181160338702333335_"  style="overflow:visible;"/>
			</clipPath>
			<g style="clip-path:url(#SVGID_00000111908309316313125920000017662319790832944016_);enable-background:new    ;">
				<text transform="matrix(1 0 0 1 223.7323 334.23)" class="st30 st31">Poales</text>
			</g>
		</g>
	</g>
	<g>
		<g>
			<defs>
				<rect id="SVGID_00000160910349845804288260000007330654280885350039_" y="0" width="504" height="504"/>
			</defs>
			<clipPath id="SVGID_00000106858919229951199760000017179633481245215659_">
				<use xlink:href="#SVGID_00000160910349845804288260000007330654280885350039_"  style="overflow:visible;"/>
			</clipPath>
			<g style="clip-path:url(#SVGID_00000106858919229951199760000017179633481245215659_);enable-background:new    ;">
				<text transform="matrix(1 0 0 1 164.6223 305.76)" class="st30 st31">Poales</text>
			</g>
		</g>
	</g>
	<g>
		<g>
			<defs>
				<rect id="SVGID_00000021837414894071731130000002552296346405227439_" y="0" width="504" height="504"/>
			</defs>
			<clipPath id="SVGID_00000067940750722087595690000014216968968274202250_">
				<use xlink:href="#SVGID_00000021837414894071731130000002552296346405227439_"  style="overflow:visible;"/>
			</clipPath>
			<g style="clip-path:url(#SVGID_00000067940750722087595690000014216968968274202250_);enable-background:new    ;">
				<text transform="matrix(1 0 0 1 133.4748 249.2853)" class="st30 st31">Fabales</text>
			</g>
		</g>
		<g>
			<defs>
				<rect id="SVGID_00000176041553214771953880000005548944645903531446_" y="0" width="504" height="504"/>
			</defs>
			<clipPath id="SVGID_00000179612606721804679380000001954987794107067039_">
				<use xlink:href="#SVGID_00000176041553214771953880000005548944645903531446_"  style="overflow:visible;"/>
			</clipPath>
			<g style="clip-path:url(#SVGID_00000179612606721804679380000001954987794107067039_);enable-background:new    ;">
				<text transform="matrix(1 0 0 1 65.7221 211.0626)" class="st30 st31">Vigna</text>
			</g>
		</g>
	</g>
	<g>
		<g>
			<defs>
				<rect id="SVGID_00000064329165129380931520000010692385104209241491_" y="0" width="504" height="504"/>
			</defs>
			<clipPath id="SVGID_00000142165873722906903990000012228805785136075961_">
				<use xlink:href="#SVGID_00000064329165129380931520000010692385104209241491_"  style="overflow:visible;"/>
			</clipPath>
			<g style="clip-path:url(#SVGID_00000142165873722906903990000012228805785136075961_);enable-background:new    ;">
				<text transform="matrix(1 0 0 1 171.9638 190.7132)" class="st30 st31">Lamiales</text>
			</g>
		</g>
	</g>
	<g>
		<g>
			<defs>
				<rect id="SVGID_00000065034507828209573880000013822599039024563100_" y="0" width="504" height="504"/>
			</defs>
			<clipPath id="SVGID_00000115507572760079900490000017716615362085966524_">
				<use xlink:href="#SVGID_00000065034507828209573880000013822599039024563100_"  style="overflow:visible;"/>
			</clipPath>
			<g style="clip-path:url(#SVGID_00000115507572760079900490000017716615362085966524_);enable-background:new    ;">
				<text transform="matrix(1 0 0 1 255.4947 145.11)" class="st30 st31">Commelinaceae</text>
			</g>
		</g>
	</g>
	<g>
		<g>
			<defs>
				<rect id="SVGID_00000142160739667907322300000008397123315579206835_" y="0" width="504" height="504"/>
			</defs>
			<clipPath id="SVGID_00000145781162528528176150000010958014658778223792_">
				<use xlink:href="#SVGID_00000142160739667907322300000008397123315579206835_"  style="overflow:visible;"/>
			</clipPath>
			<g style="clip-path:url(#SVGID_00000145781162528528176150000010958014658778223792_);enable-background:new    ;">
				<text transform="matrix(1 0 0 1 308.9641 227.6886)" class="st30 st31">Commelinaceae</text>
			</g>
		</g>
	</g>
	<g>
		<g>
			<defs>
				<rect id="SVGID_00000116954788435671760200000015187332420328662973_" y="0" width="504" height="504"/>
			</defs>
			<clipPath id="SVGID_00000062178790122309847260000015526787097131443619_">
				<use xlink:href="#SVGID_00000116954788435671760200000015187332420328662973_"  style="overflow:visible;"/>
			</clipPath>
			<g style="clip-path:url(#SVGID_00000062178790122309847260000015526787097131443619_);enable-background:new    ;">
				<text transform="matrix(1 0 0 1 309.3905 337.19)" class="st30 st31">Fabaceae</text>
			</g>
		</g>
	</g>
	<g>
		<g>
			<defs>
				<rect id="SVGID_00000036214220465718226040000006032410351154431409_" y="0" width="504" height="504"/>
			</defs>
			<clipPath id="SVGID_00000137132082832801291420000008247914101138090933_">
				<use xlink:href="#SVGID_00000036214220465718226040000006032410351154431409_"  style="overflow:visible;"/>
			</clipPath>
			<g style="clip-path:url(#SVGID_00000137132082832801291420000008247914101138090933_);enable-background:new    ;">
				<text transform="matrix(1 0 0 1 215.503 384.63)" class="st30 st31">Poaceae</text>
			</g>
		</g>
	</g>
	<g>
		<g>
			<defs>
				<rect id="SVGID_00000109018852776594705220000016787984698731689090_" y="0" width="504" height="504"/>
			</defs>
			<clipPath id="SVGID_00000131356303758770525500000004067145452841773480_">
				<use xlink:href="#SVGID_00000109018852776594705220000016787984698731689090_"  style="overflow:visible;"/>
			</clipPath>
			<g style="clip-path:url(#SVGID_00000131356303758770525500000004067145452841773480_);enable-background:new    ;">
				<text transform="matrix(1 0 0 1 132.0508 337.19)" class="st30 st31">Poaceae</text>
			</g>
		</g>
	</g>
	<g>
		<g>
			<defs>
				<rect id="SVGID_00000080174013040750732990000015892445778614058411_" y="0" width="504" height="504"/>
			</defs>
			<clipPath id="SVGID_00000150104873929563129030000009531600933930363571_">
				<use xlink:href="#SVGID_00000080174013040750732990000015892445778614058411_"  style="overflow:visible;"/>
			</clipPath>
			<g style="clip-path:url(#SVGID_00000150104873929563129030000009531600933930363571_);enable-background:new    ;">
				<text transform="matrix(1 0 0 1 88.0405 230.59)" class="st30 st31">Fabaceae</text>
			</g>
		</g>
	</g>
	<g>
		<g>
			<defs>
				<rect id="SVGID_00000062903821028842080510000005107831003679543945_" y="0" width="504" height="504"/>
			</defs>
			<clipPath id="SVGID_00000136381794676028497890000002495503348215186593_">
				<use xlink:href="#SVGID_00000062903821028842080510000005107831003679543945_"  style="overflow:visible;"/>
			</clipPath>
			<g style="clip-path:url(#SVGID_00000136381794676028497890000002495503348215186593_);enable-background:new    ;">
				<text transform="matrix(1 0 0 1 152.1026 145.11)" class="st30 st31">Lamiaceae</text>
			</g>
		</g>
	</g>
	<g>
		<g>
			<defs>
				<rect id="SVGID_00000033359283735243324890000001860976922945278874_" y="0" width="504" height="504"/>
			</defs>
			<clipPath id="SVGID_00000039821432756451974620000000634895584351193008_">
				<use xlink:href="#SVGID_00000033359283735243324890000001860976922945278874_"  style="overflow:visible;"/>
			</clipPath>
			<g style="clip-path:url(#SVGID_00000039821432756451974620000000634895584351193008_);enable-background:new    ;">
				<text transform="matrix(1 0 0 1 354.1495 211.0629)" class="st30 st31">Commelina</text>
			</g>
		</g>
	</g>
	<g>
		<g>
			<defs>
				<rect id="SVGID_00000053541343639304309240000000368655765315829403_" y="0" width="504" height="504"/>
			</defs>
			<clipPath id="SVGID_00000059293444477472111510000008502471895137546635_">
				<use xlink:href="#SVGID_00000053541343639304309240000000368655765315829403_"  style="overflow:visible;"/>
			</clipPath>
			<g style="clip-path:url(#SVGID_00000059293444477472111510000008502471895137546635_);enable-background:new    ;">
				<text transform="matrix(1 0 0 1 221.1728 435.03)" class="st30 st31">Aristida</text>
			</g>
		</g>
	</g>
	<g>
		<g>
			<defs>
				<rect id="SVGID_00000039835452114062710930000013891693649798158237_" y="0" width="504" height="504"/>
			</defs>
			<clipPath id="SVGID_00000111876775696856570240000003672473188171206063_">
				<use xlink:href="#SVGID_00000039835452114062710930000013891693649798158237_"  style="overflow:visible;"/>
			</clipPath>
			<g style="clip-path:url(#SVGID_00000111876775696856570240000003672473188171206063_);enable-background:new    ;">
				<text transform="matrix(1 0 0 1 89.5568 366.5011)" class="st30 st31">Oropetium</text>
			</g>
		</g>
	</g>
</g>
<text transform="matrix(1 0 0 1 222.1924 290)" class="st30 st49">7</text>
<g transform="translate(250, 260)">
</g>
</svg>
