<?xml version="1.0" encoding="utf-8"?>
<!-- Generator: Adobe Illustrator 28.1.0, SVG Export Plug-In . SVG Version: 6.00 Build 0)  -->
<svg version="1.1" id="Layer_1" xmlns="http://www.w3.org/2000/svg" xmlns:xlink="http://www.w3.org/1999/xlink" x="0px" y="0px"
	 viewBox="0 0 504 504" style="enable-background:new 0 0 504 504;" xml:space="preserve">
<style type="text/css">
	.st0{fill:none;}
	
		.st1{clip-path:url(#SVGID_00000080170507546233130170000006276854526004908216_);fill:#620057;stroke:#000000;stroke-width:0.17;stroke-miterlimit:10;}
	
		.st2{clip-path:url(#SVGID_00000080170507546233130170000006276854526004908216_);fill:#7A0058;stroke:#000000;stroke-width:0.17;stroke-miterlimit:10;}
	
		.st3{clip-path:url(#SVGID_00000080170507546233130170000006276854526004908216_);fill:#757184;stroke:#000000;stroke-width:0.17;stroke-miterlimit:10;}
	
		.st4{clip-path:url(#SVGID_00000080170507546233130170000006276854526004908216_);fill:#C54E00;stroke:#000000;stroke-width:0.17;stroke-miterlimit:10;}
	
		.st5{clip-path:url(#SVGID_00000080170507546233130170000006276854526004908216_);fill:#E28500;stroke:#000000;stroke-width:0.17;stroke-miterlimit:10;}
	
		.st6{clip-path:url(#SVGID_00000080170507546233130170000006276854526004908216_);fill:#FFFFFF;stroke:#FFFFFF;stroke-width:0.17;stroke-miterlimit:10;}
	.st7{clip-path:url(#SVGID_00000080170507546233130170000006276854526004908216_);enable-background:new    ;}
	.st8{font-family:'ArialMT';}
	.st9{font-size:18.49px;}
	.st10{font-family:'Arial-BoldMT';}
	.st11{font-size:100px;}
</style>
<rect y="0" class="st0" width="504" height="504"/>
<g>
	<defs>
		<rect id="SVGID_1_" y="0" width="504" height="504"/>
	</defs>
	<clipPath id="SVGID_00000023965773101060418700000005878754485685209778_">
		<use xlink:href="#SVGID_1_"  style="overflow:visible;"/>
	</clipPath>
	
		<polygon style="clip-path:url(#SVGID_00000023965773101060418700000005878754485685209778_);fill:#620057;stroke:#000000;stroke-width:0.17;stroke-miterlimit:10;" points="
		287.6,216.4 292.7,211.3 297.8,206.2 302.9,201.1 308,196 313.1,190.9 318.2,185.8 323.3,180.7 318,175.8 312.4,171.3 306.5,167.2 
		300.3,163.5 293.9,160.3 287.2,157.6 280.4,155.3 273.4,153.5 266.4,152.2 259.2,151.5 252,151.2 252,158.4 252,165.6 252,172.8 
		252,180 252,187.2 252,194.4 252,201.6 259.9,202.2 267.6,204.1 274.9,207.1 281.6,211.2 	"/>
	
		<polygon style="clip-path:url(#SVGID_00000023965773101060418700000005878754485685209778_);fill:#620057;stroke:#000000;stroke-width:0.17;stroke-miterlimit:10;" points="
		302.4,252 309.6,252 316.8,252 324,252 331.2,252 338.4,252 345.6,252 352.8,252 352.5,244.8 351.8,237.6 350.5,230.6 348.7,223.6 
		346.4,216.8 343.7,210.1 340.5,203.7 336.8,197.5 332.7,191.6 328.2,186 323.3,180.7 318.2,185.8 313.1,190.9 308,196 302.9,201.1 
		297.8,206.2 292.7,211.3 287.6,216.4 292.8,222.4 296.9,229.1 299.9,236.4 301.8,244.1 	"/>
	
		<polygon style="clip-path:url(#SVGID_00000023965773101060418700000005878754485685209778_);fill:#7A0058;stroke:#000000;stroke-width:0.17;stroke-miterlimit:10;" points="
		287.6,287.6 292.7,292.7 297.8,297.8 302.9,302.9 308,308 313.1,313.1 318.2,318.2 323.3,323.3 328.2,318 332.7,312.4 336.8,306.5 
		340.5,300.3 343.7,293.9 346.4,287.2 348.7,280.4 350.5,273.4 351.8,266.4 352.5,259.2 352.8,252 345.6,252 338.4,252 331.2,252 
		324,252 316.8,252 309.6,252 302.4,252 301.8,259.9 299.9,267.6 296.9,274.9 292.8,281.6 	"/>
	
		<polygon style="clip-path:url(#SVGID_00000023965773101060418700000005878754485685209778_);fill:#7A0058;stroke:#000000;stroke-width:0.17;stroke-miterlimit:10;" points="
		252,302.4 252,309.6 252,316.8 252,324 252,331.2 252,338.4 252,345.6 252,352.8 259.2,352.5 266.4,351.8 273.4,350.5 280.4,348.7 
		287.2,346.4 293.9,343.7 300.3,340.5 306.5,336.8 312.4,332.7 318,328.2 323.3,323.3 318.2,318.2 313.1,313.1 308,308 302.9,302.9 
		297.8,297.8 292.7,292.7 287.6,287.6 281.6,292.8 274.9,296.9 267.6,299.9 259.9,301.8 	"/>
	
		<polygon style="clip-path:url(#SVGID_00000023965773101060418700000005878754485685209778_);fill:#757184;stroke:#000000;stroke-width:0.17;stroke-miterlimit:10;" points="
		216.4,287.6 211.3,292.7 206.2,297.8 201.1,302.9 196,308 190.9,313.1 185.8,318.2 180.7,323.3 186,328.2 191.6,332.7 197.5,336.8 
		203.7,340.5 210.1,343.7 216.8,346.4 223.6,348.7 230.6,350.5 237.6,351.8 244.8,352.5 252,352.8 252,345.6 252,338.4 252,331.2 
		252,324 252,316.8 252,309.6 252,302.4 244.1,301.8 236.4,299.9 229.1,296.9 222.4,292.8 	"/>
	
		<polygon style="clip-path:url(#SVGID_00000023965773101060418700000005878754485685209778_);fill:#C54E00;stroke:#000000;stroke-width:0.17;stroke-miterlimit:10;" points="
		201.6,252 194.4,252 187.2,252 180,252 172.8,252 165.6,252 158.4,252 151.2,252 151.5,259.2 152.2,266.4 153.5,273.4 155.3,280.4 
		157.6,287.2 160.3,293.9 163.5,300.3 167.2,306.5 171.3,312.4 175.8,318 180.7,323.3 185.8,318.2 190.9,313.1 196,308 201.1,302.9 
		206.2,297.8 211.3,292.7 216.4,287.6 211.2,281.6 207.1,274.9 204.1,267.6 202.2,259.9 	"/>
	
		<polygon style="clip-path:url(#SVGID_00000023965773101060418700000005878754485685209778_);fill:#C54E00;stroke:#000000;stroke-width:0.17;stroke-miterlimit:10;" points="
		216.4,216.4 211.3,211.3 206.2,206.2 201.1,201.1 196,196 190.9,190.9 185.8,185.8 180.7,180.7 175.8,186 171.3,191.6 167.2,197.5 
		163.5,203.7 160.3,210.1 157.6,216.8 155.3,223.6 153.5,230.6 152.2,237.6 151.5,244.8 151.2,252 158.4,252 165.6,252 172.8,252 
		180,252 187.2,252 194.4,252 201.6,252 202.2,244.1 204.1,236.4 207.1,229.1 211.2,222.4 	"/>
	
		<polygon style="clip-path:url(#SVGID_00000023965773101060418700000005878754485685209778_);fill:#E28500;stroke:#000000;stroke-width:0.17;stroke-miterlimit:10;" points="
		252,201.6 252,194.4 252,187.2 252,180 252,172.8 252,165.6 252,158.4 252,151.2 244.8,151.5 237.6,152.2 230.6,153.5 223.6,155.3 
		216.8,157.6 210.1,160.3 203.7,163.5 197.5,167.2 191.6,171.3 186,175.8 180.7,180.7 185.8,185.8 190.9,190.9 196,196 201.1,201.1 
		206.2,206.2 211.3,211.3 216.4,216.4 222.4,211.2 229.1,207.1 236.4,204.1 244.1,202.2 	"/>
	
		<polygon style="clip-path:url(#SVGID_00000023965773101060418700000005878754485685209778_);fill:#620057;stroke:#000000;stroke-width:0.17;stroke-miterlimit:10;" points="
		323.3,180.7 328.4,175.6 333.5,170.5 338.5,165.4 343.6,160.4 348.7,155.3 353.8,150.2 358.9,145.1 353.9,140.3 348.6,135.7 
		343.1,131.3 337.5,127.3 331.6,123.4 325.6,119.9 319.4,116.7 313.1,113.7 306.6,111 300,108.6 293.4,106.6 286.6,104.8 
		279.8,103.4 272.9,102.2 266,101.4 259,101 252,100.8 252,108 252,115.2 252,122.4 252,129.6 252,136.8 252,144 252,151.2 
		259.2,151.5 266.4,152.2 273.4,153.5 280.4,155.3 287.2,157.6 293.9,160.3 300.3,163.5 306.5,167.2 312.4,171.3 318,175.8 	"/>
	
		<polygon style="clip-path:url(#SVGID_00000023965773101060418700000005878754485685209778_);fill:#620057;stroke:#000000;stroke-width:0.17;stroke-miterlimit:10;" points="
		352.8,252 360,252 367.2,252 374.4,252 381.6,252 388.8,252 396,252 403.2,252 403,245 402.6,238.1 401.8,231.1 400.6,224.2 
		399.2,217.4 397.4,210.6 395.4,203.9 393,197.4 390.3,190.9 387.4,184.6 384.1,178.4 380.5,172.4 376.7,166.6 372.7,160.9 
		368.3,155.4 363.7,150.1 358.9,145.1 353.8,150.2 348.7,155.3 343.6,160.4 338.5,165.4 333.5,170.5 328.4,175.6 323.3,180.7 
		328.2,186 332.7,191.6 336.8,197.5 340.5,203.7 343.7,210.1 346.4,216.8 348.7,223.6 350.5,230.6 351.8,237.6 352.5,244.8 	"/>
	
		<polygon style="clip-path:url(#SVGID_00000023965773101060418700000005878754485685209778_);fill:#7A0058;stroke:#000000;stroke-width:0.17;stroke-miterlimit:10;" points="
		323.3,323.3 328.4,328.4 333.5,333.5 338.5,338.5 343.6,343.6 348.7,348.7 353.8,353.8 358.9,358.9 363.7,353.9 368.3,348.6 
		372.7,343.1 376.7,337.5 380.5,331.6 384.1,325.6 387.4,319.4 390.3,313.1 393,306.6 395.4,300 397.4,293.4 399.2,286.6 
		400.6,279.8 401.8,272.9 402.6,266 403,259 403.2,252 396,252 388.8,252 381.6,252 374.4,252 367.2,252 360,252 352.8,252 
		352.5,259.2 351.8,266.4 350.5,273.4 348.7,280.4 346.4,287.2 343.7,293.9 340.5,300.3 336.8,306.5 332.7,312.4 328.2,318 	"/>
	
		<polygon style="clip-path:url(#SVGID_00000023965773101060418700000005878754485685209778_);fill:#7A0058;stroke:#000000;stroke-width:0.17;stroke-miterlimit:10;" points="
		252,352.8 252,360 252,367.2 252,374.4 252,381.6 252,388.8 252,396 252,403.2 259,403 266,402.6 272.9,401.8 279.8,400.6 
		286.6,399.2 293.4,397.4 300,395.4 306.6,393 313.1,390.3 319.4,387.4 325.6,384.1 331.6,380.5 337.5,376.7 343.1,372.7 
		348.6,368.3 353.9,363.7 358.9,358.9 353.8,353.8 348.7,348.7 343.6,343.6 338.5,338.5 333.5,333.5 328.4,328.4 323.3,323.3 
		318,328.2 312.4,332.7 306.5,336.8 300.3,340.5 293.9,343.7 287.2,346.4 280.4,348.7 273.4,350.5 266.4,351.8 259.2,352.5 	"/>
	
		<polygon style="clip-path:url(#SVGID_00000023965773101060418700000005878754485685209778_);fill:#757184;stroke:#000000;stroke-width:0.17;stroke-miterlimit:10;" points="
		180.7,323.3 175.6,328.4 170.5,333.5 165.4,338.5 160.4,343.6 155.3,348.7 150.2,353.8 145.1,358.9 150.1,363.7 155.4,368.3 
		160.9,372.7 166.6,376.7 172.4,380.5 178.4,384.1 184.6,387.4 190.9,390.3 197.4,393 203.9,395.4 210.6,397.4 217.4,399.2 
		224.2,400.6 231.1,401.8 238.1,402.6 245,403 252,403.2 252,396 252,388.8 252,381.6 252,374.4 252,367.2 252,360 252,352.8 
		244.8,352.5 237.6,351.8 230.6,350.5 223.6,348.7 216.8,346.4 210.1,343.7 203.7,340.5 197.5,336.8 191.6,332.7 186,328.2 	"/>
	
		<polygon style="clip-path:url(#SVGID_00000023965773101060418700000005878754485685209778_);fill:#C54E00;stroke:#000000;stroke-width:0.17;stroke-miterlimit:10;" points="
		151.2,252 144,252 136.8,252 129.6,252 122.4,252 115.2,252 108,252 100.8,252 101,259 101.4,266 102.2,272.9 103.4,279.8 
		104.8,286.6 106.6,293.4 108.6,300 111,306.6 113.7,313.1 116.7,319.4 119.9,325.6 123.4,331.6 127.3,337.5 131.3,343.1 
		135.7,348.6 140.3,353.9 145.1,358.9 150.2,353.8 155.3,348.7 160.4,343.6 165.4,338.5 170.5,333.5 175.6,328.4 180.7,323.3 
		175.8,318 171.3,312.4 167.2,306.5 163.5,300.3 160.3,293.9 157.6,287.2 155.3,280.4 153.5,273.4 152.2,266.4 151.5,259.2 	"/>
	
		<polygon style="clip-path:url(#SVGID_00000023965773101060418700000005878754485685209778_);fill:#C54E00;stroke:#000000;stroke-width:0.17;stroke-miterlimit:10;" points="
		180.7,180.7 175.6,175.6 170.5,170.5 165.4,165.4 160.4,160.4 155.3,155.3 150.2,150.2 145.1,145.1 140.3,150.1 135.7,155.4 
		131.3,160.9 127.3,166.6 123.4,172.4 119.9,178.4 116.7,184.6 113.7,190.9 111,197.4 108.6,203.9 106.6,210.6 104.8,217.4 
		103.4,224.2 102.2,231.1 101.4,238.1 101,245 100.8,252 108,252 115.2,252 122.4,252 129.6,252 136.8,252 144,252 151.2,252 
		151.5,244.8 152.2,237.6 153.5,230.6 155.3,223.6 157.6,216.8 160.3,210.1 163.5,203.7 167.2,197.5 171.3,191.6 175.8,186 	"/>
	
		<polygon style="clip-path:url(#SVGID_00000023965773101060418700000005878754485685209778_);fill:#E28500;stroke:#000000;stroke-width:0.17;stroke-miterlimit:10;" points="
		252,151.2 252,144 252,136.8 252,129.6 252,122.4 252,115.2 252,108 252,100.8 245,101 238.1,101.4 231.1,102.2 224.2,103.4 
		217.4,104.8 210.6,106.6 203.9,108.6 197.4,111 190.9,113.7 184.6,116.7 178.4,119.9 172.4,123.4 166.6,127.3 160.9,131.3 
		155.4,135.7 150.1,140.3 145.1,145.1 150.2,150.2 155.3,155.3 160.4,160.4 165.4,165.4 170.5,170.5 175.6,175.6 180.7,180.7 
		186,175.8 191.6,171.3 197.5,167.2 203.7,163.5 210.1,160.3 216.8,157.6 223.6,155.3 230.6,153.5 237.6,152.2 244.8,151.5 	"/>
	
		<polygon style="clip-path:url(#SVGID_00000023965773101060418700000005878754485685209778_);fill:#620057;stroke:#000000;stroke-width:0.17;stroke-miterlimit:10;" points="
		358.9,145.1 364,140 369.1,134.9 374.2,129.8 379.3,124.7 384.4,119.6 389.5,114.5 394.5,109.4 389.6,104.7 384.5,100.1 
		379.2,95.6 373.8,91.4 368.3,87.3 362.6,83.4 356.8,79.8 350.8,76.3 344.8,73 338.6,69.9 332.3,67.1 326,64.5 319.5,62 313,59.8 
		306.4,57.9 299.7,56.1 293,54.6 286.2,53.3 279.5,52.3 272.6,51.5 265.8,50.9 258.9,50.5 252,50.4 252,57.6 252,64.8 252,72 
		252,79.2 252,86.4 252,93.6 252,100.8 259,101 266,101.4 272.9,102.2 279.8,103.4 286.6,104.8 293.4,106.6 300,108.6 306.6,111 
		313.1,113.7 319.4,116.7 325.6,119.9 331.6,123.4 337.5,127.3 343.1,131.3 348.6,135.7 353.9,140.3 	"/>
	
		<polygon style="clip-path:url(#SVGID_00000023965773101060418700000005878754485685209778_);fill:#620057;stroke:#000000;stroke-width:0.17;stroke-miterlimit:10;" points="
		403.2,252 410.4,252 417.6,252 424.8,252 432,252 439.2,252 446.4,252 453.6,252 453.5,245.1 453.1,238.2 452.5,231.4 451.7,224.6 
		450.7,217.8 449.4,211 447.9,204.3 446.1,197.6 444.1,191 442,184.5 439.5,178 436.9,171.7 434.1,165.4 431,159.2 427.7,153.2 
		424.2,147.2 420.6,141.4 416.7,135.7 412.6,130.2 408.4,124.8 404,119.5 399.3,114.4 394.5,109.4 389.5,114.5 384.4,119.6 
		379.3,124.7 374.2,129.8 369.1,134.9 364,140 358.9,145.1 363.7,150.1 368.3,155.4 372.7,160.9 376.7,166.6 380.5,172.4 
		384.1,178.4 387.4,184.6 390.3,190.9 393,197.4 395.4,203.9 397.4,210.6 399.2,217.4 400.6,224.2 401.8,231.1 402.6,238.1 403,245 
			"/>
	
		<polygon style="clip-path:url(#SVGID_00000023965773101060418700000005878754485685209778_);fill:#7A0058;stroke:#000000;stroke-width:0.17;stroke-miterlimit:10;" points="
		358.9,358.9 364,364 369.1,369.1 374.2,374.2 379.3,379.3 384.4,384.4 389.5,389.5 394.5,394.5 399.3,389.6 404,384.5 408.4,379.2 
		412.6,373.8 416.7,368.3 420.6,362.6 424.2,356.8 427.7,350.8 431,344.8 434.1,338.6 436.9,332.3 439.5,326 442,319.5 444.1,313 
		446.1,306.4 447.9,299.7 449.4,293 450.7,286.2 451.7,279.5 452.5,272.6 453.1,265.8 453.5,258.9 453.6,252 446.4,252 439.2,252 
		432,252 424.8,252 417.6,252 410.4,252 403.2,252 403,259 402.6,266 401.8,272.9 400.6,279.8 399.2,286.6 397.4,293.4 395.4,300 
		393,306.6 390.3,313.1 387.4,319.4 384.1,325.6 380.5,331.6 376.7,337.5 372.7,343.1 368.3,348.6 363.7,353.9 	"/>
	
		<polygon style="clip-path:url(#SVGID_00000023965773101060418700000005878754485685209778_);fill:#7A0058;stroke:#000000;stroke-width:0.17;stroke-miterlimit:10;" points="
		252,403.2 252,410.4 252,417.6 252,424.8 252,432 252,439.2 252,446.4 252,453.6 258.9,453.5 265.8,453.1 272.6,452.5 279.5,451.7 
		286.2,450.7 293,449.4 299.7,447.9 306.4,446.1 313,444.1 319.5,442 326,439.5 332.3,436.9 338.6,434.1 344.8,431 350.8,427.7 
		356.8,424.2 362.6,420.6 368.3,416.7 373.8,412.6 379.2,408.4 384.5,404 389.6,399.3 394.5,394.5 389.5,389.5 384.4,384.4 
		379.3,379.3 374.2,374.2 369.1,369.1 364,364 358.9,358.9 353.9,363.7 348.6,368.3 343.1,372.7 337.5,376.7 331.6,380.5 
		325.6,384.1 319.4,387.4 313.1,390.3 306.6,393 300,395.4 293.4,397.4 286.6,399.2 279.8,400.6 272.9,401.8 266,402.6 259,403 	"/>
	
		<polygon style="clip-path:url(#SVGID_00000023965773101060418700000005878754485685209778_);fill:#757184;stroke:#000000;stroke-width:0.17;stroke-miterlimit:10;" points="
		145.1,358.9 140,364 134.9,369.1 129.8,374.2 124.7,379.3 119.6,384.4 114.5,389.5 109.4,394.5 114.4,399.3 119.5,404 124.8,408.4 
		130.2,412.6 135.7,416.7 141.4,420.6 147.2,424.2 153.2,427.7 159.2,431 165.4,434.1 171.7,436.9 178,439.5 184.5,442 191,444.1 
		197.6,446.1 204.3,447.9 211,449.4 217.8,450.7 224.6,451.7 231.4,452.5 238.2,453.1 245.1,453.5 252,453.6 252,446.4 252,439.2 
		252,432 252,424.8 252,417.6 252,410.4 252,403.2 245,403 238.1,402.6 231.1,401.8 224.2,400.6 217.4,399.2 210.6,397.4 
		203.9,395.4 197.4,393 190.9,390.3 184.6,387.4 178.4,384.1 172.4,380.5 166.6,376.7 160.9,372.7 155.4,368.3 150.1,363.7 	"/>
	
		<polygon style="clip-path:url(#SVGID_00000023965773101060418700000005878754485685209778_);fill:#C54E00;stroke:#000000;stroke-width:0.17;stroke-miterlimit:10;" points="
		100.8,252 93.6,252 86.4,252 79.2,252 72,252 64.8,252 57.6,252 50.4,252 50.5,258.9 50.9,265.8 51.5,272.6 52.3,279.5 53.3,286.2 
		54.6,293 56.1,299.7 57.9,306.4 59.8,313 62,319.5 64.5,326 67.1,332.3 69.9,338.6 73,344.8 76.3,350.8 79.8,356.8 83.4,362.6 
		87.3,368.3 91.4,373.8 95.6,379.2 100.1,384.5 104.7,389.6 109.4,394.5 114.5,389.5 119.6,384.4 124.7,379.3 129.8,374.2 
		134.9,369.1 140,364 145.1,358.9 140.3,353.9 135.7,348.6 131.3,343.1 127.3,337.5 123.4,331.6 119.9,325.6 116.7,319.4 
		113.7,313.1 111,306.6 108.6,300 106.6,293.4 104.8,286.6 103.4,279.8 102.2,272.9 101.4,266 101,259 	"/>
	
		<polygon style="clip-path:url(#SVGID_00000023965773101060418700000005878754485685209778_);fill:#C54E00;stroke:#000000;stroke-width:0.17;stroke-miterlimit:10;" points="
		145.1,145.1 140,140 134.9,134.9 129.8,129.8 124.7,124.7 119.6,119.6 114.5,114.5 109.4,109.4 104.7,114.4 100.1,119.5 
		95.6,124.8 91.4,130.2 87.3,135.7 83.4,141.4 79.8,147.2 76.3,153.2 73,159.2 69.9,165.4 67.1,171.7 64.5,178 62,184.5 59.8,191 
		57.9,197.6 56.1,204.3 54.6,211 53.3,217.8 52.3,224.6 51.5,231.4 50.9,238.2 50.5,245.1 50.4,252 57.6,252 64.8,252 72,252 
		79.2,252 86.4,252 93.6,252 100.8,252 101,245 101.4,238.1 102.2,231.1 103.4,224.2 104.8,217.4 106.6,210.6 108.6,203.9 
		111,197.4 113.7,190.9 116.7,184.6 119.9,178.4 123.4,172.4 127.3,166.6 131.3,160.9 135.7,155.4 140.3,150.1 	"/>
	
		<polygon style="clip-path:url(#SVGID_00000023965773101060418700000005878754485685209778_);fill:#E28500;stroke:#000000;stroke-width:0.17;stroke-miterlimit:10;" points="
		252,100.8 252,93.6 252,86.4 252,79.2 252,72 252,64.8 252,57.6 252,50.4 245.1,50.5 238.2,50.9 231.4,51.5 224.6,52.3 217.8,53.3 
		211,54.6 204.3,56.1 197.6,57.9 191,59.8 184.5,62 178,64.5 171.7,67.1 165.4,69.9 159.2,73 153.2,76.3 147.2,79.8 141.4,83.4 
		135.7,87.3 130.2,91.4 124.8,95.6 119.5,100.1 114.4,104.7 109.4,109.4 114.5,114.5 119.6,119.6 124.7,124.7 129.8,129.8 
		134.9,134.9 140,140 145.1,145.1 150.1,140.3 155.4,135.7 160.9,131.3 166.6,127.3 172.4,123.4 178.4,119.9 184.6,116.7 
		190.9,113.7 197.4,111 203.9,108.6 210.6,106.6 217.4,104.8 224.2,103.4 231.1,102.2 238.1,101.4 245,101 	"/>
	
		<polygon style="clip-path:url(#SVGID_00000023965773101060418700000005878754485685209778_);fill:#FFFFFF;stroke:#FFFFFF;stroke-width:0.17;stroke-miterlimit:10;" points="
		252,252 257.1,246.9 262.2,241.8 267.3,236.7 272.4,231.6 277.5,226.5 282.5,221.4 287.6,216.4 281.6,211.2 274.9,207.1 
		267.6,204.1 259.9,202.2 252,201.6 252,208.8 252,216 252,223.2 252,230.4 252,237.6 252,244.8 	"/>
	
		<polygon style="clip-path:url(#SVGID_00000023965773101060418700000005878754485685209778_);fill:#FFFFFF;stroke:#FFFFFF;stroke-width:0.17;stroke-miterlimit:10;" points="
		252,252 259.2,252 266.4,252 273.6,252 280.8,252 288,252 295.2,252 302.4,252 301.8,244.1 299.9,236.4 296.9,229.1 292.8,222.4 
		287.6,216.4 282.5,221.4 277.5,226.5 272.4,231.6 267.3,236.7 262.2,241.8 257.1,246.9 	"/>
	
		<polygon style="clip-path:url(#SVGID_00000023965773101060418700000005878754485685209778_);fill:#FFFFFF;stroke:#FFFFFF;stroke-width:0.17;stroke-miterlimit:10;" points="
		252,252 257.1,257.1 262.2,262.2 267.3,267.3 272.4,272.4 277.5,277.5 282.5,282.5 287.6,287.6 292.8,281.6 296.9,274.9 
		299.9,267.6 301.8,259.9 302.4,252 295.2,252 288,252 280.8,252 273.6,252 266.4,252 259.2,252 	"/>
	
		<polygon style="clip-path:url(#SVGID_00000023965773101060418700000005878754485685209778_);fill:#FFFFFF;stroke:#FFFFFF;stroke-width:0.17;stroke-miterlimit:10;" points="
		252,252 252,259.2 252,266.4 252,273.6 252,280.8 252,288 252,295.2 252,302.4 259.9,301.8 267.6,299.9 274.9,296.9 281.6,292.8 
		287.6,287.6 282.5,282.5 277.5,277.5 272.4,272.4 267.3,267.3 262.2,262.2 257.1,257.1 	"/>
	
		<polygon style="clip-path:url(#SVGID_00000023965773101060418700000005878754485685209778_);fill:#FFFFFF;stroke:#FFFFFF;stroke-width:0.17;stroke-miterlimit:10;" points="
		252,252 246.9,257.1 241.8,262.2 236.7,267.3 231.6,272.4 226.5,277.5 221.4,282.5 216.4,287.6 222.4,292.8 229.1,296.9 
		236.4,299.9 244.1,301.8 252,302.4 252,295.2 252,288 252,280.8 252,273.6 252,266.4 252,259.2 	"/>
	
		<polygon style="clip-path:url(#SVGID_00000023965773101060418700000005878754485685209778_);fill:#FFFFFF;stroke:#FFFFFF;stroke-width:0.17;stroke-miterlimit:10;" points="
		252,252 244.8,252 237.6,252 230.4,252 223.2,252 216,252 208.8,252 201.6,252 202.2,259.9 204.1,267.6 207.1,274.9 211.2,281.6 
		216.4,287.6 221.4,282.5 226.5,277.5 231.6,272.4 236.7,267.3 241.8,262.2 246.9,257.1 	"/>
	
		<polygon style="clip-path:url(#SVGID_00000023965773101060418700000005878754485685209778_);fill:#FFFFFF;stroke:#FFFFFF;stroke-width:0.17;stroke-miterlimit:10;" points="
		252,252 246.9,246.9 241.8,241.8 236.7,236.7 231.6,231.6 226.5,226.5 221.4,221.4 216.4,216.4 211.2,222.4 207.1,229.1 
		204.1,236.4 202.2,244.1 201.6,252 208.8,252 216,252 223.2,252 230.4,252 237.6,252 244.8,252 	"/>
	
		<polygon style="clip-path:url(#SVGID_00000023965773101060418700000005878754485685209778_);fill:#FFFFFF;stroke:#FFFFFF;stroke-width:0.17;stroke-miterlimit:10;" points="
		252,252 252,244.8 252,237.6 252,230.4 252,223.2 252,216 252,208.8 252,201.6 244.1,202.2 236.4,204.1 229.1,207.1 222.4,211.2 
		216.4,216.4 221.4,221.4 226.5,226.5 231.6,231.6 236.7,236.7 241.8,241.8 246.9,246.9 	"/>
	<g style="clip-path:url(#SVGID_00000023965773101060418700000005878754485685209778_);enable-background:new    ;">
		<text transform="matrix(1 0 0 1 256.0772 176.7156)" class="st8 st9">Asterales</text>
	</g>
	<g style="clip-path:url(#SVGID_00000023965773101060418700000005878754485685209778_);enable-background:new    ;">
		<text transform="matrix(1 0 0 1 303.8019 232.6063)" class="st8 st9">Asterales</text>
	</g>
	<g style="clip-path:url(#SVGID_00000023965773101060418700000005878754485685209778_);enable-background:new    ;">
		<text transform="matrix(1 0 0 1 299.4288 287.7634)" class="st8 st9">Caryophyllales</text>
	</g>
	<g style="clip-path:url(#SVGID_00000023965773101060418700000005878754485685209778_);enable-background:new    ;">
		<text transform="matrix(1 0 0 1 230.9141 342.3)" class="st8 st9">Caryophyllales</text>
	</g>
	<g style="clip-path:url(#SVGID_00000023965773101060418700000005878754485685209778_);enable-background:new    ;">
		<text transform="matrix(1 0 0 1 185.9517 323.5611)" class="st8 st9">Piperales</text>
	</g>
	<g style="clip-path:url(#SVGID_00000023965773101060418700000005878754485685209778_);enable-background:new    ;">
		<text transform="matrix(1 0 0 1 153.8823 287.56)" class="st8 st9">Poales</text>
	</g>
	<g style="clip-path:url(#SVGID_00000023965773101060418700000005878754485685209778_);enable-background:new    ;">
		<text transform="matrix(1 0 0 1 148.27 229.9033)" class="st8 st9">Poales</text>
	</g>
	<g style="clip-path:url(#SVGID_00000023965773101060418700000005878754485685209778_);enable-background:new    ;">
		<text transform="matrix(1 0 0 1 182.7599 188.78)" class="st8 st9">Rosales</text>
	</g>
	<g style="clip-path:url(#SVGID_00000023965773101060418700000005878754485685209778_);enable-background:new    ;">
		<text transform="matrix(1 0 0 1 253.4533 142.22)" class="st8 st9">Asteraceae</text>
	</g>
	<g style="clip-path:url(#SVGID_00000023965773101060418700000005878754485685209778_);enable-background:new    ;">
		<text transform="matrix(1 0 0 1 321.6433 210.41)" class="st8 st9">Asteraceae</text>
	</g>
	<g style="clip-path:url(#SVGID_00000023965773101060418700000005878754485685209778_);enable-background:new    ;">
		<text transform="matrix(1 0 0 1 309.9388 307.0534)" class="st8 st9">Caryophyllaceae</text>
	</g>
	<g style="clip-path:url(#SVGID_00000023965773101060418700000005878754485685209778_);enable-background:new    ;">
		<text transform="matrix(1 0 0 1 235.6962 365.4431)" class="st8 st9">Caryophyllaceae</text>
	</g>
	<g style="clip-path:url(#SVGID_00000023965773101060418700000005878754485685209778_);enable-background:new    ;">
		<text transform="matrix(1 0 0 1 158.4326 378.7195)" class="st8 st9">Piperaceae</text>
	</g>
	<g style="clip-path:url(#SVGID_00000023965773101060418700000005878754485685209778_);enable-background:new    ;">
		<text transform="matrix(1 0 0 1 99.093 306.85)" class="st8 st9">Poaceae</text>
	</g>
	<g style="clip-path:url(#SVGID_00000023965773101060418700000005878754485685209778_);enable-background:new    ;">
		<text transform="matrix(1 0 0 1 100.5171 206.2222)" class="st8 st9">Poaceae</text>
	</g>
	<g style="clip-path:url(#SVGID_00000023965773101060418700000005878754485685209778_);enable-background:new    ;">
		<text transform="matrix(1 0 0 1 162.6695 142.22)" class="st8 st9">Moraceae</text>
	</g>
	<g style="clip-path:url(#SVGID_00000023965773101060418700000005878754485685209778_);enable-background:new    ;">
		<text transform="matrix(1 0 0 1 361.314 191.12)" class="st8 st9">Xanthium</text>
	</g>
	<g style="clip-path:url(#SVGID_00000023965773101060418700000005878754485685209778_);enable-background:new    ;">
		<text transform="matrix(1 0 0 1 276.0628 421.6)" class="st8 st9">Drymaria</text>
	</g>
	<g style="clip-path:url(#SVGID_00000023965773101060418700000005878754485685209778_);enable-background:new    ;">
		<text transform="matrix(1 0 0 1 139.7818 421.6)" class="st8 st9">Peperomia</text>
	</g>
	<g style="clip-path:url(#SVGID_00000023965773101060418700000005878754485685209778_);enable-background:new    ;">
		<text transform="matrix(1 0 0 1 67.2357 186.1278)" class="st8 st9">Saccharum</text>
	</g>
</g>
<text transform="matrix(1 0 0 1 222.1924 290)" class="st10 st11">8</text>
<g transform="translate(250, 260)">
</g>
</svg>
